<?xml version="1.0" encoding="utf-8"?>
<!-- Generator: Adobe Illustrator 24.0.3, SVG Export Plug-In . SVG Version: 6.00 Build 0)  -->
<svg version="1.1" id="Layer_1" xmlns="http://www.w3.org/2000/svg" xmlns:xlink="http://www.w3.org/1999/xlink" x="0px" y="0px"
	 viewBox="0 0 847 666.1" style="enable-background:new 0 0 847 666.1;" xml:space="preserve">
<style type="text/css">
	.st0{fill:none;stroke:#000000;stroke-miterlimit:10;}
	.st1{fill:#5BD660;}
	.st2{fill:#ADADAD;}
	.st3{fill:#B32323;}
	.st4{fill:none;stroke:#CCCCCC;}
	.st5{font-family:'PingFangSC-Light-GBpc-EUC-H';}
	.st6{font-size:10px;}
	.st7{font-family:'PingFangSC-Regular-GBpc-EUC-H';}
	.st8{font-size:18px;}
	.st9{font-family:'PingFangSC-Semibold-GBpc-EUC-H';}
	.st10{fill:none;stroke:#FFFFFF;stroke-width:2;stroke-miterlimit:10;}
	.st11{fill:none;stroke:#FFFFFF;stroke-width:2;stroke-miterlimit:10;stroke-dasharray:12.0722,12.0722;}
	.st12{fill:#FFFFFF;}
	.st13{font-size:8px;}
	.st14{font-family:'PingFangSC-Thin-GBpc-EUC-H';}
	.st15{font-size:15px;}
</style>
<line class="st0" x1="500" y1="108.4" x2="500" y2="569.8"/>
<line class="st0" x1="86.3" y1="108.4" x2="86.3" y2="569.8"/>
<line class="st0" x1="433.6" y1="108" x2="433.6" y2="569.4"/>
<g>
	<path class="st1" d="M0,327.8l2,0c2,0,6.1-0.1,10.1-0.2s8.1-0.2,12.1-0.7s8.1-1.4,12.1-1.9s8.1-0.7,12.1-1.8s8.1-3.2,12.1-3.8
		s8.1,0.5,12.1,1s8.1,0.6,12.1-0.3c4-0.9,8.1-2.9,12.1-5.4s8.1-5.6,12.1-7.6c4-2,8.1-2.9,12.1-0.8s8.1,7.2,12.1,10.3
		c4,3.2,8.1,4.4,12.1,4.7c4,0.3,8.1-0.3,12.1-0.9c4-0.6,8.1-1.2,12.1-1.3c4,0,8.1,0.5,12.1,0.9s8.1,0.7,12.1,0
		c4-0.8,8.1-2.6,12.1-2.1c4,0.5,8.1,3.4,12.1,4.9c4,1.5,8.1,1.6,12.1,0c4-1.6,8.1-4.9,12.1-5.8s8.1,0.7,12.1,2.4
		c4,1.7,8.1,3.4,12.1,4c4,0.5,8.1-0.1,12.1-0.3c4-0.2,8.1,0.1,12.1,0.4c4,0.3,8.1,0.6,12.1,0.6s8.1-0.4,12.1-0.6s8.1-0.2,12.1-0.3
		c4-0.1,8.1-0.2,12.1-0.1c4,0.1,8.1,0.3,12.1,0.2c4-0.2,8.1-0.8,12.1-2.5s8.1-4.6,12.1-5s8.1,1.7,14.1,0.6c6-1,14.1-5.2,20.2-8.8
		s10.1-6.7,14.1-9.2s8.1-4.5,12.1-9s8.1-11.7,12.1-26.6c4-14.9,8.1-37.5,12.1-67.7c4-30.2,8.1-68,12.1-62.1
		c4,5.8,8.1,55.3,12.1,91.2s8.1,58.3,12.1,54c4-4.4,8.1-35.4,12.1-44.3c4-8.8,8.1,4.6,12.1,21.2c4,16.6,8.1,36.4,12.1,44.8
		c4,8.4,8.1,5.5,12.1,5.6c4,0.1,8.1,3.3,12.1,3.1c4-0.2,8.1-3.6,12.1-4.2s8.1,1.8,12.1,3c4,1.2,8.1,1.2,12.1,2.2
		c4,1.1,8.1,3.2,12.1,3.4c4,0.2,8.1-1.4,12.1-2.4c4-1,8.1-1.2,12.1-0.6s8.1,2.2,12.1,3.7c4,1.5,8.1,2.9,12.1,3.4
		c4,0.5,8.1,0,12.1-1.3c4-1.3,8.1-3.3,12.1-2.9c4,0.4,8.1,3.4,12.1,5s8.1,2.1,12.1,1.8c4-0.3,8.1-1.3,12.1-3c4-1.8,8.1-4.3,12.1-4.6
		s8.1,1.4,12.1,3c4,1.6,8.1,3,12.1,3.7c4,0.7,8.1,0.7,12.1,0.5c4-0.3,8.1-0.8,12.1-1.8c4-0.9,8.1-2.2,12.1-2.5s8.1,0.3,12.1,0.4
		c4,0.2,8.1-0.1,12.1,0.3c4,0.4,8.1,1.5,12.1-0.6c4-2.1,8.1-7.4,12.1-8.5c4-1,8.1,2.3,10.1,4l2,1.7v8.2l-2-1.2
		c-2-1.2-6-3.6-10.1-2.9c-4,0.7-8.1,4.6-12.1,6.9c-4,2.2-8.1,2.8-12.1,2.5s-8.1-1.2-12.1-1.2c-4,0.1-8.1,1.3-12.1,1.4
		c-4,0.2-8.1-0.7-12.1-0.8c-4-0.1-8.1,0.7-12.1,1c-4,0.3-8.1,0.3-12.1-0.4c-4-0.7-8.1-2-12.1-2.1c-4-0.1-8.1,1-12.1,1.4
		c-4,0.4-8.1,0-12.1-0.2c-4-0.1-8.1,0-12.1-0.3s-8.1-1-12.1-2.1c-4-1.1-8.1-2.6-12.1-3.2c-4-0.6-8.1-0.4-12.1,0.6
		c-4,1-8.1,2.7-12.1,3.6c-4,0.9-8.1,0.9-12.1,0.4c-4-0.5-8.1-1.4-12.1-1.4c-4,0-8.1,0.9-12.1,1.4c-4,0.5-8.1,0.7-12.1-0.2
		c-4-0.9-8.1-2.8-12.1-3.7c-4-0.8-8.1-0.6-12.1-0.9s-8.1-1.2-12.1-0.8s-8.1,1.9-12.1,2.2c-4,0.2-8.1-0.9-12.1-1.1s-8.1,0.6-12.1-1.7
		c-4-2.3-8.1-7.7-12.1-10.9c-4-3.2-8.1-4.2-12.1-2.8c-4,1.4-8.1,5.2-12.1,2.5S488,295,484,280.1s-8.1-35.3-12.1-34.5
		s-8.1,22.8-12.1,34.9c-4,12.2-8.1,14.5-12.1,17.1c-4,2.6-8.1,5.4-12.1,7.4c-4,2-8.1,3-12.1,3.9c-4,0.9-8.1,1.6-14.1,4
		s-14.1,6.3-20.2,7.4c-6.1,1.1-10.1-0.7-14.1-0.4s-8.1,3-12.1,4.4s-8.1,1.6-12.1,1.6c-4,0-8.1-0.1-12.1-0.1c-4,0-8.1,0-12.1,0
		c-4,0.1-8.1,0.1-12.1,0.2s-8.1,0.2-12.1,0.3c-4,0.1-8.1,0.1-12.1,0.2c-4,0.1-8.1,0.1-12.1,0.1c-4-0.1-8.1-0.3-12.1-0.8
		c-4-0.5-8.1-1.1-12.1-1.8c-4-0.6-8.1-1.2-12.1-0.8s-8.1,1.7-12.1,2.2c-4,0.6-8.1,0.4-12.1,0.5c-4,0.1-8.1,0.6-12.1,0.2
		c-4-0.4-8.1-1.6-12.1-2.1c-4-0.5-8.1-0.4-12.1-0.3s-8.1,0.3-12.1,0.4c-4,0.1-8.1,0.2-12.1,0.2c-4,0-8.1-0.1-12.1-0.1
		c-4,0-8.1,0.1-12.1,0.4c-4,0.3-8.1,0.7-12.1,0.6s-8.1-0.7-12.1-1.1s-8.1-0.7-12.1-0.7c-4,0-8.1,0.2-12.1,0.1c-4,0-8.1-0.4-12.1-1.1
		s-8.1-2-12.1-1.4c-4,0.6-8.1,3-12.1,4.4c-4,1.3-8.1,1.6-12.1,1.8c-4,0.2-8.1,0.2-12.1,0.2s-8.1,0.1-12.1,0.2S4,327.8,2,327.8
		L0,327.8L0,327.8z"/>
	<path class="st2" d="M0,327.8l2,0c2,0,6.1-0.1,10.1-0.1s8.1-0.1,12.1-0.2s8.1-0.1,12.1-0.2c4-0.2,8.1-0.4,12.1-1.8
		c4-1.3,8.1-3.8,12.1-4.4c4-0.6,8.1,0.6,12.1,1.4s8.1,1.1,12.1,1.1c4,0,8.1-0.2,12.1-0.1c4,0,8.1,0.3,12.1,0.7s8.1,1,12.1,1.1
		s8.1-0.4,12.1-0.6c4-0.3,8.1-0.4,12.1-0.4c4,0,8.1,0.1,12.1,0.1c4,0,8.1-0.1,12.1-0.2c4-0.1,8.1-0.3,12.1-0.4s8.1-0.3,12.1,0.3
		c4,0.5,8.1,1.7,12.1,2.1c4,0.4,8.1-0.1,12.1-0.2c4-0.1,8.1,0.1,12.1-0.5c4-0.6,8.1-1.9,12.1-2.2s8.1,0.2,12.1,0.8
		c4,0.6,8.1,1.3,12.1,1.8c4,0.5,8.1,0.7,12.1,0.8c4,0.1,8.1,0,12.1-0.1c4-0.1,8.1-0.1,12.1-0.2c4-0.1,8.1-0.2,12.1-0.3
		s8.1-0.2,12.1-0.2c4-0.1,8.1-0.1,12.1,0c4,0,8.1,0.2,12.1,0.1c4,0,8.1-0.2,12.1-1.6s8.1-4,12.1-4.4s8.1,1.4,14.1,0.4
		c6-1.1,14.1-5.1,20.2-7.4s10.1-3.1,14.1-4c4-0.9,8.1-2,12.1-3.9c4-2,8.1-4.8,12.1-7.4c4-2.6,8.1-4.9,12.1-17.1
		c4-12.2,8.1-34.2,12.1-34.9s8.1,19.7,12.1,34.5s8.1,24,12.1,26.7s8.1-1.1,12.1-2.5c4-1.4,8.1-0.4,12.1,2.8c4,3.2,8.1,8.6,12.1,10.9
		c4,2.3,8.1,1.5,12.1,1.7s8.1,1.3,12.1,1.1c4-0.2,8.1-1.8,12.1-2.2s8.1,0.5,12.1,0.8s8.1,0,12.1,0.9c4,0.8,8.1,2.8,12.1,3.7
		c4,0.9,8.1,0.7,12.1,0.2c4-0.5,8.1-1.4,12.1-1.4c4,0,8.1,1,12.1,1.4c4,0.5,8.1,0.4,12.1-0.4c4-0.9,8.1-2.6,12.1-3.6
		c4-1,8.1-1.2,12.1-0.6c4,0.6,8.1,2.1,12.1,3.2c4,1.1,8.1,1.8,12.1,2.1s8.1,0.2,12.1,0.3c4,0.1,8.1,0.5,12.1,0.2
		c4-0.4,8.1-1.5,12.1-1.4c4,0.1,8.1,1.4,12.1,2.1c4,0.7,8.1,0.7,12.1,0.4c4-0.3,8.1-1.1,12.1-1c4,0.1,8.1,0.9,12.1,0.8
		c4-0.2,8.1-1.3,12.1-1.4c4-0.1,8.1,0.9,12.1,1.2s8.1-0.3,12.1-2.5c4-2.2,8.1-6.1,12.1-6.9c4-0.7,8.1,1.7,10.1,2.9l2,1.2v3.7l-2-1.4
		c-2-1.4-6-4.2-10.1-3.4c-4,0.8-8.1,5.1-12.1,7.4c-4,2.3-8.1,2.7-12.1,2.6c-4-0.1-8.1-0.7-12.1-0.6c-4,0.1-8.1,0.9-12.1,1.1
		c-4,0.2-8.1-0.3-12.1-0.5c-4-0.1-8.1,0.1-12.1,0.1c-4,0-8.1-0.3-12.1-1s-8.1-2-12.1-1.7c-4,0.3-8.1,2.2-12.1,3s-8.1,0.4-12.1-0.1
		c-4-0.4-8.1-0.9-12.1-1.5c-4-0.7-8.1-1.5-12.1-1.7s-8.1,0.2-12.1,0.9c-4,0.6-8.1,1.5-12.1,1.6s-8.1-0.5-12.1-0.7
		c-4-0.2-8.1-0.1-12.1-0.2s-8.1-0.3-12.1,0c-4,0.2-8.1,0.9-12.1,1c-4,0.1-8.1-0.5-12.1-1.2s-8.1-1.4-12.1-2c-4-0.6-8.1-1-12.1-0.5
		c-4,0.4-8.1,1.7-12.1,1.9c-4,0.2-8.1-0.7-12.1-0.9c-4-0.1-8.1,0.6-12.1,0.6c-4,0.1-8.1-0.5-12.1-1c-4-0.4-8.1-0.8-12.1-0.6
		s-8.1,0.8-12.1-0.2c-4-1-8.1-3.6-12.1-6.5c-4-3-8.1-6.3-12.1-14.2s-8.1-20.3-12.1-19.4c-4,0.8-8.1,15-12.1,21c-4,6-8.1,4-12.1,5
		c-4,1-8.1,5-12.1,5.9c-4,0.9-8.1-1.5-12.1-2.4s-8.1-0.7-14.1,1.3c-6,1.9-14.1,5.5-20.2,6.9c-6.1,1.4-10.1,0.8-14.1,1.1
		s-8.1,1.5-12.1,2.2c-4,0.7-8.1,0.9-12.1,1s-8.1,0.1-12.1,0.1c-4,0-8.1,0.1-12.1,0c-4,0-8.1-0.2-12.1-0.2s-8.1,0-12.1,0
		s-8.1,0.1-12.1,0.2c-4,0.1-8.1,0.3-12.1,0.2c-4-0.1-8.1-0.4-12.1-0.7c-4-0.3-8.1-0.5-12.1-0.8c-4-0.3-8.1-0.7-12.1-0.5
		c-4,0.1-8.1,0.8-12.1,1.1c-4,0.3-8.1,0.4-12.1,0.7c-4,0.3-8.1,0.7-12.1,0.3c-4-0.4-8.1-1.8-12.1-2.4c-4-0.6-8.1-0.4-12.1-0.1
		s-8.1,0.9-12.1,0.9c-4,0-8.1-0.4-12.1-0.7c-4-0.3-8.1-0.4-12.1-0.4c-4,0-8.1,0.2-12.1,1.1c-4,0.9-8.1,2.5-12.1,3.4
		c-4,1-8.1,1.3-12.1,0.9c-4-0.4-8.1-1.7-12.1-2.6s-8.1-1.3-12.1-1.8s-8.1-1-12.1-1.9s-8.1-2.5-12.1-2s-8.1,3-12.1,4.4
		c-4,1.4-8.1,1.6-12.1,1.6c-4,0-8.1-0.2-12.1-0.2c-4-0.1-8.1,0-12.1,0c-4,0-8.1,0.1-10.1,0.1L0,327.8L0,327.8z"/>
	<path class="st3" d="M0,327.8l2,0c2,0,6.1,0,10.1-0.1c4,0,8.1-0.1,12.1,0c4,0.1,8.1,0.2,12.1,0.2c4,0,8.1-0.2,12.1-1.6
		c4-1.4,8.1-3.9,12.1-4.4s8.1,1,12.1,2s8.1,1.5,12.1,1.9s8.1,0.9,12.1,1.8s8.1,2.1,12.1,2.6c4,0.4,8.1,0.1,12.1-0.9
		c4-1,8.1-2.6,12.1-3.4c4-0.9,8.1-1.1,12.1-1.1c4,0,8.1,0.1,12.1,0.4c4,0.3,8.1,0.8,12.1,0.7c4,0,8.1-0.6,12.1-0.9s8.1-0.5,12.1,0.1
		c4,0.6,8.1,2,12.1,2.4c4,0.4,8.1,0,12.1-0.3c4-0.3,8.1-0.3,12.1-0.7c4-0.3,8.1-1,12.1-1.1c4-0.1,8.1,0.2,12.1,0.5
		c4,0.3,8.1,0.5,12.1,0.8c4,0.3,8.1,0.6,12.1,0.7c4,0.1,8.1-0.1,12.1-0.2c4-0.1,8.1-0.2,12.1-0.2s8.1-0.1,12.1,0s8.1,0.2,12.1,0.2
		c4,0,8.1,0,12.1,0c4,0,8.1,0,12.1-0.1s8.1-0.3,12.1-1c4-0.7,8.1-1.9,12.1-2.2s8.1,0.4,14.1-1.1c6-1.4,14.1-5,20.2-6.9
		c6-1.9,10.1-2.3,14.1-1.3s8.1,3.3,12.1,2.4c4-0.9,8.1-4.9,12.1-5.9c4-1,8.1,1.1,12.1-5c4-6,8.1-20.1,12.1-21
		c4-0.8,8.1,11.6,12.1,19.4s8.1,11.2,12.1,14.2c4,3,8.1,5.5,12.1,6.5c4,1,8.1,0.3,12.1,0.2s8.1,0.1,12.1,0.6c4,0.4,8.1,1,12.1,1
		c4-0.1,8.1-0.7,12.1-0.6c4,0.1,8.1,1,12.1,0.9c4-0.2,8.1-1.4,12.1-1.9c4-0.4,8.1,0,12.1,0.5c4,0.6,8.1,1.3,12.1,2s8.1,1.2,12.1,1.2
		c4-0.1,8.1-0.8,12.1-1c4-0.2,8.1,0,12.1,0s8.1-0.1,12.1,0.2c4,0.2,8.1,0.9,12.1,0.7s8.1-1,12.1-1.6c4-0.6,8.1-1.1,12.1-0.9
		s8.1,1.1,12.1,1.7c4,0.7,8.1,1.1,12.1,1.5c4,0.4,8.1,0.8,12.1,0.1s8.1-2.6,12.1-3c4-0.3,8.1,0.9,12.1,1.7s8.1,1,12.1,1
		c4,0,8.1-0.2,12.1-0.1c4,0.1,8.1,0.6,12.1,0.5c4-0.2,8.1-0.9,12.1-1.1c4-0.1,8.1,0.5,12.1,0.6c4,0.1,8.1-0.2,12.1-2.6
		c4-2.3,8.1-6.7,12.1-7.4c4-0.8,8.1,2,10.1,3.4l2,1.4v13.8l-2,3.8c-2,3.8-6,11.4-10.1,11.6c-4,0.3-8.1-6.8-12.1-10.5
		s-8.1-4.1-12.1-3.1c-4,0.9-8.1,3.1-12.1,3.4c-4,0.3-8.1-1.3-12.1-1.9s-8.1-0.2-12.1-0.6c-4-0.4-8.1-1.7-12.1-2.1s-8.1,0.1-12.1,2.1
		s-8.1,5.8-12.1,6.6c-4,0.8-8.1-1.2-12.1-3.1s-8.1-3.8-12.1-4.8c-4-1-8.1-1.3-12.1-0.4c-4,0.8-8.1,2.8-12.1,4.1s-8.1,1.9-12.1,1.1
		c-4-0.8-8.1-3.2-12.1-5c-4-1.8-8.1-3.1-12.1-3.2c-4-0.1-8.1,0.9-12.1,3.1s-8.1,5.6-12.1,6.3c-4,0.7-8.1-1.1-12.1-2.7
		c-4-1.6-8.1-3-12.1-0.9c-4,2-8.1,7.5-12.1,10.3c-4,2.9-8.1,3.2-12.1,3.3c-4,0.1-8.1,0-12.1-1.3c-4-1.2-8.1-3.5-12.1-4.1
		c-4-0.5-8.1,0.8-12.1,0.4c-4-0.3-8.1-2.3-12.1,3.6c-4,5.9-8.1,19.7-12.1,32.4s-8.1,24.4-12.1,15c-4-9.5-8.1-40.1-12.1-39.3
		c-4,0.8-8.1,32.9-12.1,72.6s-8.1,87.1-12.1,87.2c-4,0.2-8.1-46.8-12.1-79c-4-32.1-8.1-49.3-12.1-62.4c-4-13.1-8.1-22.1-12.1-25.9
		c-4-3.8-8.1-2.3-12.1-2.3s-8.1-1.5-14.1-4.8s-14.1-8.5-20.2-9.7c-6.1-1.2-10.1,1.4-14.1,1c-4-0.4-8.1-3.9-12.1-6.1
		c-4-2.2-8.1-3-12.1-3.2s-8.1,0.3-12.1,0.5c-4,0.1-8.1,0-12.1-0.1c-4-0.1-8.1,0-12.1-0.2c-4-0.2-8.1-0.6-12.1-0.8s-8.1,0-12.1,0.1
		c-4,0.1-8.1,0.2-12.1,0.1c-4-0.1-8.1-0.3-12.1,0.6c-4,0.9-8.1,2.8-12.1,4.6c-4,1.8-8.1,3.6-12.1,2.7s-8.1-4.2-12.1-5.8
		c-4-1.6-8.1-1.5-12.1-1.3c-4,0.2-8.1,0.4-12.1,0.6c-4,0.2-8.1,0.2-12.1,0.2c-4-0.1-8.1-0.2-12.1-0.5s-8.1-0.7-12.1-1.2
		c-4-0.5-8.1-1-12.1-1.5c-4-0.5-8.1-1-12.1-0.8c-4,0.2-8.1,1-12.1,4c-4,3-8.1,8.2-12.1,10.4c-4,2.2-8.1,1.5-12.1-0.1
		c-4-1.6-8.1-3.9-12.1-5.9s-8.1-3.5-12.1-3.8c-4-0.3-8.1,0.8-12.1,2.5c-4,1.8-8.1,4.2-12.1,4c-4-0.3-8.1-3.2-12.1-5
		c-4-1.8-8.1-2.3-12.1-2.9s-8.1-1.4-12.1-1.9s-8.1-0.5-12.1-0.6S4,327.9,2,327.8L0,327.8z"/>
	<g transform="translate(0,480)">
		<path class="st4" d="M0.5,95.4v-5.5h847v5.5"/>
		<g transform="translate(63.520833333333336,0)">
			<line class="st4" x1="0" y1="89.4" x2="0" y2="95.4"/>
			<text transform="matrix(1 0 0 1 -15.0122 105.5395)" class="st5 st6">Jan 26</text>
		</g>
		<g transform="translate(148.22083333333333,0)">
			<line class="st4" x1="0" y1="89.4" x2="0" y2="95.4"/>
			<text transform="matrix(1 0 0 1 -15.5664 105.5395)" class="st5 st6">Feb 02</text>
		</g>
		<g transform="translate(232.92083333333335,0)">
			<line class="st4" x1="0" y1="89.4" x2="0" y2="95.4"/>
			<text transform="matrix(1 0 0 1 -15.5664 105.5395)" class="st5 st6">Feb 09</text>
		</g>
		<g transform="translate(317.62083333333334,0)">
			<line class="st4" x1="0" y1="89.4" x2="0" y2="95.4"/>
			<text transform="matrix(1 0 0 1 -15.5664 105.5395)" class="st5 st6">Feb 16</text>
		</g>
		<g transform="translate(402.3208333333333,0)">
			<line class="st4" x1="0" y1="89.4" x2="0" y2="95.4"/>
			<text transform="matrix(1 0 0 1 -15.5664 105.5395)" class="st5 st6">Feb 23</text>
		</g>
		<g transform="translate(487.0208333333333,0)">
			<line class="st4" x1="0" y1="89.4" x2="0" y2="95.4"/>
			<text transform="matrix(1 0 0 1 -13.8916 105.5395)" class="st5 st6">March</text>
		</g>
		<g transform="translate(571.7208333333334,0)">
			<line class="st4" x1="0" y1="89.4" x2="0" y2="95.4"/>
			<text transform="matrix(1 0 0 1 -15.5615 105.5395)" class="st5 st6">Mar 08</text>
		</g>
		<g transform="translate(655.9166666666667,0)">
			<line class="st4" x1="0" y1="89.4" x2="0" y2="95.4"/>
			<text transform="matrix(1 0 0 1 -15.5615 105.5395)" class="st5 st6">Mar 15</text>
		</g>
		<g transform="translate(740.6166666666667,0)">
			<line class="st4" x1="0" y1="89.4" x2="0" y2="95.4"/>
			<text transform="matrix(1 0 0 1 -15.5615 105.5395)" class="st5 st6">Mar 22</text>
		</g>
		<g transform="translate(825.3166666666666,0)">
			<line class="st4" x1="0" y1="89.4" x2="0" y2="95.4"/>
			<text transform="matrix(1 0 0 1 -15.5615 105.5395)" class="st5 st6">Mar 29</text>
		</g>
	</g>
</g>
<text transform="matrix(1.0131 0 0 1 18.4067 24.3902)"><tspan x="0" y="0" class="st7 st8">Sentiment of coronavirus tweets: </tspan><tspan x="282.3" y="0" class="st9 st8">Donald Trump</tspan></text>
<g>
	<g>
		<line class="st10" x1="0" y1="327.8" x2="6" y2="327.8"/>
		<line class="st11" x1="18.1" y1="327.8" x2="832.9" y2="327.8"/>
		<line class="st10" x1="839" y1="327.8" x2="845" y2="327.8"/>
	</g>
</g>
<text transform="matrix(1 0 0 1 443.4031 321.7391)" class="st12 st5 st13">Sentiment of</text>
<text transform="matrix(1 0 0 1 433.5732 339.1093)" class="st12 st5 st13">the median tweeter</text>
<text transform="matrix(1 0 0 1 310.7629 115.9218)"><tspan x="0" y="0" class="st9 st6">Feb 29th: </tspan><tspan x="48.3" y="0" class="st14 st6">Donald Trump</tspan><tspan x="30.6" y="12" class="st14 st6">calls COVID-19 a </tspan><tspan x="21.7" y="24" class="st14 st6">“Democratic Hoax” </tspan><tspan x="28" y="36" class="st14 st6">in a press briefing.</tspan></text>
<text transform="matrix(1 0 0 1 95.3829 115.9218)"><tspan x="0" y="0" class="st9 st6">Jan 28th:</tspan><tspan x="44.4" y="0" class="st5 st6"> </tspan><tspan x="47.7" y="0" class="st14 st6">Haven’t </tspan><tspan x="0" y="12" class="st14 st6">manually looked at </tspan><tspan x="0" y="24" class="st14 st6">the tweets for this </tspan><tspan x="0" y="36" class="st14 st6">positive spike yet, </tspan><tspan x="0" y="48" class="st14 st6">but will provide context</tspan><tspan x="0" y="60" class="st14 st6">based on analysis of most</tspan><tspan x="0" y="72" class="st14 st6">common words eventually.</tspan></text>
<text transform="matrix(1 0 0 1 18.4067 45.7433)" class="st14 st15">gauging public opinion of key actors in the pandemic response</text>
<text transform="matrix(1 0 0 1 510.2816 451.9341)"><tspan x="0" y="0" class="st9 st6">March 03: </tspan><tspan x="51.3" y="0" class="st14 st6">could</tspan><tspan x="0" y="12" class="st14 st6">also take advantage</tspan><tspan x="0" y="24" class="st14 st6">of space down here </tspan><tspan x="0" y="36" class="st14 st6">to increase readability. </tspan><tspan x="0" y="48" class="st14 st6">Maybe for NEGATIVE</tspan><tspan x="0" y="60" class="st14 st6">spikes, like the 29th?</tspan></text>
</svg>
