<svg width="847" height="500" xmlns="http://www.w3.org/2000/svg" version="1.1"><g><path class="layer" d="M0,240.0005433680474L2.0166666666666666,240.02666384632775C4.033333333333333,240.05278432460804,8.066666666666666,240.10502528116868,12.1,240.1708633762497C16.133333333333333,240.2367014713307,20.166666666666668,240.31613670493206,24.2,240.24159178375763C28.23333333333333,240.16704686258322,32.266666666666666,239.93852178663295,36.3,240.40233816445746C40.333333333333336,240.86615454228198,44.36666666666667,242.0223123738812,48.4,243.9134789883134C52.43333333333334,245.80464560274558,56.46666666666667,248.4308210000107,60.5,248.7268142751842C64.53333333333333,249.02280755035778,68.56666666666666,246.98861870343976,72.6,245.60905898033752C76.63333333333333,244.2294992572353,80.66666666666667,243.50456865794885,84.7,242.34255021383797C88.73333333333333,241.18053176972708,92.76666666666667,239.58142548079175,96.8,239.09606844108677C100.83333333333333,238.61071140138176,104.86666666666666,239.23910361090705,108.89999999999999,239.8771341346071C112.93333333333332,240.51516465830719,116.96666666666665,241.162833496182,121,241.29709715323656C125.03333333333335,241.43136081029112,129.06666666666666,241.0522192865254,133.1,241.012398171049C137.13333333333333,240.97257705557263,141.16666666666666,241.27207634838558,145.20000000000002,241.1923047440882C149.23333333333332,241.1125331397908,153.26666666666668,240.65349063838303,157.3,240.40984181844587C161.33333333333334,240.16619299850865,165.36666666666667,240.137937860042,169.4,240.82168892373343C173.4333333333333,241.50543998742492,177.46666666666667,242.90119725327452,181.5,243.58578924370605C185.53333333333333,244.2703812341376,189.5666666666667,244.2438079491511,193.6,244.13438397426503C197.63333333333333,244.024959999379,201.66666666666666,243.8326853345934,205.70000000000002,243.43431893181602C209.73333333333332,243.0359525290386,213.76666666666665,242.43149438826944,217.79999999999995,242.18789731767006C221.83333333333334,241.94430024707071,225.86666666666665,242.0615642466412,229.89999999999998,243.4553938496559C233.9333333333333,244.84922345267054,237.96666666666667,247.5196186591294,242,248.12464604261496C246.03333333333333,248.7296734261005,250.0666666666667,247.2693329866128,254.10000000000002,245.84908534662517C258.1333333333333,244.42883770663755,262.1666666666667,243.04868286615002,266.2,242.18379618264544C270.23333333333335,241.3189094991408,274.26666666666665,240.9692909726191,278.3,240.70141052523311C282.3333333333333,240.43353007784717,286.3666666666666,240.24738770959695,290.4,240.42942894282248C294.43333333333334,240.61147017604802,298.46666666666664,241.16169501074933,302.5,241.60121507445277C306.53333333333336,242.04073513815618,310.56666666666666,242.36955043086175,314.6,242.40497285262077C318.6333333333334,242.44039527437982,322.6666666666667,242.18242482519236,326.7,242.13874838404607C330.73333333333335,242.09507194289975,334.76666666666665,242.26568950979467,338.8,241.87751772657396C342.8333333333333,241.48934594335321,346.86666666666673,240.54238481001687,350.90000000000003,240.78933265024207C354.9333333333334,241.0362804904673,358.9666666666667,242.47713730425411,363,244.96142895446607C367.0333333333333,247.4457206046781,371.0666666666666,250.97344709131525,375.09999999999997,251.2717044000198C379.13333333333327,251.56996170872432,383.1666666666667,248.6387498394962,389.21666666666664,249.27213586012417C395.26666666666665,249.90552188075208,403.3333333333333,254.10350579123602,409.3833333333334,257.144219259357C415.43333333333334,260.18493272747793,419.4666666666667,262.06837575323584,423.5,263.83160506716575C427.5333333333333,265.5948343810957,431.5666666666666,267.2378499831976,435.5999999999999,270.2950585527586C439.63333333333327,273.3522671223196,443.6666666666667,277.82366865933955,447.7,287.8173584744554C451.7333333333333,297.81104828957115,455.76666666666665,313.3270263827827,459.79999999999995,338.33489389930287C463.8333333333333,363.3427614158231,467.8666666666666,397.84251835565186,471.90000000000003,394.9142303240123C475.9333333333334,391.9859422923727,479.9666666666667,351.62960928926486,484,320.7638202266815C488.0333333333333,289.8980311640981,492.06666666666666,268.52278604203923,496.09999999999997,270.05377726502815C500.1333333333334,271.584768488017,504.1666666666667,296.0219960560536,508.20000000000005,302.798106103608C512.2333333333333,309.5742161511624,516.2666666666668,298.6892086782346,520.3000000000001,287.38692041954477C524.3333333333334,276.08463216085505,528.3666666666667,264.3650631164033,532.4,259.05217853392185C536.4333333333333,253.73929395144035,540.4666666666667,254.8330938309291,544.5,255.1726082992354C548.5333333333333,255.51212276754165,552.5666666666667,255.09735182466548,556.6,255.08528129161175C560.6333333333333,255.07321075855796,564.6666666666666,255.46384063532662,568.6999999999999,256.1600632894402C572.7333333333332,256.85628594355376,576.7666666666665,257.8581013750122,580.8,257.9480934735352C584.8333333333334,258.0380855720582,588.8666666666667,257.2162543376457,592.9,255.51080315942647C596.9333333333333,253.80535198120728,600.9666666666667,251.21628085918132,605,248.15810198953565C609.0333333333333,245.09992311988995,613.0666666666667,241.5726365026245,617.1,242.3903148526745C621.1333333333333,243.20799320272445,625.1666666666666,248.3706365200899,629.1999999999999,248.43449520299814C633.2333333333333,248.4983538859063,637.2666666666667,243.46342793435724,641.3,242.03380072688415C645.3333333333334,240.604173519411,649.3666666666667,242.77984505601384,653.4,244.89587548074329C657.4333333333333,247.01190590547273,661.4666666666667,249.0682952183288,665.5,251.19472725996636C669.5333333333333,253.32115930160384,673.5666666666667,255.5176340720228,677.6,255.24655810302454C681.6333333333333,254.97548213402627,685.6666666666666,252.2368554256108,689.6999999999999,250.20472361487236C693.7333333333335,248.17259180413393,697.7666666666668,246.8469548910725,701.8000000000001,246.20037278929252C705.8333333333334,245.5537906875126,709.8666666666667,245.58626339701414,713.9,244.46009430669957C717.9333333333334,243.33392521638498,721.9666666666667,241.04911432625434,726,242.58922637003948C730.0333333333333,244.1293384138246,734.0666666666666,249.49437339152544,738.1,250.93590294670435C742.1333333333333,252.3774325018832,746.1666666666666,249.89545663454,750.1999999999999,248.42911327186155C754.2333333333332,246.96276990918315,758.2666666666668,246.51205905116942,762.3000000000001,246.49037607860978C766.3333333333334,246.4686931060502,770.3666666666667,246.8760380189448,774.4,245.84429853287395C778.4333333333334,244.8125590468031,782.4666666666667,242.34173516176682,786.5,242.79578385207193C790.5333333333333,243.24983254237705,794.5666666666666,246.62875380802356,798.6,246.61448392811113C802.6333333333333,246.60021404819864,806.6666666666666,243.19275302272732,810.6999999999999,242.64700450575015C814.7333333333332,242.10125598877298,818.7666666666668,244.41721998028996,822.7999999999998,248.87652510958733C826.8333333333334,253.33583023888465,830.8666666666668,259.93847650596234,834.9000000000001,260.35022011257416C838.9333333333334,260.7619637191861,842.9666666666667,254.98280466533217,844.9833333333332,252.09322513840524L847,249.20364561147824L847,240.96975671665976L844.9833333333332,243.41933749850818C842.9666666666667,245.86891828035655,838.9333333333334,250.7680798440534,834.9000000000001,250.63089234941026C830.8666666666668,250.49370485476712,826.8333333333334,245.32016830178404,822.8000000000001,240.75278468038474C818.7666666666668,236.1854010589855,814.7333333333332,232.22417036917008,810.7000000000002,232.5887444543307C806.6666666666666,232.95331853949133,802.6333333333333,237.6436973996281,798.6,237.41032082325432C794.5666666666666,237.17694424688057,790.5333333333333,232.01981223399628,786.5,231.73669160661322C782.4666666666667,231.4535709792301,778.4333333333334,236.0444617373482,774.4,238.05754979175745C770.3666666666667,240.0706378461667,766.3333333333334,239.50592319686712,762.3000000000001,239.46827555358047C758.2666666666668,239.4306279102938,754.2333333333332,239.92004727302015,750.1999999999999,241.36786437274793C746.1666666666666,242.8156814724757,742.1333333333333,245.22189630920488,738.1,242.29200404809194C734.0666666666666,239.362111786979,730.0333333333333,231.09611242802393,726,229.56544463839666C721.9666666666667,228.03477684876933,717.9333333333334,233.23944062846985,713.9,236.25283044620542C709.8666666666667,239.26622026394102,705.8333333333334,240.08833611971178,701.8000000000001,241.30545467129954C697.7666666666668,242.52257322288733,693.7333333333335,244.1346944702922,689.7000000000002,245.5977129380137C685.6666666666666,247.0607314057352,681.6333333333333,248.3746470937734,677.6,248.84278454130845C673.5666666666667,249.3109219888435,669.5333333333333,248.93328119587545,665.5,247.09892241706928C661.4666666666667,245.2645636382631,657.4333333333333,241.97348687361875,653.4,238.52863695155C649.3666666666667,235.0837870294813,645.3333333333334,231.48516394998816,641.3000000000001,231.8786141656697C637.2666666666667,232.2720643813512,633.2333333333333,236.6575878922074,629.2,235.95796271913014C625.1666666666666,235.25833754605287,621.1333333333333,229.47356368904215,617.1,229.08850980342694C613.0666666666667,228.70345591781174,609.0333333333333,233.71812200359204,605,237.42601380995768C600.9666666666667,241.1339056163233,596.9333333333333,243.53502314327417,592.9,245.01500245647637C588.8666666666667,246.49498176967856,584.8333333333334,247.05382286913206,580.8,246.07640725047034C576.7666666666665,245.09899163180862,572.7333333333332,242.5853192950317,568.6999999999999,242.07485088913447C564.6666666666666,241.56438248323727,560.6333333333333,243.05711800821973,556.6,242.98910644094903C552.5666666666667,242.92109487367824,548.5333333333333,241.2923362141543,544.5,241.0084781587068C540.4666666666667,240.72462010325933,536.4333333333333,241.78566265188837,532.4,240.9631716134182C528.3666666666667,240.1406805749481,524.3333333333334,237.4346559493788,520.3000000000001,235.33772103031637C516.2666666666668,233.24078611125398,512.2333333333333,231.7529408986984,508.2,232.42234445847066C504.1666666666667,233.09174801824292,500.1333333333334,235.91840035034303,496.09999999999997,241.42850165937486C492.06666666666666,246.9386029684067,488.0333333333333,255.13215325437034,484,264.90726680373774C479.9666666666667,274.68238035310515,475.9333333333334,286.0390571658764,471.9000000000001,282.3521238413404C467.8666666666666,278.66519051680444,463.8333333333333,259.9346470549613,459.79999999999995,252.9453297354606C455.76666666666665,245.9560124159599,451.7333333333333,250.7079212388015,447.7,253.00066271495783C443.6666666666667,255.29340419111418,439.63333333333327,255.12697832058518,435.59999999999997,254.6610143452399C431.5666666666666,254.19505036989457,427.5333333333333,253.4295482897329,423.5,253.29047194425823C419.4666666666667,253.15139559878352,415.43333333333334,253.63874498799578,409.38333333333327,251.8522543467018C403.3333333333333,250.06576370540787,395.26666666666665,246.00543303360766,389.21666666666664,245.32089279251394C383.1666666666667,244.63635255142026,379.13333333333327,247.32760274103305,375.09999999999997,247.05038153816497C371.0666666666666,246.7731603352969,367.0333333333333,243.52746773994792,363,241.39326036029829C358.9666666666667,239.25905298064865,354.9333333333334,238.23633081669834,350.90000000000003,238.1261047270756C346.86666666666673,238.01587863745286,342.8333333333333,238.81814862215774,338.8,239.18018698976368C334.76666666666665,239.54222535736963,330.73333333333335,239.4640321078767,326.7,239.51741154987005C322.6666666666667,239.5707909918634,318.6333333333334,239.75574312534306,314.6,239.80744071385627C310.56666666666666,239.85913830236942,306.53333333333336,239.77758134591622,302.5,239.27541870874404C298.46666666666664,238.77325607157195,294.43333333333334,237.8504877536809,290.4,237.2949715491844C286.3666666666666,236.7394553446878,282.3333333333333,236.55119125358567,278.3,237.08878924985132C274.26666666666665,237.62638724611693,270.23333333333335,238.88984732975032,266.2,239.6794904760195C262.1666666666667,240.4691336222887,258.1333333333333,240.78495983119365,254.1,241.1571540063529C250.0666666666667,241.5293481815121,246.03333333333333,241.95791032292558,242,241.84178480878782C237.96666666666667,241.72565929465006,233.9333333333333,241.06484612496106,229.89999999999998,240.71901823743698C225.86666666666665,240.37319034991287,221.83333333333334,240.34234774455362,217.79999999999998,238.9630597054751C213.76666666666665,237.58377166639661,209.73333333333332,234.8560381935988,205.69999999999996,235.11698422971276C201.66666666666666,235.37793026582665,197.63333333333333,238.6275558108523,193.6,240.04484080124794C189.5666666666667,241.46212579164362,185.53333333333333,241.04707022740922,181.5,239.80896731932285C177.46666666666667,238.57086441123647,173.4333333333333,236.50971415929803,169.4,235.76238903405658C165.36666666666667,235.0150639088151,161.33333333333334,235.58156391027055,157.29999999999998,236.45844350282212C153.26666666666668,237.33532309537372,149.23333333333332,238.52258227902144,145.2,238.2766435508843C141.16666666666666,238.0307048227472,137.13333333333333,236.35156818282522,133.1,232.95287867011962C129.06666666666666,229.55418915741404,125.03333333333335,224.43594677192482,121,222.27530841796775C116.96666666666665,220.1146700640107,112.93333333333332,220.9116357415858,108.89999999999998,222.68427049767016C104.86666666666666,224.45690525375448,100.83333333333333,227.20520908834808,96.8,230.23764266241287C92.76666666666667,233.27007623647765,88.73333333333333,236.58663955001362,84.7,238.73321502140968C80.66666666666667,240.8797904928057,76.63333333333333,241.85637812206178,72.6,243.46239294760025C68.56666666666666,245.0684077731387,64.53333333333333,247.30384979495943,60.5,246.95196723490676C56.46666666666667,246.60008467485406,52.43333333333334,243.6608775329279,48.4,241.56496466328812C44.36666666666667,239.46905179364822,40.333333333333336,238.21643319629462,36.3,238.13245695829679C32.266666666666666,238.04848072029904,28.23333333333333,239.133146841657,24.2,239.65123533755283C20.166666666666668,240.1693238334486,16.133333333333333,240.1208347038822,12.1,240.08457135538302C8.066666666666666,240.04830800688396,4.033333333333333,240.02427043945212,2.0166666666666666,240.01225165573624L0,240.00023287202032Z" fill="#67c247" title="positive"></path><path class="layer" d="M0,240.00023287202032L2.0166666666666666,240.03522836174207C4.033333333333333,240.07022385146388,8.066666666666666,240.14021483090744,12.1,240.22564005036506C16.133333333333333,240.3110652698227,20.166666666666668,240.41192472929438,24.2,240.88292132774572C28.23333333333333,241.35391792619706,32.266666666666666,242.19505166362805,36.3,242.7903113595942C40.333333333333336,243.38557105556038,44.36666666666667,243.73495671006174,48.4,245.18162238702232C52.43333333333334,246.62828806398292,56.46666666666667,249.1722337634027,60.5,249.5704837301699C64.53333333333333,249.9687336969371,68.56666666666666,248.22128793105176,72.6,247.07289250013017C76.63333333333333,245.92449706920857,80.66666666666667,245.37515197325078,84.7,245.97059279189943C88.73333333333333,246.5660336105481,92.76666666666667,248.3062603438032,96.8,250.55052562772755C100.83333333333333,252.79479091165192,104.86666666666666,255.54309474624552,108.89999999999999,257.3157295023298C112.93333333333332,259.0883642584142,116.96666666666665,259.8853299359893,121,257.7246915820322C125.03333333333335,255.56405322807518,129.06666666666666,250.44581084258596,133.1,247.3662853710767C137.13333333333333,244.2867598995675,141.16666666666666,243.2459513420382,145.20000000000002,243.00001261390108C149.23333333333332,242.754073885764,153.26666666666668,243.303004987019,157.3,243.86072053837427C161.33333333333334,244.4184360897295,165.36666666666667,244.98493609118495,169.4,245.24338522174756C173.4333333333333,245.50183435231017,177.46666666666667,245.45223261197995,181.5,245.39173763603205C185.53333333333333,245.33124266008417,189.5666666666667,245.2598544485186,193.6,245.67136518311017C197.63333333333333,246.08287591770173,201.66666666666666,246.97728559845038,205.70000000000002,246.6412771477835C209.73333333333332,246.30526869711665,213.76666666666665,244.73884211503426,217.79999999999995,243.89893742437724C221.83333333333334,243.05903273372022,225.86666666666665,242.94564993448856,229.89999999999998,244.5526350601117C233.9333333333333,246.15962018573484,237.96666666666667,249.48697323621275,242,250.31848159680342C246.03333333333333,251.14998995739413,250.0666666666667,249.48565362809754,254.10000000000002,247.73413260185643C258.1333333333333,245.98261157561532,262.1666666666667,244.14390585242964,266.2,243.44653177554892C270.23333333333335,242.74915769866814,274.26666666666665,243.19311526809233,278.3,243.32096200725334C282.3333333333333,243.44880874641436,286.3666666666666,243.2605446553122,290.4,243.04421948576035C294.43333333333334,242.8278943162085,298.46666666666664,242.58350806820692,302.5,242.66437934593364C306.53333333333336,242.74525062366038,310.56666666666666,243.15137942711544,314.6,243.33542594718267C318.6333333333334,243.51947246724998,322.6666666666667,243.48143670392946,326.7,243.54144006116772C330.73333333333335,243.601443418406,334.76666666666665,243.75948589620313,338.8,243.6499842973103C342.8333333333333,243.54048269841746,346.86666666666673,243.16343702283473,350.90000000000003,243.33990226490678C354.9333333333334,243.5163675069789,358.9666666666667,244.2463436667058,363,245.45175393060478C367.0333333333333,246.6571641945038,371.0666666666666,248.33800856257483,375.09999999999997,248.74468073407732C379.13333333333327,249.15135290557978,383.1666666666667,248.2838528805137,389.21666666666664,250.16895188508286C395.26666666666665,252.054050889652,403.3333333333333,256.6917489238563,409.3833333333334,260.15173552724656C415.43333333333334,263.6117221306367,419.4666666666667,265.89399730321264,423.5,264.8325148852119C427.5333333333333,263.7710324672111,431.5666666666666,259.3657924586337,435.5999999999999,263.5195436225895C439.63333333333327,267.6732947865453,443.6666666666667,280.3860371230344,447.7,296.6977518470471C451.7333333333333,313.0094665710598,455.76666666666665,332.9201536825961,459.79999999999995,364.0703571060089C463.8333333333333,395.2205605294216,467.8666666666666,437.6102802647108,471.90000000000003,434.6048080956664C475.9333333333334,431.599335926622,479.9666666666667,383.1986718532441,484,345.37420107916773C488.0333333333333,307.54973030509143,492.06666666666666,280.3014528303168,496.09999999999997,282.10244622354355C500.1333333333334,283.9034396167703,504.1666666666667,314.75370387799836,508.20000000000005,323.90241756734775C512.2333333333333,333.0511312566971,516.2666666666668,320.49829437416776,520.3000000000001,305.8242521331239C524.3333333333334,291.15020989208,528.3666666666667,274.3549622925215,532.4,267.19136614047295C536.4333333333333,260.0277699884243,540.4666666666667,262.49582528388555,544.5,262.6152498183113C548.5333333333333,262.7346743527371,552.5666666666667,260.50546812612737,556.6,260.8395747886282C560.6333333333333,261.1736814511291,564.6666666666666,264.0711010027405,568.6999999999999,264.9560276173279C572.7333333333332,265.8409542319153,576.7666666666665,264.7133879094788,580.8,264.0754996964578C584.8333333333334,263.4376114834368,588.8666666666667,263.2894013798314,592.9,261.32209855208595C596.9333333333333,259.35479572434036,600.9666666666667,255.56840017245472,605,254.43006998774513C609.0333333333333,253.29173980303554,613.0666666666667,254.8014749855021,617.1,256.093436016957C621.1333333333333,257.38539704841185,625.1666666666666,258.459583928855,629.1999999999999,257.75995875577775C633.2333333333333,257.0603335827005,637.2666666666667,254.58689635610276,641.3,252.74068697892866C645.3333333333334,250.89447760175457,649.3666666666667,249.67549607400417,653.4,247.558663534538C657.4333333333333,245.44183099507185,661.4666666666667,242.42714744389,665.5,242.63248881648292C669.5333333333333,242.83783018907593,673.5666666666667,246.26319648544373,677.6,248.42066519245745C681.6333333333333,250.5781338994711,685.6666666666666,251.46770501713067,689.6999999999999,251.31692038396713C693.7333333333335,251.16613575080365,697.7666666666668,249.97499536681707,701.8000000000001,249.68698442700705C705.8333333333334,249.39897348719705,709.8666666666667,250.01409199156356,713.9,251.41176398291364C717.9333333333334,252.80943597426372,721.9666666666667,254.98966145259746,726,256.1312518455916C730.0333333333333,257.2728422385858,734.0666666666666,257.37579754624045,738.1,256.16113708820063C742.1333333333333,254.94647663016076,746.1666666666666,252.41420040642637,750.1999999999999,251.025662173207C754.2333333333332,249.63712393998762,758.2666666666668,249.39232369728316,762.3000000000001,249.7258223050643C766.3333333333334,250.05932091284538,770.3666666666667,250.97111837111197,774.4,251.63608442516352C778.4333333333334,252.30105047921506,782.4666666666667,252.71918512905154,786.5,253.17815000645248C790.5333333333333,253.63711488385346,794.5666666666666,254.13690998881893,798.6,253.90353341244517C802.6333333333333,253.67015683607133,806.6666666666666,252.70360857835837,810.6999999999999,252.03803446958705C814.7333333333332,251.37246036081578,818.7666666666668,251.00786040098623,822.7999999999998,253.9175057336649C826.8333333333334,256.8271510663436,830.8666666666668,263.0110416915306,834.9000000000001,263.3824725639565C838.9333333333334,263.7539034363824,842.9666666666667,258.3128745560473,844.9833333333332,255.5923601158797L847,252.8718456757121L847,249.20364561147824L844.9833333333332,252.09322513840524C842.9666666666667,254.98280466533217,838.9333333333334,260.7619637191861,834.9000000000001,260.3502201125742C830.8666666666668,259.93847650596234,826.8333333333334,253.33583023888465,822.8000000000001,250.31267273362968C818.7666666666668,247.28951522837465,814.7333333333332,247.84584648494237,810.7000000000002,248.39159500191957C806.6666666666666,248.9373435188967,802.6333333333333,249.4725092962834,798.6,249.68376303072583C794.5666666666666,249.8950167651683,790.5333333333333,249.78235845666657,786.5,249.32830976636146C782.4666666666667,248.87426107605634,778.4333333333334,248.07882200394783,774.4,247.47743001144633C770.3666666666667,246.8760380189448,766.3333333333334,246.4686931060502,762.3000000000001,246.49037607860984C758.2666666666668,246.51205905116942,754.2333333333332,246.96276990918315,750.1999999999999,248.4291132718616C746.1666666666666,249.89545663454,742.1333333333333,252.3774325018832,738.1,253.17569191290457C734.0666666666666,253.97395132392595,730.0333333333333,253.08849427862552,726,251.54838223484043C721.9666666666667,250.00827019105532,717.9333333333334,247.8135031487855,713.9,246.6998832728998C709.8666666666667,245.58626339701414,705.8333333333334,245.5537906875126,701.8000000000001,246.20037278929257C697.7666666666668,246.8469548910725,693.7333333333335,248.17259180413393,689.7000000000002,247.42231696663495C685.6666666666666,246.67204212913592,681.6333333333333,243.8458555410765,677.6,240.4087033330131C673.5666666666667,236.97155112494974,669.5333333333333,232.9234332968824,665.5,233.5794079034823C661.4666666666667,234.23538251008222,657.4333333333333,239.59544955134945,653.4,242.83374199138566C649.3666666666667,246.07203443142194,645.3333333333334,247.18855227022732,641.3000000000001,248.61817947770044C637.2666666666667,250.04780668517355,633.2333333333333,251.79054326131447,629.2,252.22223623766794C625.1666666666666,252.65392921402136,621.1333333333333,251.77457859058737,617.1,250.9569002405374C613.0666666666667,250.13922189048742,609.0333333333333,249.3832158138214,605,250.29974833650135C600.9666666666667,251.21628085918132,596.9333333333333,253.80535198120728,592.9,255.51080315942647C588.8666666666667,257.2162543376457,584.8333333333334,258.0380855720582,580.8,257.9480934735352C576.7666666666665,257.8581013750122,572.7333333333332,256.85628594355376,568.6999999999999,256.1600632894402C564.6666666666666,255.46384063532662,560.6333333333333,255.07321075855796,556.6,255.08528129161172C552.5666666666667,255.09735182466548,548.5333333333333,255.51212276754165,544.5,255.17260829923535C540.4666666666667,254.8330938309291,536.4333333333333,253.73929395144035,532.4,259.05217853392185C528.3666666666667,264.3650631164033,524.3333333333334,276.08463216085505,520.3000000000001,287.3869204195448C516.2666666666668,298.6892086782346,512.2333333333333,309.5742161511624,508.2,302.798106103608C504.1666666666667,296.0219960560536,500.1333333333334,271.584768488017,496.09999999999997,270.0537772650281C492.06666666666666,268.52278604203923,488.0333333333333,289.8980311640981,484,320.7638202266815C479.9666666666667,351.62960928926486,475.9333333333334,391.9859422923727,471.9000000000001,394.9142303240123C467.8666666666666,397.84251835565186,463.8333333333333,363.3427614158231,459.79999999999995,338.33489389930287C455.76666666666665,313.3270263827827,451.7333333333333,297.81104828957115,447.7,283.1016741881095C443.6666666666667,268.39230008664777,439.63333333333327,254.48952997693596,435.59999999999997,251.43232140737499C431.5666666666666,248.37511283781404,427.5333333333333,256.1634658084039,423.5,259.11592078081986C419.4666666666667,262.06837575323584,415.43333333333334,260.18493272747793,409.38333333333327,257.144219259357C403.3333333333333,254.10350579123602,395.26666666666665,249.90552188075208,389.21666666666664,247.6558746656912C383.1666666666667,245.40622745063033,379.13333333333327,245.10491693099257,375.09999999999997,244.80665962228807C371.0666666666666,244.50840231358356,367.0333333333333,244.2131982158122,363,243.68958547810084C358.9666666666667,243.1659727403894,354.9333333333334,242.41395136273795,350.90000000000003,242.16700352251272C346.86666666666673,241.9200556822875,342.8333333333333,242.17818137948856,338.8,242.22193544464162C334.76666666666665,242.26568950979467,330.73333333333335,242.09507194289975,326.7,242.13874838404607C322.6666666666667,242.18242482519236,318.6333333333334,242.44039527437982,314.6,242.40497285262077C310.56666666666666,242.36955043086175,306.53333333333336,242.04073513815618,302.5,241.98920573499103C298.46666666666664,241.93767633182583,294.43333333333334,242.16343281820104,290.4,242.33590042392413C286.3666666666666,242.5083680296472,282.3333333333333,242.62754675471817,278.3,242.50743654156585C274.26666666666665,242.38732632841356,270.23333333333335,242.02792717703804,266.2,242.53830502159406C262.1666666666667,243.04868286615002,258.1333333333333,244.42883770663755,254.1,245.8490853466252C250.0666666666667,247.2693329866128,246.03333333333333,248.7296734261005,242,248.12464604261496C237.96666666666667,247.5196186591294,233.9333333333333,244.84922345267054,229.89999999999998,243.4553938496559C225.86666666666665,242.0615642466412,221.83333333333334,241.94430024707071,217.79999999999998,242.6568498172763C213.76666666666665,243.36939938748188,209.73333333333332,244.91176252746354,205.69999999999996,245.31012893024092C201.66666666666666,245.7084953330183,197.63333333333333,244.96286499859147,193.6,244.60333647387128C189.5666666666667,244.2438079491511,185.53333333333333,244.2703812341376,181.5,244.11143314292806C177.46666666666667,243.95248505171858,173.4333333333333,243.60801558431308,169.4,243.42623309777682C165.36666666666667,243.24445061124052,161.33333333333334,243.2253551055735,157.29999999999998,242.94336002628867C153.26666666666668,242.66136494700382,149.23333333333332,242.1164702941012,145.2,242.33878544950926C141.16666666666666,242.5611006049174,137.13333333333333,243.55062556863626,133.1,246.0329895560133C129.06666666666666,248.51535354339035,125.03333333333335,252.49055655442558,121,253.60200295812152C116.96666666666665,254.71344936181745,112.93333333333332,252.9611391581741,108.89999999999998,251.21769102863774C104.86666666666666,249.47424289910137,100.83333333333333,247.73965684367204,96.8,246.33479169436063C92.76666666666667,244.92992654504926,88.73333333333333,243.8547823018558,84.7,243.67967547990233C80.66666666666667,243.50456865794885,76.63333333333333,244.2294992572353,72.6,245.60905898033752C68.56666666666666,246.98861870343976,64.53333333333333,249.02280755035778,60.5,248.7268142751842C56.46666666666667,248.4308210000107,52.43333333333334,245.80464560274558,48.4,244.33909141746938C44.36666666666667,242.87353723219314,40.333333333333336,242.56860425890582,36.3,242.1047878810813C32.266666666666666,241.6409715032568,28.23333333333333,241.01827172089511,24.2,240.6672042129136C20.166666666666668,240.31613670493206,16.133333333333333,240.2367014713307,12.1,240.17068225356726C8.066666666666666,240.10466303580378,4.033333333333333,240.05205983387816,2.0166666666666666,240.02575823291536L0,239.99945663195257Z" fill="#b0b0b0" title="neutral"></path><path class="layer" d="M0,240.0005433680474L2.0166666666666666,240.01251040242548C4.033333333333333,240.02447743680352,8.066666666666666,240.04841150555964,12.1,240.08462310472092C16.133333333333333,240.1208347038822,20.166666666666668,240.1693238334486,24.2,240.5345447853324C28.23333333333333,240.8997657372162,32.266666666666666,241.58171851141734,36.3,241.66569474941514C40.333333333333336,241.74967098741294,44.36666666666667,241.23567068920738,48.4,242.44827411106766C52.43333333333334,243.6608775329279,56.46666666666667,246.60008467485406,60.5,246.95196723490676C64.53333333333333,247.30384979495943,68.56666666666666,245.0684077731387,72.6,243.46239294760025C76.63333333333333,241.85637812206178,80.66666666666667,240.8797904928057,84.7,241.4084746656265C88.73333333333333,241.9371588384473,92.76666666666667,243.971114813345,96.8,245.8553858285085C100.83333333333333,247.73965684367204,104.86666666666666,249.47424289910137,108.89999999999999,251.21769102863774C112.93333333333332,252.9611391581741,116.96666666666665,254.71344936181745,121,253.6020029581215C125.03333333333335,252.49055655442558,129.06666666666666,248.51535354339035,133.1,245.72270052625842C137.13333333333333,242.93004750912647,141.16666666666666,241.31994448589782,145.20000000000002,241.09762933048967C149.23333333333332,240.8753141750816,153.26666666666668,242.04078688749405,157.3,242.63307099653375C161.33333333333334,243.2253551055735,165.36666666666667,243.24445061124052,169.4,242.81540978845194C173.4333333333333,242.38636896566334,177.46666666666667,241.5091918144191,181.5,241.27813102091417C185.53333333333333,241.04707022740922,189.5666666666667,241.46212579164362,193.6,242.43247762568865C197.63333333333333,243.40282945973368,201.66666666666666,244.92847756358944,205.70000000000002,244.6675315274755C209.73333333333332,244.4065854913616,213.76666666666665,242.359045315278,217.79999999999995,241.35069652991584C221.83333333333334,240.34234774455362,225.86666666666665,240.37319034991287,229.89999999999998,240.71901823743698C233.9333333333333,241.06484612496106,237.96666666666667,241.72565929465006,242,241.84178480878782C246.03333333333333,241.95791032292558,250.0666666666667,241.5293481815121,254.10000000000002,241.1571540063529C258.1333333333333,240.78495983119365,262.1666666666667,240.4691336222887,266.2,240.74345686223708C270.23333333333335,241.0177801021855,274.26666666666665,241.8822527909873,278.3,242.25489977285278C282.3333333333333,242.62754675471817,286.3666666666666,242.5083680296472,290.4,241.99991784792618C294.43333333333334,241.49146766620515,298.46666666666664,240.59374602783404,302.5,240.18566368687513C306.53333333333336,239.77758134591622,310.56666666666666,239.85913830236942,314.6,239.80744071385627C318.6333333333334,239.75574312534306,322.6666666666667,239.5707909918634,326.7,239.51741154987005C330.73333333333335,239.4640321078767,334.76666666666665,239.54222535736963,338.8,239.92157387848673C342.8333333333333,240.30092239960388,346.86666666666673,240.98142619234514,350.90000000000003,241.09165228196787C354.9333333333334,241.20187837159062,358.9666666666667,240.7418267580948,363,241.2654394958062C367.0333333333333,241.7890522335176,371.0666666666666,243.2963293224362,375.09999999999997,243.57355052530428C379.13333333333327,243.8507717281724,383.1666666666667,242.89793704498993,389.21666666666664,244.4516850392988C395.26666666666665,246.00543303360766,403.3333333333333,250.06576370540787,409.3833333333334,251.8522543467018C415.43333333333334,253.63874498799578,419.4666666666667,253.15139559878352,423.5,250.89483984711956C427.5333333333333,248.63828409545556,431.5666666666666,244.61252198133988,435.5999999999999,245.07848595668517C439.63333333333327,245.5444499320305,443.6666666666667,250.50213999683683,447.7,250.60503061781915C451.7333333333333,250.7079212388015,455.76666666666665,245.9560124159599,459.79999999999995,252.9453297354606C463.8333333333333,259.9346470549613,467.8666666666666,278.66519051680444,471.90000000000003,282.3521238413404C475.9333333333334,286.0390571658764,479.9666666666667,274.68238035310515,484,264.90726680373774C488.0333333333333,255.13215325437034,492.06666666666666,246.9386029684067,496.09999999999997,241.42850165937486C500.1333333333334,235.91840035034303,504.1666666666667,233.09174801824292,508.20000000000005,232.42234445847066C512.2333333333333,231.7529408986984,516.2666666666668,233.24078611125398,520.3000000000001,235.33772103031637C524.3333333333334,237.4346559493788,528.3666666666667,240.1406805749481,532.4,240.96317161341824C536.4333333333333,241.78566265188837,540.4666666666667,240.72462010325933,544.5,241.0084781587068C548.5333333333333,241.2923362141543,552.5666666666667,242.92109487367824,556.6,242.98910644094903C560.6333333333333,243.05711800821973,564.6666666666666,241.56438248323727,568.6999999999999,242.0748508891345C572.7333333333332,242.5853192950317,576.7666666666665,245.09899163180862,580.8,246.07640725047034C584.8333333333334,247.05382286913206,588.8666666666667,246.49498176967856,592.9,245.01500245647637C596.9333333333333,243.53502314327417,600.9666666666667,241.1339056163233,605,241.96042016581134C609.0333333333333,242.7869347152994,613.0666666666667,246.8410813412264,617.1,247.22613522684162C621.1333333333333,247.6111891124568,625.1666666666666,244.3271502577602,629.1999999999999,243.89545728140675C633.2333333333333,243.46376430505327,637.2666666666667,245.88441720704296,641.3,245.49096699136143C645.3333333333334,245.09751677567988,649.3666666666667,241.88996344232714,653.4,241.93172515797292C657.4333333333333,241.97348687361875,661.4666666666667,245.2645636382631,665.5,245.65410677893684C669.5333333333333,246.04364991961063,673.5666666666667,243.53165943631384,677.6,243.06352198877877C681.6333333333333,242.5953845412437,685.6666666666666,244.17110012947037,689.6999999999999,244.15289729988126C693.7333333333335,244.1346944702922,697.7666666666668,242.52257322288733,701.8000000000001,241.30545467129954C705.8333333333334,240.08833611971178,709.8666666666667,239.26622026394102,713.9,241.14831780691483C717.9333333333334,243.03041534988859,721.9666666666667,247.61672629160685,726,249.14739408123418C730.0333333333333,250.67806187086148,734.0666666666666,249.1530865083978,738.1,247.18749140880132C742.1333333333333,245.22189630920488,746.1666666666666,242.8156814724757,750.1999999999999,241.3678643727479C754.2333333333332,239.92004727302015,758.2666666666668,239.4306279102938,762.3000000000001,239.46827555358047C766.3333333333334,239.50592319686712,770.3666666666667,240.0706378461667,774.4,241.8587197795996C778.4333333333334,243.6468017130325,782.4666666666667,246.65825093059865,786.5,246.9413715579818C790.5333333333333,247.22449218536485,794.5666666666666,244.77928422256483,798.6,244.5680304881224C802.6333333333333,244.35677675367992,806.6666666666666,246.37947724759502,810.6999999999999,246.01490316243436C814.7333333333332,245.6503290772737,818.7666666666668,242.89848041303733,822.7999999999998,244.1093243574107C826.8333333333334,245.32016830178404,830.8666666666668,250.49370485476712,834.9000000000001,250.63089234941026C838.9333333333334,250.7680798440534,842.9666666666667,245.86891828035655,844.9833333333332,243.41933749850816L847,240.96975671665976L847,227.12815432428786L844.9833333333332,224.4076398841203C842.9666666666667,221.6871254439527,838.9333333333334,216.24609656361756,834.9000000000001,216.61752743604347C830.8666666666668,216.9889583084694,826.8333333333334,223.17284893365638,822.8000000000001,228.00288631931866C818.7666666666668,232.83292370498089,814.7333333333332,236.30910785111845,810.7000000000002,235.64353374234716C806.6666666666666,234.97795963357586,802.6333333333333,230.17062726989573,798.6,230.1848971498082C794.5666666666666,230.1991670297206,790.5333333333333,235.0350391532256,786.5,235.49400403062657C782.4666666666667,235.95296890802751,778.4333333333334,232.03502653932446,774.4,230.53195408410625C770.3666666666667,229.02888162888803,766.3333333333334,229.94067908715462,762.3000000000001,230.2741776949357C758.2666666666668,230.60767630271684,754.2333333333332,230.36287606001238,750.1999999999999,228.974337826793C746.1666666666666,227.58579959357363,742.1333333333333,225.05352336983924,738.1,226.49456130630855C734.0666666666666,227.9355992427778,730.0333333333333,233.34995133945077,726,234.49154173244494C721.9666666666667,235.63313212543912,717.9333333333334,232.5019608147545,713.9,231.24393441159552C709.8666666666667,229.98590800843644,705.8333333333334,230.60102651280295,701.8000000000001,230.3130155729929C697.7666666666668,230.0250046331829,693.7333333333335,228.83386424919635,689.7000000000002,227.34548860592784C685.6666666666666,225.85711296265927,681.6333333333333,224.07150206010883,677.6,226.03312539802516C673.5666666666667,227.99474873594158,669.5333333333333,233.70360631432482,665.5,235.24653869702286C661.4666666666667,236.7894710797208,657.4333333333333,234.16647826673355,653.4,234.0024846150836C649.3666666666667,233.8384909634336,645.3333333333334,236.13349647312089,641.3000000000001,234.28728709594682C637.2666666666667,232.44107771877273,633.2333333333333,226.4536534547373,629.2,226.3897947718291C625.1666666666666,226.32593608892088,621.1333333333333,232.18564298713997,617.1,233.4776040185948C613.0666666666667,234.7695650500497,609.0333333333333,231.49378021474035,605,227.96269002114283C600.9666666666667,224.43159982754534,596.9333333333333,220.64520427565967,592.9,218.6779014479141C588.8666666666667,216.7105986201686,584.8333333333334,216.56238851656317,580.8,215.9245003035422C576.7666666666665,215.28661209052123,572.7333333333332,214.15904576808467,568.6999999999999,215.0439723826721C564.6666666666666,215.92889899725955,560.6333333333333,218.82631854887094,556.6,219.1604252113718C552.5666666666667,219.49453187387266,548.5333333333333,217.26532564726293,544.5,217.3847501816887C540.4666666666667,217.50417471611448,536.4333333333333,219.9722300115757,532.4,212.80863385952708C528.3666666666667,205.64503770747845,524.3333333333334,188.84979010792003,520.3000000000001,174.17574786687612C516.2666666666668,159.50170562583222,512.2333333333333,146.9488687433029,508.2,156.09758243265227C504.1666666666667,165.24629612200167,500.1333333333334,196.09656038322973,496.09999999999997,197.89755377645645C492.06666666666666,199.69854716968317,488.0333333333333,172.45026969490854,484,134.62579892083224C479.9666666666667,96.80132814675595,475.9333333333334,48.400664073377975,471.9000000000001,45.395191904333586C467.8666666666666,42.3897197352892,463.8333333333333,84.7794394705784,459.79999999999995,115.92964289399116C455.76666666666665,147.07984631740393,451.7333333333333,166.99053342894024,447.7,180.98219596374568C443.6666666666667,194.97385849855118,439.63333333333327,203.04649645662582,435.59999999999997,207.20024762058162C431.5666666666666,211.35399878453745,427.5333333333333,211.58886315437442,423.5,212.84743292558088C419.4666666666667,214.10600269678739,415.43333333333334,216.38827786936335,409.38333333333327,219.84826447275347C403.3333333333333,223.30825107614365,395.26666666666665,227.945949110348,389.21666666666664,229.0839946736994C383.1666666666667,230.22204023705078,379.13333333333327,227.86043332954918,375.09999999999997,228.26710550105165C371.0666666666666,228.67377767255414,367.0333333333333,231.84872892306075,363,234.19816179883287C358.9666666666667,236.54759467460505,354.9333333333334,238.07150917564277,350.90000000000003,238.24797441771486C346.86666666666673,238.4244396597869,342.8333333333333,237.25345564289333,338.8,236.74698487334513C334.76666666666665,236.24051410379687,330.73333333333335,236.398556581594,326.7,236.45855993883228C322.6666666666667,236.51856329607054,318.6333333333334,236.48052753275002,314.6,236.66457405281733C310.56666666666666,236.84862057288456,306.53333333333336,237.25474937633962,302.5,237.85787497165913C298.46666666666664,238.46100056697867,294.43333333333334,239.2611229541627,290.4,239.75425533187982C286.3666666666666,240.24738770959695,282.3333333333333,240.43353007784717,278.3,240.03912249941538C274.26666666666665,239.6447149209836,270.23333333333335,238.66975739586982,266.2,237.2629257717201C262.1666666666667,235.85609414757036,258.1333333333333,234.01738842438468,254.1,232.26586739814357C250.0666666666667,230.51434637190246,246.03333333333333,228.85001004260587,242,229.68151840319658C237.96666666666667,230.51302676378725,233.9333333333333,233.84037981426516,229.89999999999998,235.4473649398883C225.86666666666665,237.05435006551144,221.83333333333334,236.94096726627978,217.79999999999998,238.01974690045722C213.76666666666665,239.09852653463471,209.73333333333332,241.36946860222125,205.69999999999996,241.03346015155435C201.66666666666666,240.69745170088754,197.63333333333333,237.7544927319672,193.6,236.24731914172426C189.5666666666667,234.7401455514814,185.53333333333333,234.66875733991583,181.5,235.55178216633726C177.46666666666667,236.43480699275867,173.4333333333333,238.272244857167,169.4,239.20509135860448C165.36666666666667,240.137937860042,161.33333333333334,240.16619299850865,157.29999999999998,239.78038874749458C153.26666666666668,239.39458449648055,149.23333333333332,238.59472085598577,145.2,238.67449246028318C141.16666666666666,238.75426406458055,137.13333333333333,239.71367091367014,133.1,240.38294510009777C129.06666666666666,241.0522192865254,125.03333333333335,241.43136081029112,121,241.29709715323656C116.96666666666665,241.162833496182,112.93333333333332,240.51516465830719,108.89999999999998,239.87713413460713C104.86666666666666,239.23910361090705,100.83333333333333,238.61071140138176,96.8,237.8284942850942C92.76666666666667,237.04627716880665,88.73333333333333,236.11023514575686,84.7,235.36754158625305C80.66666666666667,234.62484802674922,76.63333333333333,234.07550293079143,72.6,232.92710749986983C68.56666666666666,231.77871206894824,64.53333333333333,230.0312663030629,60.5,230.4295162698301C56.46666666666667,230.82776623659734,52.43333333333334,233.37171193601714,48.4,235.27607463160135C44.36666666666667,237.18043732718556,40.333333333333336,238.44521701893413,36.3,239.04047671490028C32.266666666666666,239.63573641086646,28.23333333333333,239.5614761110502,24.2,239.5747756908779C20.166666666666668,239.58807527070564,16.133333333333333,239.68893473017735,12.1,239.77448932297958C8.066666666666666,239.86004391578183,4.033333333333333,239.93029364191463,2.0166666666666666,239.96541850498102L0,240.0005433680474Z" fill="#d12d41" title="negative"></path><g class="x axis" transform="translate(0,480)" fill="none" font-size="10" font-family="sans-serif" text-anchor="middle" style="stroke-width: 1px; font-size: 10px; font-family: Arial, Helvetica;"><path class="domain" stroke="#000" d="M0.5,6V0.5H847.5V6" style="shape-rendering: crispedges; fill: none; stroke: rgb(204, 204, 204);"></path><g class="tick" opacity="1" transform="translate(63.520833333333336,0)"><line stroke="#000" y2="6" style="shape-rendering: crispedges; fill: none; stroke: rgb(204, 204, 204);"></line><text fill="#000" y="9" dy="0.71em">Jan 26</text></g><g class="tick" opacity="1" transform="translate(148.22083333333333,0)"><line stroke="#000" y2="6" style="shape-rendering: crispedges; fill: none; stroke: rgb(204, 204, 204);"></line><text fill="#000" y="9" dy="0.71em">Feb 02</text></g><g class="tick" opacity="1" transform="translate(232.92083333333335,0)"><line stroke="#000" y2="6" style="shape-rendering: crispedges; fill: none; stroke: rgb(204, 204, 204);"></line><text fill="#000" y="9" dy="0.71em">Feb 09</text></g><g class="tick" opacity="1" transform="translate(317.62083333333334,0)"><line stroke="#000" y2="6" style="shape-rendering: crispedges; fill: none; stroke: rgb(204, 204, 204);"></line><text fill="#000" y="9" dy="0.71em">Feb 16</text></g><g class="tick" opacity="1" transform="translate(402.3208333333333,0)"><line stroke="#000" y2="6" style="shape-rendering: crispedges; fill: none; stroke: rgb(204, 204, 204);"></line><text fill="#000" y="9" dy="0.71em">Feb 23</text></g><g class="tick" opacity="1" transform="translate(487.0208333333333,0)"><line stroke="#000" y2="6" style="shape-rendering: crispedges; fill: none; stroke: rgb(204, 204, 204);"></line><text fill="#000" y="9" dy="0.71em">March</text></g><g class="tick" opacity="1" transform="translate(571.7208333333334,0)"><line stroke="#000" y2="6" style="shape-rendering: crispedges; fill: none; stroke: rgb(204, 204, 204);"></line><text fill="#000" y="9" dy="0.71em">Mar 08</text></g><g class="tick" opacity="1" transform="translate(655.9166666666667,0)"><line stroke="#000" y2="6" style="shape-rendering: crispedges; fill: none; stroke: rgb(204, 204, 204);"></line><text fill="#000" y="9" dy="0.71em">Mar 15</text></g><g class="tick" opacity="1" transform="translate(740.6166666666667,0)"><line stroke="#000" y2="6" style="shape-rendering: crispedges; fill: none; stroke: rgb(204, 204, 204);"></line><text fill="#000" y="9" dy="0.71em">Mar 22</text></g><g class="tick" opacity="1" transform="translate(825.3166666666666,0)"><line stroke="#000" y2="6" style="shape-rendering: crispedges; fill: none; stroke: rgb(204, 204, 204);"></line><text fill="#000" y="9" dy="0.71em">Mar 29</text></g></g></g></svg>