<?xml version="1.0" encoding="utf-8"?>
<!-- Generator: Adobe Illustrator 24.0.3, SVG Export Plug-In . SVG Version: 6.00 Build 0)  -->
<svg version="1.1" id="Layer_1" xmlns="http://www.w3.org/2000/svg" xmlns:xlink="http://www.w3.org/1999/xlink" x="0px" y="0px"
	 viewBox="0 0 847 500" style="enable-background:new 0 0 847 500;" xml:space="preserve">
<style type="text/css">
	.st0{fill:#33FF00;}
	.st1{fill:#B8B8B8;}
	.st2{fill:#BF6969;}
	.st3{fill:none;stroke:#CCCCCC;}
	.st4{font-family:'ArialMT';}
	.st5{font-size:10px;}
	.st6{fill:none;stroke:#000000;stroke-width:0.5;stroke-miterlimit:10;}
	.st7{fill:none;}
	.st8{fill:#C30005;}
	.st9{font-family:'HelveticaNeue-Medium';}
	.st10{font-size:12px;}
	.st11{font-family:'HelveticaNeue-Thin';}
	.st12{fill:#5E5E5E;}
	.st13{fill:#05AA21;}
</style>
<g>
	<path class="st0" d="M0,240h2c2,0,6.1,0,10.1,0s8.1,0,12.1,0s8.1,0,12.1,0s8.1,0,12.1,0s8.1,0,12.1,0s8.1,0,12.1,0s8.1,0,12.1,0
		s8.1,0,12.1,0s8.1,0,12.1,0s8.1,0,12.1,0s8.1,0,12.1,0c4,0,8.1,0,12.1,0c4,0,8.1,0,12.1-0.1c4,0,8.1,0,12.1,0c4,0,8.1,0,12.1,0.1
		s8.1,0,12.1,0c4,0,8.1,0,12.1,0c4,0,8.1,0,12.1,0c4,0,8.1,0,12.1,0c4,0,8.1,0,12.1,0s8.1,0,12.1,0c4,0,8.1,0,12.1,0
		c4,0,8.1,0,12.1,0c4,0,8.1,0,12.1,0c4,0,8.1-0.1,12.1-0.1s8.1,0,12.1,0.1c4,0,8.1,0,12.1,0c4,0,8.1,0,12.1,0c4,0,8.1,0,12.1,0
		s8.1,0,12.1-0.1c4-0.1,8.1-0.2,12.1-0.2s8.1,0.1,14.1,0.2c6,0.1,14.1,0.1,20.2,0.1s10.1,0,14.1,0s8.1,0,12.1-1.9
		c4-1.9,8.1-5.8,12.1-10.4c4-4.6,8.1-9.8,12.1-10.5c4-0.7,8.1,3.2,12.1,6.8c4,3.6,8.1,6.9,12.1,8.9c4,2,8.1,2.6,12.1-5.5
		c4-8.1,8.1-25.1,12.1-43.5c4-18.5,8.1-38.5,12.1-29.8s8.1,46,12.1,65.1c4,19.1,8.1,19.8,12.1,20.2s8.1,0.3,12.1,0.3
		c4,0,8.1,0,12.1,0c4,0,8.1,0.1,12.1,0.1c4,0,8.1,0,12.1,0.1c4,0,8.1,0.1,12.1,0.1c4,0,8.1,0,12.1-0.3c4-0.3,8.1-0.8,12.1-1.1
		c4-0.3,8.1-0.4,12.1-0.3s8.1,0.6,12.1,0.7c4,0.1,8.1-0.1,12.1-0.2c4-0.1,8.1,0,12.1-0.2c4-0.2,8.1-0.6,12.1-0.7
		c4-0.1,8.1,0.2,12.1,0.1c4-0.1,8.1-0.5,12.1-0.4c4,0.1,8.1,0.6,12.1,0.9s8.1,0.2,12.1-3.5c4-3.7,8.1-11.2,12.1-12.7
		s8.1,2.9,12.1,6.3c4,3.4,8.1,5.7,12.1,5.6c4-0.1,8.1-2.7,12.1-42.1s8.1-115.7,12.1-115.1c4,0.6,8.1,78,12.1,116.4
		s8.1,37.7,12.1,37.9s8.1,1.2,12.1,0.2c4-0.9,8.1-3.8,10.1-5.3l2-1.4v9.6l-2,0.6c-2,0.6-6,1.7-10.1,1.9c-4,0.2-8.1-0.5-12.1-0.8
		c-4-0.3-8.1-0.2-12.1-36s-8.1-107.2-12.1-107.7c-4-0.5-8.1,69.9-12.1,106.2s-8.1,38.4-12.1,38.8c-4,0.4-8.1-1-12.1-4.4
		c-4-3.4-8.1-8.9-12.1-8s-8.1,8.4-12.1,11.9c-4,3.5-8.1,3.1-12.1,3.2s-8.1,0.6-12.1,0.7c-4,0.1-8.1-0.2-12.1-0.5
		c-4-0.4-8.1-0.8-12.1-0.8s-8.1,0.3-12.1,0.4c-4,0.1-8.1-0.1-12.1-0.1s-8.1,0.1-12.1-0.1c-4-0.2-8.1-0.6-12.1-0.8s-8.1,0-12.1,0.3
		s-8.1,0.6-12.1,0.8c-4,0.2-8.1,0.2-12.1,0.2s-8.1,0-12.1,0c-4,0-8.1,0-12.1-0.1c-4,0-8.1-0.1-12.1-0.1c-4,0-8.1,0.1-12.1,0.1
		c-4,0.1-8.1,0.1-12.1-0.3c-4-0.3-8.1-1.1-12.1,17.5c-4,18.6-8.1,56.4-12.1,48s-8.1-62.9-12.1-81.9c-4-19-8.1-2.4-12.1,6.6
		s-8.1,10.5-12.1,12.5s-8.1,4.3-12.1,2.4c-4-2-8.1-8.3-12.1-11.1c-4-2.8-8.1-2.2-12.1-0.5c-4,1.7-8.1,4.4-12.1,5.7
		c-4,1.3-8.1,1.3-12.1,1.3s-8.1,0-14.1,0s-14.1,0-20.2,0c-6.1,0-10.1,0.1-14.1,0.2s-8.1-0.1-12.1-0.1s-8.1,0-12.1,0s-8.1,0-12.1,0
		c-4,0-8.1,0-12.1,0c-4,0-8.1,0-12.1,0c-4,0-8.1-0.1-12.1-0.1s-8.1,0-12.1,0.1s-8.1,0-12.1,0c-4,0-8.1,0-12.1,0c-4,0-8.1,0-12.1,0
		c-4,0-8.1,0-12.1,0s-8.1,0-12.1,0c-4,0-8.1,0-12.1,0c-4,0-8.1,0-12.1,0c-4,0-8.1,0-12.1,0c-4,0-8.1,0-12.1,0s-8.1,0-12.1,0
		c-4,0-8.1,0-12.1,0c-4,0-8.1,0-12.1,0.1c-4,0-8.1,0-12.1,0c-4,0-8.1,0-12.1,0s-8.1,0-12.1,0s-8.1,0-12.1,0s-8.1,0-12.1,0
		s-8.1,0-12.1,0s-8.1,0-12.1,0s-8.1,0-12.1,0s-8.1,0-12.1,0s-8.1,0-12.1,0s-8.1,0-12.1,0S4,240,2,240H0z"/>
	<path class="st1" d="M0,240h2c2,0,6.1,0,10.1,0s8.1,0,12.1,0s8.1,0,12.1,0s8.1,0,12.1,0s8.1,0,12.1,0s8.1,0,12.1,0s8.1,0,12.1,0
		s8.1,0,12.1,0s8.1,0,12.1,0s8.1,0,12.1,0s8.1,0,12.1,0c4,0,8.1,0,12.1,0c4,0,8.1,0,12.1-0.1c4,0,8.1,0,12.1,0c4,0,8.1,0,12.1,0
		s8.1,0,12.1,0c4,0,8.1,0,12.1,0c4,0,8.1,0,12.1,0c4,0,8.1,0,12.1,0c4,0,8.1,0,12.1,0s8.1,0,12.1,0c4,0,8.1,0,12.1,0
		c4,0,8.1,0,12.1,0c4,0,8.1,0,12.1,0s8.1-0.1,12.1-0.1s8.1,0,12.1,0.1c4,0,8.1,0,12.1,0c4,0,8.1,0,12.1,0c4,0,8.1,0,12.1,0
		s8.1,0,12.1,0s8.1,0.1,12.1,0.1s8.1-0.1,14.1-0.2c6,0,14.1,0,20.2,0s10.1,0,14.1,0s8.1,0,12.1-1.3c4-1.3,8.1-4,12.1-5.7
		c4-1.7,8.1-2.3,12.1,0.5c4,2.8,8.1,9.2,12.1,11.1c4,2,8.1-0.4,12.1-2.4s8.1-3.5,12.1-12.5s8.1-25.6,12.1-6.6
		c4,19,8.1,73.6,12.1,81.9s8.1-29.5,12.1-48c4-18.6,8.1-17.9,12.1-17.5c4,0.3,8.1,0.3,12.1,0.3c4-0.1,8.1-0.1,12.1-0.1
		c4,0,8.1,0.1,12.1,0.1c4,0,8.1,0.1,12.1,0.1c4,0,8.1,0,12.1,0s8.1,0,12.1-0.2c4-0.2,8.1-0.5,12.1-0.8s8.1-0.4,12.1-0.3
		s8.1,0.6,12.1,0.8c4,0.2,8.1,0.1,12.1,0.1s8.1,0.2,12.1,0.1c4-0.1,8.1-0.4,12.1-0.4s8.1,0.5,12.1,0.8c4,0.4,8.1,0.7,12.1,0.5
		c4-0.1,8.1-0.6,12.1-0.7s8.1,0.4,12.1-3.2c4-3.5,8.1-10.9,12.1-11.9s8.1,4.6,12.1,8c4,3.4,8.1,4.8,12.1,4.4
		c4-0.4,8.1-2.5,12.1-38.8s8.1-106.7,12.1-106.2c4,0.5,8.1,72,12.1,107.7s8.1,35.6,12.1,36c4,0.3,8.1,1,12.1,0.8
		c4-0.2,8.1-1.4,10.1-1.9l2-0.6v6.7l-2-0.1c-2-0.1-6-0.3-10.1-0.6c-4-0.3-8.1-0.8-12.1-1.2c-4-0.3-8.1-0.6-12.1-35.2
		s-8.1-103.6-12.1-103.7c-4-0.1-8.1,68.8-12.1,103.8s-8.1,35.9-12.1,36.3c-4,0.3-8.1,0-12.1-3s-8.1-8.7-12.1-8.6
		c-4,0.2-8.1,6.3-12.1,9.2c-4,2.9-8.1,2.6-12.1,2.8s-8.1,0.9-12.1,1c-4,0.1-8.1-0.3-12.1-0.4c-4-0.1-8.1,0-12.1-0.1
		s-8.1-0.3-12.1-0.7c-4-0.3-8.1-0.7-12.1-0.7c-4-0.1-8.1,0.2-12.1,0.2c-4,0.1-8.1-0.1-12.1-0.2c-4-0.2-8.1-0.4-12.1-0.4
		s-8.1,0.3-12.1,0.4c-4,0.1-8.1,0.1-12.1,0.1c-4,0-8.1,0-12.1,0c-4,0-8.1-0.1-12.1-0.1s-8.1-0.1-12.1-0.1c-4,0.1-8.1,0.3-12.1,0.3
		c-4,0.1-8.1,0-12.1-0.4s-8.1-1.1-12.1,17.8c-4,18.8-8.1,57.1-12.1,51.4s-8.1-55.4-12.1-73.7c-4-18.3-8.1-5.1-12.1,1.8
		c-4,6.9-8.1,7.5-12.1,9.4c-4,1.9-8.1,4.9-12.1,6.6c-4,1.6-8.1,1.8-12.1,0.5c-4-1.3-8.1-4-12.1-6.5c-4-2.5-8.1-4.8-12.1-5.9
		c-4-1.1-8.1-1.1-12.1-1.1s-8.1,0-14.1,0s-14.1,0-20.2,0.1c-6.1,0.1-10.1,0.2-14.1,0.2s-8.1-0.1-12.1-0.2c-4-0.1-8.1-0.1-12.1-0.1
		s-8.1,0-12.1,0c-4,0-8.1,0-12.1,0c-4,0-8.1,0-12.1,0c-4,0-8.1,0.1-12.1,0.1s-8.1,0-12.1-0.1s-8.1-0.1-12.1-0.1c-4,0-8.1,0-12.1,0
		c-4,0-8.1,0-12.1,0c-4,0-8.1,0-12.1,0s-8.1,0-12.1,0c-4,0-8.1,0-12.1,0c-4,0-8.1,0-12.1,0c-4,0-8.1,0-12.1,0c-4,0-8.1,0-12.1,0
		s-8.1,0.1-12.1,0.1c-4,0-8.1,0-12.1-0.1c-4,0-8.1,0-12.1,0c-4,0-8.1,0-12.1,0c-4,0-8.1,0-12.1,0s-8.1,0-12.1,0s-8.1,0-12.1,0
		s-8.1,0-12.1,0s-8.1,0-12.1,0s-8.1,0-12.1,0s-8.1,0-12.1,0s-8.1,0-12.1,0s-8.1,0-12.1,0s-8.1,0-12.1,0S4,240,2,240H0z"/>
	<path class="st2" d="M0,240h2c2,0,6.1,0,10.1,0s8.1,0,12.1,0s8.1,0,12.1,0s8.1,0,12.1,0s8.1,0,12.1,0s8.1,0,12.1,0s8.1,0,12.1,0
		s8.1,0,12.1,0s8.1,0,12.1,0s8.1,0,12.1,0s8.1,0,12.1,0c4,0,8.1,0,12.1,0c4,0,8.1,0,12.1,0c4,0,8.1,0.1,12.1,0.1c4,0,8.1,0,12.1-0.1
		s8.1,0,12.1,0c4,0,8.1,0,12.1,0c4,0,8.1,0,12.1,0c4,0,8.1,0,12.1,0c4,0,8.1,0,12.1,0s8.1,0,12.1,0c4,0,8.1,0,12.1,0
		c4,0,8.1,0,12.1,0c4,0,8.1,0,12.1,0.1s8.1,0.1,12.1,0.1s8.1,0,12.1-0.1c4,0,8.1,0,12.1,0c4,0,8.1,0,12.1,0c4,0,8.1,0,12.1,0
		s8.1,0,12.1,0.1c4,0.1,8.1,0.2,12.1,0.2s8.1-0.1,14.1-0.2c6-0.1,14.1-0.1,20.2-0.1s10.1,0,14.1,0s8.1,0,12.1,1.1
		c4,1.1,8.1,3.4,12.1,5.9c4,2.5,8.1,5.3,12.1,6.5c4,1.3,8.1,1.1,12.1-0.5c4-1.6,8.1-4.7,12.1-6.6c4-1.9,8.1-2.5,12.1-9.4
		c4-6.9,8.1-20.1,12.1-1.8c4,18.3,8.1,68,12.1,73.7s8.1-32.6,12.1-51.4c4-18.8,8.1-18.1,12.1-17.8s8.1,0.5,12.1,0.4
		c4-0.1,8.1-0.3,12.1-0.3c4-0.1,8.1,0,12.1,0.1s8.1,0.1,12.1,0.1c4,0,8.1,0,12.1,0c4,0,8.1,0,12.1-0.1c4-0.1,8.1-0.4,12.1-0.4
		s8.1,0.2,12.1,0.4c4,0.2,8.1,0.3,12.1,0.2c4-0.1,8.1-0.3,12.1-0.2c4,0.1,8.1,0.4,12.1,0.7c4,0.3,8.1,0.6,12.1,0.7s8.1-0.1,12.1,0.1
		c4,0.1,8.1,0.5,12.1,0.4c4-0.1,8.1-0.8,12.1-1s8.1,0.1,12.1-2.8c4-2.9,8.1-9,12.1-9.2c4-0.2,8.1,5.5,12.1,8.6s8.1,3.3,12.1,3
		c4-0.3,8.1-1.3,12.1-36.3s8.1-103.8,12.1-103.8c4,0.1,8.1,69.1,12.1,103.7s8.1,34.8,12.1,35.2c4,0.3,8.1,0.8,12.1,1.2
		c4,0.3,8.1,0.5,10.1,0.6l2,0.1v14.4l-2-1.4c-2-1.4-6-4.3-10.1-5.3c-4-0.9-8.1,0.1-12.1,0.2s-8.1-0.5-12.1,37.9
		s-8.1,115.8-12.1,116.4c-4,0.6-8.1-75.7-12.1-115.1s-8.1-42-12.1-42.1c-4-0.1-8.1,2.2-12.1,5.6c-4,3.4-8.1,7.8-12.1,6.3
		s-8.1-9-12.1-12.7c-4-3.7-8.1-3.8-12.1-3.5s-8.1,0.8-12.1,0.9c-4,0.1-8.1-0.4-12.1-0.4c-4-0.1-8.1,0.2-12.1,0.1
		c-4-0.1-8.1-0.5-12.1-0.7c-4-0.2-8.1-0.1-12.1-0.2c-4-0.1-8.1-0.3-12.1-0.2c-4,0.1-8.1,0.6-12.1,0.7s-8.1,0-12.1-0.3
		c-4-0.3-8.1-0.8-12.1-1.1c-4-0.3-8.1-0.3-12.1-0.3c-4,0-8.1,0.1-12.1,0.1c-4,0-8.1,0-12.1,0.1c-4,0-8.1,0.1-12.1,0.1
		c-4,0-8.1,0-12.1,0c-4,0-8.1-0.1-12.1,0.3s-8.1,1.1-12.1,20.2c-4,19.1-8.1,56.4-12.1,65.1c-4,8.7-8.1-11.3-12.1-29.8
		c-4-18.5-8.1-35.4-12.1-43.5c-4-8.1-8.1-7.5-12.1-5.5c-4,2-8.1,5.3-12.1,8.9s-8.1,7.5-12.1,6.8c-4-0.7-8.1-5.9-12.1-10.5
		c-4-4.6-8.1-8.4-12.1-10.4c-4-1.9-8.1-1.9-12.1-1.9s-8.1,0-14.1,0s-14.1,0-20.2,0.1c-6.1,0.1-10.1,0.2-14.1,0.2s-8.1-0.1-12.1-0.2
		c-4-0.1-8.1-0.1-12.1-0.1s-8.1,0-12.1,0c-4,0-8.1,0-12.1,0c-4,0-8.1,0-12.1,0c-4,0-8.1,0.1-12.1,0.1s-8.1,0-12.1-0.1
		c-4,0-8.1,0-12.1,0c-4,0-8.1,0-12.1,0c-4,0-8.1,0-12.1,0c-4,0-8.1,0-12.1,0s-8.1,0-12.1,0c-4,0-8.1,0-12.1,0c-4,0-8.1,0-12.1,0
		c-4,0-8.1,0-12.1,0c-4,0-8.1,0-12.1,0s-8.1,0.1-12.1,0.1c-4,0-8.1,0-12.1,0c-4,0-8.1-0.1-12.1-0.1c-4,0-8.1,0-12.1,0
		c-4,0-8.1,0-12.1,0s-8.1,0-12.1,0s-8.1,0-12.1,0s-8.1,0-12.1,0s-8.1,0-12.1,0s-8.1,0-12.1,0s-8.1,0-12.1,0s-8.1,0-12.1,0
		s-8.1,0-12.1,0s-8.1,0-12.1,0S4,240,2,240H0z"/>
	<g transform="translate(0,480)">
		<path class="st3" d="M0.5,6V0.5h847V6"/>
		<g transform="translate(63.520833333333336,0)">
			<line class="st3" x1="0" y1="0" x2="0" y2="6"/>
			<text transform="matrix(1 0 0 1 -15.0122 16.1)" class="st4 st5">Jan 26</text>
		</g>
		<g transform="translate(148.22083333333333,0)">
			<line class="st3" x1="0" y1="0" x2="0" y2="6"/>
			<text transform="matrix(1 0 0 1 -15.5664 16.1)" class="st4 st5">Feb 02</text>
		</g>
		<g transform="translate(232.92083333333335,0)">
			<line class="st3" x1="0" y1="0" x2="0" y2="6"/>
			<text transform="matrix(1 0 0 1 -15.5664 16.1)" class="st4 st5">Feb 09</text>
		</g>
		<g transform="translate(317.62083333333334,0)">
			<line class="st3" x1="0" y1="0" x2="0" y2="6"/>
			<text transform="matrix(1 0 0 1 -15.5664 16.1)" class="st4 st5">Feb 16</text>
		</g>
		<g transform="translate(402.3208333333333,0)">
			<line class="st3" x1="0" y1="0" x2="0" y2="6"/>
			<text transform="matrix(1 0 0 1 -15.5664 16.1)" class="st4 st5">Feb 23</text>
		</g>
		<g transform="translate(487.0208333333333,0)">
			<line class="st3" x1="0" y1="0" x2="0" y2="6"/>
			<text transform="matrix(1 0 0 1 -13.8916 16.1)" class="st4 st5">March</text>
		</g>
		<g transform="translate(571.7208333333334,0)">
			<line class="st3" x1="0" y1="0" x2="0" y2="6"/>
			<text transform="matrix(1 0 0 1 -15.5615 16.1)" class="st4 st5">Mar 08</text>
		</g>
		<g transform="translate(655.9166666666667,0)">
			<line class="st3" x1="0" y1="0" x2="0" y2="6"/>
			<text transform="matrix(1 0 0 1 -15.5615 16.1)" class="st4 st5">Mar 15</text>
		</g>
		<g transform="translate(740.6166666666667,0)">
			<line class="st3" x1="0" y1="0" x2="0" y2="6"/>
			<text transform="matrix(1 0 0 1 -15.5615 16.1)" class="st4 st5">Mar 22</text>
		</g>
		<g transform="translate(825.3166666666666,0)">
			<line class="st3" x1="0" y1="0" x2="0" y2="6"/>
			<text transform="matrix(1 0 0 1 -15.5615 16.1)" class="st4 st5">Mar 29</text>
		</g>
	</g>
</g>
<line class="st6" x1="797.8" y1="49.7" x2="797.8" y2="435.9"/>
<rect x="660.4" y="49.7" class="st7" width="129.3" height="112.2"/>
<text transform="matrix(1 0 0 1 737.9011 58.2253)"><tspan x="0" y="0" class="st8 st9 st10">March 27</tspan><tspan x="-71.3" y="12" class="st11 st5">Dr. Birx declares at WH press</tspan><tspan x="-72.2" y="24" class="st11 st5">conference that predictions of</tspan><tspan x="-69.4" y="36" class="st11 st5">early COVID-19 models were </tspan><tspan x="-67.9" y="48" class="st11 st5">“extreme” and do not “match </tspan><tspan x="-61.8" y="60" class="st11 st5">the realities on the ground.” </tspan></text>
<line class="st6" x1="459.8" y1="49.7" x2="459.8" y2="435.9"/>
<rect x="322.4" y="52.8" class="st7" width="129.3" height="112.2"/>
<text transform="matrix(1 0 0 1 385.6465 61.3675)"><tspan x="0" y="0" class="st12 st9 st10">February 27</tspan><tspan x="-26.8" y="12" class="st11 st5">Dr. Birx announced by </tspan><tspan x="-61.8" y="24" class="st11 st5">VPOTUS Mike Pence as White </tspan><tspan x="-58.9" y="36" class="st11 st5">House Coronavirus Response </tspan><tspan x="14.5" y="48" class="st11 st5">Coordinator.  </tspan></text>
<line class="st6" x1="516.2" y1="49.7" x2="516.2" y2="435.9"/>
<rect x="523.7" y="49.7" class="st7" width="129.3" height="112.2"/>
<text transform="matrix(1 0 0 1 523.6561 58.2253)"><tspan x="0" y="0" class="st13 st9 st10">March 03</tspan><tspan x="0" y="12" class="st11 st5">Meets with Pence and </tspan><tspan x="0" y="24" class="st11 st5">Congressional Problem </tspan><tspan x="0" y="36" class="st11 st5">Solvers Caucus to present </tspan><tspan x="0" y="48" class="st11 st5">solutions for mitigating </tspan><tspan x="0" y="60" class="st11 st5">COVID-19 transmission. </tspan></text>
</svg>
