<?xml version="1.0" encoding="utf-8"?>
<!-- Generator: Adobe Illustrator 24.0.3, SVG Export Plug-In . SVG Version: 6.00 Build 0)  -->
<svg version="1.1" id="Layer_1" xmlns="http://www.w3.org/2000/svg" xmlns:xlink="http://www.w3.org/1999/xlink" x="0px" y="0px"
	 viewBox="0 0 1149.7 500" style="enable-background:new 0 0 1149.7 500;" xml:space="preserve">
<style type="text/css">
	.st0{display:none;}
	.st1{display:inline;fill:none;stroke:#000000;stroke-width:0.5;stroke-miterlimit:10;}
	.st2{display:inline;}
	.st3{fill:#05AA21;}
	.st4{fill:#B8B8B8;}
	.st5{fill:#C30005;}
	.st6{display:inline;fill:none;}
	.st7{display:inline;fill:#C30005;}
	.st8{font-family:'HelveticaNeue-Medium';}
	.st9{font-size:12px;}
	.st10{font-family:'HelveticaNeue-Thin';}
	.st11{font-size:10px;}
	.st12{display:inline;fill:#5E5E5E;}
	.st13{display:inline;fill:#05AA21;}
	.st14{font-size:14px;}
	.st15{font-family:'HelveticaNeue-Light';}
	.st16{fill:none;stroke:#000000;stroke-width:0.5;stroke-miterlimit:10;}
	.st17{fill:#05D122;}
	.st18{fill:#E0E2E0;}
	.st19{fill:none;}
	.st20{fill:#5E5E5E;}
	.st21{font-family:'HelveticaNeue';}
	.st22{fill:#535353;}
	.st23{fill:#AFAFAF;}
	.st24{fill:#CE0005;}
	.st25{fill:#74DB63;}
	.st26{fill:#C7C7C7;}
	.st27{fill:#C42F2F;}
	.st28{fill:#75BF69;}
	.st29{fill:#8A8A8A;}
	.st30{fill:#BF6969;}
	.st31{fill:#85BF69;}
	.st32{fill:#B3B3B3;}
	.st33{fill:#F5441D;}
	.st34{font-size:16px;}
	.st35{fill:#FFFFFF;}
	.st36{font-size:11px;}
	.st37{fill:none;stroke:#000000;stroke-miterlimit:10;}
	.st38{font-size:8.278px;}
</style>
<g id="birx" class="st0">
	<line id="feb27Line" class="st1" x1="597.8" y1="150.8" x2="597.8" y2="253.6"/>
	<line id="mar03Line" class="st1" x1="654.2" y1="49.7" x2="654.2" y2="251.9"/>
	<line id="mar27Line" class="st1" x1="936.6" y1="156.4" x2="936.6" y2="410.7"/>
	<g id="birxPath" class="st2">
		<path id="birxPositive" class="st3" d="M138,240h2c2,0,6.1,0,10.1,0s8.1,0,12.1,0s8.1,0,12.1,0s8.1,0,12.1,0s8.1,0,12.1,0
			s8.1,0,12.1,0s8.1,0,12.1,0s8.1,0,12.1,0s8.1,0,12.1,0s8.1,0,12.1,0s8.1,0,12.1,0s8.1,0,12.1,0s8.1,0,12.1-0.1c4,0,8.1,0,12.1,0
			s8.1,0,12.1,0.1s8.1,0,12.1,0s8.1,0,12.1,0s8.1,0,12.1,0s8.1,0,12.1,0s8.1,0,12.1,0s8.1,0,12.1,0c4,0,8.1,0,12.1,0s8.1,0,12.1,0
			s8.1,0,12.1,0s8.1-0.1,12.1-0.1s8.1,0,12.1,0.1c4,0,8.1,0,12.1,0s8.1,0,12.1,0s8.1,0,12.1,0s8.1,0,12.1-0.1s8.1-0.2,12.1-0.2
			c4,0,8.1,0.1,14.1,0.2c6,0.1,14.1,0.1,20.2,0.1c6.1,0,10.1,0,14.1,0s8.1,0,12.1-1.9s8.1-5.8,12.1-10.4c4-4.6,8.1-9.8,12.1-10.5
			s8.1,3.2,12.1,6.8s8.1,6.9,12.1,8.9s8.1,2.6,12.1-5.5s8.1-25.1,12.1-43.5c4-18.5,8.1-38.5,12.1-29.8s8.1,46,12.1,65.1
			s8.1,19.8,12.1,20.2s8.1,0.3,12.1,0.3s8.1,0,12.1,0s8.1,0.1,12.1,0.1s8.1,0,12.1,0.1c4,0,8.1,0.1,12.1,0.1s8.1,0,12.1-0.3
			s8.1-0.8,12.1-1.1s8.1-0.4,12.1-0.3s8.1,0.6,12.1,0.7c4,0.1,8.1-0.1,12.1-0.2c4-0.1,8.1,0,12.1-0.2s8.1-0.6,12.1-0.7
			c4-0.1,8.1,0.2,12.1,0.1c4-0.1,8.1-0.5,12.1-0.4s8.1,0.6,12.1,0.9s8.1,0.2,12.1-3.5s8.1-11.2,12.1-12.7s8.1,2.9,12.1,6.3
			c4,3.4,8.1,5.7,12.1,5.6c4-0.1,8.1-2.7,12.1-42.1S932.6,76.4,936.6,77s8.1,78,12.1,116.4s8.1,37.7,12.1,37.9s8.1,1.2,12.1,0.2
			c4-0.9,8.1-3.8,10.1-5.3l2-1.4v9.6l-2,0.6c-2,0.6-6,1.7-10.1,1.9c-4,0.2-8.1-0.5-12.1-0.8s-8.1-0.2-12.1-36s-8.1-107.2-12.1-107.7
			s-8.1,69.9-12.1,106.2s-8.1,38.4-12.1,38.8s-8.1-1-12.1-4.4s-8.1-8.9-12.1-8s-8.1,8.4-12.1,11.9s-8.1,3.1-12.1,3.2
			s-8.1,0.6-12.1,0.7c-4,0.1-8.1-0.2-12.1-0.5c-4-0.4-8.1-0.8-12.1-0.8s-8.1,0.3-12.1,0.4c-4,0.1-8.1-0.1-12.1-0.1
			s-8.1,0.1-12.1-0.1c-4-0.2-8.1-0.6-12.1-0.8s-8.1,0-12.1,0.3s-8.1,0.6-12.1,0.8s-8.1,0.2-12.1,0.2s-8.1,0-12.1,0s-8.1,0-12.1-0.1
			c-4,0-8.1-0.1-12.1-0.1s-8.1,0.1-12.1,0.1c-4,0.1-8.1,0.1-12.1-0.3c-4-0.3-8.1-1.1-12.1,17.5s-8.1,56.4-12.1,48
			s-8.1-62.9-12.1-81.9c-4-19-8.1-2.4-12.1,6.6s-8.1,10.5-12.1,12.5s-8.1,4.3-12.1,2.4c-4-2-8.1-8.3-12.1-11.1s-8.1-2.2-12.1-0.5
			s-8.1,4.4-12.1,5.7s-8.1,1.3-12.1,1.3s-8.1,0-14.1,0s-14.1,0-20.2,0c-6.1,0-10.1,0.1-14.1,0.2c-4,0.1-8.1-0.1-12.1-0.1
			s-8.1,0-12.1,0s-8.1,0-12.1,0s-8.1,0-12.1,0s-8.1,0-12.1,0s-8.1-0.1-12.1-0.1s-8.1,0-12.1,0.1s-8.1,0-12.1,0s-8.1,0-12.1,0
			s-8.1,0-12.1,0s-8.1,0-12.1,0s-8.1,0-12.1,0s-8.1,0-12.1,0s-8.1,0-12.1,0s-8.1,0-12.1,0s-8.1,0-12.1,0s-8.1,0-12.1,0
			s-8.1,0-12.1,0s-8.1,0-12.1,0.1c-4,0-8.1,0-12.1,0s-8.1,0-12.1,0c-4,0-8.1,0-12.1,0s-8.1,0-12.1,0s-8.1,0-12.1,0s-8.1,0-12.1,0
			s-8.1,0-12.1,0s-8.1,0-12.1,0s-8.1,0-12.1,0s-8.1,0-12.1,0s-8.1,0-12.1,0S142,240,140,240H138z"/>
		<path id="birxNeutral" class="st4" d="M138,240h2c2,0,6.1,0,10.1,0s8.1,0,12.1,0s8.1,0,12.1,0s8.1,0,12.1,0s8.1,0,12.1,0
			s8.1,0,12.1,0s8.1,0,12.1,0s8.1,0,12.1,0s8.1,0,12.1,0s8.1,0,12.1,0s8.1,0,12.1,0s8.1,0,12.1,0s8.1,0,12.1-0.1c4,0,8.1,0,12.1,0
			s8.1,0,12.1,0s8.1,0,12.1,0s8.1,0,12.1,0s8.1,0,12.1,0s8.1,0,12.1,0s8.1,0,12.1,0s8.1,0,12.1,0c4,0,8.1,0,12.1,0s8.1,0,12.1,0
			s8.1,0,12.1,0s8.1-0.1,12.1-0.1s8.1,0,12.1,0.1c4,0,8.1,0,12.1,0s8.1,0,12.1,0s8.1,0,12.1,0s8.1,0,12.1,0s8.1,0.1,12.1,0.1
			c4,0,8.1-0.1,14.1-0.2c6,0,14.1,0,20.2,0c6.1,0,10.1,0,14.1,0s8.1,0,12.1-1.3s8.1-4,12.1-5.7s8.1-2.3,12.1,0.5s8.1,9.2,12.1,11.1
			c4,2,8.1-0.4,12.1-2.4s8.1-3.5,12.1-12.5s8.1-25.6,12.1-6.6c4,19,8.1,73.6,12.1,81.9s8.1-29.5,12.1-48c4-18.6,8.1-17.9,12.1-17.5
			c4,0.3,8.1,0.3,12.1,0.3c4-0.1,8.1-0.1,12.1-0.1s8.1,0.1,12.1,0.1s8.1,0.1,12.1,0.1s8.1,0,12.1,0s8.1,0,12.1-0.2s8.1-0.5,12.1-0.8
			s8.1-0.4,12.1-0.3s8.1,0.6,12.1,0.8s8.1,0.1,12.1,0.1s8.1,0.2,12.1,0.1c4-0.1,8.1-0.4,12.1-0.4s8.1,0.5,12.1,0.8
			c4,0.4,8.1,0.7,12.1,0.5c4-0.1,8.1-0.6,12.1-0.7s8.1,0.4,12.1-3.2c4-3.5,8.1-10.9,12.1-11.9s8.1,4.6,12.1,8s8.1,4.8,12.1,4.4
			c4-0.4,8.1-2.5,12.1-38.8s8.1-106.7,12.1-106.2s8.1,72,12.1,107.7s8.1,35.6,12.1,36c4,0.3,8.1,1,12.1,0.8s8.1-1.4,10.1-1.9l2-0.6
			v6.7l-2-0.1c-2-0.1-6-0.3-10.1-0.6c-4-0.3-8.1-0.8-12.1-1.2c-4-0.3-8.1-0.6-12.1-35.2s-8.1-103.6-12.1-103.7s-8.1,68.8-12.1,103.8
			s-8.1,35.9-12.1,36.3c-4,0.3-8.1,0-12.1-3s-8.1-8.7-12.1-8.6c-4,0.2-8.1,6.3-12.1,9.2s-8.1,2.6-12.1,2.8s-8.1,0.9-12.1,1
			s-8.1-0.3-12.1-0.4c-4-0.1-8.1,0-12.1-0.1s-8.1-0.3-12.1-0.7c-4-0.3-8.1-0.7-12.1-0.7c-4-0.1-8.1,0.2-12.1,0.2
			c-4,0.1-8.1-0.1-12.1-0.2c-4-0.2-8.1-0.4-12.1-0.4s-8.1,0.3-12.1,0.4c-4,0.1-8.1,0.1-12.1,0.1s-8.1,0-12.1,0s-8.1-0.1-12.1-0.1
			s-8.1-0.1-12.1-0.1c-4,0.1-8.1,0.3-12.1,0.3c-4,0.1-8.1,0-12.1-0.4s-8.1-1.1-12.1,17.8c-4,18.8-8.1,57.1-12.1,51.4
			s-8.1-55.4-12.1-73.7c-4-18.3-8.1-5.1-12.1,1.8c-4,6.9-8.1,7.5-12.1,9.4s-8.1,4.9-12.1,6.6c-4,1.6-8.1,1.8-12.1,0.5
			s-8.1-4-12.1-6.5s-8.1-4.8-12.1-5.9c-4-1.1-8.1-1.1-12.1-1.1s-8.1,0-14.1,0s-14.1,0-20.2,0.1c-6.1,0.1-10.1,0.2-14.1,0.2
			c-4,0-8.1-0.1-12.1-0.2c-4-0.1-8.1-0.1-12.1-0.1s-8.1,0-12.1,0s-8.1,0-12.1,0s-8.1,0-12.1,0s-8.1,0.1-12.1,0.1s-8.1,0-12.1-0.1
			s-8.1-0.1-12.1-0.1s-8.1,0-12.1,0s-8.1,0-12.1,0s-8.1,0-12.1,0s-8.1,0-12.1,0s-8.1,0-12.1,0s-8.1,0-12.1,0s-8.1,0-12.1,0
			s-8.1,0-12.1,0s-8.1,0.1-12.1,0.1s-8.1,0-12.1-0.1c-4,0-8.1,0-12.1,0s-8.1,0-12.1,0s-8.1,0-12.1,0c-4,0-8.1,0-12.1,0
			s-8.1,0-12.1,0s-8.1,0-12.1,0s-8.1,0-12.1,0s-8.1,0-12.1,0s-8.1,0-12.1,0s-8.1,0-12.1,0s-8.1,0-12.1,0s-8.1,0-12.1,0
			S142,240,140,240H138z"/>
		<path id="birxNegative" class="st5" d="M138,240h2c2,0,6.1,0,10.1,0s8.1,0,12.1,0s8.1,0,12.1,0s8.1,0,12.1,0s8.1,0,12.1,0
			s8.1,0,12.1,0s8.1,0,12.1,0s8.1,0,12.1,0s8.1,0,12.1,0s8.1,0,12.1,0s8.1,0,12.1,0s8.1,0,12.1,0s8.1,0,12.1,0s8.1,0.1,12.1,0.1
			s8.1,0,12.1-0.1s8.1,0,12.1,0s8.1,0,12.1,0s8.1,0,12.1,0s8.1,0,12.1,0s8.1,0,12.1,0s8.1,0,12.1,0c4,0,8.1,0,12.1,0s8.1,0,12.1,0
			s8.1,0,12.1,0.1s8.1,0.1,12.1,0.1s8.1,0,12.1-0.1c4,0,8.1,0,12.1,0s8.1,0,12.1,0s8.1,0,12.1,0s8.1,0,12.1,0.1s8.1,0.2,12.1,0.2
			c4,0,8.1-0.1,14.1-0.2c6-0.1,14.1-0.1,20.2-0.1c6.1,0,10.1,0,14.1,0s8.1,0,12.1,1.1s8.1,3.4,12.1,5.9s8.1,5.3,12.1,6.5
			c4,1.3,8.1,1.1,12.1-0.5s8.1-4.7,12.1-6.6c4-1.9,8.1-2.5,12.1-9.4s8.1-20.1,12.1-1.8c4,18.3,8.1,68,12.1,73.7s8.1-32.6,12.1-51.4
			s8.1-18.1,12.1-17.8s8.1,0.5,12.1,0.4s8.1-0.3,12.1-0.3c4-0.1,8.1,0,12.1,0.1s8.1,0.1,12.1,0.1s8.1,0,12.1,0s8.1,0,12.1-0.1
			s8.1-0.4,12.1-0.4s8.1,0.2,12.1,0.4s8.1,0.3,12.1,0.2s8.1-0.3,12.1-0.2s8.1,0.4,12.1,0.7s8.1,0.6,12.1,0.7s8.1-0.1,12.1,0.1
			c4,0.1,8.1,0.5,12.1,0.4s8.1-0.8,12.1-1s8.1,0.1,12.1-2.8c4-2.9,8.1-9,12.1-9.2s8.1,5.5,12.1,8.6s8.1,3.3,12.1,3
			s8.1-1.3,12.1-36.3s8.1-103.8,12.1-103.8c4,0.1,8.1,69.1,12.1,103.7s8.1,34.8,12.1,35.2c4,0.3,8.1,0.8,12.1,1.2
			c4,0.3,8.1,0.5,10.1,0.6l2,0.1v14.4l-2-1.4c-2-1.4-6-4.3-10.1-5.3c-4-0.9-8.1,0.1-12.1,0.2s-8.1-0.5-12.1,37.9
			s-8.1,115.8-12.1,116.4s-8.1-75.7-12.1-115.1s-8.1-42-12.1-42.1s-8.1,2.2-12.1,5.6c-4,3.4-8.1,7.8-12.1,6.3s-8.1-9-12.1-12.7
			s-8.1-3.8-12.1-3.5s-8.1,0.8-12.1,0.9c-4,0.1-8.1-0.4-12.1-0.4c-4-0.1-8.1,0.2-12.1,0.1c-4-0.1-8.1-0.5-12.1-0.7
			s-8.1-0.1-12.1-0.2c-4-0.1-8.1-0.3-12.1-0.2s-8.1,0.6-12.1,0.7s-8.1,0-12.1-0.3s-8.1-0.8-12.1-1.1s-8.1-0.3-12.1-0.3
			s-8.1,0.1-12.1,0.1s-8.1,0-12.1,0.1c-4,0-8.1,0.1-12.1,0.1s-8.1,0-12.1,0s-8.1-0.1-12.1,0.3s-8.1,1.1-12.1,20.2
			s-8.1,56.4-12.1,65.1s-8.1-11.3-12.1-29.8c-4-18.5-8.1-35.4-12.1-43.5s-8.1-7.5-12.1-5.5s-8.1,5.3-12.1,8.9
			c-4,3.6-8.1,7.5-12.1,6.8s-8.1-5.9-12.1-10.5s-8.1-8.4-12.1-10.4c-4-1.9-8.1-1.9-12.1-1.9s-8.1,0-14.1,0s-14.1,0-20.2,0.1
			c-6.1,0.1-10.1,0.2-14.1,0.2c-4,0-8.1-0.1-12.1-0.2c-4-0.1-8.1-0.1-12.1-0.1s-8.1,0-12.1,0s-8.1,0-12.1,0s-8.1,0-12.1,0
			s-8.1,0.1-12.1,0.1s-8.1,0-12.1-0.1c-4,0-8.1,0-12.1,0s-8.1,0-12.1,0s-8.1,0-12.1,0s-8.1,0-12.1,0s-8.1,0-12.1,0s-8.1,0-12.1,0
			s-8.1,0-12.1,0s-8.1,0-12.1,0s-8.1,0-12.1,0s-8.1,0.1-12.1,0.1s-8.1,0-12.1,0s-8.1-0.1-12.1-0.1s-8.1,0-12.1,0s-8.1,0-12.1,0
			c-4,0-8.1,0-12.1,0s-8.1,0-12.1,0s-8.1,0-12.1,0s-8.1,0-12.1,0s-8.1,0-12.1,0s-8.1,0-12.1,0s-8.1,0-12.1,0s-8.1,0-12.1,0
			s-8.1,0-12.1,0S142,240,140,240H138z"/>
	</g>
	<rect id="mar27box" x="794.4" y="340.6" class="st6" width="129.3" height="112.2"/>
	<text transform="matrix(1 0 0 1 866.6794 349.1427)" class="st7 st8 st9">March 27</text>
	<text transform="matrix(1 0 0 1 795.3796 361.1427)" class="st2 st10 st11">Dr. Birx declares at WH press</text>
	<text transform="matrix(1 0 0 1 794.4797 373.1427)" class="st2 st10 st11">conference that predictions of</text>
	<text transform="matrix(1 0 0 1 797.2795 385.1427)" class="st2 st10 st11">early COVID-19 models were </text>
	<text transform="matrix(1 0 0 1 798.7795 397.1427)" class="st2 st10 st11">“extreme” and do not “match </text>
	<text transform="matrix(1 0 0 1 804.8796 409.1427)" class="st2 st10 st11">the realities on the ground.” </text>
	<text transform="matrix(1 0 0 1 523.6442 156.4486)" class="st12 st8 st9">February 27</text>
	<text transform="matrix(1 0 0 1 496.8443 168.4486)" class="st2 st10 st11">Dr. Birx announced by </text>
	<text transform="matrix(1 0 0 1 461.8443 180.4486)" class="st2 st10 st11">VPOTUS Mike Pence as White </text>
	<text transform="matrix(1 0 0 1 464.7442 192.4486)" class="st2 st10 st11">House Coronavirus Response </text>
	<text transform="matrix(1 0 0 1 538.1442 204.4486)" class="st2 st10 st11">Coordinator.  </text>
	<text transform="matrix(1 0 0 1 661.654 58.2253)" class="st13 st8 st9">March 03-04</text>
	<text transform="matrix(1 0 0 1 661.654 70.2253)" class="st2 st10 st11">Meets with Pence and </text>
	<text transform="matrix(1 0 0 1 661.654 82.2253)" class="st2 st10 st11">Congressional Problem </text>
	<text transform="matrix(1 0 0 1 661.654 94.2253)" class="st2 st10 st11">Solvers Caucus to present </text>
	<text transform="matrix(1 0 0 1 661.654 106.2253)" class="st2 st10 st11">solutions for mitigating </text>
	<text transform="matrix(1 0 0 1 661.654 118.2253)" class="st2 st10 st11">COVID-19 transmission. </text>
	<line class="st1" x1="1009.8" y1="403.4" x2="1009.8" y2="77"/>
	<line class="st1" x1="1002.2" y1="403.4" x2="1017.3" y2="403.4"/>
	<line class="st1" x1="1002.2" y1="77" x2="1017.3" y2="77"/>
	<text transform="matrix(1 0 0 1 1022.3497 221.529)" class="st2"><tspan x="0" y="0" class="st5 st8 st14">Peak: </tspan><tspan x="0" y="16.8" class="st10 st14">March 30th, </tspan><tspan x="0" y="33.6" class="st10 st14">estimated</tspan><tspan x="63.1" y="33.6" class="st15 st14">  </tspan><tspan x="0" y="50.4" class="st5 st8 st14">3.6 million</tspan><tspan x="0" y="67.2" class="st10 st14">favorites</tspan></text>
</g>
<g id="fauci">
	<line id="mar13Line" class="st16" x1="762.8" y1="47.5" x2="762.8" y2="240.6"/>
	<line id="mar03Line_1_" class="st16" x1="643.6" y1="198.3" x2="643.6" y2="428.8"/>
	<line id="mar23Line" class="st16" x1="886.2" y1="47.5" x2="886.2" y2="247.7"/>
	<line id="feb17Line" class="st16" x1="461" y1="153.5" x2="461" y2="243"/>
	<line id="jan28Line" class="st16" x1="219" y1="241.2" x2="219" y2="340.1"/>
	<g id="fauciPath">
		<line id="feb28Line" class="st16" x1="606.8" y1="47.5" x2="606.8" y2="398.4"/>
		<path id="fauciPositive" class="st17" d="M135,240.6h2c2,0,6.1,0,10.1-0.1s8.1-0.2,12.1-0.2s8.1,0,12.1,0s8.1-0.2,12.1-0.2
			s8.1,0.1,12.1-0.1s8.1-0.5,12.1-1.1s8.1-1.6,12.1-1.6c4-0.1,8.1,0.6,12.1,1.1c4,0.4,8.1,0.6,12.1,0.8s8.1,0.3,12.1,0.3
			s8.1-0.1,12.1-0.3s8.1-0.4,12.1-0.3c4,0.1,8.1,0.6,12.1,0.8s8.1,0.1,12.1,0.2c4,0,8.1,0.1,12.1,0.2s8.1,0.3,12.1,0.3
			c4,0.1,8.1,0.1,12.1-0.1c4-0.2,8.1-0.7,12.1-0.7s8.1,0.4,12.1,0.6c4,0.2,8.1,0.3,12.1,0.3s8.1-0.2,12.1-0.3s8.1-0.1,12.1-0.1
			c4,0.1,8.1,0.3,12.1,0.4c4,0.1,8.1,0,12.1,0s8.1,0,12.1-0.1s8.1-0.4,12.1-1.2s8.1-2.3,12.1-2.4c4-0.1,8.1,1.3,12.1,2.1
			s8.1,1.1,12.1,1.1s8.1-0.3,12.1-0.3s8.1,0.2,12.1,0.2c4,0,8.1-0.1,14.1,0s14.1,0.4,20.2,0.6c6,0.1,10.1,0,14.1-0.2
			s8.1-0.5,12.1-6.3s8.1-17,12.1-19.9s8.1,2.6,12.1-31.6s8.1-108,12.1-114.3S615,123,619,159.4s8.1,48,12.1,37.6s8.1-42.8,12.1-48.2
			s8.1,16.3,12.1,35.3s8.1,35.3,12.1,43.4c4,8.2,8.1,8.3,12.1,8.9s8.1,1.8,12.1,0.5s8.1-5,12.1-5.4s8.1,2.6,12.1,4.3
			s8.1,2.3,12.1,1.2s8.1-3.9,12.1-5.7s8.1-2.7,12.1-8.7c4-6.1,8.1-17.3,12.1-15.5s8.1,16.8,12.1,21.6c4,4.9,8.1-0.3,12.1-0.3
			s8.1,5.1,12.1,7.5s8.1,2.2,12.1,2.3s8.1,0.7,12.1,0.6c4-0.1,8.1-0.7,12.1-2.5s8.1-4.6,12.1-5.3s8.1,0.8,12.1,2.1
			c4,1.2,8.1,2.2,12.1-4.4c4-6.6,8.1-20.7,12.1-23c4-2.2,8.1,7.5,12.1,12.7c4,5.3,8.1,6.1,12.1,7s8.1,1.9,12.1,2.7s8.1,1.5,12.1,2.8
			s8.1,3.2,12.1,1.8s8.1-6.1,12.1-6.3s8.1,4,12.1-0.1s8.1-16.6,10.1-22.8l2-6.2V264l-2-4.3c-2-4.3-6-12.8-10.1-18.8
			c-4-6-8.1-9.3-12.1-9.3s-8.1,3.6-12.1,4.6s-8.1-0.4-12.1-0.1c-4,0.3-8.1,2.2-12.1,4.4s-8.1,4.6-12.1,3.5c-4-1.2-8.1-5.9-12.1-8
			s-8.1-1.5-12.1-0.3c-4,1.1-8.1,2.7-12.1,3.5s-8.1,0.9-12.1-0.2c-4-1.1-8.1-3.3-12.1-3.1c-4,0.3-8.1,3-12.1,4.1s-8.1,0.5-12.1,0.2
			c-4-0.4-8.1-0.5-12.1-0.6s-8.1-0.1-12.1-2.2s-8.1-6.2-12.1-6.3s-8.1,4-12.1,12.9s-8.1,22.7-12.1,21.2s-8.1-18.4-12.1-26
			s-8.1-6-12.1-4.4s-8.1,3.2-12.1,3.8s-8.1,0.2-12.1,0c-4-0.3-8.1-0.4-12.1-0.3s-8.1,0.7-12.1,0.6c-4,0-8.1-0.6-12.1-0.8
			c-4-0.1-8.1,0.1-12.1,3.4c-4,3.2-8.1,9.4-12.1-2.4s-8.1-41.6-12.1-42.2s-8.1,28-12.1,32.3s-8.1-15.7-12.1-29.4
			s-8.1-21.2-12.1-14.8s-8.1,26.6-12.1,40.2c-4,13.6-8.1,20.6-12.1,21.9c-4,1.3-8.1-3.2-12.1-5.3s-8.1-1.8-12.1-1.7
			s-8.1,0.2-14.1,0.1c-6-0.1-14.1-0.3-20.2-0.3c-6.1,0-10.1,0.3-14.1,0.3c-4,0-8.1-0.2-12.1-0.2s-8.1,0.2-12.1,0.3s-8.1,0-12.1,0.6
			s-8.1,2-12.1,2.1s-8.1-1-12.1-1.6s-8.1-0.7-12.1-0.7s-8.1,0-12.1,0s-8.1,0-12.1-0.1s-8.1-0.2-12.1-0.2s-8.1,0-12.1,0.1
			c-4,0-8.1,0.1-12.1,0.1s-8.1,0-12.1-0.3c-4-0.2-8.1-0.6-12.1-0.6s-8.1,0.5-12.1,0.7s-8.1,0.3-12.1,0.2s-8.1-0.2-12.1-0.2
			s-8.1,0.1-12.1,0.3c-4,0.1-8.1,0.3-12.1,0s-8.1-1-12.1-0.9s-8.1,1-12.1,1.2s-8.1-0.3-12.1-0.6c-4-0.3-8.1-0.5-12.1-0.5
			s-8.1,0.1-12.1,0s-8.1-0.4-12.1-0.4s-8.1,0.2-12.1,0.4s-8.1,0.3-12.1,0.4c-4,0.1-8.1,0.2-12.1,0.3s-8.1,0-12.1,0s-8.1,0-12.1,0
			s-8.1,0.1-12.1,0.1s-8.1,0-10.1,0L135,240.6z"/>
		<path id="fauciNeutral" class="st18" d="M135,240.6h2c2,0,6.1,0,10.1,0s8.1-0.1,12.1-0.1s8.1,0,12.1,0s8.1,0.1,12.1,0
			s8.1-0.2,12.1-0.3s8.1-0.2,12.1-0.4s8.1-0.4,12.1-0.4s8.1,0.3,12.1,0.4s8.1,0,12.1,0s8.1,0.2,12.1,0.5s8.1,0.8,12.1,0.6
			s8.1-1.1,12.1-1.2c4-0.1,8.1,0.6,12.1,0.9c4,0.3,8.1,0.1,12.1,0s8.1-0.3,12.1-0.3s8.1,0.2,12.1,0.2c4,0.1,8.1,0,12.1-0.2
			s8.1-0.7,12.1-0.7s8.1,0.4,12.1,0.6c4,0.2,8.1,0.3,12.1,0.3s8.1,0,12.1-0.1c4,0,8.1-0.1,12.1-0.1s8.1,0.1,12.1,0.2
			c4,0.1,8.1,0.1,12.1,0.1s8.1,0,12.1,0s8.1,0.1,12.1,0.7c4,0.6,8.1,1.7,12.1,1.6c4-0.1,8.1-1.5,12.1-2.1s8.1-0.5,12.1-0.6
			s8.1-0.4,12.1-0.3s8.1,0.5,12.1,0.5c4,0,8.1-0.3,14.1-0.3s14.1,0.2,20.2,0.3c6,0.1,10.1,0.1,14.1-0.1s8.1-0.4,12.1,1.7
			s8.1,6.6,12.1,5.3s8.1-8.3,12.1-21.9c4-13.6,8.1-33.8,12.1-40.2s8.1,1.1,12.1,14.8s8.1,33.7,12.1,29.4s8.1-32.9,12.1-32.3
			c4,0.6,8.1,30.4,12.1,42.2s8.1,5.6,12.1,2.4c4-3.2,8.1-3.5,12.1-3.4s8.1,0.7,12.1,0.8c4,0,8.1-0.5,12.1-0.6s8.1,0,12.1,0.3
			s8.1,0.6,12.1,0s8.1-2.2,12.1-3.8s8.1-3.2,12.1,4.4c4,7.6,8.1,24.5,12.1,26s8.1-12.3,12.1-21.2s8.1-13,12.1-12.9s8.1,4.2,12.1,6.3
			s8.1,2.1,12.1,2.2c4,0.1,8.1,0.2,12.1,0.6c4,0.4,8.1,0.9,12.1-0.2s8.1-3.9,12.1-4.1c4-0.3,8.1,2,12.1,3.1s8.1,1,12.1,0.2
			s8.1-2.4,12.1-3.5s8.1-1.7,12.1,0.3c4,2.1,8.1,6.8,12.1,8s8.1-1.3,12.1-3.5s8.1-4.2,12.1-4.4c4-0.3,8.1,1.2,12.1,0.1
			s8.1-4.6,12.1-4.6s8.1,3.3,12.1,9.3s8.1,14.5,10.1,18.8l2,4.3v3l-2-4.2c-2-4.2-6-12.5-10.1-18.2c-4-5.7-8.1-8.7-12.1-8.6
			s-8.1,3.2-12.1,5.2s-8.1,2.7-12.1,3.4s-8.1,1.4-12.1,2.3c-4,0.9-8.1,2.1-12.1,2.7c-4,0.6-8.1,0.6-12.1,0.3s-8.1-1-12.1-2.4
			c-4-1.5-8.1-3.7-12.1-4.5s-8.1-0.1-12.1-0.6c-4-0.4-8.1-2-12.1-2.1c-4-0.2-8.1,1-12.1,1.3s-8.1-0.3-12.1-0.7s-8.1-0.6-12.1-0.6
			s-8.1,0.3-12.1,2.9s-8.1,7.7-12.1,7.5s-8.1-5.5-12.1-1.2s-8.1,18.3-12.1,17s-8.1-17.8-12.1-24.9c-4-7.1-8.1-4.7-12.1-3.3
			s-8.1,1.6-12.1,1.6s-8.1-0.3-12.1,0.4s-8.1,2.7-12.1,2.8s-8.1-1.5-12.1-2.3c-4-0.7-8.1-0.6-12.1-0.4s-8.1,0.4-12.1,7.2
			c-4,6.7-8.1,19.9-12.1,29.6s-8.1,16-12.1,12.1s-8.1-17.9-12.1-30.2c-4-12.3-8.1-22.8-12.1-17.3s-8.1,27-12.1,31.5
			c-4,4.4-8.1-8.2-12.1-11.1s-8.1,4.1-12.1,2.2c-4-1.8-8.1-12.4-12.1-17.8s-8.1-5.7-12.1-5.9s-8.1-0.2-14.1-0.4s-14.1-0.3-20.2-0.3
			c-6.1,0.1-10.1,0.4-14.1,0.3c-4,0-8.1-0.5-12.1-0.5s-8.1,0.3-12.1,0.6c-4,0.2-8.1,0.4-12.1,1.2s-8.1,2.3-12.1,2.2
			c-4,0-8.1-1.5-12.1-2.3s-8.1-1-12.1-1s-8.1-0.1-12.1-0.1s-8.1,0-12.1-0.1c-4,0-8.1-0.1-12.1,0s-8.1,0.3-12.1,0.3
			s-8.1-0.1-12.1-0.1s-8.1,0.1-12.1-0.2c-4-0.2-8.1-0.8-12.1-0.8c-4-0.1-8.1,0.4-12.1,0.6c-4,0.2-8.1,0.3-12.1,0.4
			c-4,0.1-8.1,0.2-12.1,0.2s-8.1,0-12.1,0s-8.1,0.1-12.1-0.2s-8.1-1.1-12.1-0.9c-4,0.1-8.1,1.1-12.1,1.5s-8.1,0.1-12.1-0.1
			c-4-0.2-8.1-0.5-12.1-0.6s-8.1,0-12.1,0.1s-8.1,0.2-12.1,0.4s-8.1,0.4-12.1,0.2c-4-0.1-8.1-0.6-12.1-0.7s-8.1,0.2-12.1,0.2
			s-8.1-0.2-12.1-0.3s-8.1-0.1-12.1-0.1s-8.1,0-12.1,0s-8.1,0-10.1,0L135,240.6z"/>
		<path id="fauciNegative" class="st5" d="M135,240.6h2c2,0,6.1,0,10.1,0s8.1,0,12.1,0s8.1,0,12.1,0.1s8.1,0.3,12.1,0.3
			s8.1-0.3,12.1-0.2s8.1,0.5,12.1,0.7c4,0.1,8.1-0.1,12.1-0.2c4-0.2,8.1-0.3,12.1-0.4c4-0.1,8.1-0.2,12.1-0.1
			c4,0.1,8.1,0.3,12.1,0.6c4,0.2,8.1,0.5,12.1,0.1s8.1-1.4,12.1-1.5s8.1,0.6,12.1,0.9c4,0.3,8.1,0.2,12.1,0.2s8.1,0,12.1,0
			s8.1-0.1,12.1-0.2c4-0.1,8.1-0.1,12.1-0.4c4-0.2,8.1-0.7,12.1-0.6c4,0.1,8.1,0.6,12.1,0.8s8.1,0.2,12.1,0.2s8.1,0.1,12.1,0.1
			s8.1-0.2,12.1-0.3s8.1,0,12.1,0s8.1,0.1,12.1,0.1s8.1,0,12.1,0.1s8.1,0.2,12.1,1s8.1,2.3,12.1,2.3s8.1-1.4,12.1-2.2
			s8.1-0.9,12.1-1.2c4-0.2,8.1-0.6,12.1-0.6s8.1,0.5,12.1,0.5c4,0,8.1-0.3,14.1-0.3c6-0.1,14.1,0.1,20.2,0.3
			c6.1,0.2,10.1,0.2,14.1,0.4s8.1,0.5,12.1,5.9s8.1,16,12.1,17.8s8.1-5.1,12.1-2.2s8.1,15.5,12.1,11.1s8.1-26,12.1-31.5
			s8.1,5,12.1,17.3s8.1,26.3,12.1,30.2c4,3.9,8.1-2.4,12.1-12.1s8.1-22.9,12.1-29.6c4-6.7,8.1-7,12.1-7.2s8.1-0.3,12.1,0.4
			s8.1,2.4,12.1,2.3s8.1-2,12.1-2.8s8.1-0.5,12.1-0.4c4,0,8.1-0.2,12.1-1.6s8.1-3.7,12.1,3.3c4,7.1,8.1,23.6,12.1,24.9
			s8.1-12.7,12.1-17s8.1,1,12.1,1.2s8.1-4.9,12.1-7.5s8.1-2.9,12.1-2.9s8.1,0.2,12.1,0.6s8.1,1,12.1,0.7s8.1-1.5,12.1-1.3
			s8.1,1.7,12.1,2.1c4,0.4,8.1-0.2,12.1,0.6s8.1,3.1,12.1,4.5c4,1.5,8.1,2.1,12.1,2.4c4,0.3,8.1,0.3,12.1-0.3s8.1-1.8,12.1-2.7
			s8.1-1.6,12.1-2.3s8.1-1.5,12.1-3.4s8.1-5.1,12.1-5.2s8.1,2.9,12.1,8.6c4,5.7,8.1,14,10.1,18.2l2,4.2v16.4l-2-6.2
			c-2-6.2-6-18.7-10.1-22.8c-4-4.1-8.1,0.1-12.1-0.1s-8.1-4.9-12.1-6.3c-4-1.4-8.1,0.5-12.1,1.8s-8.1,2-12.1,2.8s-8.1,1.8-12.1,2.7
			c-4,0.9-8.1,1.7-12.1,7c-4,5.3-8.1,15-12.1,12.7c-4-2.2-8.1-16.4-12.1-23s-8.1-5.6-12.1-4.4c-4,1.2-8.1,2.7-12.1,2.1
			c-4-0.7-8.1-3.5-12.1-5.3s-8.1-2.4-12.1-2.5s-8.1,0.5-12.1,0.6s-8.1-0.1-12.1,2.3s-8.1,7.6-12.1,7.5c-4,0-8.1-5.2-12.1-0.3
			c-4,4.9-8.1,19.8-12.1,21.6s-8.1-9.4-12.1-15.5s-8.1-6.9-12.1-8.7s-8.1-4.6-12.1-5.7c-4-1.1-8.1-0.5-12.1,1.2s-8.1,4.7-12.1,4.3
			s-8.1-4.1-12.1-5.4c-4-1.3-8.1-0.1-12.1,0.5s-8.1,0.7-12.1,8.9c-4,8.2-8.1,24.5-12.1,43.4c-4,19-8.1,40.7-12.1,35.3
			c-4-5.4-8.1-37.8-12.1-48.2s-8.1,1.2-12.1,37.6s-8.1,97.6-12.1,91.3c-4-6.3-8.1-80.1-12.1-114.3s-8.1-28.7-12.1-31.6
			s-8.1-14.1-12.1-19.9c-4-5.8-8.1-6.1-12.1-6.3s-8.1-0.3-14.1-0.2s-14.1,0.5-20.2,0.6c-6.1,0.1-10.1-0.1-14.1,0
			c-4,0-8.1,0.3-12.1,0.2s-8.1-0.3-12.1-0.3s-8.1,0.3-12.1,1.1s-8.1,2.1-12.1,2.1c-4-0.1-8.1-1.5-12.1-2.4s-8.1-1.1-12.1-1.2
			c-4-0.1-8.1-0.1-12.1-0.1s-8.1-0.1-12.1,0s-8.1,0.3-12.1,0.4c-4,0.1-8.1,0-12.1-0.1s-8.1-0.2-12.1-0.3s-8.1,0-12.1,0.3
			c-4,0.2-8.1,0.6-12.1,0.6s-8.1-0.5-12.1-0.7s-8.1-0.2-12.1-0.1c-4,0.1-8.1,0.2-12.1,0.3s-8.1,0.2-12.1,0.2s-8.1,0-12.1,0.2
			s-8.1,0.7-12.1,0.8s-8.1-0.1-12.1-0.3s-8.1-0.3-12.1-0.3c-4,0-8.1,0.1-12.1,0.3s-8.1,0.3-12.1,0.8c-4,0.4-8.1,1.2-12.1,1.1
			c-4-0.1-8.1-1-12.1-1.6s-8.1-1-12.1-1.1s-8.1,0-12.1-0.1s-8.1-0.2-12.1-0.2s-8.1,0-12.1,0s-8.1-0.2-12.1-0.2s-8.1-0.1-10.1-0.1
			H135z"/>
	</g>
	<rect x="224.5" y="257.7" class="st19" width="129.3" height="112.2"/>
	<text transform="matrix(1 0 0 1 224.449 266.2734)" class="st5 st8 st9">January 28</text>
	<text transform="matrix(1 0 0 1 224.449 278.2734)" class="st10 st11">Fauci speaks at HHS press </text>
	<text transform="matrix(1 0 0 1 224.449 290.2734)" class="st10 st11">conference on novel coronavi</text>
	<text transform="matrix(1 0 0 1 347.149 290.2734)" class="st10 st11">-</text>
	<text transform="matrix(1 0 0 1 224.449 302.2734)" class="st10 st11">rus. Suggests that asymptom</text>
	<text transform="matrix(1 0 0 1 347.049 302.2734)" class="st10 st11">-</text>
	<text transform="matrix(1 0 0 1 224.449 314.2734)" class="st10 st11">atic transmission  won’t be </text>
	<text transform="matrix(1 0 0 1 224.449 326.2734)" class="st10 st11">(and “has never been”) a driver </text>
	<text transform="matrix(1 0 0 1 224.449 338.2734)" class="st10 st11">of epidemics.</text>
	<rect x="325.7" y="153.5" class="st19" width="129.3" height="112.2"/>
	<text transform="matrix(1 0 0 1 388.9748 162.0765)" class="st3 st8 st9">February 17</text>
	<text transform="matrix(1 0 0 1 354.8747 174.0765)" class="st10 st11">Fauci on CBS “Face the </text>
	<text transform="matrix(1 0 0 1 337.0747 186.0765)" class="st10 st11">Nation”: Coronavirus crisis is </text>
	<text transform="matrix(1 0 0 1 333.9748 198.0765)" class="st10 st11">“on the verge” of becoming a </text>
	<text transform="matrix(1 0 0 1 386.2747 210.0765)" class="st10 st11">global pandemic</text>
	<rect x="470.7" y="51.1" class="st19" width="129.3" height="112.2"/>
	<text transform="matrix(1 0 0 1 530.6165 59.6386)" class="st20 st8 st9">February 29:</text>
	<text transform="matrix(1 0 0 1 600.0164 59.6386)" class="st20 st21 st9"> </text>
	<text transform="matrix(1 0 0 1 490.7165 71.6386)" class="st10 st11">Fauci at WH press confer</text>
	<text transform="matrix(1 0 0 1 596.5164 71.6386)" class="st10 st11">-</text>
	<text transform="matrix(1 0 0 1 507.7165 83.6386)" class="st10 st11">ence: “I’ve never been </text>
	<text transform="matrix(1 0 0 1 471.9164 95.6386)" class="st10 st11">muzzled” by Trump administra</text>
	<text transform="matrix(1 0 0 1 596.5164 95.6386)" class="st10 st11">-</text>
	<text transform="matrix(1 0 0 1 476.5164 107.6386)" class="st10 st11">tion, in response to NYT-pub</text>
	<text transform="matrix(1 0 0 1 596.5164 107.6386)" class="st10 st11">-</text>
	<text transform="matrix(1 0 0 1 541.4164 119.6386)" class="st10 st11">lished rumors.</text>
	<rect x="648.1" y="334.1" class="st19" width="129.3" height="112.2"/>
	<text transform="matrix(1 0 0 1 648.1229 342.7101)" class="st20 st8 st9">March 03</text>
	<text transform="matrix(1 0 0 1 648.1229 354.7101)" class="st10 st11">Fauci corrects Trump on </text>
	<text transform="matrix(1 0 0 1 648.1229 366.7101)" class="st10 st11">COVID-19 vaccine </text>
	<text transform="matrix(1 0 0 1 648.1229 378.7101)" class="st10 st11">availability. Asserts it will </text>
	<text transform="matrix(1 0 0 1 648.1229 390.7101)" class="st10 st11">take “at least a year and </text>
	<text transform="matrix(1 0 0 1 648.1229 402.7101)" class="st10 st11">a half,” rather than the </text>
	<text transform="matrix(1 0 0 1 648.1229 414.7101)" class="st10 st11">“few months” Trump </text>
	<text transform="matrix(1 0 0 1 648.1229 426.7101)" class="st10 st11">had just suggested.</text>
	<rect x="629.2" y="51.1" class="st19" width="129.3" height="112.2"/>
	<text transform="matrix(1 0 0 1 706.7142 59.6386)" class="st3 st8 st9">March 13</text>
	<text transform="matrix(1 0 0 1 664.7142 71.6386)" class="st10 st11">Fauci publicly criticizes</text>
	<text transform="matrix(1 0 0 1 669.5142 83.6386)" class="st10 st11">US COVID-19 testing</text>
	<text transform="matrix(1 0 0 1 655.3143 95.6386)" class="st10 st11">ramp-up while defending</text>
	<text transform="matrix(1 0 0 1 651.8143 107.6386)" class="st10 st11">Trump’s decision to close</text>
	<text transform="matrix(1 0 0 1 682.3143 119.6386)" class="st10 st11">border with China.</text>
	<rect x="777.4" y="47.5" class="st19" width="105.4" height="112.2"/>
	<text transform="matrix(1 0 0 1 830.9861 56.0487)" class="st20 st8 st9">March 23 </text>
	<text transform="matrix(1 0 0 1 799.086 68.0487)" class="st10 st11">Fauci in interview on </text>
	<text transform="matrix(1 0 0 1 783.2861 80.0487)" class="st10 st11">Trump misinformation: “I </text>
	<text transform="matrix(1 0 0 1 782.4861 92.0487)" class="st10 st11">can’t jump in front of the </text>
	<text transform="matrix(1 0 0 1 791.2861 104.0487)" class="st10 st11">microphone and push </text>
	<text transform="matrix(1 0 0 1 787.1861 116.0487)" class="st10 st11">him down. OK, he said </text>
	<text transform="matrix(1 0 0 1 799.1861 128.0487)" class="st10 st11">it. Let’s try and get it </text>
	<text transform="matrix(1 0 0 1 793.6861 140.0487)" class="st10 st11">corrected for the next </text>
	<text transform="matrix(1 0 0 1 859.4861 152.0487)" class="st10 st11">time.”</text>
	<line class="st16" x1="1010" y1="412.8" x2="1010" y2="67.1"/>
	<line class="st16" x1="1002.4" y1="412.8" x2="1017.6" y2="412.8"/>
	<line class="st16" x1="1002.4" y1="67.4" x2="1017.6" y2="67.4"/>
	<text transform="matrix(1 0 0 1 1022.3496 221.5293)"><tspan x="0" y="0" class="st22 st8 st14">Peak: </tspan><tspan x="0" y="16.8" class="st10 st14">February 29th,</tspan><tspan x="0" y="33.6" class="st10 st14">estimated</tspan><tspan x="63.1" y="33.6" class="st15 st14">  </tspan><tspan x="0" y="50.4" class="st22 st8 st14">16.2 million</tspan><tspan x="0" y="67.2" class="st10 st14">favorites</tspan></text>
</g>
<g id="jinping">
	<line class="st16" x1="611.5" y1="109.3" x2="611.5" y2="280.5"/>
	<line class="st16" x1="652" y1="239.9" x2="652" y2="376"/>
	<g id="mar10">
		<rect x="738.3" y="148.6" class="st19" width="76.7" height="112.2"/>
		<text transform="matrix(1 0 0 1 738.2884 157.1378)" class="st20 st8 st9">March 10 </text>
		<text transform="matrix(1 0 0 1 738.2884 169.1378)" class="st10 st11">Jinping makes </text>
		<text transform="matrix(1 0 0 1 738.2884 181.1378)" class="st10 st11">first visit to Wuhan </text>
		<text transform="matrix(1 0 0 1 738.2884 193.1378)" class="st10 st11">since before </text>
		<text transform="matrix(1 0 0 1 738.2884 205.1378)" class="st10 st11">outbreak</text>
		<line class="st16" x1="731.6" y1="148.5" x2="731.6" y2="238.9"/>
	</g>
	<line class="st16" x1="458.9" y1="149.2" x2="458.9" y2="433.7"/>
	<line class="st16" x1="489.1" y1="37.9" x2="489.1" y2="418"/>
	<line class="st16" x1="380.5" y1="76.5" x2="380.5" y2="312.5"/>
	<line class="st16" x1="187.9" y1="181.1" x2="187.9" y2="413.6"/>
	<g id="jinpingPath">
		<path id="jinpingNeutral" class="st3" d="M138,241.2l2-0.1c2-0.1,6-0.2,10.1-0.5c4-0.4,8.1-1,12.1-3.8s8.1-7.7,12.1-24.4
			s8.1-45.1,12.1-51.8s8.1,8.5,12.1,14.4s8.1,2.6,12.1,4.1s8.1,7.8,12.1,11.3c4,3.4,8.1,3.9,12.1-1.7c4-5.6,8.1-17.2,12.1-14.7
			c4,2.6,8.1,19.4,12.1,31.6c4,12.3,8.1,20,12.1,19.5s8.1-9.3,12.1-10.4c4-1.1,8.1,5.5,12.1,6.3s8.1-4.1,12.1-7.1s8.1-4,12.1-6.2
			c4-2.1,8.1-5.4,12.1-5.4s8.1,3.3,12.1,6.1s8.1,5.1,12.1,3.8s8.1-6,12.1-15.5s8.1-23.8,12.1-26.3s8.1,6.9,12.1,14
			c4,7.2,8.1,12.2,12.1,13.2s8.1-1.9,12.1-0.8c4,1.1,8.1,6.4,12.1,7.7s8.1-1.3,12.1-11.2s8.1-27.1,12.1-36.7
			c4-9.6,8.1-11.6,12.1-8.2c4,3.3,8.1,12,12.1-11.7s8.1-79.6,12.1-81.5s8.1,50.2,12.1,87.2s8.1,58.9,12.1,68.5
			c4,9.6,8.1,6.9,14.1,5.3c6-1.5,14.1-1.8,20.2-0.4c6,1.5,10.1,4.7,14.1,7.7s8.1,5.9,12.1,6.2s8.1-1.8,12.1-2.5s8.1,0,12.1-6.9
			s8.1-21.4,12.1-23.8c4-2.5,8.1,7.1,12.1,16s8.1,17.1,12.1,17.1s8.1-8.2,12.1-12.1c4-3.9,8.1-3.6,12.1-0.2c4,3.4,8.1,9.9,12.1,13.9
			s8.1,5.6,12.1,6.2c4,0.6,8.1,0.1,12.1-0.5s8.1-1.5,12.1-1.8s8.1-0.1,12.1-3.5c4-3.3,8.1-10.2,12.1-10.1s8.1,7.2,12.1,11.1
			c4,3.9,8.1,4.6,12.1,5s8.1,0.6,12.1,0.3c4-0.2,8.1-0.9,12.1-0.8s8.1,0.9,12.1,1.2s8.1,0.1,12.1,0.2c4,0.1,8.1,0.5,12.1,0
			s8.1-1.7,12.1-1.6c4,0.1,8.1,1.6,12.1,2.3c4,0.6,8.1,0.4,12.1,0.1c4-0.3,8.1-0.8,12.1-0.8s8.1,0.4,12.1,0.5
			c4,0.2,8.1,0.2,12.1,0.3s8.1,0.3,12.1,0.2s8.1-0.6,12.1-1.1c4-0.4,8.1-0.8,12.1-1.9c4-1.1,8.1-2.9,12.1-2.8
			c4,0.1,8.1,2.2,12.1,1.7s8.1-3.5,12.1-3.7s8.1,2.6,12.1,4.2s8.1,2,10.1,2.2l2,0.2v1.3l-2-0.2c-2-0.2-6-0.6-10.1-1
			c-4-0.5-8.1-1.1-12.1-0.8s-8.1,1.4-12.1,1.6c-4,0.2-8.1-0.4-12.1-0.7c-4-0.2-8.1-0.1-12.1,0.4s-8.1,1.2-12.1,1.6
			c-4,0.4-8.1,0.4-12.1,0.2s-8.1-0.5-12.1-0.7c-4-0.1-8.1,0-12.1,0.3S868,241,864,241s-8.1-0.4-12.1-0.6c-4-0.2-8.1-0.1-12.1-0.8
			s-8.1-2.1-12.1-2.1s-8.1,1.5-12.1,2.1s-8.1,0.4-12.1,0.2c-4-0.1-8.1-0.1-12.1,0s-8.1,0.2-12.1,0.1c-4-0.1-8.1-0.5-12.1-0.1
			s-8.1,1.5-12.1,1.9s-8.1,0-12.1-2.1s-8.1-6-12.1-6s-8.1,4-12.1,5.5c-4,1.6-8.1,0.8-12.1,0.7s-8.1,0.3-12.1,0.6s-8.1,0.5-12.1,0.3
			s-8.1-0.7-12.1-2.4c-4-1.6-8.1-4.3-12.1-5.4c-4-1.1-8.1-0.6-12.1,0.9c-4,1.5-8.1,4-12.1,3s-8.1-5.5-12.1,0.2
			c-4,5.6-8.1,21.3-12.1,23.6s-8.1-8.8-12.1-12.9c-4-4.1-8.1-1-12.1-0.9s-8.1-2.6-12.1-2.6s-8.1,2.8-12.1,0.2s-8.1-10.7-14.1-10.3
			s-14.1,9.1-20.2,11.7c-6,2.6-10.1-1-14.1-2.2c-4-1.2-8.1,0.1-12.1,22.2s-8.1,65-12.1,63.9s-8.1-46.1-12.1-73.9
			s-8.1-38.2-12.1-49.8s-8.1-24.2-12.1-16.6c-4,7.6-8.1,35.3-12.1,49s-8.1,13.3-12.1,11.5s-8.1-5-12.1-9.2c-4-4.1-8.1-9.1-12.1-10.3
			s-8.1,1.4-12.1,0.4s-8.1-5.7-12.1-7.3s-8.1-0.3-12.1,0.1s-8.1-0.5-12.1,2.4c-4,2.8-8.1,9.3-12.1,9.5s-8.1-6-12.1-8.6
			s-8.1-1.8-12.1-1.5c-4,0.2-8.1-0.1-12.1,1.5s-8.1,5.3-12.1,9.1s-8.1,7.7-12.1,8.4s-8.1-1.8-12.1-5c-4-3.3-8.1-7.3-12.1-13.6
			c-4-6.3-8.1-14.9-12.1-11.2c-4,3.6-8.1,19.5-12.1,27.2s-8.1,7.3-12.1-0.5s-8.1-23-12.1-28.9c-4-6-8.1-2.7-12.1-10.5
			s-8.1-26.7-12.1-20.8s-8.1,36.7-12.1,51s-8.1,12-12.1,10.9s-8.1-1.4-12.1-1.5s-8.1-0.2-10.1-0.3H138z"/>
		<path id="jinpingPositive" class="st23" d="M138,241.2h2c2,0,6,0.1,10.1,0.3c4,0.1,8.1,0.3,12.1,1.5s8.1,3.4,12.1-10.9
			c4-14.3,8.1-45,12.1-51s8.1,13,12.1,20.8s8.1,4.5,12.1,10.5s8.1,21.1,12.1,28.9c4,7.8,8.1,8.2,12.1,0.5s8.1-23.5,12.1-27.2
			c4-3.6,8.1,4.9,12.1,11.2s8.1,10.4,12.1,13.6c4,3.3,8.1,5.7,12.1,5s8.1-4.6,12.1-8.4c4-3.8,8.1-7.4,12.1-9.1
			c4-1.6,8.1-1.3,12.1-1.5s8.1-1.1,12.1,1.5s8.1,8.8,12.1,8.6s8.1-6.6,12.1-9.5c4-2.8,8.1-2.1,12.1-2.4s8.1-1.7,12.1-0.1
			c4,1.6,8.1,6.3,12.1,7.3c4,1,8.1-1.6,12.1-0.4c4,1.2,8.1,6.2,12.1,10.3s8.1,7.4,12.1,9.2s8.1,2.2,12.1-11.5s8.1-41.5,12.1-49
			c4-7.6,8.1,5.1,12.1,16.6c4,11.6,8.1,22,12.1,49.8s8.1,72.8,12.1,73.9s8.1-41.9,12.1-63.9c4-22.1,8.1-23.3,12.1-22.2
			c4,1.2,8.1,4.8,14.1,2.2s14.1-11.3,20.2-11.7c6-0.4,10.1,7.7,14.1,10.3s8.1-0.2,12.1-0.2s8.1,2.7,12.1,2.6c4-0.1,8.1-3.1,12.1,0.9
			c4,4.1,8.1,15.2,12.1,12.9s8.1-18,12.1-23.6s8.1-1.2,12.1-0.2s8.1-1.5,12.1-3c4-1.5,8.1-2,12.1-0.9s8.1,3.8,12.1,5.4
			c4,1.6,8.1,2.2,12.1,2.4s8.1,0,12.1-0.3s8.1-0.8,12.1-0.6c4,0.1,8.1,0.9,12.1-0.7c4-1.6,8.1-5.5,12.1-5.5s8.1,3.9,12.1,6
			s8.1,2.5,12.1,2.1s8.1-1.5,12.1-1.9s8.1,0,12.1,0.1s8.1,0,12.1-0.1s8.1-0.1,12.1,0s8.1,0.4,12.1-0.2c4-0.6,8.1-2.1,12.1-2.1
			s8.1,1.4,12.1,2.1c4,0.7,8.1,0.6,12.1,0.8S860,241,864,241s8.1-0.4,12.1-0.7s8.1-0.4,12.1-0.3c4,0.1,8.1,0.5,12.1,0.7
			s8.1,0.1,12.1-0.2c4-0.4,8.1-1.1,12.1-1.6s8.1-0.6,12.1-0.4c4,0.2,8.1,0.9,12.1,0.7s8.1-1.4,12.1-1.6c4-0.3,8.1,0.4,12.1,0.8
			c4,0.5,8.1,0.9,10.1,1l2,0.2v0.6l-2-0.1c-2-0.1-6-0.4-10.1-0.1c-4,0.4-8.1,1.4-12.1,1.8s-8.1,0-12.1,0.3s-8.1,1.3-12.1,1.5
			s-8.1-0.3-12.1-0.6c-4-0.4-8.1-0.6-12.1-0.8c-4-0.3-8.1-0.6-12.1-0.9c-4-0.3-8.1-0.6-12.1-0.7c-4-0.1-8.1-0.1-12.1,0.2
			s-8.1,1-12.1,1.1s-8.1-0.4-12.1-0.6c-4-0.3-8.1-0.3-12.1-1.1s-8.1-2.3-12.1-2.3s-8.1,1.5-12.1,2.2s-8.1,0.6-12.1,0.5
			s-8.1-0.1-12.1,0.6c-4,0.7-8.1,2.1-12.1,2.3s-8.1-0.6-12.1-0.9c-4-0.2-8.1,0.1-12.1,0.3s-8.1,0.2-12.1,0s-8.1-0.4-12.1-0.4
			s-8.1,0.3-12.1-0.1c-4-0.4-8.1-1.4-12.1-1.5s-8.1,0.8-12.1,1c-4,0.3-8.1,0-12.1-0.4s-8.1-0.9-12.1-2.3c-4-1.3-8.1-3.5-12.1-4
			s-8.1,0.5-12.1,1.7c-4,1.2-8.1,2.6-12.1,3.6S626,242,622,248s-8.1,17.6-12.1,18.9s-8.1-7.7-12.1-12.1s-8.1-4.3-12.1-5.1
			s-8.1-2.6-12.1-2.4c-4,0.2-8.1,2.4-12.1,0.1s-8.1-9.1-14.1-7.6s-14.1,11.3-20.2,14.2c-6,3-10.1-0.9-14.1,4.1
			c-4,5-8.1,18.8-12.1,52.1s-8.1,86.2-12.1,83.3c-4-2.9-8.1-61.5-12.1-92.8s-8.1-35.1-12.1-44.6s-8.1-24.6-12.1-25
			s-8.1,13.8-12.1,20.6c-4,6.7-8.1,5.9-12.1,7.2c-4,1.3-8.1,4.7-12.1,1.9c-4-2.8-8.1-11.9-12.1-14.5s-8.1,1.1-12.1,4.9
			c-4,3.8-8.1,7.7-12.1,4.6s-8.1-13.1-12.1-18.8s-8.1-7-12.1-4.1s-8.1,10.1-12.1,13s-8.1,1.6-12.1-0.2s-8.1-4-12.1-6.2
			s-8.1-4.2-12.1-4.2s-8.1,2.2-12.1,5.1c-4,2.9-8.1,6.4-12.1,6.9s-8.1-2.1-12.1-1.9c-4,0.2-8.1,3.2-12.1,8.4
			c-4,5.3-8.1,12.8-12.1,14.9s-8.1-1.4-12.1-3.7c-4-2.3-8.1-3.5-12.1-12.1s-8.1-24.7-12.1-27.5c-4-2.9-8.1,7.4-12.1,1.3
			c-4-6.2-8.1-28.8-12.1-27.7s-8.1,26-12.1,37.1s-8.1,8.5-12.1,7.1s-8.1-1.6-12.1-1.8s-8.1-0.3-10.1-0.3L138,241.2z"/>
		<path id="jinpingNegative" class="st5" d="M138,241.2l2,0.1c2,0.1,6,0.2,10.1,0.3c4,0.2,8.1,0.3,12.1,1.8c4,1.4,8.1,4,12.1-7.1
			s8.1-36,12.1-37.1s8.1,21.5,12.1,27.7s8.1-4.2,12.1-1.3s8.1,18.9,12.1,27.5s8.1,9.8,12.1,12.1c4,2.3,8.1,5.8,12.1,3.7
			c4-2.1,8.1-9.6,12.1-14.9c4-5.3,8.1-8.2,12.1-8.4s8.1,2.4,12.1,1.9s8.1-4,12.1-6.9s8.1-5,12.1-5.1c4,0,8.1,2,12.1,4.2
			s8.1,4.4,12.1,6.2s8.1,3.1,12.1,0.2c4-2.9,8.1-10.1,12.1-13s8.1-1.6,12.1,4.1S376,252.9,380,256s8.1-0.8,12.1-4.6
			s8.1-7.5,12.1-4.9s8.1,11.7,12.1,14.5s8.1-0.6,12.1-1.9s8.1-0.5,12.1-7.2s8.1-21,12.1-20.6s8.1,15.5,12.1,25
			c4,9.5,8.1,13.4,12.1,44.6s8.1,89.9,12.1,92.8c4,2.9,8.1-50,12.1-83.3s8.1-47.1,12.1-52.1s8.1-1.1,14.1-4.1s14.1-12.7,20.2-14.2
			c6-1.5,10.1,5.3,14.1,7.6s8.1,0.1,12.1-0.1c4-0.2,8.1,1.6,12.1,2.4c4,0.8,8.1,0.7,12.1,5.1s8.1,13.4,12.1,12.1
			c4-1.3,8.1-12.9,12.1-18.9s8.1-6.6,12.1-7.5c4-1,8.1-2.4,12.1-3.6c4-1.2,8.1-2.3,12.1-1.7c4,0.5,8.1,2.7,12.1,4s8.1,1.8,12.1,2.3
			c4,0.4,8.1,0.7,12.1,0.4s8.1-1.1,12.1-1s8.1,1.1,12.1,1.5s8.1,0.1,12.1,0.1s8.1,0.3,12.1,0.4c4,0.2,8.1,0.2,12.1,0
			s8.1-0.6,12.1-0.3c4,0.2,8.1,1.1,12.1,0.9s8.1-1.6,12.1-2.3s8.1-0.7,12.1-0.6c4,0.1,8.1,0.2,12.1-0.5s8.1-2.2,12.1-2.2
			s8.1,1.5,12.1,2.3s8.1,0.8,12.1,1.1s8.1,0.7,12.1,0.6c4-0.1,8.1-0.7,12.1-1.1c4-0.3,8.1-0.3,12.1-0.2s8.1,0.4,12.1,0.7
			s8.1,0.6,12.1,0.9c4,0.3,8.1,0.5,12.1,0.8c4,0.4,8.1,0.8,12.1,0.6s8.1-1.2,12.1-1.5s8.1,0,12.1-0.3s8.1-1.4,12.1-1.8
			c4-0.4,8.1-0.1,10.1,0.1l2,0.1v3.1l-2,0.2c-2,0.2-6,0.6-10.1,2.2s-8.1,4.3-12.1,4.2s-8.1-3.2-12.1-3.7s-8.1,1.5-12.1,1.7
			c-4,0.1-8.1-1.7-12.1-2.8s-8.1-1.5-12.1-1.9s-8.1-0.9-12.1-1.1s-8.1,0.1-12.1,0.2c-4,0.1-8.1,0.1-12.1,0.3s-8.1,0.6-12.1,0.5
			c-4,0-8.1-0.5-12.1-0.8s-8.1-0.6-12.1,0.1c-4,0.6-8.1,2.2-12.1,2.3s-8.1-1.2-12.1-1.6c-4-0.5-8.1-0.1-12.1,0s-8.1-0.1-12.1,0.2
			s-8.1,1.1-12.1,1.2s-8.1-0.5-12.1-0.8c-4-0.2-8.1-0.1-12.1,0.3c-4,0.4-8.1,1.1-12.1,5s-8.1,11-12.1,11.1c-4,0.1-8.1-6.7-12.1-10.1
			c-4-3.3-8.1-3.1-12.1-3.5c-4-0.3-8.1-1.2-12.1-1.8s-8.1-1.1-12.1-0.5s-8.1,2.2-12.1,6.2s-8.1,10.5-12.1,13.9s-8.1,3.7-12.1-0.2
			c-4-3.9-8.1-12.1-12.1-12.1s-8.1,8.2-12.1,17.1s-8.1,18.5-12.1,16s-8.1-17-12.1-23.8c-4-6.9-8.1-6.1-12.1-6.9
			c-4-0.7-8.1-2.9-12.1-2.5c-4,0.3-8.1,3.2-12.1,6.2c-4,3-8.1,6.3-14.1,7.7c-6,1.5-14.1,1.1-20.2-0.4c-6-1.5-10.1-4.3-14.1,5.3
			c-4,9.6-8.1,31.5-12.1,68.5s-8.1,89.1-12.1,87.2c-4-1.9-8.1-57.8-12.1-81.5c-4-23.6-8.1-15-12.1-11.7s-8.1,1.4-12.1-8.2
			s-8.1-26.8-12.1-36.7s-8.1-12.5-12.1-11.2s-8.1,6.6-12.1,7.7s-8.1-1.8-12.1-0.8s-8.1,6-12.1,13.2s-8.1,16.5-12.1,14
			s-8.1-16.8-12.1-26.3s-8.1-14.3-12.1-15.5s-8.1,1-12.1,3.8s-8.1,6.1-12.1,6.1s-8.1-3.3-12.1-5.4s-8.1-3.2-12.1-6.2
			s-8.1-7.9-12.1-7.1s-8.1,7.4-12.1,6.3s-8.1-9.9-12.1-10.4s-8.1,7.2-12.1,19.5c-4,12.3-8.1,29.1-12.1,31.6
			c-4,2.6-8.1-9.1-12.1-14.7s-8.1-5.1-12.1-1.7s-8.1,9.7-12.1,11.3c-4,1.5-8.1-1.8-12.1,4.1s-8.1,21-12.1,14.4
			c-4-6.7-8.1-35.1-12.1-51.8s-8.1-21.7-12.1-24.4c-4-2.8-8.1-3.4-12.1-3.8c-4-0.4-8.1-0.5-10.1-0.5L138,241.2z"/>
	</g>
	<rect x="193" y="337.8" class="st19" width="115.3" height="112.2"/>
	<text transform="matrix(1 0 0 1 192.9597 346.4097)" class="st5 st8 st9">January 25</text>
	<text transform="matrix(1 0 0 1 192.9597 358.4097)" class="st10 st11">Xi Jinping announces that </text>
	<text transform="matrix(1 0 0 1 192.9597 370.4097)" class="st10 st11">the coronavirus crisis is </text>
	<text transform="matrix(1 0 0 1 192.9597 382.4097)" class="st10 st11">“accelerating” and that </text>
	<text transform="matrix(1 0 0 1 192.9597 394.4097)" class="st10 st11">China faces a “grave </text>
	<text transform="matrix(1 0 0 1 192.9597 406.4097)" class="st10 st11">situation.”</text>
	<rect x="247.7" y="76.5" class="st19" width="129.3" height="112.2"/>
	<text transform="matrix(1 0 0 1 310.9261 85.0855)" class="st20 st8 st9">February 10</text>
	<text transform="matrix(1 0 0 1 276.726 97.0855)" class="st10 st11">Jinping is photographed </text>
	<text transform="matrix(1 0 0 1 270.626 109.0855)" class="st10 st11">wearing a mask in his first </text>
	<text transform="matrix(1 0 0 1 259.026 121.0855)" class="st10 st11">public appearance since the </text>
	<text transform="matrix(1 0 0 1 283.726 133.0855)" class="st10 st11">beginning of the crisis.</text>
	<rect x="352.5" y="337.8" class="st19" width="99.1" height="112.2"/>
	<text transform="matrix(1 0 0 1 385.6061 346.4097)" class="st5 st8 st9">February 17 </text>
	<text transform="matrix(1 0 0 1 373.8061 358.4097)" class="st10 st11">Chinese academic</text>
	<text transform="matrix(1 0 0 1 356.8061 370.4097)" class="st10 st11">Xu Zhangrun censored </text>
	<text transform="matrix(1 0 0 1 363.1061 382.4097)" class="st10 st11">and placed on house </text>
	<text transform="matrix(1 0 0 1 374.0061 394.4097)" class="st10 st11">arrest after publicly </text>
	<text transform="matrix(1 0 0 1 361.5061 406.4097)" class="st10 st11">criticizing the Chinese </text>
	<text transform="matrix(1 0 0 1 395.5061 418.4097)" class="st10 st11">government’s           </text>
	<text transform="matrix(1 0 0 1 359.4062 430.4097)" class="st10 st11">coronavirus response.</text>
	<rect x="503" y="37.7" class="st19" width="99.1" height="112.2"/>
	<text transform="matrix(1 0 0 1 502.9744 46.2958)" class="st3 st8 st9">February 19</text>
	<text transform="matrix(1 0 0 1 502.9744 58.2958)" class="st10 st11">American Democratic </text>
	<text transform="matrix(1 0 0 1 502.9744 70.2958)" class="st10 st11">presidential candidate </text>
	<text transform="matrix(1 0 0 1 502.9744 82.2958)" class="st10 st11">Mike Bloomberg is </text>
	<text transform="matrix(1 0 0 1 502.9744 94.2958)" class="st10 st11">asked about China ties </text>
	<text transform="matrix(1 0 0 1 502.9744 106.2958)" class="st10 st11">in Dem debate. </text>
	<text transform="matrix(1 0 0 1 502.9744 118.2958)" class="st10 st11">Previous assertion that </text>
	<text transform="matrix(1 0 0 1 502.9744 130.2958)" class="st10 st11">“Xi Jinping is not a </text>
	<text transform="matrix(1 0 0 1 502.9744 142.2958)" class="st10 st11">tyrant” resurfaces.</text>
	<rect x="619.7" y="109.3" class="st19" width="76.7" height="112.2"/>
	<text transform="matrix(1 0 0 1 619.6489 117.8599)" class="st3 st8 st9">February 29 </text>
	<text transform="matrix(1 0 0 1 619.6489 129.8599)" class="st10 st11">Jinping publishes </text>
	<text transform="matrix(1 0 0 1 619.6489 141.8599)" class="st10 st11">an article calling </text>
	<text transform="matrix(1 0 0 1 619.6489 153.8599)" class="st10 st11">for reform of laws </text>
	<text transform="matrix(1 0 0 1 619.6489 165.8599)" class="st10 st11">on epidemic </text>
	<text transform="matrix(1 0 0 1 619.6489 177.8599)" class="st10 st11">prevention and </text>
	<text transform="matrix(1 0 0 1 619.6489 189.8599)" class="st10 st11">response.</text>
	<rect x="658" y="292.7" class="st19" width="99.1" height="112.2"/>
	<text transform="matrix(1 0 0 1 658.0046 301.3135)" class="st24 st8 st9">March 04</text>
	<text transform="matrix(1 0 0 1 658.0046 313.3135)" class="st10 st11">The Citizen Lab </text>
	<text transform="matrix(1 0 0 1 658.0046 325.3135)" class="st10 st11">(Toronto) publishes </text>
	<text transform="matrix(1 0 0 1 658.0046 337.3135)" class="st10 st11">evidence of extensive </text>
	<text transform="matrix(1 0 0 1 658.0046 349.3135)" class="st10 st11">Chinese censorship of </text>
	<text transform="matrix(1 0 0 1 658.0046 361.3135)" class="st10 st11">coronavirus keywords </text>
	<text transform="matrix(1 0 0 1 658.0046 373.3135)" class="st10 st11">in WeChat.</text>
	<line class="st16" x1="1009.8" y1="426.7" x2="1009.8" y2="58.3"/>
	<line class="st16" x1="1002.2" y1="426.7" x2="1017.3" y2="426.7"/>
	<line class="st16" x1="1002.2" y1="58.3" x2="1017.3" y2="58.3"/>
	<text transform="matrix(1 0 0 1 1022.3495 221.5293)"><tspan x="0" y="0" class="st3 st8 st14">Peak: </tspan><tspan x="0" y="16.8" class="st10 st14">February 19th, </tspan><tspan x="0" y="33.6" class="st10 st14">estimated</tspan><tspan x="63.1" y="33.6" class="st15 st14">  </tspan><tspan x="0" y="50.4" class="st3 st8 st14">3.7 million</tspan><tspan x="0" y="67.2" class="st10 st14">favorites</tspan></text>
</g>
<g id="trump">
	<line class="st16" x1="649.4" y1="286.1" x2="649.4" y2="411"/>
	<line class="st16" x1="968.1" y1="263.4" x2="968.1" y2="335.7"/>
	<line class="st16" x1="610" y1="365.3" x2="610" y2="441.5"/>
	<line class="st16" x1="253.4" y1="33.2" x2="253.4" y2="209.6"/>
	<line class="st16" x1="201.8" y1="240.6" x2="201.8" y2="346.7"/>
	<g id="trumpPath">
		<path id="trumpPositive" class="st25" d="M138.3,240.6h2c2,0,6.1-0.1,10.1-0.2c4-0.1,8.1-0.2,12.1-0.7s8.1-1.4,12.1-1.9
			s8.1-0.7,12.1-1.8s8.1-3.2,12.1-3.8c4-0.5,8.1,0.5,12.1,1s8.1,0.6,12.1-0.3c4-0.9,8.1-2.9,12.1-5.4s8.1-5.6,12.1-7.6
			s8.1-2.9,12.1-0.8s8.1,7.2,12.1,10.3c4,3.2,8.1,4.4,12.1,4.7s8.1-0.3,12.1-0.9c4-0.6,8.1-1.2,12.1-1.3c4,0,8.1,0.5,12.1,0.9
			s8.1,0.7,12.1,0c4-0.8,8.1-2.6,12.1-2.1s8.1,3.4,12.1,4.9s8.1,1.6,12.1,0s8.1-4.9,12.1-5.8c4-0.9,8.1,0.7,12.1,2.4s8.1,3.4,12.1,4
			c4,0.5,8.1-0.1,12.1-0.3s8.1,0.1,12.1,0.4c4,0.3,8.1,0.6,12.1,0.6s8.1-0.4,12.1-0.6s8.1-0.2,12.1-0.3s8.1-0.2,12.1-0.1
			c4,0.1,8.1,0.3,12.1,0.2s8.1-0.8,12.1-2.5s8.1-4.6,12.1-5s8.1,1.7,14.1,0.6c6-1,14.1-5.2,20.2-8.8c6-3.6,10.1-6.7,14.1-9.2
			s8.1-4.5,12.1-9s8.1-11.7,12.1-26.6c4-14.9,8.1-37.5,12.1-67.7s8.1-68,12.1-62.1s8.1,55.3,12.1,91.2s8.1,58.3,12.1,54
			s8.1-35.4,12.1-44.3c4-8.8,8.1,4.6,12.1,21.2s8.1,36.4,12.1,44.8c4,8.4,8.1,5.5,12.1,5.6s8.1,3.3,12.1,3.1s8.1-3.6,12.1-4.2
			s8.1,1.8,12.1,3s8.1,1.2,12.1,2.2c4,1.1,8.1,3.2,12.1,3.4s8.1-1.4,12.1-2.4s8.1-1.2,12.1-0.6s8.1,2.2,12.1,3.7s8.1,2.9,12.1,3.4
			s8.1,0,12.1-1.3s8.1-3.3,12.1-2.9c4,0.4,8.1,3.4,12.1,5c4,1.7,8.1,2.1,12.1,1.8s8.1-1.3,12.1-3c4-1.8,8.1-4.3,12.1-4.6
			c4-0.4,8.1,1.4,12.1,3s8.1,3,12.1,3.7s8.1,0.7,12.1,0.5c4-0.3,8.1-0.8,12.1-1.8c4-0.9,8.1-2.2,12.1-2.5s8.1,0.3,12.1,0.4
			c4,0.2,8.1-0.1,12.1,0.3c4,0.4,8.1,1.5,12.1-0.6s8.1-7.4,12.1-8.5c4-1,8.1,2.3,10.1,4l2,1.7v8.2l-2-1.2c-2-1.2-6-3.6-10.1-2.9
			c-4,0.7-8.1,4.6-12.1,6.9c-4,2.2-8.1,2.8-12.1,2.5s-8.1-1.2-12.1-1.2c-4,0.1-8.1,1.3-12.1,1.4c-4,0.2-8.1-0.7-12.1-0.8
			s-8.1,0.7-12.1,1s-8.1,0.3-12.1-0.4s-8.1-2-12.1-2.1s-8.1,1-12.1,1.4s-8.1,0-12.1-0.2c-4-0.1-8.1,0-12.1-0.3s-8.1-1-12.1-2.1
			s-8.1-2.6-12.1-3.2c-4-0.6-8.1-0.4-12.1,0.6s-8.1,2.7-12.1,3.6c-4,0.9-8.1,0.9-12.1,0.4s-8.1-1.4-12.1-1.4s-8.1,0.9-12.1,1.4
			s-8.1,0.7-12.1-0.2s-8.1-2.8-12.1-3.7c-4-0.8-8.1-0.6-12.1-0.9c-4-0.3-8.1-1.2-12.1-0.8s-8.1,1.9-12.1,2.2
			c-4,0.2-8.1-0.9-12.1-1.1c-4-0.2-8.1,0.6-12.1-1.7s-8.1-7.7-12.1-10.9s-8.1-4.2-12.1-2.8c-4,1.4-8.1,5.2-12.1,2.5
			s-8.1-11.9-12.1-26.7s-8.1-35.3-12.1-34.5s-8.1,22.8-12.1,34.9c-4,12.2-8.1,14.5-12.1,17.1s-8.1,5.4-12.1,7.4s-8.1,3-12.1,3.9
			s-8.1,1.6-14.1,4s-14.1,6.3-20.2,7.4c-6.1,1.1-10.1-0.7-14.1-0.4c-4,0.4-8.1,3-12.1,4.4s-8.1,1.6-12.1,1.6s-8.1-0.1-12.1-0.1
			s-8.1,0-12.1,0c-4,0.1-8.1,0.1-12.1,0.2c-4,0.1-8.1,0.2-12.1,0.3s-8.1,0.1-12.1,0.2c-4,0.1-8.1,0.1-12.1,0.1
			c-4-0.1-8.1-0.3-12.1-0.8s-8.1-1.1-12.1-1.8c-4-0.6-8.1-1.2-12.1-0.8s-8.1,1.7-12.1,2.2c-4,0.6-8.1,0.4-12.1,0.5
			s-8.1,0.6-12.1,0.2c-4-0.4-8.1-1.6-12.1-2.1s-8.1-0.4-12.1-0.3c-4,0.1-8.1,0.3-12.1,0.4c-4,0.1-8.1,0.2-12.1,0.2
			s-8.1-0.1-12.1-0.1s-8.1,0.1-12.1,0.4c-4,0.3-8.1,0.7-12.1,0.6c-4-0.1-8.1-0.7-12.1-1.1s-8.1-0.7-12.1-0.7s-8.1,0.2-12.1,0.1
			c-4,0-8.1-0.4-12.1-1.1c-4-0.8-8.1-2-12.1-1.4s-8.1,3-12.1,4.4c-4,1.3-8.1,1.6-12.1,1.8s-8.1,0.2-12.1,0.2
			c-4,0.1-8.1,0.1-12.1,0.2s-8.1,0.4-10.1,0.5L138.3,240.6L138.3,240.6z"/>
		<path id="trumpNeutral" class="st26" d="M138.3,240.6h2c2,0,6.1-0.1,10.1-0.1s8.1-0.1,12.1-0.2c4-0.1,8.1-0.1,12.1-0.2
			s8.1-0.4,12.1-1.8c4-1.3,8.1-3.8,12.1-4.4s8.1,0.6,12.1,1.4c4,0.8,8.1,1.1,12.1,1.1s8.1-0.2,12.1-0.1s8.1,0.3,12.1,0.7
			s8.1,1,12.1,1.1s8.1-0.4,12.1-0.6c4-0.3,8.1-0.4,12.1-0.4s8.1,0.1,12.1,0.1s8.1-0.1,12.1-0.2c4-0.1,8.1-0.3,12.1-0.4
			c4-0.1,8.1-0.3,12.1,0.3c4,0.5,8.1,1.7,12.1,2.1c4,0.4,8.1-0.1,12.1-0.2c4-0.1,8.1,0.1,12.1-0.5s8.1-1.9,12.1-2.2
			s8.1,0.2,12.1,0.8s8.1,1.3,12.1,1.8s8.1,0.7,12.1,0.8s8.1,0,12.1-0.1s8.1-0.1,12.1-0.2s8.1-0.2,12.1-0.3s8.1-0.2,12.1-0.2
			c4-0.1,8.1-0.1,12.1,0c4,0,8.1,0.2,12.1,0.1s8.1-0.2,12.1-1.6c4-1.4,8.1-4,12.1-4.4s8.1,1.4,14.1,0.4c6-1.1,14.1-5.1,20.2-7.4
			c6-2.4,10.1-3.1,14.1-4s8.1-2,12.1-3.9c4-2,8.1-4.8,12.1-7.4c4-2.6,8.1-4.9,12.1-17.1c4-12.2,8.1-34.2,12.1-34.9
			s8.1,19.7,12.1,34.5s8.1,24,12.1,26.7s8.1-1.1,12.1-2.5s8.1-0.4,12.1,2.8s8.1,8.6,12.1,10.9c4,2.3,8.1,1.5,12.1,1.7
			s8.1,1.3,12.1,1.1s8.1-1.8,12.1-2.2s8.1,0.5,12.1,0.8s8.1,0,12.1,0.9c4,0.8,8.1,2.8,12.1,3.7s8.1,0.7,12.1,0.2s8.1-1.4,12.1-1.4
			s8.1,1,12.1,1.4s8.1,0.4,12.1-0.4c4-0.9,8.1-2.6,12.1-3.6s8.1-1.2,12.1-0.6c4,0.6,8.1,2.1,12.1,3.2c4,1.1,8.1,1.8,12.1,2.1
			s8.1,0.2,12.1,0.3s8.1,0.5,12.1,0.2c4-0.4,8.1-1.5,12.1-1.4s8.1,1.4,12.1,2.1s8.1,0.7,12.1,0.4s8.1-1.1,12.1-1s8.1,0.9,12.1,0.8
			c4-0.2,8.1-1.3,12.1-1.4c4-0.1,8.1,0.9,12.1,1.2s8.1-0.3,12.1-2.5s8.1-6.1,12.1-6.9c4-0.7,8.1,1.7,10.1,2.9l2,1.2v3.7l-2-1.4
			c-2-1.4-6-4.2-10.1-3.4c-4,0.8-8.1,5.1-12.1,7.4c-4,2.3-8.1,2.7-12.1,2.6s-8.1-0.7-12.1-0.6c-4,0.1-8.1,0.9-12.1,1.1
			s-8.1-0.3-12.1-0.5c-4-0.1-8.1,0.1-12.1,0.1s-8.1-0.3-12.1-1s-8.1-2-12.1-1.7s-8.1,2.2-12.1,3s-8.1,0.4-12.1-0.1
			c-4-0.4-8.1-0.9-12.1-1.5c-4-0.7-8.1-1.5-12.1-1.7s-8.1,0.2-12.1,0.9c-4,0.6-8.1,1.5-12.1,1.6s-8.1-0.5-12.1-0.7
			s-8.1-0.1-12.1-0.2c-4,0-8.1-0.3-12.1,0c-4,0.2-8.1,0.9-12.1,1s-8.1-0.5-12.1-1.2s-8.1-1.4-12.1-2s-8.1-1-12.1-0.5
			s-8.1,1.7-12.1,1.9s-8.1-0.7-12.1-0.9c-4-0.1-8.1,0.6-12.1,0.6c-4,0.1-8.1-0.5-12.1-1c-4-0.4-8.1-0.8-12.1-0.6s-8.1,0.8-12.1-0.2
			c-4-1-8.1-3.6-12.1-6.5c-4-3-8.1-6.3-12.1-14.2s-8.1-20.3-12.1-19.4c-4,0.8-8.1,15-12.1,21s-8.1,4-12.1,5s-8.1,5-12.1,5.9
			s-8.1-1.5-12.1-2.4c-4-1-8.1-0.7-14.1,1.3s-14.1,5.5-20.2,6.9c-6.1,1.4-10.1,0.8-14.1,1.1c-4,0.3-8.1,1.5-12.1,2.2
			s-8.1,0.9-12.1,1s-8.1,0.1-12.1,0.1s-8.1,0.1-12.1,0c-4,0-8.1-0.2-12.1-0.2s-8.1,0-12.1,0s-8.1,0.1-12.1,0.2s-8.1,0.3-12.1,0.2
			s-8.1-0.4-12.1-0.7s-8.1-0.5-12.1-0.8s-8.1-0.7-12.1-0.5c-4,0.1-8.1,0.8-12.1,1.1s-8.1,0.4-12.1,0.7s-8.1,0.7-12.1,0.3
			s-8.1-1.8-12.1-2.4c-4-0.6-8.1-0.4-12.1-0.1c-4,0.4-8.1,0.9-12.1,0.9s-8.1-0.4-12.1-0.7s-8.1-0.4-12.1-0.4s-8.1,0.2-12.1,1.1
			c-4,0.9-8.1,2.5-12.1,3.4c-4,1-8.1,1.3-12.1,0.9s-8.1-1.7-12.1-2.6s-8.1-1.3-12.1-1.8s-8.1-1-12.1-1.9s-8.1-2.5-12.1-2
			s-8.1,3-12.1,4.4s-8.1,1.6-12.1,1.6s-8.1-0.2-12.1-0.2c-4-0.1-8.1,0-12.1,0s-8.1,0.1-10.1,0.1L138.3,240.6L138.3,240.6z"/>
		<path id="trumpNegative" class="st27" d="M138.3,240.6h2c2,0,6.1,0,10.1-0.1c4,0,8.1-0.1,12.1,0s8.1,0.2,12.1,0.2
			s8.1-0.2,12.1-1.6c4-1.4,8.1-3.9,12.1-4.4s8.1,1,12.1,2s8.1,1.5,12.1,1.9c4,0.5,8.1,0.9,12.1,1.8s8.1,2.1,12.1,2.6
			s8.1,0.1,12.1-0.9s8.1-2.6,12.1-3.4c4-0.9,8.1-1.1,12.1-1.1s8.1,0.1,12.1,0.4c4,0.3,8.1,0.8,12.1,0.7c4,0,8.1-0.6,12.1-0.9
			c4-0.4,8.1-0.5,12.1,0.1s8.1,2,12.1,2.4s8.1,0,12.1-0.3s8.1-0.3,12.1-0.7c4-0.3,8.1-1,12.1-1.1s8.1,0.2,12.1,0.5s8.1,0.5,12.1,0.8
			s8.1,0.6,12.1,0.7c4,0.1,8.1-0.1,12.1-0.2s8.1-0.2,12.1-0.2s8.1-0.1,12.1,0S461,240,465,240s8.1,0,12.1,0s8.1,0,12.1-0.1
			s8.1-0.3,12.1-1s8.1-1.9,12.1-2.2c4-0.3,8.1,0.4,14.1-1.1c6-1.4,14.1-5,20.2-6.9c6.1-1.9,10.1-2.3,14.1-1.3s8.1,3.3,12.1,2.4
			s8.1-4.9,12.1-5.9s8.1,1.1,12.1-5c4-6,8.1-20.1,12.1-21c4-0.8,8.1,11.6,12.1,19.4s8.1,11.2,12.1,14.2s8.1,5.5,12.1,6.5
			c4,1,8.1,0.3,12.1,0.2s8.1,0.1,12.1,0.6c4,0.4,8.1,1,12.1,1c4-0.1,8.1-0.7,12.1-0.6c4,0.1,8.1,1,12.1,0.9s8.1-1.4,12.1-1.9
			s8.1,0,12.1,0.5c4,0.6,8.1,1.3,12.1,2s8.1,1.2,12.1,1.2c4-0.1,8.1-0.8,12.1-1s8.1,0,12.1,0s8.1-0.1,12.1,0.2
			c4,0.2,8.1,0.9,12.1,0.7c4-0.1,8.1-1,12.1-1.6s8.1-1.1,12.1-0.9c4,0.2,8.1,1.1,12.1,1.7c4,0.7,8.1,1.1,12.1,1.5s8.1,0.8,12.1,0.1
			c4-0.8,8.1-2.6,12.1-3c4-0.3,8.1,0.9,12.1,1.7s8.1,1,12.1,1s8.1-0.2,12.1-0.1c4,0.1,8.1,0.6,12.1,0.5s8.1-0.9,12.1-1.1
			c4-0.1,8.1,0.5,12.1,0.6s8.1-0.2,12.1-2.6c4-2.3,8.1-6.7,12.1-7.4c4-0.8,8.1,2,10.1,3.4l2,1.4v13.8l-2,3.8
			c-2,3.8-6,11.4-10.1,11.6c-4,0.3-8.1-6.8-12.1-10.5s-8.1-4.1-12.1-3.1s-8.1,3.1-12.1,3.4s-8.1-1.3-12.1-1.9s-8.1-0.2-12.1-0.6
			c-4-0.4-8.1-1.7-12.1-2.1s-8.1,0.1-12.1,2.1c-4,2.1-8.1,5.8-12.1,6.6c-4,0.8-8.1-1.2-12.1-3.1s-8.1-3.8-12.1-4.8
			s-8.1-1.3-12.1-0.4s-8.1,2.8-12.1,4.1s-8.1,1.9-12.1,1.1c-4-0.8-8.1-3.2-12.1-5s-8.1-3.1-12.1-3.2c-4-0.1-8.1,0.9-12.1,3.1
			c-4,2.2-8.1,5.6-12.1,6.3s-8.1-1.1-12.1-2.7s-8.1-3-12.1-0.9c-4,2-8.1,7.5-12.1,10.3c-4,2.9-8.1,3.2-12.1,3.3
			c-4,0.1-8.1,0-12.1-1.3c-4-1.2-8.1-3.5-12.1-4.1c-4-0.5-8.1,0.8-12.1,0.4c-4-0.3-8.1-2.3-12.1,3.6s-8.1,19.7-12.1,32.4
			s-8.1,24.4-12.1,15c-4-9.5-8.1-40.1-12.1-39.3c-4,0.8-8.1,32.9-12.1,72.6s-8.1,87.1-12.1,87.2s-8.1-46.8-12.1-79
			c-4-32.1-8.1-49.3-12.1-62.4s-8.1-22.1-12.1-25.9s-8.1-2.3-12.1-2.3s-8.1-1.5-14.1-4.8s-14.1-8.5-20.2-9.7
			c-6.1-1.2-10.1,1.4-14.1,1c-4-0.4-8.1-3.9-12.1-6.1s-8.1-3-12.1-3.2s-8.1,0.3-12.1,0.5c-4,0.1-8.1,0-12.1-0.1s-8.1,0-12.1-0.2
			s-8.1-0.6-12.1-0.8c-4-0.1-8.1,0-12.1,0.1s-8.1,0.2-12.1,0.1c-4-0.1-8.1-0.3-12.1,0.6c-4,0.9-8.1,2.8-12.1,4.6s-8.1,3.6-12.1,2.7
			c-4-0.8-8.1-4.2-12.1-5.8s-8.1-1.5-12.1-1.3s-8.1,0.4-12.1,0.6c-4,0.2-8.1,0.2-12.1,0.2c-4-0.1-8.1-0.2-12.1-0.5
			s-8.1-0.7-12.1-1.2s-8.1-1-12.1-1.5s-8.1-1-12.1-0.8s-8.1,1-12.1,4s-8.1,8.2-12.1,10.4c-4,2.2-8.1,1.5-12.1-0.1s-8.1-3.9-12.1-5.9
			s-8.1-3.5-12.1-3.8s-8.1,0.8-12.1,2.5s-8.1,4.2-12.1,4s-8.1-3.2-12.1-5s-8.1-2.3-12.1-2.9s-8.1-1.4-12.1-1.9s-8.1-0.5-12.1-0.6
			s-8.1,0.4-10.1,0.4L138.3,240.6L138.3,240.6z"/>
	</g>
	<rect x="206.3" y="263.4" class="st19" width="129.3" height="112.2"/>
	<text transform="matrix(1 0 0 1 206.2967 271.9989)" class="st5 st8 st9">January 26</text>
	<text transform="matrix(1 0 0 1 206.2967 283.9989)" class="st10 st11">Senate Minority Leader Chuck </text>
	<text transform="matrix(1 0 0 1 206.2967 295.9989)" class="st10 st11">Schumer and other legislators </text>
	<text transform="matrix(1 0 0 1 206.2967 307.9989)" class="st10 st11">call for Trump to declare a </text>
	<text transform="matrix(1 0 0 1 206.2967 319.9989)" class="st10 st11">public health emergency as </text>
	<text transform="matrix(1 0 0 1 206.2967 331.9989)" class="st10 st11">COVID-19 cases begin to rise </text>
	<text transform="matrix(1 0 0 1 206.2967 343.9989)" class="st10 st11">on the West Coast.</text>
	<rect x="260.7" y="33.2" class="st19" width="163.6" height="157.3"/>
	<text transform="matrix(1 0 0 1 260.694 41.7295)" class="st3 st8 st9">January 29-31</text>
	<text transform="matrix(1 0 0 1 260.694 53.7295)" class="st21 st11">29: </text>
	<text transform="matrix(1 0 0 1 277.394 53.7295)" class="st10 st11">Trump admin establishes White </text>
	<text transform="matrix(1 0 0 1 260.694 65.7295)" class="st10 st11">House Coronavirus Task Force.</text>
	<text transform="matrix(1 0 0 1 260.694 89.7295)" class="st21 st11">30: </text>
	<text transform="matrix(1 0 0 1 277.394 89.7295)" class="st10 st11">Trump’s Secretary of Commerce </text>
	<text transform="matrix(1 0 0 1 260.694 101.7295)" class="st10 st11">states that coronavirus pandemic could </text>
	<text transform="matrix(1 0 0 1 260.694 113.7295)" class="st10 st11">be good for the US economy, helping </text>
	<text transform="matrix(1 0 0 1 260.694 125.7295)" class="st10 st11">to “accelerate the return of jobs to </text>
	<text transform="matrix(1 0 0 1 260.694 137.7295)" class="st10 st11">North America.”</text>
	<text transform="matrix(1 0 0 1 260.694 161.7295)" class="st21 st11">31: </text>
	<text transform="matrix(1 0 0 1 277.394 161.7295)" class="st10 st11">Trump’s HHS Secretary declares a </text>
	<text transform="matrix(1 0 0 1 260.694 173.7295)" class="st10 st11">public health emergency.</text>
	<rect x="463" y="385.4" class="st19" width="129.3" height="112.2"/>
	<text transform="matrix(1 0 0 1 526.2792 393.9302)" class="st5 st8 st9">February 29</text>
	<text transform="matrix(1 0 0 1 490.8792 405.9302)" class="st10 st11">Trump calls COVID-19 a </text>
	<text transform="matrix(1 0 0 1 496.6792 417.9302)" class="st10 st11">“Democratic Hoax” in a    </text>
	<text transform="matrix(1 0 0 1 477.3792 429.9302)" class="st10 st11">White House press briefing.</text>
	<rect x="655" y="329.3" class="st19" width="129.3" height="112.2"/>
	<text transform="matrix(1 0 0 1 655.0369 337.8259)" class="st5 st8 st9">March 03</text>
	<text transform="matrix(1 0 0 1 655.0369 349.8259)" class="st10 st11">At NIH event, Trump states </text>
	<text transform="matrix(1 0 0 1 655.0369 361.8259)" class="st10 st11">that COVID-19 vaccine could </text>
	<text transform="matrix(1 0 0 1 655.0369 373.8259)" class="st10 st11">arrive in a few months. He is </text>
	<text transform="matrix(1 0 0 1 655.0369 385.8259)" class="st10 st11">immediately corrected by Dr. </text>
	<text transform="matrix(1 0 0 1 655.0369 397.8259)" class="st10 st11">Anthony Fauci, saying it will </text>
	<text transform="matrix(1 0 0 1 655.0369 409.8259)" class="st10 st11">take a minimum of 1.5 years.</text>
	<rect x="829.5" y="273.2" class="st19" width="129.3" height="112.2"/>
	<text transform="matrix(1 0 0 1 906.9876 281.7216)" class="st5 st8 st9">March 29</text>
	<text transform="matrix(1 0 0 1 836.2877 293.7216)" class="st10 st11">Trump claims that holding US </text>
	<text transform="matrix(1 0 0 1 864.5877 305.7216)" class="st10 st11">COVID-19 death toll to </text>
	<text transform="matrix(1 0 0 1 850.9876 317.7216)" class="st10 st11">100,000 would be a “very </text>
	<text transform="matrix(1 0 0 1 915.7877 329.7216)" class="st10 st11">good job.”</text>
	<line class="st16" x1="234.4" y1="209.6" x2="269.9" y2="209.6"/>
	<line class="st16" x1="269.9" y1="219.1" x2="269.9" y2="209.6"/>
	<line class="st16" x1="234.4" y1="219.1" x2="234.4" y2="209.6"/>
	<line class="st16" x1="1009.8" y1="434.7" x2="1009.8" y2="45.2"/>
	<line class="st16" x1="1002.2" y1="434.7" x2="1017.3" y2="434.7"/>
	<line class="st16" x1="1002.2" y1="45.2" x2="1017.3" y2="45.2"/>
	<text transform="matrix(1 0 0 1 1022.35 221.529)"><tspan x="0" y="0" class="st5 st8 st14">Peak: </tspan><tspan x="0" y="16.8" class="st10 st14">February 29th, </tspan><tspan x="0" y="33.6" class="st10 st14">estimated</tspan><tspan x="63.1" y="33.6" class="st15 st14">  </tspan><tspan x="0" y="50.4" class="st5 st8 st14">309 million</tspan><tspan x="0" y="67.2" class="st10 st14">favorites</tspan></text>
</g>
<g id="cuomo">
	<line id="mar23Line_5_" class="st16" x1="981.6" y1="9.1" x2="981.6" y2="165.7"/>
	<line id="mar23Line_3_" class="st16" x1="948.1" y1="282.1" x2="948.1" y2="438.6"/>
	<line id="mar23Line_4_" class="st16" x1="694.9" y1="233.2" x2="694.9" y2="330.1"/>
	<line id="mar23Line_2_" class="st16" x1="647.8" y1="49.2" x2="647.8" y2="236.9"/>
	<line id="mar23Line_1_" class="st16" x1="610.1" y1="50.1" x2="610.1" y2="240.3"/>
	<g id="cuomoPath">
		<path id="cuomoPositive" class="st28" d="M138.3,240.5h2c2,0,6.1-0.1,10.1-0.1s8.1,0,12.1-1s8.1-2.7,12.1-2.9s8.1,1.3,12.1,2
			c4,0.6,8.1,0.4,12.1,0.4s8.1,0.1,12.1,0.3s8.1,0.4,12.1,0.3s8.1-0.7,12.1-0.8s8.1,0.4,12.1,0.7s8.1,0.4,12.1,0.5s8.1,0.1,12.1,0
			s8.1-0.4,12.1-0.4s8.1,0.1,12.1,0.2c4,0.1,8.1,0,12.1,0.1s8.1,0.2,12.1,0.4s8.1,0.2,12.1-0.2s8.1-1.1,12.1-1.1s8.1,0.7,12.1-0.7
			s8.1-5,12.1-5.3s8.1,2.8,12.1,4.6s8.1,2.3,12.1,2.5c4,0.3,8.1,0.4,12.1,0.4s8.1,0,12.1-0.1c4,0,8.1-0.1,12.1-0.3s8.1-0.4,12.1-0.4
			c4,0.1,8.1,0.4,12.1,0.6s8.1,0.3,12.1,0.1s8.1-0.5,12.1-0.9c4-0.3,8.1-0.6,12.1-0.7s8.1-0.1,12.1,0.1c4,0.2,8.1,0.5,12.1,0.6
			s8.1,0.3,14.1,0.4c6,0.1,14.1,0.4,20.2,0.4c6,0.1,10.1,0.1,14.1-0.2s8.1-0.7,12.1-0.9s8.1-0.2,12.1-1.5s8.1-3.8,12.1-26.4
			c4-22.7,8.1-65.5,12.1-65.3s8.1,43.6,12.1,59.3s8.1,3.7,12.1-27s8.1-80.3,12.1-88.5s8.1,25,12.1,55.7s8.1,58.7,12.1,71.9
			s8.1,11.4,12.1,4.1s8.1-20.3,12.1-22.7c4-2.5,8.1,5.5,12.1,10.3s8.1,6.3,12.1,6.2c4-0.2,8.1-2,12.1-1.5s8.1,3.3,12.1,7.2
			s8.1,8.9,12.1,11.1c4,2.2,8.1,1.5,12.1-0.6c4-2,8.1-5.5,12.1-6.7s8.1-0.3,12.1-1.3s8.1-4,12.1-6.7s8.1-5.1,12.1-4.1
			s8.1,5.4,12.1,8.2c4,2.9,8.1,4.3,12.1,2.4s8.1-7.2,12.1-19.2s8.1-30.7,12.1-40.3c4-9.5,8.1-9.9,12.1-3.2s8.1,20.5,12.1,22.5
			s8.1-7.7,12.1-9s8.1,5.8,12.1,10.9c4,5.1,8.1,8.2,12.1,9.1c4,0.9,8.1-0.3,12.1-5.5s8.1-14.4,12.1-18.7s8.1-3.8,12.1-4.9
			s8.1-3.9,12.1-31.6s8.1-80.2,10.1-106.5l2-26.3v390.7l-2-33.3c-2-33.3-6-99.8-10.1-131.9c-4-32.1-8.1-29.7-12.1-30.2
			s-8.1-3.7-12.1,0.3s-8.1,15.4-12.1,22.3c-4,6.9-8.1,9.3-12.1,11.3c-4,1.9-8.1,3.3-12.1,5.2c-4,1.8-8.1,4-12.1,7.6
			s-8.1,8.6-12.1,6.8s-8.1-10.5-12.1-15c-4-4.6-8.1-5.1-12.1-5s-8.1,0.8-12.1,2.3s-8.1,3.8-12.1,5.6s-8.1,3.3-12.1,1.4
			s-8.1-7.1-12.1-7.3s-8.1,4.6-12.1,6.5s-8.1,1-12.1,2.6c-4,1.5-8.1,5.5-12.1,5.9c-4,0.5-8.1-2.5-12.1-4.2s-8.1-2.1-12.1-2.6
			c-4-0.4-8.1-0.8-12.1,0.1s-8.1,3.2-12.1,3.6c-4,0.4-8.1-1.1-12.1-3.4c-4-2.3-8.1-5.3-12.1-11.8s-8.1-16.5-12.1-15.4
			s-8.1,13.4-12.1,19.8s-8.1,6.9-12.1,6.5s-8.1-1.8-12.1,4.2s-8.1,19.6-12.1,21.2c-4,1.7-8.1-8.5-12.1-15.5s-8.1-10.7-12.1,2.9
			c-4,13.6-8.1,44.4-12.1,45.2s-8.1-28.5-12.1-43.2c-4-14.6-8.1-14.5-12.1-14.5c-4,0.1-8.1,0.1-12.1,0.3s-8.1,0.4-12.1,0.6
			c-4,0.1-8.1,0.1-14.1,0.1s-14.1-0.1-20.2-0.1c-6.1,0-10.1-0.1-14.1-0.1c-4,0-8.1-0.1-12.1,0.2s-8.1,1-12.1,1.2s-8.1-0.1-12.1-0.4
			c-4-0.3-8.1-0.5-12.1-0.7c-4-0.1-8.1-0.2-12.1-0.4s-8.1-0.6-12.1-0.6s-8.1,0.4-12.1,0.6s-8.1,0.2-12.1,0.2s-8.1,0.1-12.1,0
			c-4,0-8.1-0.1-12.1-0.4c-4-0.3-8.1-0.7-12.1-2.4s-8.1-4.7-12.1-4.4c-4,0.2-8.1,3.7-12.1,5.3s-8.1,1.4-12.1,1.4s-8.1,0.3-12.1,0.4
			c-4,0.1-8.1,0.1-12.1,0s-8.1-0.3-12.1-0.3c-4-0.1-8.1,0-12.1,0.2s-8.1,0.5-12.1,0.5s-8.1-0.3-12.1-0.5c-4-0.1-8.1-0.1-12.1-0.1
			c-4,0-8.1-0.1-12.1-0.1s-8.1,0.1-12.1,0.1s-8.1,0-12.1-0.2c-4-0.1-8.1-0.4-12.1-0.3c-4,0.1-8.1,0.5-12.1,0.7s-8.1,0.1-12.1-0.5
			s-8.1-1.8-12.1-1.8s-8.1,1.3-12.1,1.9c-4,0.6-8.1,0.6-12.1,0.6s-8.1,0-10.1,0L138.3,240.5z"/>
		<path id="cuomoNeutral" class="st29" d="M138.3,240.5h2c2,0,6.1,0,10.1,0s8.1,0,12.1-0.6s8.1-1.9,12.1-1.9s8.1,1.1,12.1,1.8
			s8.1,0.7,12.1,0.5s8.1-0.6,12.1-0.7c4-0.1,8.1,0.2,12.1,0.3s8.1,0.2,12.1,0.2s8.1-0.1,12.1-0.1s8.1,0.1,12.1,0.1s8.1,0,12.1,0.1
			s8.1,0.5,12.1,0.5s8.1-0.3,12.1-0.5s8.1-0.2,12.1-0.2c4,0.1,8.1,0.2,12.1,0.3s8.1,0.1,12.1,0s8.1-0.4,12.1-0.4s8.1,0.2,12.1-1.4
			c4-1.6,8.1-5,12.1-5.3c4-0.2,8.1,2.7,12.1,4.4s8.1,2.1,12.1,2.4c4,0.3,8.1,0.4,12.1,0.4s8.1,0,12.1,0s8.1,0,12.1-0.2
			s8.1-0.6,12.1-0.6s8.1,0.4,12.1,0.6c4,0.2,8.1,0.3,12.1,0.4c4,0.1,8.1,0.4,12.1,0.7s8.1,0.6,12.1,0.4c4-0.2,8.1-0.9,12.1-1.2
			s8.1-0.3,12.1-0.2s8.1,0.1,14.1,0.1s14.1,0.1,20.2,0.1c6.1,0,10.1,0.1,14.1-0.1c4-0.1,8.1-0.4,12.1-0.6s8.1-0.2,12.1-0.3
			s8.1-0.1,12.1,14.5s8.1,43.9,12.1,43.2s8.1-31.7,12.1-45.2s8.1-9.8,12.1-2.9s8.1,17.2,12.1,15.5c4-1.7,8.1-15.2,12.1-21.2
			s8.1-4.7,12.1-4.2c4,0.4,8.1-0.1,12.1-6.5s8.1-18.6,12.1-19.8c4-1.1,8.1,8.9,12.1,15.4s8.1,9.5,12.1,11.8s8.1,3.7,12.1,3.4
			c4-0.4,8.1-2.6,12.1-3.6s8.1-0.5,12.1-0.1s8.1,0.9,12.1,2.6s8.1,4.7,12.1,4.2s8.1-4.4,12.1-5.9s8.1-0.6,12.1-2.6
			c4-1.9,8.1-6.7,12.1-6.5s8.1,5.4,12.1,7.3s8.1,0.4,12.1-1.4s8.1-4.2,12.1-5.6c4-1.5,8.1-2.2,12.1-2.3s8.1,0.4,12.1,5
			s8.1,13.2,12.1,15s8.1-3.2,12.1-6.8s8.1-5.8,12.1-7.6s8.1-3.2,12.1-5.2c4-1.9,8.1-4.4,12.1-11.3c4-6.9,8.1-18.3,12.1-22.3
			s8.1-0.8,12.1-0.3s8.1-1.9,12.1,30.2s8.1,98.7,10.1,131.9l2,33.3v30.2l-2-35.7c-2-35.7-6-107-10.1-140.5
			c-4-33.6-8.1-29.4-12.1-29.6s-8.1-4.8-12.1-1.5s-8.1,14.4-12.1,21.2s-8.1,9.2-12.1,11.3s-8.1,3.8-12.1,9.6
			c-4,5.8-8.1,15.8-12.1,18.1c-4,2.4-8.1-2.8-12.1-2s-8.1,7.6-12.1,8s-8.1-5.6-12.1-9.7c-4-4-8.1-6.1-12.1-9.5s-8.1-8-12.1-10.2
			s-8.1-2-12.1-3.4s-8.1-4.4-12.1-4.1c-4,0.3-8.1,4.1-12.1,4.7s-8.1-1.7-12.1-1.6c-4,0.1-8.1,2.7-12.1,3c-4,0.2-8.1-1.9-12.1-3.4
			s-8.1-2.3-12.1-2.1c-4,0.1-8.1,1.1-12.1,3.5s-8.1,6-12.1,6.8s-8.1-1.2-12.1-3.3s-8.1-4.2-12.1-8.9s-8.1-11.9-12.1-11.8
			c-4,0.1-8.1,7.3-12.1,11.2c-4,3.8-8.1,4.3-12.1,13.6c-4,9.3-8.1,27.6-12.1,45.3s-8.1,35-12.1,29.8c-4-5.2-8.1-32.8-12.1-51.2
			s-8.1-27.6-12.1-13.8c-4,13.8-8.1,50.6-12.1,50.8s-8.1-36.4-12.1-55.2s-8.1-19.8-12.1-20c-4-0.3-8.1,0.2-12.1,0.3
			s-8.1-0.3-12.1-0.4s-8.1-0.2-14.1-0.2s-14.1,0-20.2,0c-6.1,0-10.1-0.1-14.1-0.2c-4-0.1-8.1-0.1-12.1,0.3c-4,0.3-8.1,1.1-12.1,1.3
			s-8.1,0-12.1-0.3s-8.1-0.7-12.1-0.9s-8.1-0.2-12.1-0.4s-8.1-0.6-12.1-0.5s-8.1,0.5-12.1,0.7s-8.1,0.1-12.1,0.1s-8.1,0-12.1,0
			s-8.1-0.1-12.1,0.1c-4,0.2-8.1,0.6-12.1-0.3c-4-1-8.1-3.3-12.1-3.5s-8.1,1.8-12.1,2.7s-8.1,0.7-12.1,0.7s-8.1,0.2-12.1,0.3
			s-8.1,0.1-12.1,0s-8.1-0.2-12.1-0.2s-8.1,0-12.1,0.3c-4,0.2-8.1,0.7-12.1,0.7c-4,0.1-8.1-0.2-12.1-0.4s-8.1-0.3-12.1-0.3
			c-4,0-8.1,0.1-12.1,0.1s-8.1,0.1-12.1,0.1s-8.1-0.2-12.1-0.3s-8.1,0-12.1,0c-4,0.1-8.1,0.2-12.1,0.2c-4,0.1-8.1,0.1-12.1,0.3
			s-8.1,0.5-12.1,0.4s-8.1-0.4-12.1-0.6s-8.1-0.2-12.1-0.2s-8.1,0-10.1,0L138.3,240.5z"/>
		<path id="cuomoNegative" class="st30" d="M138.3,240.5h2c2,0,6.1,0,10.1,0s8.1,0,12.1,0.2s8.1,0.6,12.1,0.6s8.1-0.3,12.1-0.4
			s8.1-0.2,12.1-0.3s8.1-0.2,12.1-0.2c4-0.1,8.1-0.1,12.1,0s8.1,0.2,12.1,0.3c4,0,8.1,0,12.1-0.1s8.1-0.1,12.1-0.1s8.1,0.1,12.1,0.3
			s8.1,0.5,12.1,0.4s8.1-0.5,12.1-0.7s8.1-0.3,12.1-0.3s8.1,0.2,12.1,0.2c4,0.1,8.1,0.1,12.1,0s8.1-0.3,12.1-0.3s8.1,0.2,12.1-0.7
			s8.1-2.9,12.1-2.7s8.1,2.6,12.1,3.5c4,1,8.1,0.5,12.1,0.3s8.1-0.1,12.1-0.1s8.1,0,12.1,0s8.1,0.1,12.1-0.1s8.1-0.6,12.1-0.7
			s8.1,0.3,12.1,0.5s8.1,0.2,12.1,0.4s8.1,0.5,12.1,0.9c4,0.3,8.1,0.6,12.1,0.3s8.1-0.9,12.1-1.3c4-0.3,8.1-0.3,12.1-0.3
			s8.1,0.2,14.1,0.2s14.1,0,20.2,0c6,0,10.1,0,14.1,0.2s8.1,0.5,12.1,0.4s8.1-0.6,12.1-0.3s8.1,1.3,12.1,20
			c4,18.8,8.1,55.3,12.1,55.2s8.1-36.9,12.1-50.8c4-13.8,8.1-4.6,12.1,13.8s8.1,46,12.1,51.2s8.1-12,12.1-29.8s8.1-36,12.1-45.3
			s8.1-9.7,12.1-13.6c4-3.8,8.1-11.1,12.1-11.2c4-0.1,8.1,7.1,12.1,11.8s8.1,6.8,12.1,8.9c4,2.1,8.1,4.1,12.1,3.3s8.1-4.5,12.1-6.8
			s8.1-3.4,12.1-3.5s8.1,0.7,12.1,2.1c4,1.5,8.1,3.6,12.1,3.4c4-0.2,8.1-2.9,12.1-3s8.1,2.3,12.1,1.6s8.1-4.4,12.1-4.7
			s8.1,2.7,12.1,4.1s8.1,1.2,12.1,3.4s8.1,6.9,12.1,10.2c4,3.4,8.1,5.4,12.1,9.5c4,4,8.1,10.1,12.1,9.7s8.1-7.2,12.1-8
			s8.1,4.4,12.1,2s8.1-12.3,12.1-18.1c4-5.8,8.1-7.5,12.1-9.6s8.1-4.5,12.1-11.3s8.1-17.9,12.1-21.2s8.1,1.3,12.1,1.5
			s8.1-4,12.1,29.6s8.1,104.9,10.1,140.5l2,35.7v59.1l-2-26.3c-2-26.3-6-78.8-10.1-106.5c-4-27.7-8.1-30.5-12.1-31.6
			s-8.1-0.6-12.1-4.9s-8.1-13.5-12.1-18.7s-8.1-6.4-12.1-5.5s-8.1,4-12.1,9.1s-8.1,12.2-12.1,10.9c-4-1.3-8.1-11-12.1-9
			s-8.1,15.8-12.1,22.5s-8.1,6.4-12.1-3.2c-4-9.5-8.1-28.3-12.1-40.3s-8.1-17.2-12.1-19.2s-8.1-0.5-12.1,2.4s-8.1,7.3-12.1,8.2
			c-4,1-8.1-1.4-12.1-4.1s-8.1-5.7-12.1-6.7s-8.1,0-12.1-1.3c-4-1.2-8.1-4.7-12.1-6.7s-8.1-2.7-12.1-0.6c-4,2.2-8.1,7.2-12.1,11.1
			s-8.1,6.7-12.1,7.2s-8.1-1.4-12.1-1.5s-8.1,1.4-12.1,6.2c-4,4.8-8.1,12.8-12.1,10.3s-8.1-15.4-12.1-22.7c-4-7.3-8.1-9.1-12.1,4.1
			s-8.1,41.2-12.1,71.9s-8.1,63.8-12.1,55.7c-4-8.2-8.1-57.8-12.1-88.5s-8.1-42.7-12.1-27s-8.1,59-12.1,59.3s-8.1-42.6-12.1-65.3
			s-8.1-25.2-12.1-26.4c-4-1.3-8.1-1.2-12.1-1.5c-4-0.2-8.1-0.7-12.1-0.9s-8.1-0.3-14.1-0.2s-14.1,0.3-20.2,0.4
			c-6.1,0.1-10.1,0.2-14.1,0.4c-4,0.2-8.1,0.5-12.1,0.6c-4,0.2-8.1,0.2-12.1,0.1s-8.1-0.4-12.1-0.7s-8.1-0.7-12.1-0.9
			s-8.1-0.1-12.1,0.1s-8.1,0.6-12.1,0.6c-4,0.1-8.1-0.2-12.1-0.4s-8.1-0.2-12.1-0.3c-4,0-8.1-0.1-12.1-0.1s-8.1,0.1-12.1,0.4
			c-4,0.3-8.1,0.8-12.1,2.5c-4,1.8-8.1,4.8-12.1,4.6c-4-0.3-8.1-3.9-12.1-5.3c-4-1.4-8.1-0.7-12.1-0.7s-8.1-0.8-12.1-1.1
			c-4-0.4-8.1-0.3-12.1-0.2s-8.1,0.3-12.1,0.4c-4,0.1-8.1,0-12.1,0.1s-8.1,0.2-12.1,0.2s-8.1-0.3-12.1-0.4c-4-0.1-8.1-0.1-12.1,0
			c-4,0.1-8.1,0.2-12.1,0.5s-8.1,0.7-12.1,0.7s-8.1-0.6-12.1-0.8s-8.1,0.1-12.1,0.3s-8.1,0.3-12.1,0.3s-8.1-0.2-12.1,0.4
			c-4,0.6-8.1,2.1-12.1,2s-8.1-2-12.1-2.9s-8.1-0.9-12.1-1s-8.1-0.1-10.1-0.1L138.3,240.5z"/>
	</g>
	<rect x="464.8" y="49.2" class="st19" width="137.5" height="108.5"/>
	<text transform="matrix(1 0 0 1 536.2551 57.7666)" class="st3 st8 st9">February 29</text>
	<text transform="matrix(1 0 0 1 484.755 69.7666)" class="st10 st11">Cuomo works with VPOTUS </text>
	<text transform="matrix(1 0 0 1 476.1551 81.7666)" class="st10 st11">Mike Pence to obtain approval </text>
	<text transform="matrix(1 0 0 1 473.755 93.7666)" class="st10 st11">for NY labs to create their own, </text>
	<text transform="matrix(1 0 0 1 494.6551 105.7666)" class="st10 st11">non-CDC tests in order to </text>
	<text transform="matrix(1 0 0 1 489.455 117.7666)" class="st10 st11">increase testing speed and </text>
	<text transform="matrix(1 0 0 1 564.855 129.7666)" class="st10 st11">capacity.</text>
	<rect x="659.4" y="46.8" class="st19" width="123.8" height="108.5"/>
	<text transform="matrix(1 0 0 1 659.4446 57.7665)" class="st3 st8 st9">March 03</text>
	<text transform="matrix(1 0 0 1 659.4446 69.7665)" class="st10 st11">Cuomo directs NY insurers to </text>
	<text transform="matrix(1 0 0 1 659.4446 81.7665)" class="st10 st11">waive all co-pays for corona</text>
	<text transform="matrix(1 0 0 1 775.6446 81.7665)" class="st10 st11">-</text>
	<text transform="matrix(1 0 0 1 659.4446 93.7665)" class="st10 st11">virus testing and treatment as </text>
	<text transform="matrix(1 0 0 1 659.4446 105.7665)" class="st10 st11">the state reports its first </text>
	<text transform="matrix(1 0 0 1 659.4446 117.7665)" class="st10 st11">community-transmitted case.</text>
	<rect x="831.4" y="330.1" class="st19" width="110.9" height="108.5"/>
	<text transform="matrix(1 0 0 1 890.4211 338.6812)" class="st5 st8 st9">March 28</text>
	<text transform="matrix(1 0 0 1 842.0211 350.6812)" class="st10 st11">Cuomo clashes with NY </text>
	<text transform="matrix(1 0 0 1 854.6212 362.6812)" class="st10 st11">lawmakers over state </text>
	<text transform="matrix(1 0 0 1 834.1212 374.6812)" class="st10 st11">budget. He is criticized for </text>
	<text transform="matrix(1 0 0 1 835.5211 386.6812)" class="st10 st11">advocating Medicaid cuts </text>
	<text transform="matrix(1 0 0 1 838.0211 398.6812)" class="st10 st11">during the pandemic and </text>
	<text transform="matrix(1 0 0 1 842.721 410.6812)" class="st10 st11">opposing increasing the </text>
	<text transform="matrix(1 0 0 1 845.3211 422.6812)" class="st10 st11">marginal tax rate on the </text>
	<text transform="matrix(1 0 0 1 856.1212 434.6812)" class="st10 st11">richest New Yorkers.</text>
	<rect x="831.4" y="25.1" class="st19" width="137.5" height="108.5"/>
	<text transform="matrix(1 0 0 1 917.0618 33.6312)" class="st3 st8 st9">March 31</text>
	<text transform="matrix(1 0 0 1 838.7619 45.6312)" class="st10 st11">Cuomo’s brother, popular CNN </text>
	<text transform="matrix(1 0 0 1 870.0618 57.6312)" class="st10 st11">anchor Chris Cuomo, is </text>
	<text transform="matrix(1 0 0 1 838.962 69.6312)" class="st10 st11">diagnosed with COVID-19. The </text>
	<text transform="matrix(1 0 0 1 835.2619 81.6312)" class="st10 st11">family receives an outpourting of </text>
	<text transform="matrix(1 0 0 1 891.0618 93.6312)" class="st10 st11">support on Twitter.</text>
	<rect x="698.6" y="297.7" class="st19" width="123.8" height="108.5"/>
	<text transform="matrix(1 0 0 1 698.5521 306.2227)" class="st5 st8 st9">March 07</text>
	<text transform="matrix(1 0 0 1 698.5521 318.2227)" class="st10 st11">Cuomo declares a state of </text>
	<text transform="matrix(1 0 0 1 698.5521 330.2227)" class="st10 st11">emergency as NY’s </text>
	<text transform="matrix(1 0 0 1 698.5521 342.2227)" class="st10 st11">COVID-19 caseload rises to </text>
	<text transform="matrix(1 0 0 1 698.5521 354.2227)" class="st10 st11">89.</text>
	<line class="st16" x1="1009.8" y1="479.4" x2="1009.8" y2="1.1"/>
	<line class="st16" x1="1002.2" y1="479.4" x2="1017.3" y2="479.4"/>
	<line class="st16" x1="1002.2" y1="1.1" x2="1017.3" y2="1.1"/>
	<text transform="matrix(1 0 0 1 1022.3495 221.5292)"><tspan x="0" y="0" class="st3 st8 st14">Peak: </tspan><tspan x="0" y="16.8" class="st10 st14">March 30th, </tspan><tspan x="0" y="33.6" class="st10 st14">estimated</tspan><tspan x="63.1" y="33.6" class="st15 st14">  </tspan><tspan x="0" y="50.4" class="st3 st8 st14">30.5 million</tspan><tspan x="0" y="67.2" class="st10 st14">favorites</tspan></text>
</g>
<g id="whitmer">
	<line id="mar23Line_9_" class="st16" x1="883" y1="236.3" x2="883" y2="345"/>
	<line id="mar23Line_8_" class="st16" x1="944.8" y1="20.9" x2="944.8" y2="153.2"/>
	<line id="mar23Line_7_" class="st16" x1="706.6" y1="75.2" x2="706.6" y2="231.2"/>
	<line id="mar23Line_6_" class="st16" x1="611.1" y1="92.2" x2="611.1" y2="236.3"/>
	<g id="whitmerPath">
		<path id="whitmerPositive" class="st31" d="M138.1,241h2c2,0,6.1,0,10.1,0s8.1,0,12.1-0.1s8.1-0.2,12.1-0.2s8.1,0.1,12.1,0.2
			s8.1,0.1,12.1-0.2c4-0.2,8.1-0.7,12.1-0.7c4-0.1,8.1,0.2,12.1,0.4s8.1,0.1,12.1,0.1c4,0.1,8.1,0.3,12.1,0.3s8.1-0.1,12.1-0.1
			c4,0,8.1,0.2,12.1,0.3s8.1,0.1,12.1,0s8.1-0.3,12.1-0.3s8.1,0.2,12.1-0.1s8.1-1.1,12.1-1.1s8.1,0.7,12.1,1s8.1,0.2,12.1,0.2
			s8.1,0.2,12.1,0.2s8.1-0.2,12.1-0.3s8.1,0,12.1,0.1s8.1,0.2,12.1-0.4c4-0.5,8.1-1.7,12.1-1.7s8.1,1.2,12.1,1.7s8.1,0.3,12.1,0.2
			s8.1,0,12.1,0.1s8.1,0.2,12.1,0.2c4,0.1,8.1,0.1,12.1,0.1s8.1,0.1,12.1,0.1s8.1,0,12.1,0s8.1,0,12.1,0s8.1,0,12.1,0s8.1,0,14.1,0
			s14.1-0.1,20.2-0.1c6.1,0,10.1,0,14.1,0.1s8.1,0,12.1,0s8.1-0.1,12.1-0.9c4-0.8,8.1-2.3,12.1-3.9c4-1.6,8.1-3.4,12.1-3.4
			s8.1,1.7,12.1,3.4s8.1,3.2,12.1,2.9c4-0.4,8.1-2.7,12.1-3.2s8.1,0.8,12.1,0.8s8.1-1.2,12.1-0.6c4,0.5,8.1,2.8,12.1,3
			s8.1-1.7,12.1-21.8c4-20.2,8.1-58.6,12.1-58.4s8.1,39.1,12.1,57.4s8.1,16,12.1,14s8.1-3.8,12.1-2.2s8.1,6.5,12.1,5.7
			c4-0.9,8.1-7.5,12.1-7.4c4,0.2,8.1,7.2,12.1,9.4s8.1-0.3,12.1-1.5s8.1-1,12.1-1.8s8.1-2.7,12.1-2.5s8.1,2.4,12.1,3.8
			c4,1.4,8.1,1.8,12.1,1.2c4-0.7,8.1-2.5,12.1-3s8.1,0.4,12.1-2.1s8.1-8.3,12.1-12.1s8.1-5.7,12.1-2.4s8.1,11.9,12.1,16.2
			s8.1,4.4,12.1,3.7s8.1-2.3,12.1-34.4s8.1-94.7,12.1-133.1s8.1-52.5,12.1-31.2s8.1,78,12.1,108.1s8.1,33.6,12.1,39.7
			c4,6.1,8.1,14.9,10.1,19.2l2,4.4v18.1l-2-0.3c-2-0.3-6-0.8-10.1-3.5c-4-2.7-8.1-7.5-12.1-11.4c-4-3.8-8.1-6.7-12.1,4.6
			s-8.1,36.5-12.1,43c-4,6.5-8.1-5.7-12.1-12c-4-6.2-8.1-6.4-12.1-6.3c-4,0.1-8.1,0.5-12.1-0.6s-8.1-3.5-12.1-6.4s-8.1-6.2-12.1-4.9
			s-8.1,7-12.1,9.4s-8.1,1.4-12.1,1.5s-8.1,1.3-12.1,1.3s-8.1-1.3-12.1-1.9c-4-0.6-8.1-0.6-12.1-0.7c-4-0.2-8.1-0.5-12.1-0.2
			s-8.1,1.3-12.1,1.9c-4,0.6-8.1,1-12.1-1.8s-8.1-8.7-12.1-8.7s-8.1,5.8-12.1,8.3s-8.1,1.6-12.1-0.2s-8.1-4.5-12.1-4.5
			s-8.1,2.8-12.1,24s-8.1,60.9-12.1,61.1c-4,0.3-8.1-38.9-12.1-58.3s-8.1-19.1-12.1-18.2c-4,0.9-8.1,2.4-12.1,2.2
			c-4-0.1-8.1-1.9-12.1-2.5c-4-0.5-8.1,0.1-12.1,0.3c-4,0.1-8.1-0.3-12.1-0.9s-8.1-1.4-12.1-2.7s-8.1-3-12.1-2.5s-8.1,3.4-12.1,4.7
			c-4,1.2-8.1,0.9-12.1,0.8c-4-0.1-8.1,0-12.1,0s-8.1,0-12.1,0s-8.1,0-14.1,0s-14.1,0-20.2,0c-6.1,0-10.1,0-14.1,0
			c-4,0-8.1,0-12.1,0s-8.1,0-12.1,0s-8.1,0-12.1,0s-8.1,0-12.1-0.1c-4,0-8.1-0.1-12.1-0.1c-4-0.1-8.1-0.1-12.1-0.1
			c-4,0.1-8.1,0.3-12.1,0.4c-4,0.1-8.1,0-12.1-0.7c-4-0.6-8.1-1.8-12.1-1.8s-8.1,1.1-12.1,1.7c-4,0.5-8.1,0.5-12.1,0.4
			s-8.1-0.2-12.1-0.1c-4,0-8.1,0.2-12.1,0.4s-8.1,0.3-12.1,0.2c-4,0-8.1-0.2-12.1-0.4s-8.1-0.4-12.1-0.4s-8.1,0.3-12.1,0.4
			c-4,0.1-8.1,0-12.1,0s-8.1,0.1-12.1,0.1s-8.1,0-12.1,0s-8.1-0.1-12.1-0.1c-4,0-8.1,0-12.1,0.1s-8.1,0.1-12.1,0.1
			s-8.1-0.2-12.1-0.4s-8.1-0.6-12.1-0.5s-8.1,0.5-12.1,0.8s-8.1,0.2-12.1,0.1c-4-0.1-8.1-0.2-12.1-0.2s-8.1,0.2-12.1,0.2
			c-4,0.1-8.1,0.1-12.1,0c-4,0-8.1,0-10.1,0h-2L138.1,241L138.1,241z"/>
		<path id="whitmerNeutral" class="st32" d="M138.1,241h2c2,0,6.1,0,10.1,0s8.1,0,12.1,0c4-0.1,8.1-0.2,12.1-0.2s8.1,0.1,12.1,0.2
			c4,0.1,8.1,0.1,12.1-0.1s8.1-0.7,12.1-0.8s8.1,0.3,12.1,0.5s8.1,0.4,12.1,0.4s8.1,0,12.1-0.1s8.1-0.1,12.1-0.1
			c4,0,8.1,0.1,12.1,0.1s8.1,0,12.1,0s8.1-0.1,12.1-0.1s8.1,0.1,12.1,0s8.1-0.4,12.1-0.4s8.1,0.2,12.1,0.4s8.1,0.4,12.1,0.4
			s8.1-0.1,12.1-0.2c4-0.2,8.1-0.3,12.1-0.4c4,0,8.1,0.1,12.1,0.1s8.1,0.1,12.1-0.4s8.1-1.7,12.1-1.7s8.1,1.2,12.1,1.8
			s8.1,0.7,12.1,0.7c4-0.1,8.1-0.3,12.1-0.4c4-0.1,8.1,0,12.1,0.1s8.1,0.1,12.1,0.1s8.1,0.1,12.1,0.1s8.1,0,12.1,0s8.1,0,12.1,0
			s8.1,0,12.1,0s8.1,0,14.1,0s14.1,0,20.2,0c6.1,0,10.1,0,14.1,0s8.1,0,12.1,0s8.1-0.1,12.1,0s8.1,0.5,12.1-0.8
			c4-1.2,8.1-4.1,12.1-4.7s8.1,1.2,12.1,2.5s8.1,2.1,12.1,2.7s8.1,1,12.1,0.9s8.1-0.8,12.1-0.3s8.1,2.3,12.1,2.5
			c4,0.1,8.1-1.3,12.1-2.2s8.1-1.2,12.1,18.2s8.1,58.5,12.1,58.3c4-0.3,8.1-39.9,12.1-61.1s8.1-24,12.1-24s8.1,2.7,12.1,4.5
			s8.1,2.6,12.1,0.2c4-2.5,8.1-8.4,12.1-8.3c4,0,8.1,5.9,12.1,8.7s8.1,2.5,12.1,1.8c4-0.6,8.1-1.6,12.1-1.9c4-0.3,8.1,0,12.1,0.2
			s8.1,0.1,12.1,0.7c4,0.6,8.1,1.8,12.1,1.9c4,0,8.1-1.2,12.1-1.3s8.1,0.9,12.1-1.5s8.1-8.2,12.1-9.4c4-1.3,8.1,2,12.1,4.9
			s8.1,5.4,12.1,6.4c4,1.1,8.1,0.7,12.1,0.6c4-0.1,8.1,0.1,12.1,6.3s8.1,18.5,12.1,12s8.1-31.8,12.1-43s8.1-8.4,12.1-4.6
			c4,3.8,8.1,8.7,12.1,11.4s8.1,3.3,10.1,3.5l2,0.3V242l-2,1.1c-2,1.1-6,3.4-10.1,5.6c-4,2.2-8.1,4.4-12.1,8.5s-8.1,10.1-12.1,18.8
			c-4,8.6-8.1,19.9-12.1,14.9s-8.1-26.2-12.1-37.2c-4-11-8.1-11.6-12.1-11.6s-8.1,0.7-12.1,3.3s-8.1,7.1-12.1,4.6
			c-4-2.6-8.1-12.2-12.1-14.4s-8.1,2.9-12.1,5.7s-8.1,3.1-12.1,3.2c-4,0.1-8.1,0-12.1-0.4s-8.1-1.2-12.1-1s-8.1,1.4-12.1,1.1
			c-4-0.2-8.1-1.8-12.1-1.3s-8.1,3.2-12.1,3.4c-4,0.1-8.1-2.3-12.1-0.6s-8.1,7.7-12.1,7.7s-8.1-5.9-12.1-7.4s-8.1,1.5-12.1,3.2
			s-8.1,2.3-12.1,0.9c-4-1.3-8.1-4.6-12.1,13.1c-4,17.6-8.1,56.1-12.1,56.1c-4-0.1-8.1-38.7-12.1-58.1c-4-19.5-8.1-19.7-12.1-19.2
			c-4,0.6-8.1,2-12.1,2.1c-4,0-8.1-1.4-12.1-1.8s-8.1,0-12.1-0.1c-4,0-8.1-0.6-12.1-0.6c-4-0.1-8.1,0.3-12.1,0.6s-8.1,0.4-12.1,0.6
			s-8.1,0.4-12.1,0.2s-8.1-0.9-12.1-1.3c-4-0.4-8.1-0.4-12.1-0.5c-4,0-8.1,0-12.1,0s-8.1,0-14.1,0s-14.1,0-20.2,0
			c-6.1,0-10.1,0-14.1,0c-4,0-8.1,0-12.1,0s-8.1,0-12.1,0s-8.1,0-12.1,0s-8.1,0-12.1-0.1c-4,0-8.1-0.1-12.1-0.1
			c-4-0.1-8.1-0.1-12.1,0s-8.1,0.4-12.1,0.5s-8.1-0.1-12.1-0.7c-4-0.7-8.1-1.8-12.1-1.8s-8.1,1.1-12.1,1.7c-4,0.6-8.1,0.6-12.1,0.7
			c-4,0.1-8.1,0.2-12.1,0.2s-8.1-0.1-12.1-0.2c-4,0-8.1,0.1-12.1,0.1s-8.1-0.1-12.1-0.3s-8.1-0.4-12.1-0.4s-8.1,0.2-12.1,0.4
			s-8.1,0.3-12.1,0.3s-8.1-0.1-12.1-0.2c-4-0.1-8.1-0.1-12.1-0.1s-8.1-0.1-12.1-0.1c-4,0-8.1,0-12.1,0.2s-8.1,0.4-12.1,0.4
			s-8.1-0.1-12.1,0s-8.1,0.5-12.1,0.5s-8.1-0.5-12.1-0.7s-8.1-0.3-12.1-0.3s-8.1-0.2-12.1-0.1c-4,0-8.1,0.1-12.1,0.2s-8.1,0-12.1,0
			s-8.1,0-10.1,0h-2L138.1,241L138.1,241z"/>
		<path id="whitmerNegative" class="st33" d="M138.1,241h2c2,0,6.1,0,10.1,0s8.1,0,12.1,0s8.1-0.2,12.1-0.2s8.1,0.1,12.1,0.1
			s8.1,0.1,12.1,0.3s8.1,0.7,12.1,0.7s8.1-0.4,12.1-0.5s8.1,0,12.1,0s8.1-0.3,12.1-0.4c4-0.2,8.1-0.2,12.1-0.2c4,0,8.1,0.1,12.1,0.1
			s8.1,0,12.1,0.1s8.1,0.2,12.1,0.2s8.1-0.1,12.1-0.3s8.1-0.4,12.1-0.4s8.1,0.2,12.1,0.4s8.1,0.3,12.1,0.3s8.1-0.1,12.1-0.1
			s8.1,0.2,12.1,0.2s8.1-0.1,12.1-0.2c4-0.1,8.1-0.1,12.1-0.7c4-0.6,8.1-1.7,12.1-1.7s8.1,1.2,12.1,1.8c4,0.7,8.1,0.8,12.1,0.7
			s8.1-0.4,12.1-0.5s8.1,0,12.1,0c4,0.1,8.1,0.1,12.1,0.1s8.1,0.1,12.1,0.1s8.1,0,12.1,0s8.1,0,12.1,0s8.1,0,12.1,0s8.1,0,14.1,0
			s14.1,0,20.2,0c6.1,0,10.1,0,14.1,0s8.1,0,12.1,0s8.1,0.1,12.1,0.5s8.1,1.1,12.1,1.3s8.1,0,12.1-0.2s8.1-0.3,12.1-0.6
			s8.1-0.6,12.1-0.6c4,0.1,8.1,0.6,12.1,0.6s8.1-0.4,12.1,0.1s8.1,1.9,12.1,1.8c4,0,8.1-1.5,12.1-2.1s8.1-0.3,12.1,19.2
			s8.1,58.1,12.1,58.1c4,0.1,8.1-38.4,12.1-56.1c4-17.6,8.1-14.4,12.1-13.1c4,1.3,8.1,0.8,12.1-0.9s8.1-4.7,12.1-3.2
			s8.1,7.4,12.1,7.4s8.1-5.9,12.1-7.7c4-1.7,8.1,0.7,12.1,0.6c4-0.1,8.1-2.8,12.1-3.4c4-0.5,8.1,1.1,12.1,1.3s8.1-0.9,12.1-1.1
			c4-0.2,8.1,0.6,12.1,1s8.1,0.5,12.1,0.4s8.1-0.5,12.1-3.2c4-2.8,8.1-7.9,12.1-5.7s8.1,11.9,12.1,14.4c4,2.6,8.1-2,12.1-4.6
			s8.1-3.3,12.1-3.3s8.1,0.7,12.1,11.6c4,11,8.1,32.2,12.1,37.2s8.1-6.3,12.1-14.9s8.1-14.7,12.1-18.8c4-4.1,8.1-6.3,12.1-8.5
			s8.1-4.5,10.1-5.6l2-1.1v32.2l-2,4.4c-2,4.4-6,13.1-10.1,19.2c-4,6.1-8.1,9.6-12.1,39.7s-8.1,86.8-12.1,108.1s-8.1,7.2-12.1-31.2
			s-8.1-101-12.1-133.1s-8.1-33.6-12.1-34.4c-4-0.7-8.1-0.7-12.1,3.7c-4,4.3-8.1,12.9-12.1,16.2s-8.1,1.4-12.1-2.4
			S868,254.4,864,252s-8.1-1.6-12.1-2.1s-8.1-2.3-12.1-3s-8.1-0.2-12.1,1.2s-8.1,3.6-12.1,3.8s-8.1-1.7-12.1-2.5s-8.1-0.6-12.1-1.8
			s-8.1-3.7-12.1-1.5s-8.1,9.2-12.1,9.4s-8.1-6.5-12.1-7.4s-8.1,4.1-12.1,5.7c-4,1.6-8.1-0.2-12.1-2.2s-8.1-4.3-12.1,14
			s-8.1,57.2-12.1,57.4c-4,0.2-8.1-38.2-12.1-58.4s-8.1-22-12.1-21.8s-8.1,2.4-12.1,3c-4,0.5-8.1-0.7-12.1-0.6s-8.1,1.3-12.1,0.8
			c-4-0.5-8.1-2.8-12.1-3.2s-8.1,1.2-12.1,2.9s-8.1,3.4-12.1,3.4s-8.1-1.8-12.1-3.4c-4-1.6-8.1-3.1-12.1-3.9
			c-4-0.8-8.1-0.9-12.1-0.9s-8.1,0-12.1,0s-8.1,0.1-14.1,0.1s-14.1,0-20.2-0.1c-6.1,0-10.1,0-14.1,0c-4,0-8.1,0-12.1,0
			s-8.1,0-12.1,0s-8.1,0-12.1,0s-8.1,0-12.1,0.1c-4,0-8.1,0.1-12.1,0.1c-4,0.1-8.1,0.1-12.1,0.2s-8.1,0.1-12.1,0.1
			c-4-0.1-8.1-0.3-12.1,0.2s-8.1,1.7-12.1,1.7s-8.1-1.2-12.1-1.7s-8.1-0.5-12.1-0.4s-8.1,0.2-12.1,0.1c-4-0.1-8.1-0.3-12.1-0.3
			s-8.1,0.1-12.1,0.2c-4,0-8.1-0.1-12.1,0.2s-8.1,1-12.1,1s-8.1-0.8-12.1-1.1s-8.1-0.1-12.1-0.1s-8.1-0.2-12.1-0.3s-8.1-0.1-12.1,0
			s-8.1,0.2-12.1,0.3c-4,0-8.1-0.1-12.1-0.1s-8.1,0.2-12.1,0.3s-8.1,0-12.1,0.1s-8.1,0.4-12.1,0.4c-4-0.1-8.1-0.5-12.1-0.7
			s-8.1-0.2-12.1-0.2s-8.1,0.2-12.1,0.2s-8.1-0.1-12.1-0.2c-4-0.1-8.1-0.1-12.1-0.1s-8.1,0-10.1,0L138.1,241L138.1,241z"/>
	</g>
	<rect x="467.8" y="92.3" class="st19" width="137.5" height="108.5"/>
	<text transform="matrix(1 0 0 1 539.2454 100.8319)" class="st20 st8 st9">February 28</text>
	<text transform="matrix(1 0 0 1 484.7453 112.8319)" class="st10 st11">Whitmer activates Michigan’s </text>
	<text transform="matrix(1 0 0 1 468.5453 124.8319)" class="st10 st11">Emergency Operations Center to </text>
	<text transform="matrix(1 0 0 1 486.7453 136.8319)" class="st10 st11">coordinate the government’s </text>
	<text transform="matrix(1 0 0 1 473.9453 148.8319)" class="st10 st11">response to coronavirus. At this </text>
	<text transform="matrix(1 0 0 1 471.7453 160.8319)" class="st10 st11">point, Michigan has 0 confirmed </text>
	<text transform="matrix(1 0 0 1 577.5453 172.8319)" class="st10 st11">cases. </text>
	<rect x="712.2" y="75.1" class="st19" width="137.5" height="108.5"/>
	<text transform="matrix(1 0 0 1 712.1728 83.6776)" class="st3 st8 st9">March 08</text>
	<text transform="matrix(1 0 0 1 712.1728 95.6776)" class="st10 st11">Whitmer announces no-cost </text>
	<text transform="matrix(1 0 0 1 712.1728 107.6776)" class="st10 st11">COVID-19 testing and treatment </text>
	<text transform="matrix(1 0 0 1 712.1728 119.6776)" class="st10 st11">for Medicaid enrollees and most </text>
	<text transform="matrix(1 0 0 1 712.1728 131.6776)" class="st10 st11">privately insured residents. </text>
	<text transform="matrix(1 0 0 1 712.1728 143.6776)" class="st10 st11">Michigan still has zero confirmed </text>
	<text transform="matrix(1 0 0 1 712.1728 155.6776)" class="st10 st11">cases.</text>
	<rect x="741.2" y="271.9" class="st19" width="137.5" height="108.5"/>
	<text transform="matrix(1 0 0 1 826.8605 280.4603)" class="st5 st8 st9">March 22</text>
	<text transform="matrix(1 0 0 1 769.9605 292.4603)" class="st10 st11">Whitmer advises Michigan </text>
	<text transform="matrix(1 0 0 1 751.0606 304.4603)" class="st10 st11">residents to continue to stay at </text>
	<text transform="matrix(1 0 0 1 743.5606 316.4603)" class="st10 st11">home, and defends her decision </text>
	<text transform="matrix(1 0 0 1 760.6605 328.4603)" class="st10 st11">not to issue a Stay-At-Home </text>
	<text transform="matrix(1 0 0 1 854.1605 340.4603)" class="st10 st11">order.</text>
	<rect x="794.4" y="20.9" class="st19" width="137.5" height="108.5"/>
	<text transform="matrix(1 0 0 1 880.0484 29.4668)" class="st3 st8 st9">March 28</text>
	<text transform="matrix(1 0 0 1 833.4483 41.4668)" class="st10 st11">Whitmer’s responses to </text>
	<text transform="matrix(1 0 0 1 815.5484 53.4668)" class="st10 st11">POTUS’s March 26th twitter </text>
	<text transform="matrix(1 0 0 1 806.5484 65.4668)" class="st10 st11">attacks gain national attention.</text>
	<line class="st16" x1="1000.9" y1="25.7" x2="1016" y2="25.7"/>
	<line class="st16" x1="1008.4" y1="454.2" x2="1008.4" y2="25.7"/>
	<line class="st16" x1="1000.9" y1="454.2" x2="1016" y2="454.2"/>
	<text transform="matrix(1 0 0 1 1022.35 221.5293)"><tspan x="0" y="0" class="st20 st8 st14">Peak: </tspan><tspan x="0" y="16.8" class="st10 st14">March 28th, </tspan><tspan x="0" y="33.6" class="st10 st14">estimated</tspan><tspan x="63.1" y="33.6" class="st15 st14">  </tspan><tspan x="0" y="50.4" class="st20 st8 st14">582,100</tspan><tspan x="55.5" y="50.4" class="st8 st14"> </tspan><tspan x="60.1" y="50.4" class="st10 st14">favorites</tspan></text>
</g>
<g id="legend">
	<g>
		<text transform="matrix(6.123234e-17 -1 1 6.123234e-17 33.8572 419.0869)" class="st10 st34">Number of favorites on tweets about</text>
		<g id="person1">
			<text transform="matrix(6.123234e-17 -1 1 6.123234e-17 33.8572 144.3555)" class="st35 st10 st14">PERSON</text>
		</g>
	</g>
	<g>
		<text transform="matrix(6.123234e-17 -1 1 6.123234e-17 59.2672 404.7764)"><tspan x="0" y="0" class="st10 st36">(scale is </tspan><tspan x="45.5" y="0" class="st8 st36">relative</tspan><tspan x="86.8" y="0" class="st10 st36"> to typical twitter traffic about </tspan></text>
		<g id="person2">
			<text transform="matrix(6.123234e-17 -1 1 6.123234e-17 59.2672 164.5771)" class="st35 st10 st36">person</text>
		</g>
	</g>
	<g>
		<g>
			<line class="st37" x1="11.7" y1="275.9" x2="11.7" y2="248.7"/>
			<g>
				<path d="M11.7,275.5c-1-1-3.1-1.5-4.5-1.6c1.9,1.4,3.6,3.3,4.5,5.5c0.9-2.3,2.7-4,4.5-5.5C14.7,274,12.8,274.4,11.7,275.5z"/>
			</g>
		</g>
	</g>
	<g>
		<g>
			<line class="st37" x1="11.7" y1="228.8" x2="11.7" y2="201.6"/>
			<g>
				<path d="M11.7,202c-1,1-3.1,1.5-4.5,1.6c1.9-1.4,3.6-3.3,4.5-5.5c0.9,2.3,2.7,4,4.5,5.5C14.7,203.4,12.8,203.1,11.7,202z"/>
			</g>
		</g>
	</g>
	<rect id="positiveLegend" x="79.8" y="214" class="st3" width="11.6" height="11.6"/>
	<rect id="positiveLegend_1_" x="79.8" y="234.1" class="st20" width="11.6" height="11.6"/>
	<rect id="positiveLegend_2_" x="79.8" y="255.5" class="st5" width="11.6" height="11.6"/>
	<text transform="matrix(1 0 0 1 97.4799 223.1311)" class="st10 st38">Positive </text>
	<text transform="matrix(1 0 0 1 97.48 243.0916)" class="st10 st38">Neutral </text>
	<text transform="matrix(1 0 0 1 97.4801 264.013)" class="st10 st38">Negative </text>
</g>
</svg>
