<?xml version="1.0" encoding="utf-8"?>
<!-- Generator: Adobe Illustrator 24.0.3, SVG Export Plug-In . SVG Version: 6.00 Build 0)  -->
<svg version="1.1" id="Layer_1" xmlns="http://www.w3.org/2000/svg" xmlns:xlink="http://www.w3.org/1999/xlink" x="0px" y="0px"
	 viewBox="0 0 847 500" style="enable-background:new 0 0 847 500;" xml:space="preserve">
<style type="text/css">
	.st0{fill:none;stroke:#000000;stroke-width:0.5;stroke-miterlimit:10;}
	.st1{fill:#05D122;}
	.st2{fill:#E0E2E0;}
	.st3{fill:#C30005;}
	.st4{fill:none;}
	.st5{font-family:'HelveticaNeue-Medium';}
	.st6{font-size:12px;}
	.st7{font-family:'HelveticaNeue-Thin';}
	.st8{font-size:10px;}
	.st9{fill:#05AA21;}
	.st10{fill:#5E5E5E;}
	.st11{font-family:'HelveticaNeue';}
</style>
<g id="fauci">
	<line class="st0" x1="471.6" y1="50.8" x2="471.6" y2="437.1"/>
	<line class="st0" x1="627.5" y1="50.8" x2="627.5" y2="437.1"/>
	<line class="st0" x1="508.4" y1="50.8" x2="508.4" y2="437.1"/>
	<line class="st0" x1="750.9" y1="50.8" x2="750.9" y2="437.1"/>
	<line class="st0" x1="325.8" y1="50.8" x2="325.8" y2="437.1"/>
	<line class="st0" x1="83.7" y1="50.8" x2="83.7" y2="437.1"/>
	<path id="positive" class="st1" d="M-0.2,243.9l2,0c2,0,6.1,0,10.1-0.1s8.1-0.2,12.1-0.2s8.1,0,12.1,0s8.1-0.2,12.1-0.2
		s8.1,0.1,12.1-0.1s8.1-0.5,12.1-1.1s8.1-1.6,12.1-1.6c4-0.1,8.1,0.6,12.1,1.1c4,0.4,8.1,0.6,12.1,0.8s8.1,0.3,12.1,0.3
		c4,0,8.1-0.1,12.1-0.3c4-0.2,8.1-0.4,12.1-0.3c4,0.1,8.1,0.6,12.1,0.8c4,0.2,8.1,0.1,12.1,0.2c4,0,8.1,0.1,12.1,0.2
		s8.1,0.3,12.1,0.3c4,0.1,8.1,0.1,12.1-0.1c4-0.2,8.1-0.7,12.1-0.7c4,0,8.1,0.4,12.1,0.6c4,0.2,8.1,0.3,12.1,0.3s8.1-0.2,12.1-0.3
		c4-0.1,8.1-0.1,12.1-0.1c4,0.1,8.1,0.3,12.1,0.4c4,0.1,8.1,0,12.1,0c4,0,8.1,0,12.1-0.1c4-0.1,8.1-0.4,12.1-1.2s8.1-2.3,12.1-2.4
		c4-0.1,8.1,1.3,12.1,2.1c4,0.8,8.1,1.1,12.1,1.1c4,0,8.1-0.3,12.1-0.3s8.1,0.2,12.1,0.2c4,0,8.1-0.1,14.1,0
		c6,0.1,14.1,0.4,20.2,0.6c6,0.1,10.1,0,14.1-0.2s8.1-0.5,12.1-6.3c4-5.8,8.1-17,12.1-19.9c4-2.9,8.1,2.6,12.1-31.6
		c4-34.2,8.1-108,12.1-114.3s8.1,54.9,12.1,91.3s8.1,48,12.1,37.6c4-10.4,8.1-42.8,12.1-48.2c4-5.4,8.1,16.3,12.1,35.3
		s8.1,35.3,12.1,43.4c4,8.2,8.1,8.3,12.1,8.9s8.1,1.8,12.1,0.5c4-1.3,8.1-5,12.1-5.4s8.1,2.6,12.1,4.3s8.1,2.3,12.1,1.2
		c4-1.1,8.1-3.9,12.1-5.7s8.1-2.7,12.1-8.7c4-6.1,8.1-17.3,12.1-15.5s8.1,16.8,12.1,21.6c4,4.9,8.1-0.3,12.1-0.3
		c4,0,8.1,5.1,12.1,7.5s8.1,2.2,12.1,2.3c4,0.1,8.1,0.7,12.1,0.6c4-0.1,8.1-0.7,12.1-2.5c4-1.8,8.1-4.6,12.1-5.3
		c4-0.7,8.1,0.8,12.1,2.1c4,1.2,8.1,2.2,12.1-4.4c4-6.6,8.1-20.7,12.1-23c4-2.2,8.1,7.5,12.1,12.7c4,5.3,8.1,6.1,12.1,7
		c4,0.9,8.1,1.9,12.1,2.7s8.1,1.5,12.1,2.8c4,1.3,8.1,3.2,12.1,1.8c4-1.4,8.1-6.1,12.1-6.3s8.1,4,12.1-0.1c4-4.1,8.1-16.6,10.1-22.8
		l2-6.2v66.7l-2-4.3c-2-4.3-6-12.8-10.1-18.8c-4-6-8.1-9.3-12.1-9.3s-8.1,3.6-12.1,4.6s-8.1-0.4-12.1-0.1c-4,0.3-8.1,2.2-12.1,4.4
		s-8.1,4.6-12.1,3.5c-4-1.2-8.1-5.9-12.1-8c-4-2.1-8.1-1.5-12.1-0.3c-4,1.1-8.1,2.7-12.1,3.5c-4,0.8-8.1,0.9-12.1-0.2
		c-4-1.1-8.1-3.3-12.1-3.1c-4,0.3-8.1,3-12.1,4.1s-8.1,0.5-12.1,0.2c-4-0.4-8.1-0.5-12.1-0.6c-4-0.1-8.1-0.1-12.1-2.2
		s-8.1-6.2-12.1-6.3c-4-0.1-8.1,4-12.1,12.9c-4,8.9-8.1,22.7-12.1,21.2s-8.1-18.4-12.1-26c-4-7.6-8.1-6-12.1-4.4
		c-4,1.6-8.1,3.2-12.1,3.8c-4,0.6-8.1,0.2-12.1,0c-4-0.3-8.1-0.4-12.1-0.3s-8.1,0.7-12.1,0.6c-4,0-8.1-0.6-12.1-0.8
		c-4-0.1-8.1,0.1-12.1,3.4c-4,3.2-8.1,9.4-12.1-2.4s-8.1-41.6-12.1-42.2c-4-0.6-8.1,28-12.1,32.3s-8.1-15.7-12.1-29.4
		c-4-13.7-8.1-21.2-12.1-14.8c-4,6.4-8.1,26.6-12.1,40.2c-4,13.6-8.1,20.6-12.1,21.9c-4,1.3-8.1-3.2-12.1-5.3s-8.1-1.8-12.1-1.7
		s-8.1,0.2-14.1,0.1c-6-0.1-14.1-0.3-20.2-0.3c-6.1,0-10.1,0.3-14.1,0.3s-8.1-0.5-12.1-0.5s-8.1,0.2-12.1,0.3s-8.1,0-12.1,0.6
		c-4,0.6-8.1,2-12.1,2.1c-4,0.1-8.1-1-12.1-1.6c-4-0.6-8.1-0.7-12.1-0.7c-4,0-8.1,0-12.1,0s-8.1,0-12.1-0.1c-4-0.1-8.1-0.2-12.1-0.2
		c-4,0-8.1,0-12.1,0.1c-4,0-8.1,0.1-12.1,0.1c-4,0-8.1,0-12.1-0.3c-4-0.2-8.1-0.6-12.1-0.6c-4,0-8.1,0.5-12.1,0.7
		c-4,0.2-8.1,0.3-12.1,0.2c-4-0.1-8.1-0.2-12.1-0.2s-8.1,0.1-12.1,0.3c-4,0.1-8.1,0.3-12.1,0c-4-0.3-8.1-1-12.1-0.9
		c-4,0.1-8.1,1-12.1,1.2c-4,0.2-8.1-0.3-12.1-0.6c-4-0.3-8.1-0.5-12.1-0.5s-8.1,0.1-12.1,0s-8.1-0.4-12.1-0.4c-4,0-8.1,0.2-12.1,0.4
		s-8.1,0.3-12.1,0.4c-4,0.1-8.1,0.2-12.1,0.3s-8.1,0-12.1,0s-8.1,0-12.1,0c-4,0-8.1,0.1-12.1,0.1c-4,0-8.1,0-10.1,0L-0.2,243.9z"/>
	<path id="neutral" class="st2" d="M-0.2,243.9l2,0c2,0,6.1,0,10.1,0c4,0,8.1-0.1,12.1-0.1c4,0,8.1,0,12.1,0s8.1,0.1,12.1,0
		s8.1-0.2,12.1-0.3c4-0.1,8.1-0.2,12.1-0.4s8.1-0.4,12.1-0.4c4,0,8.1,0.3,12.1,0.4s8.1,0,12.1,0s8.1,0.2,12.1,0.5
		c4,0.3,8.1,0.8,12.1,0.6c4-0.2,8.1-1.1,12.1-1.2c4-0.1,8.1,0.6,12.1,0.9c4,0.3,8.1,0.1,12.1,0c4-0.1,8.1-0.3,12.1-0.3
		s8.1,0.2,12.1,0.2c4,0.1,8.1,0,12.1-0.2c4-0.2,8.1-0.7,12.1-0.7c4,0,8.1,0.4,12.1,0.6c4,0.2,8.1,0.3,12.1,0.3c4,0,8.1,0,12.1-0.1
		c4,0,8.1-0.1,12.1-0.1c4,0,8.1,0.1,12.1,0.2c4,0.1,8.1,0.1,12.1,0.1s8.1,0,12.1,0c4,0,8.1,0.1,12.1,0.7c4,0.6,8.1,1.7,12.1,1.6
		c4-0.1,8.1-1.5,12.1-2.1c4-0.6,8.1-0.5,12.1-0.6s8.1-0.4,12.1-0.3s8.1,0.5,12.1,0.5s8.1-0.3,14.1-0.3c6,0,14.1,0.2,20.2,0.3
		c6,0.1,10.1,0.1,14.1-0.1s8.1-0.4,12.1,1.7s8.1,6.6,12.1,5.3c4-1.3,8.1-8.3,12.1-21.9c4-13.6,8.1-33.8,12.1-40.2
		c4-6.4,8.1,1.1,12.1,14.8c4,13.7,8.1,33.7,12.1,29.4s8.1-32.9,12.1-32.3c4,0.6,8.1,30.4,12.1,42.2s8.1,5.6,12.1,2.4
		c4-3.2,8.1-3.5,12.1-3.4c4,0.1,8.1,0.7,12.1,0.8c4,0,8.1-0.5,12.1-0.6s8.1,0,12.1,0.3c4,0.3,8.1,0.6,12.1,0c4-0.6,8.1-2.2,12.1-3.8
		c4-1.6,8.1-3.2,12.1,4.4c4,7.6,8.1,24.5,12.1,26s8.1-12.3,12.1-21.2c4-8.9,8.1-13,12.1-12.9c4,0.1,8.1,4.2,12.1,6.3
		s8.1,2.1,12.1,2.2c4,0.1,8.1,0.2,12.1,0.6c4,0.4,8.1,0.9,12.1-0.2s8.1-3.9,12.1-4.1c4-0.3,8.1,2,12.1,3.1c4,1.1,8.1,1,12.1,0.2
		c4-0.8,8.1-2.4,12.1-3.5c4-1.1,8.1-1.7,12.1,0.3c4,2.1,8.1,6.8,12.1,8c4,1.2,8.1-1.3,12.1-3.5s8.1-4.2,12.1-4.4
		c4-0.3,8.1,1.2,12.1,0.1s8.1-4.6,12.1-4.6s8.1,3.3,12.1,9.3c4,6,8.1,14.5,10.1,18.8l2,4.3v3l-2-4.2c-2-4.2-6-12.5-10.1-18.2
		c-4-5.7-8.1-8.7-12.1-8.6s-8.1,3.2-12.1,5.2s-8.1,2.7-12.1,3.4c-4,0.7-8.1,1.4-12.1,2.3c-4,0.9-8.1,2.1-12.1,2.7
		c-4,0.6-8.1,0.6-12.1,0.3c-4-0.3-8.1-1-12.1-2.4c-4-1.5-8.1-3.7-12.1-4.5c-4-0.8-8.1-0.1-12.1-0.6c-4-0.4-8.1-2-12.1-2.1
		c-4-0.2-8.1,1-12.1,1.3c-4,0.3-8.1-0.3-12.1-0.7s-8.1-0.6-12.1-0.6c-4,0-8.1,0.3-12.1,2.9s-8.1,7.7-12.1,7.5
		c-4-0.2-8.1-5.5-12.1-1.2c-4,4.3-8.1,18.3-12.1,17s-8.1-17.8-12.1-24.9c-4-7.1-8.1-4.7-12.1-3.3s-8.1,1.6-12.1,1.6
		c-4,0-8.1-0.3-12.1,0.4s-8.1,2.7-12.1,2.8s-8.1-1.5-12.1-2.3c-4-0.7-8.1-0.6-12.1-0.4s-8.1,0.4-12.1,7.2c-4,6.7-8.1,19.9-12.1,29.6
		c-4,9.7-8.1,16-12.1,12.1c-4-3.9-8.1-17.9-12.1-30.2s-8.1-22.8-12.1-17.3s-8.1,27-12.1,31.5c-4,4.4-8.1-8.2-12.1-11.1
		c-4-2.9-8.1,4.1-12.1,2.2c-4-1.8-8.1-12.4-12.1-17.8s-8.1-5.7-12.1-5.9c-4-0.2-8.1-0.2-14.1-0.4s-14.1-0.3-20.2-0.3
		c-6.1,0.1-10.1,0.4-14.1,0.3c-4,0-8.1-0.5-12.1-0.5s-8.1,0.3-12.1,0.6c-4,0.2-8.1,0.4-12.1,1.2c-4,0.8-8.1,2.3-12.1,2.2
		c-4,0-8.1-1.5-12.1-2.3s-8.1-1-12.1-1s-8.1-0.1-12.1-0.1s-8.1,0-12.1-0.1c-4,0-8.1-0.1-12.1,0c-4,0.1-8.1,0.3-12.1,0.3
		c-4,0-8.1-0.1-12.1-0.1s-8.1,0.1-12.1-0.2c-4-0.2-8.1-0.8-12.1-0.8c-4-0.1-8.1,0.4-12.1,0.6c-4,0.2-8.1,0.3-12.1,0.4
		c-4,0.1-8.1,0.2-12.1,0.2s-8.1,0-12.1,0c-4,0-8.1,0.1-12.1-0.2c-4-0.3-8.1-1.1-12.1-0.9c-4,0.1-8.1,1.1-12.1,1.5
		c-4,0.4-8.1,0.1-12.1-0.1c-4-0.2-8.1-0.5-12.1-0.6c-4-0.1-8.1,0-12.1,0.1c-4,0.1-8.1,0.2-12.1,0.4c-4,0.2-8.1,0.4-12.1,0.2
		c-4-0.1-8.1-0.6-12.1-0.7s-8.1,0.2-12.1,0.2s-8.1-0.2-12.1-0.3c-4-0.1-8.1-0.1-12.1-0.1c-4,0-8.1,0-12.1,0s-8.1,0-10.1,0
		L-0.2,243.9z"/>
	<path id="negative" class="st3" d="M-0.2,243.9l2,0c2,0,6.1,0,10.1,0s8.1,0,12.1,0c4,0,8.1,0,12.1,0.1c4,0.1,8.1,0.3,12.1,0.3
		s8.1-0.3,12.1-0.2s8.1,0.5,12.1,0.7c4,0.1,8.1-0.1,12.1-0.2c4-0.2,8.1-0.3,12.1-0.4c4-0.1,8.1-0.2,12.1-0.1c4,0.1,8.1,0.3,12.1,0.6
		c4,0.2,8.1,0.5,12.1,0.1c4-0.4,8.1-1.4,12.1-1.5c4-0.1,8.1,0.6,12.1,0.9c4,0.3,8.1,0.2,12.1,0.2c4,0,8.1,0,12.1,0s8.1-0.1,12.1-0.2
		c4-0.1,8.1-0.1,12.1-0.4c4-0.2,8.1-0.7,12.1-0.6c4,0.1,8.1,0.6,12.1,0.8c4,0.2,8.1,0.2,12.1,0.2s8.1,0.1,12.1,0.1
		c4,0,8.1-0.2,12.1-0.3c4-0.1,8.1,0,12.1,0c4,0,8.1,0.1,12.1,0.1s8.1,0,12.1,0.1s8.1,0.2,12.1,1s8.1,2.3,12.1,2.3
		c4,0,8.1-1.4,12.1-2.2c4-0.8,8.1-0.9,12.1-1.2c4-0.2,8.1-0.6,12.1-0.6s8.1,0.5,12.1,0.5c4,0,8.1-0.3,14.1-0.3
		c6-0.1,14.1,0.1,20.2,0.3s10.1,0.2,14.1,0.4c4,0.2,8.1,0.5,12.1,5.9s8.1,16,12.1,17.8c4,1.8,8.1-5.1,12.1-2.2
		c4,2.9,8.1,15.5,12.1,11.1c4-4.4,8.1-26,12.1-31.5s8.1,5,12.1,17.3s8.1,26.3,12.1,30.2c4,3.9,8.1-2.4,12.1-12.1
		c4-9.7,8.1-22.9,12.1-29.6c4-6.7,8.1-7,12.1-7.2s8.1-0.3,12.1,0.4c4,0.7,8.1,2.4,12.1,2.3s8.1-2,12.1-2.8s8.1-0.5,12.1-0.4
		c4,0,8.1-0.2,12.1-1.6s8.1-3.7,12.1,3.3c4,7.1,8.1,23.6,12.1,24.9s8.1-12.7,12.1-17c4-4.3,8.1,1,12.1,1.2c4,0.2,8.1-4.9,12.1-7.5
		s8.1-2.9,12.1-2.9c4,0,8.1,0.2,12.1,0.6s8.1,1,12.1,0.7c4-0.3,8.1-1.5,12.1-1.3c4,0.2,8.1,1.7,12.1,2.1c4,0.4,8.1-0.2,12.1,0.6
		c4,0.8,8.1,3.1,12.1,4.5c4,1.5,8.1,2.1,12.1,2.4c4,0.3,8.1,0.3,12.1-0.3c4-0.6,8.1-1.8,12.1-2.7c4-0.9,8.1-1.6,12.1-2.3
		c4-0.7,8.1-1.5,12.1-3.4s8.1-5.1,12.1-5.2s8.1,2.9,12.1,8.6c4,5.7,8.1,14,10.1,18.2l2,4.2v16.4l-2-6.2c-2-6.2-6-18.7-10.1-22.8
		c-4-4.1-8.1,0.1-12.1-0.1s-8.1-4.9-12.1-6.3c-4-1.4-8.1,0.5-12.1,1.8c-4,1.3-8.1,2-12.1,2.8c-4,0.8-8.1,1.8-12.1,2.7
		c-4,0.9-8.1,1.7-12.1,7c-4,5.3-8.1,15-12.1,12.7c-4-2.2-8.1-16.4-12.1-23c-4-6.6-8.1-5.6-12.1-4.4c-4,1.2-8.1,2.7-12.1,2.1
		c-4-0.7-8.1-3.5-12.1-5.3c-4-1.8-8.1-2.4-12.1-2.5c-4-0.1-8.1,0.5-12.1,0.6c-4,0.1-8.1-0.1-12.1,2.3s-8.1,7.6-12.1,7.5
		c-4,0-8.1-5.2-12.1-0.3c-4,4.9-8.1,19.8-12.1,21.6s-8.1-9.4-12.1-15.5c-4-6.1-8.1-6.9-12.1-8.7s-8.1-4.6-12.1-5.7
		c-4-1.1-8.1-0.5-12.1,1.2s-8.1,4.7-12.1,4.3s-8.1-4.1-12.1-5.4c-4-1.3-8.1-0.1-12.1,0.5s-8.1,0.7-12.1,8.9
		c-4,8.2-8.1,24.5-12.1,43.4c-4,19-8.1,40.7-12.1,35.3c-4-5.4-8.1-37.8-12.1-48.2s-8.1,1.2-12.1,37.6s-8.1,97.6-12.1,91.3
		c-4-6.3-8.1-80.1-12.1-114.3c-4-34.2-8.1-28.7-12.1-31.6c-4-2.9-8.1-14.1-12.1-19.9s-8.1-6.1-12.1-6.3s-8.1-0.3-14.1-0.2
		c-6,0.1-14.1,0.5-20.2,0.6c-6.1,0.1-10.1-0.1-14.1,0c-4,0-8.1,0.3-12.1,0.2s-8.1-0.3-12.1-0.3c-4,0-8.1,0.3-12.1,1.1
		c-4,0.8-8.1,2.1-12.1,2.1c-4-0.1-8.1-1.5-12.1-2.4s-8.1-1.1-12.1-1.2c-4-0.1-8.1-0.1-12.1-0.1c-4,0-8.1-0.1-12.1,0
		c-4,0.1-8.1,0.3-12.1,0.4c-4,0.1-8.1,0-12.1-0.1c-4-0.1-8.1-0.2-12.1-0.3s-8.1,0-12.1,0.3c-4,0.2-8.1,0.6-12.1,0.6
		c-4,0-8.1-0.5-12.1-0.7c-4-0.2-8.1-0.2-12.1-0.1c-4,0.1-8.1,0.2-12.1,0.3s-8.1,0.2-12.1,0.2c-4,0-8.1,0-12.1,0.2
		c-4,0.2-8.1,0.7-12.1,0.8c-4,0.1-8.1-0.1-12.1-0.3c-4-0.2-8.1-0.3-12.1-0.3c-4,0-8.1,0.1-12.1,0.3s-8.1,0.3-12.1,0.8
		c-4,0.4-8.1,1.2-12.1,1.1c-4-0.1-8.1-1-12.1-1.6s-8.1-1-12.1-1.1s-8.1,0-12.1-0.1s-8.1-0.2-12.1-0.2s-8.1,0-12.1,0
		s-8.1-0.2-12.1-0.2s-8.1-0.1-10.1-0.1L-0.2,243.9z"/>
	<rect x="89.2" y="289.5" class="st4" width="129.3" height="112.2"/>
	<text transform="matrix(1 0 0 1 89.1877 298.0876)"><tspan x="0" y="0" class="st3 st5 st6">January 28</tspan><tspan x="0" y="12" class="st7 st8">Fauci speaks at HHS press </tspan><tspan x="0" y="24" class="st7 st8">conference on novel coronavi</tspan><tspan x="122.7" y="24" class="st7 st8">-</tspan><tspan x="0" y="36" class="st7 st8">rus. Suggests that asymptom</tspan><tspan x="122.6" y="36" class="st7 st8">-</tspan><tspan x="0" y="48" class="st7 st8">atic transmission  won’t be </tspan><tspan x="0" y="60" class="st7 st8">(and “has never been”) a driver </tspan><tspan x="0" y="72" class="st7 st8">of epidemics.</tspan></text>
	<rect x="190.4" y="156.8" class="st4" width="129.3" height="112.2"/>
	<text transform="matrix(1 0 0 1 253.7133 165.3698)"><tspan x="0" y="0" class="st9 st5 st6">February 17</tspan><tspan x="-34.1" y="12" class="st7 st8">Fauci on CBS “Face the </tspan><tspan x="-51.9" y="24" class="st7 st8">Nation”: Coronavirus crisis is </tspan><tspan x="-55" y="36" class="st7 st8">“on the verge” of becoming a </tspan><tspan x="-2.7" y="48" class="st7 st8">global pandemic</tspan></text>
	<rect x="335.4" y="54.4" class="st4" width="129.3" height="112.2"/>
	<text transform="matrix(1 0 0 1 395.355 62.9318)"><tspan x="0" y="0" class="st10 st5 st6">February 28:</tspan><tspan x="69.4" y="0" class="st10 st11 st6"> </tspan><tspan x="-39.9" y="12" class="st7 st8">Fauci at WH press confer</tspan><tspan x="65.9" y="12" class="st7 st8">-</tspan><tspan x="-22.9" y="24" class="st7 st8">ence: “I’ve never been </tspan><tspan x="-58.7" y="36" class="st7 st8">muzzled” by Trump administra</tspan><tspan x="65.9" y="36" class="st7 st8">-</tspan><tspan x="-54.1" y="48" class="st7 st8">tion, in response to NYT-pub</tspan><tspan x="65.9" y="48" class="st7 st8">-</tspan><tspan x="10.8" y="60" class="st7 st8">lished rumors.</tspan></text>
	<rect x="512.9" y="54.4" class="st4" width="129.3" height="112.2"/>
	<text transform="matrix(1 0 0 1 512.8614 62.9318)"><tspan x="0" y="0" class="st10 st5 st6">March 03</tspan><tspan x="0" y="12" class="st7 st8">Fauci corrects Trump on </tspan><tspan x="0" y="24" class="st7 st8">COVID-19 vaccine </tspan><tspan x="0" y="36" class="st7 st8">availability. Asserts it will </tspan><tspan x="0" y="48" class="st7 st8">take “at least a year and </tspan><tspan x="0" y="60" class="st7 st8">a half,” rather than the </tspan><tspan x="0" y="72" class="st7 st8">“few months” Trump </tspan><tspan x="0" y="84" class="st7 st8">had just suggested.</tspan></text>
	<rect x="631.1" y="54.4" class="st4" width="129.3" height="112.2"/>
	<text transform="matrix(1 0 0 1 631.1276 62.9318)"><tspan x="0" y="0" class="st9 st5 st6">March 13</tspan><tspan x="0" y="12" class="st7 st8">Fauci publicly criticizes</tspan><tspan x="0" y="24" class="st7 st8">US COVID-19 testing</tspan><tspan x="0" y="36" class="st7 st8">ramp-up while defending</tspan><tspan x="0" y="48" class="st7 st8">Trump’s decision to close</tspan><tspan x="0" y="60" class="st7 st8">border with China.</tspan></text>
	<rect x="642.2" y="302.1" class="st4" width="105.4" height="112.2"/>
	<text transform="matrix(1 0 0 1 695.7246 310.6664)"><tspan x="0" y="0" class="st9 st5 st6">March 23 </tspan><tspan x="-31.9" y="12" class="st7 st8">Fauci in interview on </tspan><tspan x="-47.7" y="24" class="st7 st8">Trump misinformation: “I </tspan><tspan x="-48.5" y="36" class="st7 st8">can’t jump in front of the </tspan><tspan x="-39.7" y="48" class="st7 st8">microphone and push </tspan><tspan x="-43.8" y="60" class="st7 st8">him down. OK, he said </tspan><tspan x="-31.8" y="72" class="st7 st8">it. Let’s try and get it </tspan><tspan x="-37.3" y="84" class="st7 st8">corrected for the next </tspan><tspan x="28.5" y="96" class="st7 st8">time.”</tspan></text>
</g>
</svg>
