<?xml version="1.0" encoding="utf-8"?>
<!-- Generator: Adobe Illustrator 24.0.3, SVG Export Plug-In . SVG Version: 6.00 Build 0)  -->
<svg version="1.1" id="Layer_1" xmlns="http://www.w3.org/2000/svg" xmlns:xlink="http://www.w3.org/1999/xlink" x="0px" y="0px"
	 viewBox="0 0 720 500" style="enable-background:new 0 0 720 500;" xml:space="preserve">
<style type="text/css">
	.st0{fill:none;stroke:#000000;stroke-width:0.5;stroke-miterlimit:10;}
	.st1{fill:#05AA21;}
	.st2{fill:#AFAFAF;}
	.st3{fill:#C30005;}
	.st4{fill:none;stroke:#CCCCCC;}
	.st5{font-family:'ArialMT';}
	.st6{font-size:10px;}
	.st7{fill:none;}
	.st8{font-family:'HelveticaNeue-Medium';}
	.st9{font-size:12px;}
	.st10{font-family:'HelveticaNeue-Thin';}
	.st11{fill:#5E5E5E;}
	.st12{fill:#CE0005;}
</style>
<line class="st0" x1="402.2" y1="150.1" x2="402.2" y2="279.8"/>
<line class="st0" x1="436.3" y1="238.8" x2="436.3" y2="374.8"/>
<line class="st0" x1="275.2" y1="150.1" x2="275.2" y2="437.2"/>
<line class="st0" x1="298.7" y1="45.8" x2="298.7" y2="425.9"/>
<line class="st0" x1="208.1" y1="45.8" x2="208.1" y2="310.8"/>
<line class="st0" x1="43.3" y1="147.3" x2="43.3" y2="412.5"/>
<g>
	<path class="st1" d="M0,240l1.7-0.1c1.7-0.1,5.1-0.2,8.6-0.5s6.9-1,10.3-3.8s6.9-7.7,10.3-24.5s6.9-45.2,10.3-51.8
		c3.4-6.7,6.9,8.5,10.3,14.4c3.4,5.9,6.9,2.6,10.3,4.1s6.9,7.8,10.3,11.3c3.4,3.4,6.9,3.9,10.3-1.7s6.9-17.2,10.3-14.7
		c3.4,2.6,6.9,19.4,10.3,31.6c3.4,12.3,6.9,20,10.3,19.5c3.4-0.5,6.9-9.3,10.3-10.4c3.4-1.1,6.9,5.5,10.3,6.3
		c3.4,0.8,6.9-4.1,10.3-7.1c3.4-3,6.9-4,10.3-6.2c3.4-2.1,6.9-5.4,10.3-5.4s6.9,3.3,10.3,6.1c3.4,2.8,6.9,5.1,10.3,3.8
		s6.9-6,10.3-15.5s6.9-23.8,10.3-26.3c3.4-2.5,6.9,6.9,10.3,14s6.9,12.2,10.3,13.2c3.4,1,6.9-1.9,10.3-0.8s6.9,6.4,10.3,7.7
		s6.9-1.3,10.3-11.2c3.4-9.9,6.9-27.2,10.3-36.8c3.4-9.6,6.9-11.6,10.3-8.2c3.4,3.3,6.9,12,10.3-11.7s6.9-79.6,10.3-81.5
		c3.4-1.9,6.9,50.2,10.3,87.3c3.4,37,6.9,59,10.3,68.6c3.4,9.6,6.9,6.9,12,5.3s12-1.8,17.1-0.4s8.6,4.7,12,7.7s6.9,5.9,10.3,6.2
		c3.4,0.3,6.9-1.8,10.3-2.5c3.4-0.7,6.9,0,10.3-6.9c3.4-6.9,6.9-21.4,10.3-23.9c3.4-2.5,6.9,7.1,10.3,16c3.4,8.9,6.9,17.1,10.3,17.1
		c3.4,0,6.9-8.2,10.3-12.1s6.9-3.6,10.3-0.2c3.4,3.4,6.9,9.9,10.3,13.9c3.4,4,6.9,5.6,10.3,6.2c3.4,0.6,6.9,0.1,10.3-0.5
		c3.4-0.7,6.9-1.5,10.3-1.8c3.4-0.3,6.9-0.1,10.3-3.5c3.4-3.3,6.9-10.2,10.3-10.1s6.9,7.2,10.3,11.1c3.4,3.9,6.9,4.6,10.3,5
		c3.4,0.4,6.9,0.6,10.3,0.3c3.4-0.2,6.9-0.9,10.3-0.8c3.4,0.1,6.9,0.9,10.3,1.2c3.4,0.3,6.9,0.1,10.3,0.2s6.9,0.5,10.3,0
		c3.4-0.5,6.9-1.7,10.3-1.6c3.4,0.1,6.9,1.6,10.3,2.3c3.4,0.6,6.9,0.4,10.3,0.1c3.4-0.3,6.9-0.8,10.3-0.8c3.4,0,6.9,0.4,10.3,0.5
		c3.4,0.2,6.9,0.2,10.3,0.3c3.4,0.1,6.9,0.3,10.3,0.2s6.9-0.6,10.3-1.1c3.4-0.4,6.9-0.8,10.3-1.9c3.4-1.1,6.9-2.9,10.3-2.8
		c3.4,0.1,6.9,2.2,10.3,1.7c3.4-0.5,6.9-3.5,10.3-3.7c3.4-0.2,6.9,2.6,10.3,4.2s6.9,2,8.6,2.2l1.7,0.2v1.3l-1.7-0.2
		c-1.7-0.2-5.1-0.6-8.6-1c-3.4-0.5-6.9-1.1-10.3-0.8c-3.4,0.3-6.9,1.4-10.3,1.6c-3.4,0.2-6.9-0.4-10.3-0.7
		c-3.4-0.2-6.9-0.1-10.3,0.4c-3.4,0.5-6.9,1.2-10.3,1.6c-3.4,0.4-6.9,0.4-10.3,0.2s-6.9-0.5-10.3-0.7s-6.9,0-10.3,0.3
		c-3.4,0.3-6.9,0.7-10.3,0.7c-3.4,0-6.9-0.4-10.3-0.6c-3.4-0.2-6.9-0.1-10.3-0.8c-3.4-0.7-6.9-2.1-10.3-2.1c-3.4,0-6.9,1.5-10.3,2.1
		s-6.9,0.4-10.3,0.2c-3.4-0.1-6.9-0.1-10.3,0c-3.4,0.1-6.9,0.2-10.3,0.1c-3.4-0.1-6.9-0.5-10.3-0.1c-3.4,0.4-6.9,1.5-10.3,1.9
		c-3.4,0.4-6.9,0-10.3-2.1c-3.4-2.1-6.9-6-10.3-6c-3.4,0-6.9,4-10.3,5.6c-3.4,1.6-6.9,0.8-10.3,0.7c-3.4-0.1-6.9,0.3-10.3,0.7
		c-3.4,0.3-6.9,0.5-10.3,0.3c-3.4-0.2-6.9-0.7-10.3-2.4c-3.4-1.6-6.9-4.3-10.3-5.4c-3.4-1.1-6.9-0.6-10.3,0.9c-3.4,1.5-6.9,4-10.3,3
		c-3.4-1-6.9-5.5-10.3,0.2c-3.4,5.6-6.9,21.3-10.3,23.6c-3.4,2.3-6.9-8.8-10.3-12.9c-3.4-4.1-6.9-1-10.3-0.9
		c-3.4,0.1-6.9-2.6-10.3-2.6c-3.4,0-6.9,2.8-10.3,0.2s-6.9-10.7-12-10.3s-12,9.1-17.1,11.7s-8.6-1-12-2.2
		c-3.4-1.2-6.9,0.1-10.3,22.2c-3.4,22.1-6.9,65.1-10.3,64c-3.4-1.1-6.9-46.2-10.3-74s-6.9-38.3-10.3-49.8
		c-3.4-11.6-6.9-24.2-10.3-16.6c-3.4,7.6-6.9,35.4-10.3,49.1c-3.4,13.7-6.9,13.3-10.3,11.5s-6.9-5-10.3-9.2
		c-3.4-4.1-6.9-9.1-10.3-10.3c-3.4-1.2-6.9,1.4-10.3,0.4s-6.9-5.7-10.3-7.3c-3.4-1.6-6.9-0.3-10.3,0.1s-6.9-0.5-10.3,2.4
		s-6.9,9.3-10.3,9.5s-6.9-6-10.3-8.6s-6.9-1.8-10.3-1.5c-3.4,0.2-6.9-0.1-10.3,1.5s-6.9,5.3-10.3,9.1c-3.4,3.8-6.9,7.7-10.3,8.4
		c-3.4,0.7-6.9-1.8-10.3-5c-3.4-3.3-6.9-7.3-10.3-13.6c-3.4-6.3-6.9-14.9-10.3-11.2c-3.4,3.6-6.9,19.5-10.3,27.2
		c-3.4,7.7-6.9,7.3-10.3-0.5c-3.4-7.8-6.9-23-10.3-29s-6.9-2.7-10.3-10.5c-3.4-7.8-6.9-26.8-10.3-20.8c-3.4,5.9-6.9,36.7-10.3,51
		c-3.4,14.3-6.9,12.1-10.3,10.9s-6.9-1.4-10.3-1.5s-6.9-0.2-8.6-0.3L0,240z"/>
	<path class="st2" d="M0,240l1.7,0c1.7,0,5.1,0.1,8.6,0.3s6.9,0.3,10.3,1.5s6.9,3.4,10.3-10.9c3.4-14.3,6.9-45.1,10.3-51
		c3.4-5.9,6.9,13,10.3,20.8c3.4,7.8,6.9,4.6,10.3,10.5s6.9,21.1,10.3,29c3.4,7.8,6.9,8.2,10.3,0.5c3.4-7.7,6.9-23.5,10.3-27.2
		c3.4-3.6,6.9,4.9,10.3,11.2c3.4,6.3,6.9,10.4,10.3,13.6c3.4,3.3,6.9,5.7,10.3,5c3.4-0.7,6.9-4.6,10.3-8.4c3.4-3.8,6.9-7.4,10.3-9.1
		s6.9-1.3,10.3-1.5c3.4-0.2,6.9-1.1,10.3,1.5s6.9,8.8,10.3,8.6s6.9-6.6,10.3-9.5s6.9-2.1,10.3-2.4s6.9-1.7,10.3-0.1
		c3.4,1.6,6.9,6.3,10.3,7.3s6.9-1.6,10.3-0.4c3.4,1.2,6.9,6.2,10.3,10.3c3.4,4.1,6.9,7.4,10.3,9.2s6.9,2.2,10.3-11.5
		c3.4-13.7,6.9-41.5,10.3-49.1c3.4-7.6,6.9,5.1,10.3,16.6c3.4,11.6,6.9,22,10.3,49.8s6.9,72.9,10.3,74c3.4,1.1,6.9-41.9,10.3-64
		c3.4-22.1,6.9-23.4,10.3-22.2c3.4,1.2,6.9,4.8,12,2.2s12-11.3,17.1-11.7s8.6,7.7,12,10.3s6.9-0.2,10.3-0.2c3.4,0,6.9,2.7,10.3,2.6
		c3.4-0.1,6.9-3.1,10.3,0.9c3.4,4.1,6.9,15.2,10.3,12.9c3.4-2.3,6.9-18,10.3-23.6c3.4-5.6,6.9-1.2,10.3-0.2c3.4,1,6.9-1.5,10.3-3
		c3.4-1.5,6.9-2,10.3-0.9c3.4,1.1,6.9,3.8,10.3,5.4c3.4,1.6,6.9,2.2,10.3,2.4c3.4,0.2,6.9,0,10.3-0.3c3.4-0.3,6.9-0.8,10.3-0.7
		c3.4,0.1,6.9,0.9,10.3-0.7c3.4-1.6,6.9-5.5,10.3-5.6c3.4,0,6.9,3.9,10.3,6c3.4,2.1,6.9,2.5,10.3,2.1c3.4-0.4,6.9-1.5,10.3-1.9
		c3.4-0.4,6.9,0,10.3,0.1c3.4,0.1,6.9,0,10.3-0.1c3.4-0.1,6.9-0.1,10.3,0c3.4,0.1,6.9,0.4,10.3-0.2s6.9-2.1,10.3-2.1
		c3.4,0,6.9,1.4,10.3,2.1c3.4,0.7,6.9,0.6,10.3,0.8c3.4,0.2,6.9,0.6,10.3,0.6c3.4,0,6.9-0.4,10.3-0.7c3.4-0.3,6.9-0.4,10.3-0.3
		s6.9,0.5,10.3,0.7s6.9,0.1,10.3-0.2c3.4-0.4,6.9-1.1,10.3-1.6c3.4-0.5,6.9-0.6,10.3-0.4c3.4,0.2,6.9,0.9,10.3,0.7
		c3.4-0.2,6.9-1.4,10.3-1.6c3.4-0.3,6.9,0.4,10.3,0.8c3.4,0.5,6.9,0.9,8.6,1l1.7,0.2v0.6l-1.7-0.1c-1.7-0.1-5.1-0.4-8.6-0.1
		c-3.4,0.4-6.9,1.4-10.3,1.8c-3.4,0.4-6.9,0-10.3,0.3c-3.4,0.3-6.9,1.3-10.3,1.5c-3.4,0.2-6.9-0.3-10.3-0.6
		c-3.4-0.4-6.9-0.6-10.3-0.8s-6.9-0.6-10.3-0.9s-6.9-0.6-10.3-0.7c-3.4-0.1-6.9-0.1-10.3,0.2c-3.4,0.3-6.9,1-10.3,1.1
		c-3.4,0.1-6.9-0.4-10.3-0.6c-3.4-0.3-6.9-0.3-10.3-1.1c-3.4-0.8-6.9-2.3-10.3-2.3c-3.4,0-6.9,1.5-10.3,2.2
		c-3.4,0.7-6.9,0.6-10.3,0.5s-6.9-0.1-10.3,0.6c-3.4,0.7-6.9,2.1-10.3,2.3c-3.4,0.3-6.9-0.6-10.3-0.9c-3.4-0.2-6.9,0.1-10.3,0.3
		c-3.4,0.2-6.9,0.2-10.3,0c-3.4-0.2-6.9-0.4-10.3-0.4c-3.4,0-6.9,0.3-10.3-0.1c-3.4-0.4-6.9-1.4-10.3-1.5c-3.4-0.1-6.9,0.8-10.3,1
		c-3.4,0.3-6.9,0-10.3-0.4c-3.4-0.4-6.9-0.9-10.3-2.3c-3.4-1.3-6.9-3.5-10.3-4c-3.4-0.5-6.9,0.5-10.3,1.7c-3.4,1.2-6.9,2.6-10.3,3.6
		c-3.4,1-6.9,1.5-10.3,7.5c-3.4,6-6.9,17.6-10.3,18.9c-3.4,1.3-6.9-7.7-10.3-12.1c-3.4-4.4-6.9-4.3-10.3-5.1
		c-3.4-0.8-6.9-2.6-10.3-2.4c-3.4,0.2-6.9,2.4-10.3,0.1s-6.9-9.1-12-7.6c-5.1,1.5-12,11.3-17.1,14.2c-5.1,3-8.6-0.9-12,4.1
		c-3.4,5-6.9,18.8-10.3,52.1c-3.4,33.3-6.9,86.2-10.3,83.3c-3.4-2.9-6.9-61.5-10.3-92.8s-6.9-35.2-10.3-44.7
		c-3.4-9.5-6.9-24.6-10.3-25.1c-3.4-0.4-6.9,13.9-10.3,20.6c-3.4,6.7-6.9,5.9-10.3,7.2c-3.4,1.3-6.9,4.7-10.3,1.9
		c-3.4-2.8-6.9-11.9-10.3-14.5c-3.4-2.6-6.9,1.1-10.3,4.9c-3.4,3.8-6.9,7.7-10.3,4.6c-3.4-3.1-6.9-13.1-10.3-18.8s-6.9-7-10.3-4.1
		c-3.4,2.9-6.9,10.1-10.3,13c-3.4,2.9-6.9,1.6-10.3-0.2s-6.9-4-10.3-6.2c-3.4-2.2-6.9-4.2-10.3-4.2s-6.9,2.2-10.3,5.1
		c-3.4,2.9-6.9,6.4-10.3,6.9c-3.4,0.5-6.9-2.1-10.3-1.9c-3.4,0.2-6.9,3.2-10.3,8.4c-3.4,5.3-6.9,12.9-10.3,14.9
		c-3.4,2.1-6.9-1.4-10.3-3.7s-6.9-3.5-10.3-12.1c-3.4-8.6-6.9-24.7-10.3-27.6s-6.9,7.4-10.3,1.3c-3.4-6.2-6.9-28.8-10.3-27.7
		c-3.4,1.1-6.9,26-10.3,37.1s-6.9,8.5-10.3,7.1s-6.9-1.6-10.3-1.8s-6.9-0.3-8.6-0.3L0,240z"/>
	<path class="st3" d="M0,240l1.7,0.1c1.7,0.1,5.1,0.2,8.6,0.3s6.9,0.3,10.3,1.8s6.9,4,10.3-7.1s6.9-36,10.3-37.1
		c3.4-1.1,6.9,21.5,10.3,27.7c3.4,6.2,6.9-4.2,10.3-1.3s6.9,18.9,10.3,27.6c3.4,8.6,6.9,9.8,10.3,12.1s6.9,5.8,10.3,3.7
		c3.4-2.1,6.9-9.6,10.3-14.9c3.4-5.3,6.9-8.3,10.3-8.4c3.4-0.2,6.9,2.4,10.3,1.9c3.4-0.5,6.9-4,10.3-6.9c3.4-2.9,6.9-5,10.3-5.1
		s6.9,2,10.3,4.2c3.4,2.2,6.9,4.4,10.3,6.2s6.9,3.1,10.3,0.2c3.4-2.9,6.9-10.1,10.3-13c3.4-2.9,6.9-1.6,10.3,4.1s6.9,15.7,10.3,18.8
		c3.4,3.1,6.9-0.8,10.3-4.6c3.4-3.8,6.9-7.6,10.3-4.9c3.4,2.6,6.9,11.7,10.3,14.5c3.4,2.8,6.9-0.6,10.3-1.9
		c3.4-1.3,6.9-0.5,10.3-7.2c3.4-6.7,6.9-21,10.3-20.6c3.4,0.4,6.9,15.6,10.3,25.1c3.4,9.5,6.9,13.4,10.3,44.7s6.9,89.9,10.3,92.8
		c3.4,2.9,6.9-50,10.3-83.3c3.4-33.3,6.9-47.2,10.3-52.1c3.4-5,6.9-1.1,12-4.1c5.1-3,12-12.7,17.1-14.2c5.1-1.5,8.6,5.3,12,7.6
		s6.9,0.1,10.3-0.1c3.4-0.2,6.9,1.6,10.3,2.4c3.4,0.8,6.9,0.7,10.3,5.1c3.4,4.4,6.9,13.4,10.3,12.1c3.4-1.3,6.9-12.9,10.3-18.9
		c3.4-6,6.9-6.6,10.3-7.5c3.4-1,6.9-2.4,10.3-3.6c3.4-1.2,6.9-2.3,10.3-1.7c3.4,0.5,6.9,2.7,10.3,4c3.4,1.3,6.9,1.8,10.3,2.3
		c3.4,0.4,6.9,0.7,10.3,0.4c3.4-0.3,6.9-1.1,10.3-1c3.4,0.1,6.9,1.1,10.3,1.5c3.4,0.4,6.9,0.1,10.3,0.1c3.4,0,6.9,0.3,10.3,0.4
		c3.4,0.2,6.9,0.2,10.3,0c3.4-0.2,6.9-0.6,10.3-0.3c3.4,0.2,6.9,1.1,10.3,0.9c3.4-0.3,6.9-1.6,10.3-2.3c3.4-0.7,6.9-0.7,10.3-0.6
		s6.9,0.2,10.3-0.5c3.4-0.7,6.9-2.2,10.3-2.2c3.4,0,6.9,1.5,10.3,2.3c3.4,0.8,6.9,0.8,10.3,1.1c3.4,0.3,6.9,0.7,10.3,0.6
		c3.4-0.1,6.9-0.7,10.3-1.1c3.4-0.3,6.9-0.3,10.3-0.2c3.4,0.1,6.9,0.4,10.3,0.7s6.9,0.6,10.3,0.9s6.9,0.5,10.3,0.8
		c3.4,0.4,6.9,0.8,10.3,0.6c3.4-0.2,6.9-1.2,10.3-1.5c3.4-0.3,6.9,0,10.3-0.3c3.4-0.4,6.9-1.4,10.3-1.8c3.4-0.4,6.9-0.1,8.6,0.1
		l1.7,0.1v3.1l-1.7,0.2c-1.7,0.2-5.1,0.6-8.6,2.2s-6.9,4.3-10.3,4.2c-3.4-0.2-6.9-3.2-10.3-3.7c-3.4-0.5-6.9,1.5-10.3,1.7
		c-3.4,0.1-6.9-1.7-10.3-2.8c-3.4-1.1-6.9-1.5-10.3-1.9c-3.4-0.4-6.9-0.9-10.3-1.1s-6.9,0.1-10.3,0.2c-3.4,0.1-6.9,0.1-10.3,0.3
		c-3.4,0.2-6.9,0.6-10.3,0.5c-3.4,0-6.9-0.5-10.3-0.8c-3.4-0.3-6.9-0.6-10.3,0.1c-3.4,0.6-6.9,2.2-10.3,2.3
		c-3.4,0.1-6.9-1.2-10.3-1.6c-3.4-0.5-6.9-0.1-10.3,0s-6.9-0.1-10.3,0.2c-3.4,0.3-6.9,1.1-10.3,1.2c-3.4,0.1-6.9-0.5-10.3-0.8
		c-3.4-0.2-6.9-0.1-10.3,0.3c-3.4,0.4-6.9,1.1-10.3,5c-3.4,3.9-6.9,11-10.3,11.1c-3.4,0.1-6.9-6.7-10.3-10.1
		c-3.4-3.3-6.9-3.1-10.3-3.5c-3.4-0.3-6.9-1.2-10.3-1.8c-3.4-0.7-6.9-1.1-10.3-0.5c-3.4,0.6-6.9,2.2-10.3,6.2
		c-3.4,4-6.9,10.5-10.3,13.9c-3.4,3.4-6.9,3.7-10.3-0.2s-6.9-12.1-10.3-12.1c-3.4,0-6.9,8.2-10.3,17.1c-3.4,8.9-6.9,18.5-10.3,16
		c-3.4-2.5-6.9-17-10.3-23.9c-3.4-6.9-6.9-6.2-10.3-6.9c-3.4-0.7-6.9-2.9-10.3-2.5c-3.4,0.3-6.9,3.2-10.3,6.2c-3.4,3-6.9,6.3-12,7.7
		s-12,1.1-17.1-0.4c-5.1-1.5-8.6-4.3-12,5.3c-3.4,9.6-6.9,31.5-10.3,68.6c-3.4,37-6.9,89.2-10.3,87.3c-3.4-1.9-6.9-57.9-10.3-81.5
		s-6.9-15-10.3-11.7c-3.4,3.3-6.9,1.4-10.3-8.2c-3.4-9.6-6.9-26.8-10.3-36.8c-3.4-9.9-6.9-12.5-10.3-11.2s-6.9,6.6-10.3,7.7
		s-6.9-1.8-10.3-0.8c-3.4,1-6.9,6.1-10.3,13.2c-3.4,7.2-6.9,16.5-10.3,14c-3.4-2.5-6.9-16.8-10.3-26.3c-3.4-9.5-6.9-14.3-10.3-15.5
		s-6.9,1-10.3,3.8s-6.9,6.1-10.3,6.1s-6.9-3.3-10.3-5.4c-3.4-2.1-6.9-3.2-10.3-6.2c-3.4-3-6.9-7.9-10.3-7.1
		c-3.4,0.8-6.9,7.4-10.3,6.3c-3.4-1.1-6.9-9.9-10.3-10.4c-3.4-0.5-6.9,7.2-10.3,19.5c-3.4,12.3-6.9,29.1-10.3,31.6
		c-3.4,2.6-6.9-9.1-10.3-14.7s-6.9-5.1-10.3-1.7s-6.9,9.7-10.3,11.3c-3.4,1.5-6.9-1.8-10.3,4.1c-3.4,5.9-6.9,21.1-10.3,14.4
		c-3.4-6.7-6.9-35.1-10.3-51.8s-6.9-21.7-10.3-24.5s-6.9-3.4-10.3-3.8s-6.9-0.5-8.6-0.5L0,240z"/>
	<g transform="translate(0,480)">
		<path class="st4" d="M0.5,6V0.5h720V6"/>
		<g transform="translate(54.07142857142857,0)">
			<line class="st4" x1="0" y1="0" x2="0" y2="6"/>
			<text transform="matrix(1 0 0 1 -15.0122 16.1)" class="st5 st6">Jan 26</text>
		</g>
		<g transform="translate(126.07142857142857,0)">
			<line class="st4" x1="0" y1="0" x2="0" y2="6"/>
			<text transform="matrix(1 0 0 1 -15.5664 16.1)" class="st5 st6">Feb 02</text>
		</g>
		<g transform="translate(198.07142857142858,0)">
			<line class="st4" x1="0" y1="0" x2="0" y2="6"/>
			<text transform="matrix(1 0 0 1 -15.5664 16.1)" class="st5 st6">Feb 09</text>
		</g>
		<g transform="translate(270.07142857142856,0)">
			<line class="st4" x1="0" y1="0" x2="0" y2="6"/>
			<text transform="matrix(1 0 0 1 -15.5664 16.1)" class="st5 st6">Feb 16</text>
		</g>
		<g transform="translate(342.07142857142856,0)">
			<line class="st4" x1="0" y1="0" x2="0" y2="6"/>
			<text transform="matrix(1 0 0 1 -15.5664 16.1)" class="st5 st6">Feb 23</text>
		</g>
		<g transform="translate(414.07142857142856,0)">
			<line class="st4" x1="0" y1="0" x2="0" y2="6"/>
			<text transform="matrix(1 0 0 1 -13.8916 16.1)" class="st5 st6">March</text>
		</g>
		<g transform="translate(486.0714285714286,0)">
			<line class="st4" x1="0" y1="0" x2="0" y2="6"/>
			<text transform="matrix(1 0 0 1 -15.5616 16.1)" class="st5 st6">Mar 08</text>
		</g>
		<g transform="translate(557.6428571428571,0)">
			<line class="st4" x1="0" y1="0" x2="0" y2="6"/>
			<text transform="matrix(1 0 0 1 -15.5616 16.1)" class="st5 st6">Mar 15</text>
		</g>
		<g transform="translate(629.6428571428571,0)">
			<line class="st4" x1="0" y1="0" x2="0" y2="6"/>
			<text transform="matrix(1 0 0 1 -15.5616 16.1)" class="st5 st6">Mar 22</text>
		</g>
		<g transform="translate(701.6428571428571,0)">
			<line class="st4" x1="0" y1="0" x2="0" y2="6"/>
			<text transform="matrix(1 0 0 1 -15.5616 16.1)" class="st5 st6">Mar 29</text>
		</g>
	</g>
</g>
<rect x="45.9" y="340.4" class="st7" width="115.3" height="112.2"/>
<text transform="matrix(1 0 0 1 45.8553 349.005)"><tspan x="0" y="0" class="st3 st8 st9">January 25</tspan><tspan x="0" y="12" class="st10 st6">Xi Jinping announces that </tspan><tspan x="0" y="24" class="st10 st6">the coronavirus crisis is </tspan><tspan x="0" y="36" class="st10 st6">“accelerating” and that </tspan><tspan x="0" y="48" class="st10 st6">China faces a “grave </tspan><tspan x="0" y="60" class="st10 st6">situation.”</tspan></text>
<rect x="73.9" y="45.8" class="st7" width="129.3" height="112.2"/>
<text transform="matrix(1 0 0 1 137.1545 54.3992)"><tspan x="0" y="0" class="st11 st8 st9">February 10</tspan><tspan x="-34.2" y="12" class="st10 st6">Jinping is photographed </tspan><tspan x="-40.3" y="24" class="st10 st6">wearing a mask in his first </tspan><tspan x="-51.9" y="36" class="st10 st6">public appearance since the </tspan><tspan x="-27.2" y="48" class="st10 st6">beginning of the crisis.</tspan></text>
<rect x="171" y="336.8" class="st7" width="99.1" height="112.2"/>
<text transform="matrix(1 0 0 1 204.0361 345.3249)"><tspan x="0" y="0" class="st3 st8 st9">February 17 </tspan><tspan x="-11.8" y="12" class="st10 st6">Chinese academic</tspan><tspan x="-28.8" y="24" class="st10 st6">Xu Zhangrun censored </tspan><tspan x="-22.5" y="36" class="st10 st6">and placed on house </tspan><tspan x="-11.6" y="48" class="st10 st6">arrest after publicly </tspan><tspan x="-24.1" y="60" class="st10 st6">criticizing the Chinese </tspan><tspan x="9.9" y="72" class="st10 st6">government’s           </tspan><tspan x="-26.2" y="84" class="st10 st6">coronavirus response.</tspan></text>
<rect x="310.5" y="49.5" class="st7" width="99.1" height="112.2"/>
<text transform="matrix(1 0 0 1 310.452 58.0661)"><tspan x="0" y="0" class="st1 st8 st9">February 19</tspan><tspan x="0" y="12" class="st10 st6">American Democratic </tspan><tspan x="0" y="24" class="st10 st6">presidential candidate </tspan><tspan x="0" y="36" class="st10 st6">Mike Bloomberg is </tspan><tspan x="0" y="48" class="st10 st6">asked about China ties </tspan><tspan x="0" y="60" class="st10 st6">in Dem debate. </tspan><tspan x="0" y="72" class="st10 st6">Previous assertion that </tspan><tspan x="0" y="84" class="st10 st6">“Xi Jinping is not a </tspan><tspan x="0" y="96" class="st10 st6">tyrant” resurfaces.</tspan></text>
<rect x="418.8" y="108.1" class="st7" width="76.7" height="112.2"/>
<text transform="matrix(1 0 0 1 418.7823 116.6945)"><tspan x="0" y="0" class="st1 st8 st9">February 29 </tspan><tspan x="0" y="12" class="st10 st6">Jinping publishes </tspan><tspan x="0" y="24" class="st10 st6">an article calling </tspan><tspan x="0" y="36" class="st10 st6">for reform of laws </tspan><tspan x="0" y="48" class="st10 st6">on epidemic </tspan><tspan x="0" y="60" class="st10 st6">prevention and </tspan><tspan x="0" y="72" class="st10 st6">response.</tspan></text>
<rect x="440.6" y="291.6" class="st7" width="99.1" height="112.2"/>
<text transform="matrix(1 0 0 1 440.596 300.1481)"><tspan x="0" y="0" class="st12 st8 st9">March 03-04</tspan><tspan x="0" y="12" class="st10 st6">The Citizen Lab </tspan><tspan x="0" y="24" class="st10 st6">(Toronto) publishes </tspan><tspan x="0" y="36" class="st10 st6">evidence of extensive </tspan><tspan x="0" y="48" class="st10 st6">Chinese censorship of </tspan><tspan x="0" y="60" class="st10 st6">coronavirus keywords </tspan><tspan x="0" y="72" class="st10 st6">in WeChat.</tspan></text>
<line class="st0" x1="416.8" y1="150.1" x2="402.2" y2="150.1"/>
<rect x="522.3" y="147.3" class="st7" width="76.7" height="112.2"/>
<text transform="matrix(1 0 0 1 522.3434 155.8246)"><tspan x="0" y="0" class="st11 st8 st9">March 10 </tspan><tspan x="0" y="12" class="st10 st6">Jinping makes </tspan><tspan x="0" y="24" class="st10 st6">first visit to Wuhan </tspan><tspan x="0" y="36" class="st10 st6">since before </tspan><tspan x="0" y="48" class="st10 st6">outbreak</tspan></text>
<line class="st0" x1="518.9" y1="191.5" x2="504.3" y2="191.5"/>
<line class="st0" x1="504.3" y1="191.4" x2="504.3" y2="237.5"/>
</svg>
