<svg width="847" height="500" xmlns="http://www.w3.org/2000/svg" version="1.1"><g><path class="layer" d="M0,240L2.0166666666666666,239.9975739564222C4.033333333333333,239.99514791284437,8.066666666666666,239.99029582568878,12.1,239.93631635608256C16.133333333333333,239.8823368864763,20.166666666666668,239.77923003441947,24.2,239.72888963018C28.23333333333333,239.67854922594043,32.266666666666666,239.68097526951826,36.3,239.64943670300678C40.333333333333336,239.61789813649526,44.36666666666667,239.55239495989449,48.4,239.52934754590532C52.43333333333334,239.5063001319161,56.46666666666667,239.52570848053858,60.5,239.52934754590532C64.53333333333333,239.532986611272,68.56666666666666,239.520856393383,72.6,236.75092113842098C76.63333333333333,233.98098588345897,80.66666666666667,228.45324559142398,84.7,228.11784506679203C88.73333333333333,227.7824445421601,92.76666666666667,232.63938378493125,96.8,235.3389637761368C100.83333333333333,238.03854376734242,104.86666666666666,238.58076450698243,108.89999999999999,238.93678640202575C112.93333333333332,239.292808297069,116.96666666666665,239.4626313475156,121,239.54875589452774C125.03333333333335,239.63488044153993,129.06666666666666,239.63730648511773,133.1,235.88906915740472C137.13333333333333,232.1408318296917,141.16666666666666,224.6419311306879,145.20000000000002,224.64557019605465C149.23333333333332,224.64920926142133,153.26666666666668,232.15538809115856,157.3,235.9169686585495C161.33333333333334,239.67854922594043,165.36666666666667,239.6955315309851,169.4,239.4383709117375C173.4333333333333,239.18121029248985,177.46666666666667,238.64990674894997,181.5,238.60320541007718C185.53333333333333,238.55650407120436,189.5666666666667,238.99440493699868,193.6,239.26369577413536C197.63333333333333,239.532986611272,201.66666666666666,239.63366741975105,205.70000000000002,239.31221664569148C209.73333333333332,238.990765871632,213.76666666666665,238.24718351503387,217.79999999999995,237.85416445542901C221.83333333333334,237.46114539582416,225.86666666666665,237.4186896332125,229.89999999999998,237.28525723643313C233.9333333333333,237.1518248396537,237.96666666666667,236.92741580870646,242,236.6890570271869C246.03333333333333,236.45069824566727,250.0666666666667,236.19838971357524,254.10000000000002,236.6205212961138C258.1333333333333,237.04265287865235,262.1666666666667,238.13922457582146,266.2,238.60805749723283C270.23333333333335,239.07689041864418,274.26666666666665,238.91798456429774,278.3,238.78151961304607C282.3333333333333,238.64505466179438,286.3666666666666,238.5310306136374,290.4,238.65900441236673C294.43333333333334,238.7869782110961,298.46666666666664,239.1569498567118,302.5,239.40622583433154C306.53333333333336,239.65550181195132,310.56666666666666,239.78408212157512,314.6,239.84837227638704C318.6333333333334,239.91266243119892,322.6666666666667,239.91266243119892,326.7,238.92708222771452C330.73333333333335,237.94150202423012,334.76666666666665,235.97034161726128,338.8,235.79991205592032C342.8333333333333,235.6294824945793,346.86666666666673,237.2597837788661,350.90000000000003,238.18107382753863C354.9333333333334,239.10236387621111,358.9666666666667,239.31464268926933,363,239.4638443693045C367.0333333333333,239.61304604933966,371.0666666666666,239.69917059635182,375.09999999999997,239.42866673742628C379.13333333333327,239.15816287850066,383.1666666666667,238.5310306136374,389.21666666666664,238.517080863065C395.26666666666665,238.5031311124926,403.3333333333333,239.10236387621114,409.3833333333334,239.3892435292869C415.43333333333334,239.67612318236266,419.4666666666667,239.65064972479567,423.5,239.62517626722874C427.5333333333333,239.59970280966172,431.5666666666666,239.5742293520947,435.5999999999999,230.9993783263332C439.63333333333327,222.42452730057164,443.6666666666667,205.30029870661554,447.7,165.3755060575276C451.7333333333333,125.45071340843963,455.76666666666665,62.72535670421981,459.79999999999995,67.78547709663236C463.8333333333333,72.8455974890449,467.8666666666666,145.6911949780898,471.90000000000003,184.57157586693154C475.9333333333334,223.45195675577324,479.9666666666667,228.36712104441176,484,231.86304984003277C488.0333333333333,235.35897863565376,492.06666666666666,237.4356719382572,496.09999999999997,237.79169383330046C500.1333333333334,238.14771572834377,504.1666666666667,236.7830662158269,508.20000000000005,236.36093463328834C512.2333333333333,235.93880305074978,516.2666666666668,236.45918939818955,520.3000000000001,234.19023214204483C524.3333333333334,231.9212748859001,528.3666666666667,226.86297402617092,532.4,223.64543373110337C536.4333333333333,220.42789343603582,540.4666666666667,219.05111370562994,544.5,219.8250216069506C548.5333333333333,220.5989295082713,552.5666666666667,223.52352504131855,556.6,226.6143045594456C560.6333333333333,229.7050840775727,564.6666666666666,232.96204758077968,568.6999999999999,234.65239344361726C572.7333333333332,236.34273930645483,576.7666666666665,236.466467528923,580.8,235.49483707601098C584.8333333333334,234.523206623099,588.8666666666667,232.45621749480676,592.9,232.3227850980273C596.9333333333333,232.18935270124788,600.9666666666667,233.98947703598125,605,235.1836969871571C609.0333333333333,236.377916938333,613.0666666666667,236.9662325059514,617.1,236.26267986838715C621.1333333333333,235.55912723082292,625.1666666666666,233.56370638807599,629.1999999999999,233.74202059104485C633.2333333333333,233.9203347940137,637.2666666666667,236.27238404269838,641.3,237.12999044745342C645.3333333333334,237.98759685220844,649.3666666666667,237.3507604130339,653.4,237.26888144228292C657.4333333333333,237.18700247153188,661.4666666666667,237.66008096920442,665.5,237.82141286712863C669.5333333333333,237.98274476505284,673.5666666666667,237.83233006322874,677.6,237.90875043592965C681.6333333333333,237.98517080863064,685.6666666666666,238.28842625585662,689.6999999999999,238.18289336022198C693.7333333333335,238.07736046458737,697.7666666666668,237.5630392260921,701.8000000000001,234.9520098254765C705.8333333333334,232.34098042486093,709.8666666666667,227.63324286212494,713.9,227.64476656911953C717.9333333333334,227.6562902761141,721.9666666666667,232.38707525283925,726,234.4043304877864C730.0333333333333,236.42158572273354,734.0666666666666,235.72531121590274,738.1,235.85267850373762C742.1333333333333,235.98004579157256,746.1666666666666,236.9310548740732,750.1999999999999,236.84311079437762C754.2333333333332,236.75516671468213,758.2666666666668,235.6282694727904,762.3000000000001,234.96656608694335C766.3333333333334,234.30486270109625,770.3666666666667,234.10835317129383,774.4,234.4613425118648C778.4333333333334,234.81433185243588,782.4666666666667,235.71682006338037,786.5,236.1456232657579C790.5333333333333,236.57442646813544,794.5666666666666,236.529544661946,798.6,236.30210307652655C802.6333333333333,236.07466149110704,806.6666666666666,235.66466012645753,810.6999999999999,234.3485314854968C814.7333333333332,233.0324028445361,818.7666666666668,230.81014692726419,822.7999999999998,228.91116131673513C826.8333333333334,227.0121757062061,830.8666666666668,225.43646040241995,834.9000000000001,226.43841640005454C838.9333333333334,227.44037239768917,842.9666666666667,231.01999969674452,844.9833333333332,232.80981334627222L847,234.5996269957999L847,240.32023775227063L844.9833333333332,238.2356598080393C842.9666666666667,236.15108186380795,838.9333333333334,231.98192597534532,834.9000000000001,233.36962290185136C830.8666666666668,234.7573198283574,826.8333333333334,241.70186956983216,822.8000000000001,244.01692165395522C818.7666666666668,246.3319737380783,814.7333333333332,244.01752816484967,810.7000000000002,242.38601385877394C806.6666666666666,240.75449955269823,802.6333333333333,239.8059165137754,798.6,239.69249897651284C794.5666666666666,239.57908143925033,790.5333333333333,240.30082940364818,786.5,240.50158450971176C782.4666666666667,240.70233961577534,778.4333333333334,240.38210186350474,774.4,239.92843171445466C770.3666666666667,239.4747615654046,766.3333333333334,238.88765901957512,762.3000000000001,238.68569089172266C758.2666666666668,238.48372276387013,754.2333333333332,238.66688905399465,750.1999999999999,239.0447453412382C746.1666666666666,239.42260162848174,742.1333333333333,239.99514791284437,738.1,240.0570120240785C734.0666666666666,240.11887613531258,730.0333333333333,239.67005807341812,726,237.71345392791616C721.9666666666667,235.7568497824142,717.9333333333334,232.29245955330472,713.9,232.31247441282162C709.8666666666667,232.33248927233853,705.8333333333334,235.83690922048186,701.8000000000001,237.65826143652103C697.7666666666668,239.47961365256023,693.7333333333335,239.61789813649526,689.7000000000002,239.76831283831936C685.6666666666666,239.91872754014344,681.6333333333333,240.08127245985656,677.6,239.99636093463326C673.5666666666667,239.91144940941,669.5333333333333,239.57908143925036,665.5,239.2151749025792C661.4666666666667,238.85126836590803,657.4333333333333,238.45582326272537,653.4,238.4467255993086C649.3666666666667,238.4376279358918,645.3333333333334,238.8148777122409,641.3000000000001,240.1819532683356C637.2666666666667,241.54902882443025,633.2333333333333,243.90593016027051,629.2,243.79797122105808C625.1666666666666,243.6900122818456,621.1333333333333,241.11719306758047,617.1,240.2510955103031C613.0666666666667,239.38499795302573,609.0333333333333,240.2256220527361,605,241.12143864384163C600.9666666666667,242.01725523494716,596.9333333333333,242.96826431744782,592.9,242.67350002274415C588.8666666666667,242.3787357280405,584.8333333333334,240.83819805613257,580.8,240.18680535549117C576.7666666666665,239.53541265484978,572.7333333333332,239.77316492547493,568.6999999999999,237.93483040439114C564.6666666666666,236.09649588330728,560.6333333333333,232.18207457051446,556.6,229.1871237737108C552.5666666666667,226.19217297690707,548.5333333333333,224.1166926960925,544.5,224.72926869948898C540.4666666666667,225.34184470288542,536.4333333333333,228.64247699049292,532.4,231.48640657457807C528.3666666666667,234.33033615866324,524.3333333333334,236.7175630392261,520.3000000000001,238.1361920213492C516.2666666666668,239.55482100347228,512.2333333333333,240.00485208715563,508.2,240.1164500917348C504.1666666666667,240.22804809631396,500.1333333333334,240.0012130217889,496.09999999999997,239.35891798456433C492.06666666666666,238.71662294733972,488.0333333333333,237.65886794741553,484,236.82430895664967C479.9666666666667,235.9897499658838,475.9333333333334,235.37838698427626,471.9000000000001,200.11159800457918C467.8666666666666,164.84480902488212,463.8333333333333,94.92259404709557,459.79999999999995,92.51899137238252C455.76666666666665,90.11538869766947,451.7333333333333,155.23039832602993,447.7,191.0321299146336C443.6666666666667,226.83386150323727,439.63333333333327,233.32231505208415,435.59999999999997,236.59868690391352C431.5666666666666,239.87505875574288,427.5333333333333,239.93934891055483,423.5,239.98423071674424C419.4666666666667,240.0291125229337,415.43333333333334,240.05458598050066,409.38333333333327,240.23714575973068C403.3333333333333,240.41970553896076,395.26666666666665,240.75935163985386,389.21666666666664,240.71628936634775C383.1666666666667,240.67322709284167,379.13333333333327,240.24745644493638,375.09999999999997,240.10068080847904C371.0666666666666,239.95390517202168,367.0333333333333,240.0861245470122,363,240.04852087155618C358.9666666666667,240.0109171961001,354.9333333333334,239.80349047019754,350.90000000000003,239.3892435292869C346.86666666666673,238.97499658837623,342.8333333333333,238.35392943245745,338.8,238.41154796743038C334.76666666666665,238.46916650240328,330.73333333333335,239.20547072826795,326.7,239.5760488847781C322.6666666666667,239.94662704128822,318.6333333333334,239.95147912844382,314.6,239.91144940941C310.56666666666666,239.8714196903762,306.53333333333336,239.78650816515292,302.5,239.766493305636C298.46666666666664,239.7464784461191,294.43333333333334,239.79136025230855,290.4,239.85019180907037C286.3666666666666,239.9090233658322,282.3333333333333,239.98180467316647,278.3,240.03093205561706C274.26666666666665,240.08005943806765,270.23333333333335,240.10553289563464,266.2,240.1595123652409C262.1666666666667,240.2134918348471,258.1333333333333,240.29597731649255,254.1,239.9090233658322C250.0666666666667,239.5220694151719,246.03333333333333,238.66567603220574,242,238.29994996285123C237.96666666666667,237.9342238934967,233.9333333333333,238.05916513775378,229.89999999999998,238.0264135494534C225.86666666666665,237.99366196115295,221.83333333333334,237.80321754029504,217.79999999999998,238.068869312065C213.76666666666665,238.33452108383494,209.73333333333332,239.0562690482328,205.69999999999996,239.39106306197024C201.66666666666666,239.72585707570772,197.63333333333333,239.67369713878483,193.6,239.64943670300678C189.5666666666667,239.62517626722868,185.53333333333333,239.62881533259542,181.5,239.67551667146822C177.46666666666667,239.72221801034098,173.4333333333333,239.81198162271986,169.4,239.82653788418676C165.36666666666667,239.84109414565356,161.33333333333334,239.78044305620838,157.29999999999998,236.02250155418415C153.26666666666668,232.26456005215994,149.23333333333332,224.80932813755666,145.2,224.80568907218995C141.16666666666666,224.80205000682324,137.13333333333333,232.25000379069306,133.1,235.9800457915725C129.06666666666666,239.71008779245196,125.03333333333335,239.72221801034098,121,239.65550181195132C116.96666666666665,239.58878561356156,112.93333333333332,239.4432229988931,108.89999999999998,239.19394702127337C104.86666666666666,238.94467104365359,100.83333333333333,238.59168170308257,96.8,235.95639186668893C92.76666666666667,233.32110203029524,88.73333333333333,228.4035116980789,84.7,228.64308350138742C80.66666666666667,228.88265530469593,76.63333333333333,234.2793892435293,72.6,236.99716456156844C68.56666666666666,239.7149398796076,64.53333333333333,239.7537565768525,60.5,239.77073888189716C56.46666666666667,239.7877211869418,52.43333333333334,239.7828690997862,48.4,239.76952586010825C44.36666666666667,239.7561826204303,40.333333333333336,239.73434822823003,36.3,239.7185789449743C32.266666666666666,239.70280966171853,28.23333333333333,239.69310548740728,24.2,239.7398068262801C20.166666666666668,239.7865081651529,16.133333333333333,239.88961501720974,12.1,239.94238146502707C8.066666666666666,239.99514791284437,4.033333333333333,239.9975739564222,2.0166666666666666,239.99878697821111L0,240Z" fill="#85bf69" title="positive"></path><path class="layer" d="M0,240L2.0166666666666666,239.99878697821111C4.033333333333333,239.9975739564222,8.066666666666666,239.99514791284437,12.1,239.94238146502707C16.133333333333333,239.88961501720974,20.166666666666668,239.7865081651529,24.2,239.7398068262801C28.23333333333333,239.69310548740728,32.266666666666666,239.70280966171853,36.3,239.7185789449743C40.333333333333336,239.73434822823003,44.36666666666667,239.7561826204303,48.4,239.76952586010825C52.43333333333334,239.7828690997862,56.46666666666667,239.7877211869418,60.5,239.7707388818972C64.53333333333333,239.7537565768525,68.56666666666666,239.7149398796076,72.6,236.99716456156844C76.63333333333333,234.2793892435293,80.66666666666667,228.88265530469593,84.7,228.64308350138742C88.73333333333333,228.4035116980789,92.76666666666667,233.32110203029524,96.8,235.9563918666889C100.83333333333333,238.59168170308257,104.86666666666666,238.94467104365359,108.89999999999999,239.19394702127337C112.93333333333332,239.4432229988931,116.96666666666665,239.58878561356156,121,239.65550181195132C125.03333333333335,239.72221801034098,129.06666666666666,239.71008779245196,133.1,235.9800457915725C137.13333333333333,232.25000379069306,141.16666666666666,224.80205000682324,145.20000000000002,224.80568907218995C149.23333333333332,224.80932813755666,153.26666666666668,232.26456005215994,157.3,236.02250155418417C161.33333333333334,239.78044305620838,165.36666666666667,239.84109414565356,169.4,239.82653788418676C173.4333333333333,239.81198162271986,177.46666666666667,239.72221801034098,181.5,239.67551667146822C185.53333333333333,239.62881533259542,189.5666666666667,239.62517626722868,193.6,239.64943670300673C197.63333333333333,239.67369713878483,201.66666666666666,239.72585707570772,205.70000000000002,239.39106306197024C209.73333333333332,239.0562690482328,213.76666666666665,238.33452108383494,217.79999999999995,238.06886931206498C221.83333333333334,237.80321754029504,225.86666666666665,237.99366196115295,229.89999999999998,238.02641354945334C233.9333333333333,238.05916513775378,237.96666666666667,237.9342238934967,242,238.29994996285123C246.03333333333333,238.66567603220574,250.0666666666667,239.5220694151719,254.10000000000002,239.90902336583224C258.1333333333333,240.29597731649255,262.1666666666667,240.2134918348471,266.2,240.15951236524086C270.23333333333335,240.10553289563464,274.26666666666665,240.08005943806765,278.3,240.030932055617C282.3333333333333,239.98180467316647,286.3666666666666,239.9090233658322,290.4,239.85019180907037C294.43333333333334,239.79136025230855,298.46666666666664,239.7464784461191,302.5,239.76649330563603C306.53333333333336,239.78650816515292,310.56666666666666,239.8714196903762,314.6,239.91144940941C318.6333333333334,239.95147912844382,322.6666666666667,239.94662704128822,326.7,239.5760488847781C330.73333333333335,239.20547072826795,334.76666666666665,238.46916650240328,338.8,238.41154796743035C342.8333333333333,238.35392943245745,346.86666666666673,238.97499658837623,350.90000000000003,239.3892435292869C354.9333333333334,239.80349047019754,358.9666666666667,240.0109171961001,363,240.04852087155618C367.0333333333333,240.0861245470122,371.0666666666666,239.95390517202168,375.09999999999997,240.10068080847904C379.13333333333327,240.24745644493638,383.1666666666667,240.67322709284167,389.21666666666664,240.71628936634775C395.26666666666665,240.75935163985386,403.3333333333333,240.41970553896076,409.3833333333334,240.23714575973074C415.43333333333334,240.05458598050066,419.4666666666667,240.0291125229337,423.5,239.98423071674424C427.5333333333333,239.93934891055483,431.5666666666666,239.87505875574288,435.5999999999999,236.59868690391352C439.63333333333327,233.32231505208415,443.6666666666667,226.83386150323727,447.7,191.0321299146336C451.7333333333333,155.23039832602993,455.76666666666665,90.11538869766947,459.79999999999995,92.51899137238252C463.8333333333333,94.92259404709557,467.8666666666666,164.84480902488212,471.90000000000003,200.11159800457918C475.9333333333334,235.37838698427626,479.9666666666667,235.9897499658838,484,236.82430895664967C488.0333333333333,237.65886794741553,492.06666666666666,238.71662294733972,496.09999999999997,239.3589179845643C500.1333333333334,240.0012130217889,504.1666666666667,240.22804809631396,508.20000000000005,240.1164500917348C512.2333333333333,240.00485208715563,516.2666666666668,239.55482100347228,520.3000000000001,238.1361920213492C524.3333333333334,236.7175630392261,528.3666666666667,234.33033615866324,532.4,231.48640657457813C536.4333333333333,228.64247699049292,540.4666666666667,225.34184470288542,544.5,224.72926869948898C548.5333333333333,224.1166926960925,552.5666666666667,226.19217297690707,556.6,229.18712377371074C560.6333333333333,232.18207457051446,564.6666666666666,236.09649588330728,568.6999999999999,237.93483040439114C572.7333333333332,239.77316492547493,576.7666666666665,239.53541265484978,580.8,240.18680535549117C584.8333333333334,240.83819805613257,588.8666666666667,242.3787357280405,592.9,242.67350002274415C596.9333333333333,242.96826431744782,600.9666666666667,242.01725523494716,605,241.12143864384166C609.0333333333333,240.2256220527361,613.0666666666667,239.38499795302573,617.1,240.2510955103031C621.1333333333333,241.11719306758047,625.1666666666666,243.6900122818456,629.1999999999999,243.79797122105802C633.2333333333333,243.90593016027051,637.2666666666667,241.54902882443025,641.3,240.1819532683356C645.3333333333334,238.8148777122409,649.3666666666667,238.4376279358918,653.4,238.4467255993086C657.4333333333333,238.45582326272537,661.4666666666667,238.85126836590803,665.5,239.2151749025792C669.5333333333333,239.57908143925036,673.5666666666667,239.91144940941,677.6,239.99636093463326C681.6333333333333,240.08127245985656,685.6666666666666,239.91872754014344,689.6999999999999,239.76831283831936C693.7333333333335,239.61789813649526,697.7666666666668,239.47961365256023,701.8000000000001,237.65826143652103C705.8333333333334,235.83690922048186,709.8666666666667,232.33248927233853,713.9,232.31247441282162C717.9333333333334,232.29245955330472,721.9666666666667,235.7568497824142,726,237.71345392791616C730.0333333333333,239.67005807341812,734.0666666666666,240.11887613531258,738.1,240.0570120240785C742.1333333333333,239.99514791284437,746.1666666666666,239.42260162848174,750.1999999999999,239.0447453412382C754.2333333333332,238.66688905399465,758.2666666666668,238.48372276387013,762.3000000000001,238.68569089172266C766.3333333333334,238.88765901957512,770.3666666666667,239.4747615654046,774.4,239.92843171445466C778.4333333333334,240.38210186350474,782.4666666666667,240.70233961577534,786.5,240.50158450971176C790.5333333333333,240.30082940364818,794.5666666666666,239.57908143925033,798.6,239.69249897651287C802.6333333333333,239.8059165137754,806.6666666666666,240.75449955269823,810.6999999999999,242.38601385877394C814.7333333333332,244.01752816484967,818.7666666666668,246.3319737380783,822.7999999999998,244.01692165395517C826.8333333333334,241.70186956983216,830.8666666666668,234.7573198283574,834.9000000000001,233.36962290185136C838.9333333333334,231.98192597534532,842.9666666666667,236.15108186380795,844.9833333333332,238.2356598080393L847,240.32023775227063L847,241.09899774074694L844.9833333333332,239.1090354960501C842.9666666666667,237.11907325135329,838.9333333333334,233.13914876195963,834.9000000000001,234.53654986277692C830.8666666666668,235.93395096359419,826.8333333333334,242.7086776546224,822.8000000000001,245.00553441191187C818.7666666666668,247.30239116920134,814.7333333333332,245.12137799275217,810.7000000000002,243.5444496671771C806.6666666666666,241.96752134160207,802.6333333333333,240.99467786690118,798.6,240.91643796151686C794.5666666666666,240.83819805613257,790.5333333333333,241.6545617200649,786.5,242.20709314491066C782.4666666666667,242.7596245697563,778.4333333333334,243.04832375551544,774.4,243.23755515458447C770.3666666666667,243.42678655365344,766.3333333333334,243.51655016603237,762.3000000000001,242.88881139027458C758.2666666666668,242.26107261451685,754.2333333333332,240.91583145062245,750.1999999999999,240.7939227608376C746.1666666666666,240.67201407105276,742.1333333333333,241.77343785537747,738.1,242.0014859516914C734.0666666666666,242.22953404800535,730.0333333333333,241.5842064563085,726,240.72902609513122C721.9666666666667,239.873845733954,717.9333333333334,238.80881260329636,713.9,238.75847219905685C709.8666666666667,238.70813179481738,705.8333333333334,239.67248411699595,701.8000000000001,240.17770769207445C697.7666666666668,240.6829312671529,693.7333333333335,240.72902609513122,689.7000000000002,240.7860381192097C685.6666666666666,240.8430501432882,681.6333333333333,240.91097936346682,677.6,240.83455899076588C673.5666666666667,240.75813861806492,669.5333333333333,240.5373686524844,665.5,240.42940971327198C661.4666666666667,240.3214507740595,657.4333333333333,240.32630286121514,653.4,240.27717547876455C649.3666666666667,240.22804809631393,645.3333333333334,240.12494124425712,641.3000000000001,241.4107443404952C637.2666666666667,242.69654743673334,633.2333333333333,245.3712604812664,629.2,245.43433761428938C625.1666666666666,245.4974147473124,621.1333333333333,242.94885596882537,617.1,241.8365149884005C613.0666666666667,240.72417400797565,609.0333333333333,241.048050825613,605,242.0724477263423C600.9666666666667,243.09684462707162,596.9333333333333,244.82176161089293,592.9,244.9115252232718C588.8666666666667,245.0012888356507,584.8333333333334,243.45589907658714,580.8,242.68926930599991C576.7666666666665,241.92263953541263,572.7333333333332,241.93476975330168,568.6999999999999,240.7902836954709C564.6666666666666,239.64579763764007,560.6333333333333,237.3446953040894,556.6,239.0101742202544C552.5666666666667,240.67565313641947,548.5333333333333,246.3077133023002,544.5,246.0408485087414C540.4666666666667,245.77398371518248,536.4333333333333,239.60819396218406,532.4,237.58062804203124C528.3666666666667,235.55306212187838,524.3333333333334,237.66372003457116,520.3000000000001,239.08841412563876C516.2666666666668,240.51310821670634,512.2333333333333,241.2518384861488,508.2,241.27852496550472C504.1666666666667,241.3052114448606,500.1333333333334,240.61985413412992,496.09999999999997,240.21045928037483C492.06666666666666,239.80106442661977,488.0333333333333,239.66763202984035,484,240.66958802747493C479.9666666666667,241.6715440251095,475.9333333333334,243.8088884171582,471.9000000000001,281.32461979348307C467.8666666666666,318.8403511698079,463.8333333333333,391.73446953040894,459.79999999999995,397.99790753741416C455.76666666666665,404.2613455444193,451.7333333333333,343.89410319782866,447.7,306.4378098891602C443.6666666666667,268.9815165804916,439.63333333333327,254.4361723097451,435.59999999999997,247.22354475292263C431.5666666666666,240.01091719610017,427.5333333333333,240.13100635320163,423.5,240.17103607223544C419.4666666666667,240.21106579126925,415.43333333333334,240.17103607223544,409.38333333333327,240.39362557049932C403.3333333333333,240.61621506876318,395.26666666666665,241.10142378432474,389.21666666666664,241.07049172870768C383.1666666666667,241.03955967309062,379.13333333333327,240.49248684629495,375.09999999999997,240.2814210550257C371.0666666666666,240.0703552637564,367.0333333333333,240.1952965080135,363,240.15041470182408C358.9666666666667,240.10553289563464,354.9333333333334,239.89082803899865,350.90000000000003,240.69445497414745C346.86666666666673,241.4980819092963,342.8333333333333,243.32004063622992,338.8,243.37038104046948C334.76666666666665,243.42072144470896,330.73333333333335,241.69944352625438,326.7,240.8557868720717C322.6666666666667,240.01213021788905,318.6333333333334,240.04609482797835,314.6,240.02426043577807C310.56666666666666,240.0024260435778,306.53333333333336,239.92479264908798,302.5,239.91326894209337C298.46666666666664,239.9017452350988,294.43333333333334,239.95633121559945,290.4,240.12797379872936C286.3666666666666,240.29961638185924,282.3333333333333,240.58831556761837,278.3,240.6410820154357C274.26666666666665,240.69384846325303,270.23333333333335,240.51068217312854,266.2,240.72478051887006C262.1666666666667,240.9388788646116,258.1333333333333,241.55024184621917,254.1,241.28095100908251C250.0666666666667,241.01166017194586,246.03333333333333,239.86171551606495,242,239.58090097193372C237.96666666666667,239.30008642780243,233.9333333333333,239.88840199542082,229.89999999999998,239.71130081424084C225.86666666666665,239.5341996330609,221.83333333333334,238.5916817030826,217.79999999999998,238.5310306136374C213.76666666666665,238.47037952419223,209.73333333333332,239.29159527528012,205.69999999999996,239.7489044896969C201.66666666666666,240.20621370411368,197.63333333333333,240.2996163818593,193.6,240.25473457566986C189.5666666666667,240.20985276948036,185.53333333333333,240.0266864793559,181.5,239.981198162272C177.46666666666667,239.93570984518806,173.4333333333333,240.0278995011448,169.4,240.07278130733422C165.36666666666667,240.11766311352366,161.33333333333334,240.1152370699459,157.29999999999998,243.58811845157769C153.26666666666668,247.0609998332095,149.23333333333332,254.00918864005095,145.2,254.01525374899543C141.16666666666666,254.02131885793997,137.13333333333333,247.08526026898758,133.1,243.62208306166698C129.06666666666666,240.1589058543464,125.03333333333335,240.16861002865764,121,240.11159800457918C116.96666666666665,240.05458598050066,112.93333333333332,239.9308577580325,108.89999999999998,239.89264757168203C104.86666666666666,239.85443738533152,100.83333333333333,239.90174523509882,96.8,242.37085108641267C92.76666666666667,244.8399569377265,88.73333333333333,249.73086079058695,84.7,249.7848402601932C80.66666666666667,249.8388197297994,76.63333333333333,245.05587481615137,72.6,242.6098163788267C68.56666666666666,240.163757941502,64.53333333333333,240.05458598050066,60.5,239.9721004988552C56.46666666666667,239.88961501720974,52.43333333333334,239.8338160149202,48.4,239.8447332110203C44.36666666666667,239.8556504071204,40.333333333333336,239.9332838016103,36.3,239.92964473624355C32.266666666666666,239.92600567087683,28.23333333333333,239.84109414565356,24.2,239.83806159118134C20.166666666666668,239.83502903670907,16.133333333333333,239.9138754529878,12.1,239.95451168291615C8.066666666666666,239.99514791284437,4.033333333333333,239.9975739564222,2.0166666666666666,239.99878697821111L0,240Z" fill="#969696" title="neutral"></path><path class="layer" d="M0,240L2.0166666666666666,239.99878697821111C4.033333333333333,239.9975739564222,8.066666666666666,239.99514791284437,12.1,239.9545116829161C16.133333333333333,239.9138754529878,20.166666666666668,239.83502903670907,24.2,239.83806159118134C28.23333333333333,239.84109414565356,32.266666666666666,239.92600567087683,36.3,239.9296447362436C40.333333333333336,239.9332838016103,44.36666666666667,239.8556504071204,48.4,239.8447332110203C52.43333333333334,239.8338160149202,56.46666666666667,239.88961501720974,60.5,239.97210049885518C64.53333333333333,240.05458598050066,68.56666666666666,240.163757941502,72.6,242.6098163788267C76.63333333333333,245.05587481615137,80.66666666666667,249.8388197297994,84.7,249.7848402601932C88.73333333333333,249.73086079058695,92.76666666666667,244.8399569377265,96.8,242.37085108641267C100.83333333333333,239.90174523509882,104.86666666666666,239.85443738533152,108.89999999999999,239.89264757168203C112.93333333333332,239.9308577580325,116.96666666666665,240.05458598050066,121,240.11159800457918C125.03333333333335,240.16861002865764,129.06666666666666,240.1589058543464,133.1,243.622083061667C137.13333333333333,247.08526026898758,141.16666666666666,254.02131885793997,145.20000000000002,254.01525374899543C149.23333333333332,254.00918864005095,153.26666666666668,247.0609998332095,157.3,243.58811845157766C161.33333333333334,240.1152370699459,165.36666666666667,240.11766311352366,169.4,240.07278130733422C173.4333333333333,240.0278995011448,177.46666666666667,239.93570984518806,181.5,239.981198162272C185.53333333333333,240.0266864793559,189.5666666666667,240.20985276948036,193.6,240.2547345756698C197.63333333333333,240.2996163818593,201.66666666666666,240.20621370411368,205.70000000000002,239.74890448969688C209.73333333333332,239.29159527528012,213.76666666666665,238.47037952419223,217.79999999999995,238.53103061363743C221.83333333333334,238.5916817030826,225.86666666666665,239.5341996330609,229.89999999999998,239.71130081424087C233.9333333333333,239.88840199542082,237.96666666666667,239.30008642780243,242,239.58090097193372C246.03333333333333,239.86171551606495,250.0666666666667,241.01166017194586,254.10000000000002,241.28095100908251C258.1333333333333,241.55024184621917,262.1666666666667,240.9388788646116,266.2,240.72478051887006C270.23333333333335,240.51068217312854,274.26666666666665,240.69384846325303,278.3,240.6410820154357C282.3333333333333,240.58831556761837,286.3666666666666,240.29961638185924,290.4,240.12797379872936C294.43333333333334,239.95633121559945,298.46666666666664,239.9017452350988,302.5,239.91326894209337C306.53333333333336,239.92479264908798,310.56666666666666,240.0024260435778,314.6,240.02426043577807C318.6333333333334,240.04609482797835,322.6666666666667,240.01213021788905,326.7,240.85578687207172C330.73333333333335,241.69944352625438,334.76666666666665,243.42072144470896,338.8,243.37038104046948C342.8333333333333,243.32004063622992,346.86666666666673,241.4980819092963,350.90000000000003,240.69445497414748C354.9333333333334,239.89082803899865,358.9666666666667,240.10553289563464,363,240.15041470182408C367.0333333333333,240.1952965080135,371.0666666666666,240.0703552637564,375.09999999999997,240.2814210550257C379.13333333333327,240.49248684629495,383.1666666666667,241.03955967309062,389.21666666666664,241.07049172870768C395.26666666666665,241.10142378432474,403.3333333333333,240.61621506876318,409.3833333333334,240.39362557049927C415.43333333333334,240.17103607223544,419.4666666666667,240.21106579126925,423.5,240.17103607223544C427.5333333333333,240.13100635320163,431.5666666666666,240.01091719610017,435.5999999999999,247.22354475292263C439.63333333333327,254.4361723097451,443.6666666666667,268.9815165804916,447.7,306.4378098891602C451.7333333333333,343.89410319782866,455.76666666666665,404.2613455444193,459.79999999999995,397.99790753741416C463.8333333333333,391.73446953040894,467.8666666666666,318.8403511698079,471.90000000000003,281.324619793483C475.9333333333334,243.8088884171582,479.9666666666667,241.6715440251095,484,240.66958802747493C488.0333333333333,239.66763202984035,492.06666666666666,239.80106442661977,496.09999999999997,240.21045928037486C500.1333333333334,240.61985413412992,504.1666666666667,241.3052114448606,508.20000000000005,241.27852496550472C512.2333333333333,241.2518384861488,516.2666666666668,240.51310821670634,520.3000000000001,239.08841412563876C524.3333333333334,237.66372003457116,528.3666666666667,235.55306212187838,532.4,237.5806280420312C536.4333333333333,239.60819396218406,540.4666666666667,245.77398371518248,544.5,246.0408485087414C548.5333333333333,246.3077133023002,552.5666666666667,240.67565313641947,556.6,239.01017422025447C560.6333333333333,237.3446953040894,564.6666666666666,239.64579763764007,568.6999999999999,240.79028369547086C572.7333333333332,241.93476975330168,576.7666666666665,241.92263953541263,580.8,242.6892693059999C584.8333333333334,243.45589907658714,588.8666666666667,245.0012888356507,592.9,244.9115252232718C596.9333333333333,244.82176161089293,600.9666666666667,243.09684462707162,605,242.0724477263423C609.0333333333333,241.048050825613,613.0666666666667,240.72417400797565,617.1,241.8365149884005C621.1333333333333,242.94885596882537,625.1666666666666,245.4974147473124,629.1999999999999,245.43433761428938C633.2333333333333,245.3712604812664,637.2666666666667,242.69654743673334,641.3,241.41074434049526C645.3333333333334,240.12494124425712,649.3666666666667,240.22804809631393,653.4,240.27717547876455C657.4333333333333,240.32630286121514,661.4666666666667,240.3214507740595,665.5,240.42940971327198C669.5333333333333,240.5373686524844,673.5666666666667,240.75813861806492,677.6,240.83455899076588C681.6333333333333,240.91097936346682,685.6666666666666,240.8430501432882,689.6999999999999,240.7860381192097C693.7333333333335,240.72902609513122,697.7666666666668,240.6829312671529,701.8000000000001,240.17770769207445C705.8333333333334,239.67248411699595,709.8666666666667,238.70813179481738,713.9,238.75847219905685C717.9333333333334,238.80881260329636,721.9666666666667,239.873845733954,726,240.72902609513122C730.0333333333333,241.5842064563085,734.0666666666666,242.22953404800535,738.1,242.0014859516914C742.1333333333333,241.77343785537747,746.1666666666666,240.67201407105276,750.1999999999999,240.79392276083763C754.2333333333332,240.91583145062245,758.2666666666668,242.26107261451685,762.3000000000001,242.88881139027464C766.3333333333334,243.51655016603237,770.3666666666667,243.42678655365344,774.4,243.23755515458444C778.4333333333334,243.04832375551544,782.4666666666667,242.7596245697563,786.5,242.2070931449106C790.5333333333333,241.6545617200649,794.5666666666666,240.83819805613257,798.6,240.91643796151686C802.6333333333333,240.99467786690118,806.6666666666666,241.96752134160207,810.6999999999999,243.54444966717713C814.7333333333332,245.12137799275217,818.7666666666668,247.30239116920134,822.7999999999998,245.00553441191187C826.8333333333334,242.7086776546224,830.8666666666668,235.93395096359419,834.9000000000001,234.53654986277692C838.9333333333334,233.13914876195963,842.9666666666667,237.11907325135329,844.9833333333332,239.1090354960501L847,241.09899774074694L847,245.40037300420008L844.9833333333332,247.19018665372778C842.9666666666667,248.98000030325542,838.9333333333334,252.5596276023108,834.9000000000001,253.56158359994538C830.8666666666668,254.56353959758,826.8333333333334,252.9878242937939,822.8000000000001,251.08883868326484C818.7666666666668,249.18985307273581,814.7333333333332,246.9675971554639,810.7000000000002,245.6514685145032C806.6666666666666,244.3353398735425,802.6333333333333,243.925338508893,798.6,243.6978969234735C794.5666666666666,243.470455338054,790.5333333333333,243.42557353186456,786.5,243.8543767342421C782.4666666666667,244.2831799366196,778.4333333333334,245.18566814756412,774.4,245.53865748813516C770.3666666666667,245.89164682870617,766.3333333333334,245.69513729890375,762.3000000000001,245.03343391305668C758.2666666666668,244.3717305272096,754.2333333333332,243.2448332853179,750.1999999999999,243.15688920562238C746.1666666666666,243.0689451259268,742.1333333333333,244.0199542084275,738.1,244.14732149626238C734.0666666666666,244.2746887840973,730.0333333333333,243.57841427726646,726,245.5956695122136C721.9666666666667,247.61292474716075,717.9333333333334,252.34370972388592,713.9,252.35523343088053C709.8666666666667,252.36675713787508,705.8333333333334,247.65901957513913,701.8000000000001,245.0479901745235C697.7666666666668,242.4369607739079,693.7333333333335,241.92263953541263,689.7000000000002,241.81710663977802C685.6666666666666,241.71157374414338,681.6333333333333,242.01482919136936,677.6,242.09124956407035C673.5666666666667,242.16766993677126,669.5333333333333,242.01725523494716,665.5,242.17858713287137C661.4666666666667,242.33991903079558,657.4333333333333,242.81299752846812,653.4,242.73111855771708C649.3666666666667,242.64923958696605,645.3333333333334,242.01240314779156,641.3000000000001,242.87000955254658C637.2666666666667,243.72761595730162,633.2333333333333,246.0796652059863,629.2,246.25797940895515C625.1666666666666,246.43629361192401,621.1333333333333,244.4408727691771,617.1,243.73732013161285C613.0666666666667,243.0337674940486,609.0333333333333,243.62208306166698,605,244.8163030128429C600.9666666666667,246.01052296401875,596.9333333333333,247.81064729875212,592.9,247.6772149019727C588.8666666666667,247.54378250519326,584.8333333333334,245.476793376901,580.8,244.50516292398902C576.7666666666665,243.533532471077,572.7333333333332,243.65726069354523,568.6999999999999,245.34760655638274C564.6666666666666,247.03795241922035,560.6333333333333,250.29491592242724,556.6,253.38569544055437C552.5666666666667,256.4764749586814,548.5333333333333,259.4010704917287,544.5,260.17497839304934C540.4666666666667,260.9488862943701,536.4333333333333,259.57210656396416,532.4,256.35456626889663C528.3666666666667,253.13702597382908,524.3333333333334,248.07872511409985,520.3000000000001,245.80976785795517C516.2666666666668,243.54081060181042,512.2333333333333,244.0611969492502,508.2,243.63906536671166C504.1666666666667,243.2169337841731,500.1333333333334,241.85228427165623,496.09999999999997,242.2083061666995C492.06666666666666,242.5643280617428,488.0333333333333,244.64102136434624,484,248.13695015996723C479.9666666666667,251.63287895558824,475.9333333333334,256.5480432442268,471.9000000000001,295.4284241330685C467.8666666666666,334.30880502191025,463.8333333333333,407.15440251095515,459.79999999999995,412.21452290336765C455.76666666666665,417.27464329578015,451.7333333333333,354.54928659156036,447.7,314.6244939424724C443.6666666666667,274.69970129338446,439.63333333333327,257.5754726994283,435.59999999999997,249.0006216736668C431.5666666666666,240.42577064790524,427.5333333333333,240.40029719033828,423.5,240.37482373277126C419.4666666666667,240.3493502752043,415.43333333333334,240.32387681763734,409.38333333333327,240.61075647071308C403.3333333333333,240.89763612378886,395.26666666666665,241.4968688875074,389.21666666666664,241.482919136935C383.1666666666667,241.4689693863626,379.13333333333327,240.8418371214993,375.09999999999997,240.57133326257372C371.0666666666666,240.30082940364818,367.0333333333333,240.38695395066034,363,240.53615563069548C358.9666666666667,240.68535731073067,354.9333333333334,240.89763612378886,350.90000000000003,241.81892617246135C346.86666666666673,242.74021622113386,342.8333333333333,244.37051750542068,338.8,244.20008794407968C334.76666666666665,244.0296583827387,330.73333333333335,242.05849797576988,326.7,241.07291777228548C322.6666666666667,240.08733756880108,318.6333333333334,240.08733756880108,314.6,240.15162772361296C310.56666666666666,240.21591787842488,306.53333333333336,240.34449818804868,302.5,240.5937741656684C298.46666666666664,240.8430501432882,294.43333333333334,241.2130217889039,290.4,241.34099558763322C286.3666666666666,241.4689693863626,282.3333333333333,241.35494533820565,278.3,241.21848038695393C274.26666666666665,241.08201543570226,270.23333333333335,240.92310958135582,266.2,241.3919425027672C262.1666666666667,241.86077542417854,258.1333333333333,242.95734712134765,254.1,243.3794787038862C250.0666666666667,243.80161028642476,246.03333333333333,243.54930175433276,242,243.3109429728131C237.96666666666667,243.07258419129354,233.9333333333333,242.8481751603463,229.89999999999998,242.71474276356693C225.86666666666665,242.58131036678745,221.83333333333334,242.53885460417584,217.79999999999998,242.14583554457093C213.76666666666665,241.75281648496613,209.73333333333332,241.009234128368,205.69999999999996,240.6877833543085C201.66666666666666,240.36633258024895,197.63333333333333,240.467013388728,193.6,240.73630422586461C189.5666666666667,241.00559506300132,185.53333333333333,241.4434959287956,181.5,241.39679458992282C177.46666666666667,241.35009325105003,173.4333333333333,240.8187897075101,169.4,240.5616290882625C165.36666666666667,240.30446846901486,161.33333333333334,240.3214507740595,157.29999999999998,244.08303134145046C153.26666666666668,247.84461190884144,149.23333333333332,255.35079073857867,145.2,255.35442980394535C141.16666666666666,255.3580688693121,137.13333333333333,247.85916817030827,133.1,244.11093084259525C129.06666666666666,240.36269351488227,125.03333333333335,240.36511955846004,121,240.45124410547226C116.96666666666665,240.5373686524844,112.93333333333332,240.70719170293094,108.89999999999998,241.06321359797425C104.86666666666666,241.4192354930175,100.83333333333333,241.96145623265758,96.8,244.6610362238632C92.76666666666667,247.36061621506875,88.73333333333333,252.21755545783992,84.7,251.882154933208C80.66666666666667,251.54675440857605,76.63333333333333,246.01901411654106,72.6,243.24907886157905C68.56666666666666,240.47914360661704,64.53333333333333,240.467013388728,60.5,240.47065245409473C56.46666666666667,240.47429151946142,52.43333333333334,240.4936998680839,48.4,240.47065245409473C44.36666666666667,240.44760504010551,40.333333333333336,240.38210186350474,36.3,240.35056329699322C32.266666666666666,240.31902473048171,28.23333333333333,240.3214507740595,24.2,240.27111036982C20.166666666666668,240.22076996558053,16.133333333333333,240.1176631135237,12.1,240.06368364391744C8.066666666666666,240.00970417431122,4.033333333333333,240.00485208715563,2.0166666666666666,240.0024260435778L0,240Z" fill="#f21b1b" title="negative"></path><g class="x axis" transform="translate(0,480)" fill="none" font-size="10" font-family="sans-serif" text-anchor="middle" style="stroke-width: 1px; font-size: 10px; font-family: Arial, Helvetica;"><path class="domain" stroke="#000" d="M0.5,6V0.5H847.5V6" style="shape-rendering: crispedges; fill: none; stroke: rgb(204, 204, 204);"></path><g class="tick" opacity="1" transform="translate(63.520833333333336,0)"><line stroke="#000" y2="6" style="shape-rendering: crispedges; fill: none; stroke: rgb(204, 204, 204);"></line><text fill="#000" y="9" dy="0.71em">Jan 26</text></g><g class="tick" opacity="1" transform="translate(148.22083333333333,0)"><line stroke="#000" y2="6" style="shape-rendering: crispedges; fill: none; stroke: rgb(204, 204, 204);"></line><text fill="#000" y="9" dy="0.71em">Feb 02</text></g><g class="tick" opacity="1" transform="translate(232.92083333333335,0)"><line stroke="#000" y2="6" style="shape-rendering: crispedges; fill: none; stroke: rgb(204, 204, 204);"></line><text fill="#000" y="9" dy="0.71em">Feb 09</text></g><g class="tick" opacity="1" transform="translate(317.62083333333334,0)"><line stroke="#000" y2="6" style="shape-rendering: crispedges; fill: none; stroke: rgb(204, 204, 204);"></line><text fill="#000" y="9" dy="0.71em">Feb 16</text></g><g class="tick" opacity="1" transform="translate(402.3208333333333,0)"><line stroke="#000" y2="6" style="shape-rendering: crispedges; fill: none; stroke: rgb(204, 204, 204);"></line><text fill="#000" y="9" dy="0.71em">Feb 23</text></g><g class="tick" opacity="1" transform="translate(487.0208333333333,0)"><line stroke="#000" y2="6" style="shape-rendering: crispedges; fill: none; stroke: rgb(204, 204, 204);"></line><text fill="#000" y="9" dy="0.71em">March</text></g><g class="tick" opacity="1" transform="translate(571.7208333333334,0)"><line stroke="#000" y2="6" style="shape-rendering: crispedges; fill: none; stroke: rgb(204, 204, 204);"></line><text fill="#000" y="9" dy="0.71em">Mar 08</text></g><g class="tick" opacity="1" transform="translate(655.9166666666667,0)"><line stroke="#000" y2="6" style="shape-rendering: crispedges; fill: none; stroke: rgb(204, 204, 204);"></line><text fill="#000" y="9" dy="0.71em">Mar 15</text></g><g class="tick" opacity="1" transform="translate(740.6166666666667,0)"><line stroke="#000" y2="6" style="shape-rendering: crispedges; fill: none; stroke: rgb(204, 204, 204);"></line><text fill="#000" y="9" dy="0.71em">Mar 22</text></g><g class="tick" opacity="1" transform="translate(825.3166666666666,0)"><line stroke="#000" y2="6" style="shape-rendering: crispedges; fill: none; stroke: rgb(204, 204, 204);"></line><text fill="#000" y="9" dy="0.71em">Mar 29</text></g></g></g></svg>