<?xml version="1.0" encoding="utf-8"?>
<!-- Generator: Adobe Illustrator 24.0.3, SVG Export Plug-In . SVG Version: 6.00 Build 0)  -->
<svg version="1.1" id="Layer_1" xmlns="http://www.w3.org/2000/svg" xmlns:xlink="http://www.w3.org/1999/xlink" x="0px" y="0px"
	 viewBox="0 0 847 500" style="enable-background:new 0 0 847 500;" xml:space="preserve">
<style type="text/css">
	.st0{fill:none;stroke:#000000;stroke-width:0.5;stroke-miterlimit:10;}
	.st1{fill:#75BF69;}
	.st2{fill:#8A8A8A;}
	.st3{fill:#BF6969;}
	.st4{fill:none;stroke:#CCCCCC;}
	.st5{font-family:'ArialMT';}
	.st6{font-size:10px;}
	.st7{fill:none;}
	.st8{fill:#05AA21;}
	.st9{font-family:'HelveticaNeue-Medium';}
	.st10{font-size:12px;}
	.st11{font-family:'HelveticaNeue-Thin';}
	.st12{fill:#C30005;}
</style>
<line id="mar23Line_3_" class="st0" x1="843.3" y1="8.6" x2="843.3" y2="165.2"/>
<line id="mar23Line_2_" class="st0" x1="809.8" y1="281.5" x2="809.8" y2="438.1"/>
<line id="mar23Line_4_" class="st0" x1="556.6" y1="232.7" x2="556.6" y2="329.6"/>
<line id="mar23Line_1_" class="st0" x1="510.4" y1="46.3" x2="510.4" y2="236.4"/>
<line id="mar23Line" class="st0" x1="470.8" y1="48.7" x2="470.8" y2="238.8"/>
<g>
	<path class="st1" d="M0,240l2,0c2,0,6.1-0.1,10.1-0.1s8.1,0,12.1-1s8.1-2.7,12.1-2.9s8.1,1.3,12.1,2c4,0.6,8.1,0.4,12.1,0.4
		c4,0,8.1,0.1,12.1,0.3s8.1,0.4,12.1,0.3s8.1-0.7,12.1-0.8s8.1,0.4,12.1,0.7c4,0.3,8.1,0.4,12.1,0.5s8.1,0.1,12.1,0
		c4-0.1,8.1-0.4,12.1-0.4c4,0,8.1,0.1,12.1,0.2c4,0.1,8.1,0,12.1,0.1c4,0.1,8.1,0.2,12.1,0.4s8.1,0.2,12.1-0.2
		c4-0.4,8.1-1.1,12.1-1.1c4,0,8.1,0.7,12.1-0.7c4-1.4,8.1-5,12.1-5.3c4-0.3,8.1,2.8,12.1,4.6c4,1.8,8.1,2.3,12.1,2.5
		c4,0.3,8.1,0.4,12.1,0.4c4,0,8.1,0,12.1-0.1c4,0,8.1-0.1,12.1-0.3s8.1-0.4,12.1-0.4c4,0.1,8.1,0.4,12.1,0.6s8.1,0.3,12.1,0.1
		c4-0.2,8.1-0.5,12.1-0.9c4-0.3,8.1-0.6,12.1-0.7s8.1-0.1,12.1,0.1c4,0.2,8.1,0.5,12.1,0.6s8.1,0.3,14.1,0.4
		c6,0.1,14.1,0.4,20.2,0.4c6,0.1,10.1,0.1,14.1-0.2s8.1-0.7,12.1-0.9c4-0.2,8.1-0.2,12.1-1.5c4-1.3,8.1-3.8,12.1-26.4
		c4-22.7,8.1-65.5,12.1-65.3S480,189,484,204.7s8.1,3.7,12.1-27s8.1-80.3,12.1-88.5c4-8.2,8.1,25,12.1,55.7s8.1,58.7,12.1,71.9
		c4,13.2,8.1,11.4,12.1,4.1s8.1-20.3,12.1-22.7c4-2.5,8.1,5.5,12.1,10.3s8.1,6.3,12.1,6.2c4-0.2,8.1-2,12.1-1.5
		c4,0.5,8.1,3.3,12.1,7.2c4,3.9,8.1,8.9,12.1,11.1c4,2.2,8.1,1.5,12.1-0.6c4-2,8.1-5.5,12.1-6.7c4-1.2,8.1-0.3,12.1-1.3
		c4-1,8.1-4,12.1-6.7c4-2.7,8.1-5.1,12.1-4.1c4,1,8.1,5.4,12.1,8.2c4,2.9,8.1,4.3,12.1,2.4s8.1-7.2,12.1-19.2
		c4-12,8.1-30.7,12.1-40.3c4-9.5,8.1-9.9,12.1-3.2c4,6.7,8.1,20.5,12.1,22.5s8.1-7.7,12.1-9s8.1,5.8,12.1,10.9
		c4,5.1,8.1,8.2,12.1,9.1c4,0.9,8.1-0.3,12.1-5.5c4-5.2,8.1-14.4,12.1-18.7s8.1-3.8,12.1-4.9s8.1-3.9,12.1-31.6
		c4-27.7,8.1-80.2,10.1-106.5L847,0v390.7l-2-33.3c-2-33.3-6-99.8-10.1-131.9c-4-32.1-8.1-29.7-12.1-30.2s-8.1-3.7-12.1,0.3
		s-8.1,15.4-12.1,22.3c-4,6.9-8.1,9.3-12.1,11.3c-4,1.9-8.1,3.3-12.1,5.2c-4,1.8-8.1,4-12.1,7.6s-8.1,8.6-12.1,6.8
		s-8.1-10.5-12.1-15c-4-4.6-8.1-5.1-12.1-5s-8.1,0.8-12.1,2.3c-4,1.5-8.1,3.8-12.1,5.6s-8.1,3.3-12.1,1.4s-8.1-7.1-12.1-7.3
		c-4-0.2-8.1,4.6-12.1,6.5c-4,1.9-8.1,1-12.1,2.6c-4,1.5-8.1,5.5-12.1,5.9c-4,0.5-8.1-2.5-12.1-4.2s-8.1-2.1-12.1-2.6
		c-4-0.4-8.1-0.8-12.1,0.1s-8.1,3.2-12.1,3.6c-4,0.4-8.1-1.1-12.1-3.4c-4-2.3-8.1-5.3-12.1-11.8c-4-6.5-8.1-16.5-12.1-15.4
		c-4,1.1-8.1,13.4-12.1,19.8s-8.1,6.9-12.1,6.5c-4-0.4-8.1-1.8-12.1,4.2s-8.1,19.6-12.1,21.2c-4,1.7-8.1-8.5-12.1-15.5
		c-4-7-8.1-10.7-12.1,2.9c-4,13.6-8.1,44.4-12.1,45.2s-8.1-28.5-12.1-43.2c-4-14.6-8.1-14.5-12.1-14.5c-4,0.1-8.1,0.1-12.1,0.3
		s-8.1,0.4-12.1,0.6c-4,0.1-8.1,0.1-14.1,0.1s-14.1-0.1-20.2-0.1c-6.1,0-10.1-0.1-14.1-0.1s-8.1-0.1-12.1,0.2c-4,0.3-8.1,1-12.1,1.2
		c-4,0.2-8.1-0.1-12.1-0.4c-4-0.3-8.1-0.5-12.1-0.7c-4-0.1-8.1-0.2-12.1-0.4c-4-0.2-8.1-0.6-12.1-0.6c-4,0-8.1,0.4-12.1,0.6
		s-8.1,0.2-12.1,0.2c-4,0-8.1,0.1-12.1,0c-4,0-8.1-0.1-12.1-0.4c-4-0.3-8.1-0.7-12.1-2.4s-8.1-4.7-12.1-4.4c-4,0.2-8.1,3.7-12.1,5.3
		c-4,1.6-8.1,1.4-12.1,1.4c-4,0-8.1,0.3-12.1,0.4c-4,0.1-8.1,0.1-12.1,0c-4-0.1-8.1-0.3-12.1-0.3c-4-0.1-8.1,0-12.1,0.2
		c-4,0.2-8.1,0.5-12.1,0.5c-4,0-8.1-0.3-12.1-0.5c-4-0.1-8.1-0.1-12.1-0.1c-4,0-8.1-0.1-12.1-0.1s-8.1,0.1-12.1,0.1
		c-4,0-8.1,0-12.1-0.2c-4-0.1-8.1-0.4-12.1-0.3c-4,0.1-8.1,0.5-12.1,0.7s-8.1,0.1-12.1-0.5s-8.1-1.8-12.1-1.8s-8.1,1.3-12.1,1.9
		c-4,0.6-8.1,0.6-12.1,0.6c-4,0-8.1,0-10.1,0L0,240z"/>
	<path class="st2" d="M0,240l2,0c2,0,6.1,0,10.1,0c4,0,8.1,0,12.1-0.6c4-0.6,8.1-1.9,12.1-1.9s8.1,1.1,12.1,1.8s8.1,0.7,12.1,0.5
		s8.1-0.6,12.1-0.7c4-0.1,8.1,0.2,12.1,0.3c4,0.1,8.1,0.2,12.1,0.2c4,0,8.1-0.1,12.1-0.1s8.1,0.1,12.1,0.1c4,0,8.1,0,12.1,0.1
		c4,0.1,8.1,0.5,12.1,0.5c4,0,8.1-0.3,12.1-0.5c4-0.2,8.1-0.2,12.1-0.2c4,0.1,8.1,0.2,12.1,0.3c4,0.1,8.1,0.1,12.1,0
		c4-0.1,8.1-0.4,12.1-0.4c4,0,8.1,0.2,12.1-1.4c4-1.6,8.1-5,12.1-5.3c4-0.2,8.1,2.7,12.1,4.4s8.1,2.1,12.1,2.4
		c4,0.3,8.1,0.4,12.1,0.4c4,0,8.1,0,12.1,0c4,0,8.1,0,12.1-0.2s8.1-0.6,12.1-0.6c4,0,8.1,0.4,12.1,0.6c4,0.2,8.1,0.3,12.1,0.4
		c4,0.1,8.1,0.4,12.1,0.7c4,0.3,8.1,0.6,12.1,0.4c4-0.2,8.1-0.9,12.1-1.2c4-0.3,8.1-0.3,12.1-0.2s8.1,0.1,14.1,0.1
		c6,0,14.1,0.1,20.2,0.1s10.1,0.1,14.1-0.1c4-0.1,8.1-0.4,12.1-0.6s8.1-0.2,12.1-0.3c4-0.1,8.1-0.1,12.1,14.5
		c4,14.6,8.1,43.9,12.1,43.2S480,265,484,251.4c4-13.6,8.1-9.8,12.1-2.9c4,7,8.1,17.2,12.1,15.5c4-1.7,8.1-15.2,12.1-21.2
		s8.1-4.7,12.1-4.2c4,0.4,8.1-0.1,12.1-6.5s8.1-18.6,12.1-19.8c4-1.1,8.1,8.9,12.1,15.4c4,6.5,8.1,9.5,12.1,11.8
		c4,2.3,8.1,3.7,12.1,3.4c4-0.4,8.1-2.6,12.1-3.6s8.1-0.5,12.1-0.1c4,0.4,8.1,0.9,12.1,2.6s8.1,4.7,12.1,4.2c4-0.5,8.1-4.4,12.1-5.9
		c4-1.5,8.1-0.6,12.1-2.6c4-1.9,8.1-6.7,12.1-6.5c4,0.2,8.1,5.4,12.1,7.3s8.1,0.4,12.1-1.4s8.1-4.2,12.1-5.6c4-1.5,8.1-2.2,12.1-2.3
		s8.1,0.4,12.1,5c4,4.6,8.1,13.2,12.1,15s8.1-3.2,12.1-6.8s8.1-5.8,12.1-7.6c4-1.8,8.1-3.2,12.1-5.2c4-1.9,8.1-4.4,12.1-11.3
		c4-6.9,8.1-18.3,12.1-22.3s8.1-0.8,12.1-0.3s8.1-1.9,12.1,30.2c4,32.1,8.1,98.7,10.1,131.9l2,33.3v30.2l-2-35.7
		c-2-35.7-6-107-10.1-140.5c-4-33.6-8.1-29.4-12.1-29.6s-8.1-4.8-12.1-1.5c-4,3.3-8.1,14.4-12.1,21.2c-4,6.8-8.1,9.2-12.1,11.3
		c-4,2.1-8.1,3.8-12.1,9.6c-4,5.8-8.1,15.8-12.1,18.1c-4,2.4-8.1-2.8-12.1-2s-8.1,7.6-12.1,8c-4,0.4-8.1-5.6-12.1-9.7
		c-4-4-8.1-6.1-12.1-9.5c-4-3.4-8.1-8-12.1-10.2s-8.1-2-12.1-3.4s-8.1-4.4-12.1-4.1c-4,0.3-8.1,4.1-12.1,4.7s-8.1-1.7-12.1-1.6
		c-4,0.1-8.1,2.7-12.1,3c-4,0.2-8.1-1.9-12.1-3.4c-4-1.5-8.1-2.3-12.1-2.1c-4,0.1-8.1,1.1-12.1,3.5s-8.1,6-12.1,6.8
		c-4,0.8-8.1-1.2-12.1-3.3c-4-2.1-8.1-4.2-12.1-8.9s-8.1-11.9-12.1-11.8c-4,0.1-8.1,7.3-12.1,11.2c-4,3.8-8.1,4.3-12.1,13.6
		c-4,9.3-8.1,27.6-12.1,45.3s-8.1,35-12.1,29.8c-4-5.2-8.1-32.8-12.1-51.2s-8.1-27.6-12.1-13.8s-8.1,50.6-12.1,50.8
		s-8.1-36.4-12.1-55.2c-4-18.8-8.1-19.8-12.1-20c-4-0.3-8.1,0.2-12.1,0.3c-4,0.1-8.1-0.3-12.1-0.4s-8.1-0.2-14.1-0.2
		c-6,0-14.1,0-20.2,0c-6.1,0-10.1-0.1-14.1-0.2s-8.1-0.1-12.1,0.3c-4,0.3-8.1,1.1-12.1,1.3s-8.1,0-12.1-0.3c-4-0.3-8.1-0.7-12.1-0.9
		c-4-0.2-8.1-0.2-12.1-0.4c-4-0.2-8.1-0.6-12.1-0.5s-8.1,0.5-12.1,0.7s-8.1,0.1-12.1,0.1c-4,0-8.1,0-12.1,0c-4,0-8.1-0.1-12.1,0.1
		c-4,0.2-8.1,0.6-12.1-0.3c-4-1-8.1-3.3-12.1-3.5c-4-0.2-8.1,1.8-12.1,2.7c-4,0.9-8.1,0.7-12.1,0.7c-4,0-8.1,0.2-12.1,0.3
		c-4,0.1-8.1,0.1-12.1,0c-4-0.1-8.1-0.2-12.1-0.2c-4,0-8.1,0-12.1,0.3c-4,0.2-8.1,0.7-12.1,0.7c-4,0.1-8.1-0.2-12.1-0.4
		c-4-0.2-8.1-0.3-12.1-0.3c-4,0-8.1,0.1-12.1,0.1s-8.1,0.1-12.1,0.1c-4,0-8.1-0.2-12.1-0.3s-8.1,0-12.1,0c-4,0.1-8.1,0.2-12.1,0.2
		c-4,0.1-8.1,0.1-12.1,0.3s-8.1,0.5-12.1,0.4s-8.1-0.4-12.1-0.6s-8.1-0.2-12.1-0.2S4,240,2,240L0,240z"/>
	<path class="st3" d="M0,240l2,0c2,0,6.1,0,10.1,0s8.1,0,12.1,0.2s8.1,0.6,12.1,0.6s8.1-0.3,12.1-0.4s8.1-0.2,12.1-0.3
		c4-0.1,8.1-0.2,12.1-0.2c4-0.1,8.1-0.1,12.1,0s8.1,0.2,12.1,0.3c4,0,8.1,0,12.1-0.1S117,240,121,240c4,0,8.1,0.1,12.1,0.3
		c4,0.2,8.1,0.5,12.1,0.4c4-0.1,8.1-0.5,12.1-0.7c4-0.2,8.1-0.3,12.1-0.3c4,0,8.1,0.2,12.1,0.2c4,0.1,8.1,0.1,12.1,0
		c4-0.1,8.1-0.3,12.1-0.3c4,0,8.1,0.2,12.1-0.7c4-0.9,8.1-2.9,12.1-2.7c4,0.2,8.1,2.6,12.1,3.5c4,1,8.1,0.5,12.1,0.3
		c4-0.2,8.1-0.1,12.1-0.1c4,0,8.1,0,12.1,0c4,0,8.1,0.1,12.1-0.1s8.1-0.6,12.1-0.7s8.1,0.3,12.1,0.5c4,0.2,8.1,0.2,12.1,0.4
		c4,0.2,8.1,0.5,12.1,0.9c4,0.3,8.1,0.6,12.1,0.3s8.1-0.9,12.1-1.3c4-0.3,8.1-0.3,12.1-0.3s8.1,0.2,14.1,0.2c6,0,14.1,0,20.2,0
		c6,0,10.1,0,14.1,0.2s8.1,0.5,12.1,0.4c4-0.1,8.1-0.6,12.1-0.3c4,0.3,8.1,1.3,12.1,20c4,18.8,8.1,55.3,12.1,55.2
		s8.1-36.9,12.1-50.8s8.1-4.6,12.1,13.8s8.1,46,12.1,51.2c4,5.2,8.1-12,12.1-29.8s8.1-36,12.1-45.3c4-9.3,8.1-9.7,12.1-13.6
		c4-3.8,8.1-11.1,12.1-11.2c4-0.1,8.1,7.1,12.1,11.8s8.1,6.8,12.1,8.9c4,2.1,8.1,4.1,12.1,3.3c4-0.8,8.1-4.5,12.1-6.8
		s8.1-3.4,12.1-3.5c4-0.1,8.1,0.7,12.1,2.1c4,1.5,8.1,3.6,12.1,3.4c4-0.2,8.1-2.9,12.1-3c4-0.1,8.1,2.3,12.1,1.6s8.1-4.4,12.1-4.7
		c4-0.3,8.1,2.7,12.1,4.1s8.1,1.2,12.1,3.4s8.1,6.9,12.1,10.2c4,3.4,8.1,5.4,12.1,9.5c4,4,8.1,10.1,12.1,9.7c4-0.4,8.1-7.2,12.1-8
		s8.1,4.4,12.1,2c4-2.4,8.1-12.3,12.1-18.1c4-5.8,8.1-7.5,12.1-9.6c4-2.1,8.1-4.5,12.1-11.3c4-6.8,8.1-17.9,12.1-21.2
		c4-3.3,8.1,1.3,12.1,1.5s8.1-4,12.1,29.6c4,33.6,8.1,104.9,10.1,140.5l2,35.7V480l-2-26.3c-2-26.3-6-78.8-10.1-106.5
		c-4-27.7-8.1-30.5-12.1-31.6c-4-1.1-8.1-0.6-12.1-4.9c-4-4.3-8.1-13.5-12.1-18.7c-4-5.2-8.1-6.4-12.1-5.5c-4,0.9-8.1,4-12.1,9.1
		c-4,5.1-8.1,12.2-12.1,10.9c-4-1.3-8.1-11-12.1-9c-4,2-8.1,15.8-12.1,22.5c-4,6.7-8.1,6.4-12.1-3.2c-4-9.5-8.1-28.3-12.1-40.3
		c-4-12-8.1-17.2-12.1-19.2s-8.1-0.5-12.1,2.4c-4,2.9-8.1,7.3-12.1,8.2c-4,1-8.1-1.4-12.1-4.1s-8.1-5.7-12.1-6.7
		c-4-1-8.1,0-12.1-1.3s-8.1-4.7-12.1-6.7c-4-2-8.1-2.7-12.1-0.6c-4,2.2-8.1,7.2-12.1,11.1c-4,3.9-8.1,6.7-12.1,7.2
		c-4,0.5-8.1-1.4-12.1-1.5s-8.1,1.4-12.1,6.2c-4,4.8-8.1,12.8-12.1,10.3c-4-2.5-8.1-15.4-12.1-22.7c-4-7.3-8.1-9.1-12.1,4.1
		c-4,13.2-8.1,41.2-12.1,71.9s-8.1,63.8-12.1,55.7c-4-8.2-8.1-57.8-12.1-88.5s-8.1-42.7-12.1-27c-4,15.7-8.1,59-12.1,59.3
		s-8.1-42.6-12.1-65.3c-4-22.7-8.1-25.2-12.1-26.4c-4-1.3-8.1-1.2-12.1-1.5c-4-0.2-8.1-0.7-12.1-0.9s-8.1-0.3-14.1-0.2
		c-6,0.1-14.1,0.3-20.2,0.4c-6.1,0.1-10.1,0.2-14.1,0.4s-8.1,0.5-12.1,0.6c-4,0.2-8.1,0.2-12.1,0.1s-8.1-0.4-12.1-0.7
		c-4-0.3-8.1-0.7-12.1-0.9c-4-0.2-8.1-0.1-12.1,0.1s-8.1,0.6-12.1,0.6c-4,0.1-8.1-0.2-12.1-0.4s-8.1-0.2-12.1-0.3
		c-4,0-8.1-0.1-12.1-0.1c-4,0-8.1,0.1-12.1,0.4c-4,0.3-8.1,0.8-12.1,2.5c-4,1.8-8.1,4.8-12.1,4.6c-4-0.3-8.1-3.9-12.1-5.3
		c-4-1.4-8.1-0.7-12.1-0.7c-4,0-8.1-0.8-12.1-1.1c-4-0.4-8.1-0.3-12.1-0.2s-8.1,0.3-12.1,0.4c-4,0.1-8.1,0-12.1,0.1
		c-4,0.1-8.1,0.2-12.1,0.2c-4,0-8.1-0.3-12.1-0.4c-4-0.1-8.1-0.1-12.1,0s-8.1,0.2-12.1,0.5c-4,0.3-8.1,0.7-12.1,0.7
		s-8.1-0.6-12.1-0.8s-8.1,0.1-12.1,0.3s-8.1,0.3-12.1,0.3c-4,0-8.1-0.2-12.1,0.4c-4,0.6-8.1,2.1-12.1,2s-8.1-2-12.1-2.9
		s-8.1-0.9-12.1-1S4,240,2,240L0,240z"/>
	<g transform="translate(0,480)">
		<path class="st4" d="M0.5,6V0.5h847V6"/>
		<g transform="translate(63.520833333333336,0)">
			<line class="st4" x1="0" y1="0" x2="0" y2="6"/>
			<text transform="matrix(1 0 0 1 -15.0122 16.1)" class="st5 st6">Jan 26</text>
		</g>
		<g transform="translate(148.22083333333333,0)">
			<line class="st4" x1="0" y1="0" x2="0" y2="6"/>
			<text transform="matrix(1 0 0 1 -15.5664 16.1)" class="st5 st6">Feb 02</text>
		</g>
		<g transform="translate(232.92083333333335,0)">
			<line class="st4" x1="0" y1="0" x2="0" y2="6"/>
			<text transform="matrix(1 0 0 1 -15.5664 16.1)" class="st5 st6">Feb 09</text>
		</g>
		<g transform="translate(317.62083333333334,0)">
			<line class="st4" x1="0" y1="0" x2="0" y2="6"/>
			<text transform="matrix(1 0 0 1 -15.5664 16.1)" class="st5 st6">Feb 16</text>
		</g>
		<g transform="translate(402.3208333333333,0)">
			<line class="st4" x1="0" y1="0" x2="0" y2="6"/>
			<text transform="matrix(1 0 0 1 -15.5664 16.1)" class="st5 st6">Feb 23</text>
		</g>
		<g transform="translate(487.0208333333333,0)">
			<line class="st4" x1="0" y1="0" x2="0" y2="6"/>
			<text transform="matrix(1 0 0 1 -13.8916 16.1)" class="st5 st6">March</text>
		</g>
		<g transform="translate(571.7208333333334,0)">
			<line class="st4" x1="0" y1="0" x2="0" y2="6"/>
			<text transform="matrix(1 0 0 1 -15.5615 16.1)" class="st5 st6">Mar 08</text>
		</g>
		<g transform="translate(655.9166666666667,0)">
			<line class="st4" x1="0" y1="0" x2="0" y2="6"/>
			<text transform="matrix(1 0 0 1 -15.5615 16.1)" class="st5 st6">Mar 15</text>
		</g>
		<g transform="translate(740.6166666666667,0)">
			<line class="st4" x1="0" y1="0" x2="0" y2="6"/>
			<text transform="matrix(1 0 0 1 -15.5615 16.1)" class="st5 st6">Mar 22</text>
		</g>
		<g transform="translate(825.3166666666666,0)">
			<line class="st4" x1="0" y1="0" x2="0" y2="6"/>
			<text transform="matrix(1 0 0 1 -15.5615 16.1)" class="st5 st6">Mar 29</text>
		</g>
	</g>
</g>
<rect x="326.5" y="48.7" class="st7" width="137.5" height="108.5"/>
<text transform="matrix(1 0 0 1 397.9572 57.2524)"><tspan x="0" y="0" class="st8 st9 st10">February 29</tspan><tspan x="-51.5" y="12" class="st11 st6">Cuomo works with VPOTUS </tspan><tspan x="-60.1" y="24" class="st11 st6">Mike Pence to obtain approval </tspan><tspan x="-62.5" y="36" class="st11 st6">for NY labs to create their own, </tspan><tspan x="-41.6" y="48" class="st11 st6">non-CDC tests in order to </tspan><tspan x="-46.8" y="60" class="st11 st6">increase testing speed and </tspan><tspan x="28.6" y="72" class="st11 st6">capacity.</tspan></text>
<rect x="521.1" y="46.3" class="st7" width="123.8" height="108.5"/>
<text transform="matrix(1 0 0 1 521.147 54.827)"><tspan x="0" y="0" class="st8 st9 st10">March 03</tspan><tspan x="0" y="12" class="st11 st6">Cuomo directs NY insurers to </tspan><tspan x="0" y="24" class="st11 st6">waive all co-pays for corona</tspan><tspan x="116.2" y="24" class="st11 st6">-</tspan><tspan x="0" y="36" class="st11 st6">virus testing and treatment as </tspan><tspan x="0" y="48" class="st11 st6">the state reports its first </tspan><tspan x="0" y="60" class="st11 st6">community-transmitted case.</tspan></text>
<rect x="693.1" y="329.6" class="st7" width="110.9" height="108.5"/>
<text transform="matrix(1 0 0 1 752.1232 338.167)"><tspan x="0" y="0" class="st12 st9 st10">March 28</tspan><tspan x="-48.4" y="12" class="st11 st6">Cuomo clashes with NY </tspan><tspan x="-35.8" y="24" class="st11 st6">lawmakers over state </tspan><tspan x="-56.3" y="36" class="st11 st6">budget. He is criticized for </tspan><tspan x="-54.9" y="48" class="st11 st6">advocating Medicaid cuts </tspan><tspan x="-52.4" y="60" class="st11 st6">during the pandemic and </tspan><tspan x="-47.7" y="72" class="st11 st6">opposing increasing the </tspan><tspan x="-45.1" y="84" class="st11 st6">marginal tax rate on the </tspan><tspan x="-34.3" y="96" class="st11 st6">richest New Yorkers.</tspan></text>
<rect x="693.1" y="24.5" class="st7" width="137.5" height="108.5"/>
<text transform="matrix(1 0 0 1 778.7639 33.117)"><tspan x="0" y="0" class="st8 st9 st10">March 31</tspan><tspan x="-78.3" y="12" class="st11 st6">Cuomo’s brother, popular CNN </tspan><tspan x="-47" y="24" class="st11 st6">anchor Chris Cuomo, is </tspan><tspan x="-78.1" y="36" class="st11 st6">diagnosed with COVID-19. The </tspan><tspan x="-81.8" y="48" class="st11 st6">family receives an outpourting of </tspan><tspan x="-26" y="60" class="st11 st6">support on Twitter.</tspan></text>
<rect x="560.3" y="297.1" class="st7" width="123.8" height="108.5"/>
<text transform="matrix(1 0 0 1 560.2542 305.7086)"><tspan x="0" y="0" class="st12 st9 st10">March 03</tspan><tspan x="0" y="12" class="st11 st6">Cuomo declares a state of </tspan><tspan x="0" y="24" class="st11 st6">emergency as NY’s </tspan><tspan x="0" y="36" class="st11 st6">COVID-19 caseload rises to </tspan><tspan x="0" y="48" class="st11 st6">89.</tspan></text>
</svg>
