<?xml version="1.0" encoding="utf-8"?>
<!-- Generator: Adobe Illustrator 24.0.3, SVG Export Plug-In . SVG Version: 6.00 Build 0)  -->
<svg version="1.1" id="Layer_1" xmlns="http://www.w3.org/2000/svg" xmlns:xlink="http://www.w3.org/1999/xlink" x="0px" y="0px"
	 viewBox="0 0 847 500" style="enable-background:new 0 0 847 500;" xml:space="preserve">
<style type="text/css">
	.st0{fill:none;stroke:#000000;stroke-width:0.5;stroke-miterlimit:10;}
	.st1{fill:#74DB63;}
	.st2{fill:#C7C7C7;}
	.st3{fill:#C42F2F;}
	.st4{fill:none;}
	.st5{fill:#C30005;}
	.st6{font-family:'HelveticaNeue-Medium';}
	.st7{font-size:12px;}
	.st8{font-family:'HelveticaNeue-Thin';}
	.st9{font-size:10px;}
	.st10{fill:#05AA21;}
	.st11{font-family:'HelveticaNeue';}
</style>
<line class="st0" x1="511.1" y1="283.9" x2="511.1" y2="408.8"/>
<line class="st0" x1="829.8" y1="261.2" x2="829.8" y2="333.5"/>
<line class="st0" x1="471.7" y1="363.1" x2="471.7" y2="447.4"/>
<line class="st0" x1="115.2" y1="30.9" x2="115.2" y2="207.4"/>
<line class="st0" x1="63.5" y1="238.4" x2="63.5" y2="344.5"/>
<g id="trump">
	<path id="positive" class="st1" d="M0,238.4h2c2,0,6.1-0.1,10.1-0.2c4-0.1,8.1-0.2,12.1-0.7s8.1-1.4,12.1-1.9s8.1-0.7,12.1-1.8
		s8.1-3.2,12.1-3.8c4-0.5,8.1,0.5,12.1,1s8.1,0.6,12.1-0.3c4-0.9,8.1-2.9,12.1-5.4s8.1-5.6,12.1-7.6s8.1-2.9,12.1-0.8
		s8.1,7.2,12.1,10.3c4,3.2,8.1,4.4,12.1,4.7s8.1-0.3,12.1-0.9c4-0.6,8.1-1.2,12.1-1.3c4,0,8.1,0.5,12.1,0.9s8.1,0.7,12.1,0
		c4-0.8,8.1-2.6,12.1-2.1s8.1,3.4,12.1,4.9s8.1,1.6,12.1,0s8.1-4.9,12.1-5.8c4-0.9,8.1,0.7,12.1,2.4c4,1.7,8.1,3.4,12.1,4
		c4,0.5,8.1-0.1,12.1-0.3s8.1,0.1,12.1,0.4c4,0.3,8.1,0.6,12.1,0.6s8.1-0.4,12.1-0.6s8.1-0.2,12.1-0.3s8.1-0.2,12.1-0.1
		c4,0.1,8.1,0.3,12.1,0.2s8.1-0.8,12.1-2.5s8.1-4.6,12.1-5s8.1,1.7,14.1,0.6c6-1,14.1-5.2,20.2-8.8c6-3.6,10.1-6.7,14.1-9.2
		s8.1-4.5,12.1-9s8.1-11.7,12.1-26.6c4-14.9,8.1-37.5,12.1-67.7s8.1-68,12.1-62.1s8.1,55.3,12.1,91.2s8.1,58.3,12.1,54
		s8.1-35.4,12.1-44.3c4-8.8,8.1,4.6,12.1,21.2s8.1,36.4,12.1,44.8c4,8.4,8.1,5.5,12.1,5.6s8.1,3.3,12.1,3.1s8.1-3.6,12.1-4.2
		s8.1,1.8,12.1,3s8.1,1.2,12.1,2.2c4,1.1,8.1,3.2,12.1,3.4s8.1-1.4,12.1-2.4s8.1-1.2,12.1-0.6s8.1,2.2,12.1,3.7s8.1,2.9,12.1,3.4
		s8.1,0,12.1-1.3s8.1-3.3,12.1-2.9c4,0.4,8.1,3.4,12.1,5c4,1.7,8.1,2.1,12.1,1.8s8.1-1.3,12.1-3c4-1.8,8.1-4.3,12.1-4.6
		c4-0.4,8.1,1.4,12.1,3s8.1,3,12.1,3.7s8.1,0.7,12.1,0.5c4-0.3,8.1-0.8,12.1-1.8c4-0.9,8.1-2.2,12.1-2.5s8.1,0.3,12.1,0.4
		c4,0.2,8.1-0.1,12.1,0.3c4,0.4,8.1,1.5,12.1-0.6s8.1-7.4,12.1-8.5c4-1,8.1,2.3,10.1,4l2,1.7v8.2l-2-1.2c-2-1.2-6-3.6-10.1-2.9
		c-4,0.7-8.1,4.6-12.1,6.9c-4,2.2-8.1,2.8-12.1,2.5s-8.1-1.2-12.1-1.2c-4,0.1-8.1,1.3-12.1,1.4c-4,0.2-8.1-0.7-12.1-0.8
		s-8.1,0.7-12.1,1s-8.1,0.3-12.1-0.4s-8.1-2-12.1-2.1s-8.1,1-12.1,1.4s-8.1,0-12.1-0.2c-4-0.1-8.1,0-12.1-0.3s-8.1-1-12.1-2.1
		s-8.1-2.6-12.1-3.2c-4-0.6-8.1-0.4-12.1,0.6s-8.1,2.7-12.1,3.6c-4,0.9-8.1,0.9-12.1,0.4s-8.1-1.4-12.1-1.4s-8.1,0.9-12.1,1.4
		s-8.1,0.7-12.1-0.2s-8.1-2.8-12.1-3.7c-4-0.8-8.1-0.6-12.1-0.9c-4-0.3-8.1-1.2-12.1-0.8s-8.1,1.9-12.1,2.2c-4,0.2-8.1-0.9-12.1-1.1
		c-4-0.2-8.1,0.6-12.1-1.7s-8.1-7.7-12.1-10.9s-8.1-4.2-12.1-2.8c-4,1.4-8.1,5.2-12.1,2.5s-8.1-11.9-12.1-26.7s-8.1-35.3-12.1-34.5
		s-8.1,22.8-12.1,34.9c-4,12.2-8.1,14.5-12.1,17.1s-8.1,5.4-12.1,7.4s-8.1,3-12.1,3.9s-8.1,1.6-14.1,4s-14.1,6.3-20.2,7.4
		c-6.1,1.1-10.1-0.7-14.1-0.4c-4,0.4-8.1,3-12.1,4.4s-8.1,1.6-12.1,1.6s-8.1-0.1-12.1-0.1s-8.1,0-12.1,0c-4,0.1-8.1,0.1-12.1,0.2
		c-4,0.1-8.1,0.2-12.1,0.3s-8.1,0.1-12.1,0.2c-4,0.1-8.1,0.1-12.1,0.1c-4-0.1-8.1-0.3-12.1-0.8s-8.1-1.1-12.1-1.8
		c-4-0.6-8.1-1.2-12.1-0.8s-8.1,1.7-12.1,2.2c-4,0.6-8.1,0.4-12.1,0.5s-8.1,0.6-12.1,0.2c-4-0.4-8.1-1.6-12.1-2.1s-8.1-0.4-12.1-0.3
		c-4,0.1-8.1,0.3-12.1,0.4c-4,0.1-8.1,0.2-12.1,0.2s-8.1-0.1-12.1-0.1s-8.1,0.1-12.1,0.4c-4,0.3-8.1,0.7-12.1,0.6
		c-4-0.1-8.1-0.7-12.1-1.1s-8.1-0.7-12.1-0.7s-8.1,0.2-12.1,0.1c-4,0-8.1-0.4-12.1-1.1c-4-0.8-8.1-2-12.1-1.4s-8.1,3-12.1,4.4
		c-4,1.3-8.1,1.6-12.1,1.8s-8.1,0.2-12.1,0.2c-4,0.1-8.1,0.1-12.1,0.2S4,238.3,2,238.4H0L0,238.4z"/>
	<path id="neutral" class="st2" d="M0,238.4h2c2,0,6.1-0.1,10.1-0.1s8.1-0.1,12.1-0.2c4-0.1,8.1-0.1,12.1-0.2s8.1-0.4,12.1-1.8
		c4-1.3,8.1-3.8,12.1-4.4s8.1,0.6,12.1,1.4c4,0.8,8.1,1.1,12.1,1.1s8.1-0.2,12.1-0.1s8.1,0.3,12.1,0.7s8.1,1,12.1,1.1
		s8.1-0.4,12.1-0.6c4-0.3,8.1-0.4,12.1-0.4s8.1,0.1,12.1,0.1s8.1-0.1,12.1-0.2c4-0.1,8.1-0.3,12.1-0.4c4-0.1,8.1-0.3,12.1,0.3
		c4,0.5,8.1,1.7,12.1,2.1c4,0.4,8.1-0.1,12.1-0.2c4-0.1,8.1,0.1,12.1-0.5s8.1-1.9,12.1-2.2s8.1,0.2,12.1,0.8c4,0.6,8.1,1.3,12.1,1.8
		s8.1,0.7,12.1,0.8s8.1,0,12.1-0.1s8.1-0.1,12.1-0.2s8.1-0.2,12.1-0.3s8.1-0.2,12.1-0.2c4-0.1,8.1-0.1,12.1,0c4,0,8.1,0.2,12.1,0.1
		s8.1-0.2,12.1-1.6c4-1.4,8.1-4,12.1-4.4s8.1,1.4,14.1,0.4c6-1.1,14.1-5.1,20.2-7.4c6-2.4,10.1-3.1,14.1-4s8.1-2,12.1-3.9
		c4-2,8.1-4.8,12.1-7.4c4-2.6,8.1-4.9,12.1-17.1c4-12.2,8.1-34.2,12.1-34.9S480,176,484,190.8s8.1,24,12.1,26.7s8.1-1.1,12.1-2.5
		s8.1-0.4,12.1,2.8s8.1,8.6,12.1,10.9c4,2.3,8.1,1.5,12.1,1.7s8.1,1.3,12.1,1.1s8.1-1.8,12.1-2.2s8.1,0.5,12.1,0.8s8.1,0,12.1,0.9
		c4,0.8,8.1,2.8,12.1,3.7s8.1,0.7,12.1,0.2s8.1-1.4,12.1-1.4s8.1,1,12.1,1.4s8.1,0.4,12.1-0.4c4-0.9,8.1-2.6,12.1-3.6
		s8.1-1.2,12.1-0.6c4,0.6,8.1,2.1,12.1,3.2c4,1.1,8.1,1.8,12.1,2.1s8.1,0.2,12.1,0.3s8.1,0.5,12.1,0.2c4-0.4,8.1-1.5,12.1-1.4
		s8.1,1.4,12.1,2.1s8.1,0.7,12.1,0.4s8.1-1.1,12.1-1s8.1,0.9,12.1,0.8c4-0.2,8.1-1.3,12.1-1.4c4-0.1,8.1,0.9,12.1,1.2
		s8.1-0.3,12.1-2.5s8.1-6.1,12.1-6.9c4-0.7,8.1,1.7,10.1,2.9l2,1.2v3.7l-2-1.4c-2-1.4-6-4.2-10.1-3.4c-4,0.8-8.1,5.1-12.1,7.4
		c-4,2.3-8.1,2.7-12.1,2.6s-8.1-0.7-12.1-0.6c-4,0.1-8.1,0.9-12.1,1.1s-8.1-0.3-12.1-0.5c-4-0.1-8.1,0.1-12.1,0.1s-8.1-0.3-12.1-1
		s-8.1-2-12.1-1.7s-8.1,2.2-12.1,3s-8.1,0.4-12.1-0.1c-4-0.4-8.1-0.9-12.1-1.5c-4-0.7-8.1-1.5-12.1-1.7s-8.1,0.2-12.1,0.9
		c-4,0.6-8.1,1.5-12.1,1.6s-8.1-0.5-12.1-0.7s-8.1-0.1-12.1-0.2c-4,0-8.1-0.3-12.1,0c-4,0.2-8.1,0.9-12.1,1s-8.1-0.5-12.1-1.2
		s-8.1-1.4-12.1-2s-8.1-1-12.1-0.5s-8.1,1.7-12.1,1.9s-8.1-0.7-12.1-0.9c-4-0.1-8.1,0.6-12.1,0.6c-4,0.1-8.1-0.5-12.1-1
		c-4-0.4-8.1-0.8-12.1-0.6s-8.1,0.8-12.1-0.2c-4-1-8.1-3.6-12.1-6.5c-4-3-8.1-6.3-12.1-14.2s-8.1-20.3-12.1-19.4
		c-4,0.8-8.1,15-12.1,21s-8.1,4-12.1,5s-8.1,5-12.1,5.9s-8.1-1.5-12.1-2.4c-4-1-8.1-0.7-14.1,1.3s-14.1,5.5-20.2,6.9
		s-10.1,0.8-14.1,1.1s-8.1,1.5-12.1,2.2s-8.1,0.9-12.1,1s-8.1,0.1-12.1,0.1s-8.1,0.1-12.1,0c-4,0-8.1-0.2-12.1-0.2s-8.1,0-12.1,0
		s-8.1,0.1-12.1,0.2s-8.1,0.3-12.1,0.2s-8.1-0.4-12.1-0.7s-8.1-0.5-12.1-0.8s-8.1-0.7-12.1-0.5c-4,0.1-8.1,0.8-12.1,1.1
		s-8.1,0.4-12.1,0.7s-8.1,0.7-12.1,0.3s-8.1-1.8-12.1-2.4c-4-0.6-8.1-0.4-12.1-0.1c-4,0.4-8.1,0.9-12.1,0.9s-8.1-0.4-12.1-0.7
		s-8.1-0.4-12.1-0.4s-8.1,0.2-12.1,1.1c-4,0.9-8.1,2.5-12.1,3.4c-4,1-8.1,1.3-12.1,0.9s-8.1-1.7-12.1-2.6s-8.1-1.3-12.1-1.8
		s-8.1-1-12.1-1.9s-8.1-2.5-12.1-2s-8.1,3-12.1,4.4s-8.1,1.6-12.1,1.6s-8.1-0.2-12.1-0.2c-4-0.1-8.1,0-12.1,0S4,238.8,2,238.8
		L0,238.4L0,238.4z"/>
	<path id="negative" class="st3" d="M0,238.4h2c2,0,6.1,0,10.1-0.1c4,0,8.1-0.1,12.1,0s8.1,0.2,12.1,0.2s8.1-0.2,12.1-1.6
		c4-1.4,8.1-3.9,12.1-4.4s8.1,1,12.1,2s8.1,1.5,12.1,1.9c4,0.5,8.1,0.9,12.1,1.8s8.1,2.1,12.1,2.6s8.1,0.1,12.1-0.9
		s8.1-2.6,12.1-3.4c4-0.9,8.1-1.1,12.1-1.1s8.1,0.1,12.1,0.4c4,0.3,8.1,0.8,12.1,0.7c4,0,8.1-0.6,12.1-0.9c4-0.4,8.1-0.5,12.1,0.1
		s8.1,2,12.1,2.4s8.1,0,12.1-0.3s8.1-0.3,12.1-0.7c4-0.3,8.1-1,12.1-1.1s8.1,0.2,12.1,0.5c4,0.3,8.1,0.5,12.1,0.8s8.1,0.6,12.1,0.7
		c4,0.1,8.1-0.1,12.1-0.2s8.1-0.2,12.1-0.2s8.1-0.1,12.1,0s8.1,0.2,12.1,0.2s8.1,0,12.1,0s8.1,0,12.1-0.1s8.1-0.3,12.1-1
		s8.1-1.9,12.1-2.2s8.1,0.4,14.1-1.1c6-1.4,14.1-5,20.2-6.9s10.1-2.3,14.1-1.3s8.1,3.3,12.1,2.4s8.1-4.9,12.1-5.9s8.1,1.1,12.1-5
		c4-6,8.1-20.1,12.1-21c4-0.8,8.1,11.6,12.1,19.4s8.1,11.2,12.1,14.2s8.1,5.5,12.1,6.5c4,1,8.1,0.3,12.1,0.2s8.1,0.1,12.1,0.6
		c4,0.4,8.1,1,12.1,1c4-0.1,8.1-0.7,12.1-0.6c4,0.1,8.1,1,12.1,0.9s8.1-1.4,12.1-1.9s8.1,0,12.1,0.5c4,0.6,8.1,1.3,12.1,2
		s8.1,1.2,12.1,1.2c4-0.1,8.1-0.8,12.1-1s8.1,0,12.1,0s8.1-0.1,12.1,0.2c4,0.2,8.1,0.9,12.1,0.7c4-0.1,8.1-1,12.1-1.6
		s8.1-1.1,12.1-0.9c4,0.2,8.1,1.1,12.1,1.7c4,0.7,8.1,1.1,12.1,1.5s8.1,0.8,12.1,0.1c4-0.8,8.1-2.6,12.1-3c4-0.3,8.1,0.9,12.1,1.7
		s8.1,1,12.1,1s8.1-0.2,12.1-0.1c4,0.1,8.1,0.6,12.1,0.5s8.1-0.9,12.1-1.1c4-0.1,8.1,0.5,12.1,0.6s8.1-0.2,12.1-2.6
		c4-2.3,8.1-6.7,12.1-7.4c4-0.8,8.1,2,10.1,3.4l2,1.4v13.8l-2,3.8c-2,3.8-6,11.4-10.1,11.6c-4,0.3-8.1-6.8-12.1-10.5
		s-8.1-4.1-12.1-3.1s-8.1,3.1-12.1,3.4c-4,0.3-8.1-1.3-12.1-1.9s-8.1-0.2-12.1-0.6c-4-0.4-8.1-1.7-12.1-2.1s-8.1,0.1-12.1,2.1
		c-4,2.1-8.1,5.8-12.1,6.6c-4,0.8-8.1-1.2-12.1-3.1s-8.1-3.8-12.1-4.8s-8.1-1.3-12.1-0.4s-8.1,2.8-12.1,4.1s-8.1,1.9-12.1,1.1
		c-4-0.8-8.1-3.2-12.1-5s-8.1-3.1-12.1-3.2c-4-0.1-8.1,0.9-12.1,3.1c-4,2.2-8.1,5.6-12.1,6.3s-8.1-1.1-12.1-2.7
		c-4-1.6-8.1-3-12.1-0.9c-4,2-8.1,7.5-12.1,10.3c-4,2.9-8.1,3.2-12.1,3.3c-4,0.1-8.1,0-12.1-1.3c-4-1.2-8.1-3.5-12.1-4.1
		c-4-0.5-8.1,0.8-12.1,0.4c-4-0.3-8.1-2.3-12.1,3.6s-8.1,19.7-12.1,32.4s-8.1,24.4-12.1,15c-4-9.5-8.1-40.1-12.1-39.3
		c-4,0.8-8.1,32.9-12.1,72.6s-8.1,87.1-12.1,87.2s-8.1-46.8-12.1-79c-4-32.1-8.1-49.3-12.1-62.4s-8.1-22.1-12.1-25.9
		s-8.1-2.3-12.1-2.3s-8.1-1.5-14.1-4.8s-14.1-8.5-20.2-9.7s-10.1,1.4-14.1,1s-8.1-3.9-12.1-6.1s-8.1-3-12.1-3.2s-8.1,0.3-12.1,0.5
		c-4,0.1-8.1,0-12.1-0.1s-8.1,0-12.1-0.2s-8.1-0.6-12.1-0.8c-4-0.1-8.1,0-12.1,0.1s-8.1,0.2-12.1,0.1c-4-0.1-8.1-0.3-12.1,0.6
		c-4,0.9-8.1,2.8-12.1,4.6s-8.1,3.6-12.1,2.7c-4-0.8-8.1-4.2-12.1-5.8s-8.1-1.5-12.1-1.3s-8.1,0.4-12.1,0.6c-4,0.2-8.1,0.2-12.1,0.2
		c-4-0.1-8.1-0.2-12.1-0.5s-8.1-0.7-12.1-1.2s-8.1-1-12.1-1.5s-8.1-1-12.1-0.8s-8.1,1-12.1,4s-8.1,8.2-12.1,10.4s-8.1,1.5-12.1-0.1
		s-8.1-3.9-12.1-5.9s-8.1-3.5-12.1-3.8s-8.1,0.8-12.1,2.5s-8.1,4.2-12.1,4s-8.1-3.2-12.1-5s-8.1-2.3-12.1-2.9s-8.1-1.4-12.1-1.9
		s-8.1-0.5-12.1-0.6S4,238.4,2,238.4H0z"/>
</g>
<rect x="68" y="261.2" class="st4" width="129.3" height="112.2"/>
<text transform="matrix(1 0 0 1 68.0047 269.7755)"><tspan x="0" y="0" class="st5 st6 st7">January 26</tspan><tspan x="0" y="12" class="st8 st9">Senate Minority Leader Chuck </tspan><tspan x="0" y="24" class="st8 st9">Schumer and other legislators </tspan><tspan x="0" y="36" class="st8 st9">call for Trump to declare a </tspan><tspan x="0" y="48" class="st8 st9">public health emergency as </tspan><tspan x="0" y="60" class="st8 st9">COVID-19 cases begin to rise </tspan><tspan x="0" y="72" class="st8 st9">on the West Coast.</tspan></text>
<rect x="122.4" y="30.9" class="st4" width="163.6" height="157.3"/>
<text transform="matrix(1 0 0 1 122.402 39.5061)"><tspan x="0" y="0" class="st10 st6 st7">January 29-31</tspan><tspan x="0" y="12" class="st11 st9">29: </tspan><tspan x="16.7" y="12" class="st8 st9">Trump admin establishes White </tspan><tspan x="0" y="24" class="st8 st9">House Coronavirus Task Force.</tspan><tspan x="0" y="48" class="st11 st9">30: </tspan><tspan x="16.7" y="48" class="st8 st9">Trump’s Secretary of Commerce </tspan><tspan x="0" y="60" class="st8 st9">states that coronavirus pandemic could </tspan><tspan x="0" y="72" class="st8 st9">be good for the US economy, helping </tspan><tspan x="0" y="84" class="st8 st9">to “accelerate the return of jobs to </tspan><tspan x="0" y="96" class="st8 st9">North America.”</tspan><tspan x="0" y="120" class="st11 st9">31: </tspan><tspan x="16.7" y="120" class="st8 st9">Trump’s HHS Secretary declares a </tspan><tspan x="0" y="132" class="st8 st9">public health emergency.</tspan></text>
<rect x="324.7" y="383.1" class="st4" width="129.3" height="112.2"/>
<text transform="matrix(1 0 0 1 387.9873 391.7068)"><tspan x="0" y="0" class="st5 st6 st7">February 29</tspan><tspan x="-35.4" y="12" class="st8 st9">Trump calls COVID-19 a </tspan><tspan x="-29.6" y="24" class="st8 st9">“Democratic Hoax” in a    </tspan><tspan x="-48.9" y="36" class="st8 st9">White House press briefing.</tspan></text>
<rect x="516.7" y="327" class="st4" width="129.3" height="112.2"/>
<text transform="matrix(1 0 0 1 516.7449 335.6025)"><tspan x="0" y="0" class="st5 st6 st7">March 03</tspan><tspan x="0" y="12" class="st8 st9">At NIH event, Trump states </tspan><tspan x="0" y="24" class="st8 st9">that COVID-19 vaccine could </tspan><tspan x="0" y="36" class="st8 st9">arrive in a few months. He is </tspan><tspan x="0" y="48" class="st8 st9">immediately corrected by Dr. </tspan><tspan x="0" y="60" class="st8 st9">Anthony Fauci, saying it will </tspan><tspan x="0" y="72" class="st8 st9">take a minimum of 1.5 years.</tspan></text>
<rect x="691.2" y="270.9" class="st4" width="129.3" height="112.2"/>
<text transform="matrix(1 0 0 1 768.6956 279.4982)"><tspan x="0" y="0" class="st5 st6 st7">March 29</tspan><tspan x="-70.7" y="12" class="st8 st9">Trump claims that holding US </tspan><tspan x="-42.4" y="24" class="st8 st9">COVID-19 death toll to </tspan><tspan x="-56" y="36" class="st8 st9">100,000 would be a “very </tspan><tspan x="8.8" y="48" class="st8 st9">good job.”</tspan></text>
<line class="st0" x1="96.1" y1="207.4" x2="131.6" y2="207.4"/>
<line class="st0" x1="131.6" y1="216.9" x2="131.6" y2="207.4"/>
<line class="st0" x1="96.1" y1="216.9" x2="96.1" y2="207.4"/>
</svg>
