<?xml version="1.0" encoding="utf-8"?>
<!-- Generator: Adobe Illustrator 24.0.3, SVG Export Plug-In . SVG Version: 6.00 Build 0)  -->
<svg version="1.1" id="Layer_1" xmlns="http://www.w3.org/2000/svg" xmlns:xlink="http://www.w3.org/1999/xlink" x="0px" y="0px"
	 viewBox="0 0 847 500" style="enable-background:new 0 0 847 500;" xml:space="preserve">
<style type="text/css">
	.st0{fill:#74DB63;}
	.st1{fill:#C7C7C7;}
	.st2{fill:#C42F2F;}
	.st3{fill:none;stroke:#CCCCCC;}
	.st4{font-family:'ArialMT';}
	.st5{font-size:10px;}
	.st6{fill:#169C0A;}
	.st7{fill:#DDDEDD;}
	.st8{fill:#F21E5E;}
</style>
<g id="trump">
	<path id="positive" class="st0" d="M0,238.4h2c2,0,6.1-0.1,10.1-0.2c4-0.1,8.1-0.2,12.1-0.7s8.1-1.4,12.1-1.9s8.1-0.7,12.1-1.8
		s8.1-3.2,12.1-3.8c4-0.5,8.1,0.5,12.1,1s8.1,0.6,12.1-0.3c4-0.9,8.1-2.9,12.1-5.4s8.1-5.6,12.1-7.6s8.1-2.9,12.1-0.8
		s8.1,7.2,12.1,10.3c4,3.2,8.1,4.4,12.1,4.7s8.1-0.3,12.1-0.9c4-0.6,8.1-1.2,12.1-1.3c4,0,8.1,0.5,12.1,0.9s8.1,0.7,12.1,0
		c4-0.8,8.1-2.6,12.1-2.1s8.1,3.4,12.1,4.9s8.1,1.6,12.1,0s8.1-4.9,12.1-5.8c4-0.9,8.1,0.7,12.1,2.4c4,1.7,8.1,3.4,12.1,4
		c4,0.5,8.1-0.1,12.1-0.3s8.1,0.1,12.1,0.4c4,0.3,8.1,0.6,12.1,0.6s8.1-0.4,12.1-0.6s8.1-0.2,12.1-0.3s8.1-0.2,12.1-0.1
		c4,0.1,8.1,0.3,12.1,0.2s8.1-0.8,12.1-2.5s8.1-4.6,12.1-5s8.1,1.7,14.1,0.6c6-1,14.1-5.2,20.2-8.8c6-3.6,10.1-6.7,14.1-9.2
		s8.1-4.5,12.1-9s8.1-11.7,12.1-26.6c4-14.9,8.1-37.5,12.1-67.7s8.1-68,12.1-62.1s8.1,55.3,12.1,91.2s8.1,58.3,12.1,54
		s8.1-35.4,12.1-44.3c4-8.8,8.1,4.6,12.1,21.2s8.1,36.4,12.1,44.8c4,8.4,8.1,5.5,12.1,5.6s8.1,3.3,12.1,3.1s8.1-3.6,12.1-4.2
		s8.1,1.8,12.1,3s8.1,1.2,12.1,2.2c4,1.1,8.1,3.2,12.1,3.4s8.1-1.4,12.1-2.4s8.1-1.2,12.1-0.6s8.1,2.2,12.1,3.7s8.1,2.9,12.1,3.4
		s8.1,0,12.1-1.3s8.1-3.3,12.1-2.9c4,0.4,8.1,3.4,12.1,5c4,1.7,8.1,2.1,12.1,1.8s8.1-1.3,12.1-3c4-1.8,8.1-4.3,12.1-4.6
		c4-0.4,8.1,1.4,12.1,3s8.1,3,12.1,3.7s8.1,0.7,12.1,0.5c4-0.3,8.1-0.8,12.1-1.8c4-0.9,8.1-2.2,12.1-2.5s8.1,0.3,12.1,0.4
		c4,0.2,8.1-0.1,12.1,0.3c4,0.4,8.1,1.5,12.1-0.6s8.1-7.4,12.1-8.5c4-1,8.1,2.3,10.1,4l2,1.7v8.2l-2-1.2c-2-1.2-6-3.6-10.1-2.9
		c-4,0.7-8.1,4.6-12.1,6.9c-4,2.2-8.1,2.8-12.1,2.5s-8.1-1.2-12.1-1.2c-4,0.1-8.1,1.3-12.1,1.4c-4,0.2-8.1-0.7-12.1-0.8
		s-8.1,0.7-12.1,1s-8.1,0.3-12.1-0.4s-8.1-2-12.1-2.1s-8.1,1-12.1,1.4s-8.1,0-12.1-0.2c-4-0.1-8.1,0-12.1-0.3s-8.1-1-12.1-2.1
		s-8.1-2.6-12.1-3.2c-4-0.6-8.1-0.4-12.1,0.6s-8.1,2.7-12.1,3.6c-4,0.9-8.1,0.9-12.1,0.4s-8.1-1.4-12.1-1.4s-8.1,0.9-12.1,1.4
		s-8.1,0.7-12.1-0.2s-8.1-2.8-12.1-3.7c-4-0.8-8.1-0.6-12.1-0.9c-4-0.3-8.1-1.2-12.1-0.8s-8.1,1.9-12.1,2.2c-4,0.2-8.1-0.9-12.1-1.1
		c-4-0.2-8.1,0.6-12.1-1.7s-8.1-7.7-12.1-10.9s-8.1-4.2-12.1-2.8c-4,1.4-8.1,5.2-12.1,2.5s-8.1-11.9-12.1-26.7s-8.1-35.3-12.1-34.5
		s-8.1,22.8-12.1,34.9c-4,12.2-8.1,14.5-12.1,17.1s-8.1,5.4-12.1,7.4s-8.1,3-12.1,3.9s-8.1,1.6-14.1,4s-14.1,6.3-20.2,7.4
		c-6.1,1.1-10.1-0.7-14.1-0.4c-4,0.4-8.1,3-12.1,4.4s-8.1,1.6-12.1,1.6s-8.1-0.1-12.1-0.1s-8.1,0-12.1,0c-4,0.1-8.1,0.1-12.1,0.2
		c-4,0.1-8.1,0.2-12.1,0.3s-8.1,0.1-12.1,0.2c-4,0.1-8.1,0.1-12.1,0.1c-4-0.1-8.1-0.3-12.1-0.8s-8.1-1.1-12.1-1.8
		c-4-0.6-8.1-1.2-12.1-0.8s-8.1,1.7-12.1,2.2c-4,0.6-8.1,0.4-12.1,0.5s-8.1,0.6-12.1,0.2c-4-0.4-8.1-1.6-12.1-2.1s-8.1-0.4-12.1-0.3
		c-4,0.1-8.1,0.3-12.1,0.4c-4,0.1-8.1,0.2-12.1,0.2s-8.1-0.1-12.1-0.1s-8.1,0.1-12.1,0.4c-4,0.3-8.1,0.7-12.1,0.6
		c-4-0.1-8.1-0.7-12.1-1.1s-8.1-0.7-12.1-0.7s-8.1,0.2-12.1,0.1c-4,0-8.1-0.4-12.1-1.1c-4-0.8-8.1-2-12.1-1.4s-8.1,3-12.1,4.4
		c-4,1.3-8.1,1.6-12.1,1.8s-8.1,0.2-12.1,0.2c-4,0.1-8.1,0.1-12.1,0.2S4,238.3,2,238.4H0L0,238.4z"/>
	<path id="neutral" class="st1" d="M0,238.4h2c2,0,6.1-0.1,10.1-0.1s8.1-0.1,12.1-0.2c4-0.1,8.1-0.1,12.1-0.2s8.1-0.4,12.1-1.8
		c4-1.3,8.1-3.8,12.1-4.4s8.1,0.6,12.1,1.4c4,0.8,8.1,1.1,12.1,1.1s8.1-0.2,12.1-0.1s8.1,0.3,12.1,0.7s8.1,1,12.1,1.1
		s8.1-0.4,12.1-0.6c4-0.3,8.1-0.4,12.1-0.4s8.1,0.1,12.1,0.1s8.1-0.1,12.1-0.2c4-0.1,8.1-0.3,12.1-0.4c4-0.1,8.1-0.3,12.1,0.3
		c4,0.5,8.1,1.7,12.1,2.1c4,0.4,8.1-0.1,12.1-0.2c4-0.1,8.1,0.1,12.1-0.5s8.1-1.9,12.1-2.2s8.1,0.2,12.1,0.8c4,0.6,8.1,1.3,12.1,1.8
		s8.1,0.7,12.1,0.8s8.1,0,12.1-0.1s8.1-0.1,12.1-0.2s8.1-0.2,12.1-0.3s8.1-0.2,12.1-0.2c4-0.1,8.1-0.1,12.1,0c4,0,8.1,0.2,12.1,0.1
		s8.1-0.2,12.1-1.6c4-1.4,8.1-4,12.1-4.4s8.1,1.4,14.1,0.4c6-1.1,14.1-5.1,20.2-7.4c6-2.4,10.1-3.1,14.1-4s8.1-2,12.1-3.9
		c4-2,8.1-4.8,12.1-7.4c4-2.6,8.1-4.9,12.1-17.1c4-12.2,8.1-34.2,12.1-34.9S480,176,484,190.8s8.1,24,12.1,26.7s8.1-1.1,12.1-2.5
		s8.1-0.4,12.1,2.8s8.1,8.6,12.1,10.9c4,2.3,8.1,1.5,12.1,1.7s8.1,1.3,12.1,1.1s8.1-1.8,12.1-2.2s8.1,0.5,12.1,0.8s8.1,0,12.1,0.9
		c4,0.8,8.1,2.8,12.1,3.7s8.1,0.7,12.1,0.2s8.1-1.4,12.1-1.4s8.1,1,12.1,1.4s8.1,0.4,12.1-0.4c4-0.9,8.1-2.6,12.1-3.6
		s8.1-1.2,12.1-0.6c4,0.6,8.1,2.1,12.1,3.2c4,1.1,8.1,1.8,12.1,2.1s8.1,0.2,12.1,0.3s8.1,0.5,12.1,0.2c4-0.4,8.1-1.5,12.1-1.4
		s8.1,1.4,12.1,2.1s8.1,0.7,12.1,0.4s8.1-1.1,12.1-1s8.1,0.9,12.1,0.8c4-0.2,8.1-1.3,12.1-1.4c4-0.1,8.1,0.9,12.1,1.2
		s8.1-0.3,12.1-2.5s8.1-6.1,12.1-6.9c4-0.7,8.1,1.7,10.1,2.9l2,1.2v3.7l-2-1.4c-2-1.4-6-4.2-10.1-3.4c-4,0.8-8.1,5.1-12.1,7.4
		c-4,2.3-8.1,2.7-12.1,2.6s-8.1-0.7-12.1-0.6c-4,0.1-8.1,0.9-12.1,1.1s-8.1-0.3-12.1-0.5c-4-0.1-8.1,0.1-12.1,0.1s-8.1-0.3-12.1-1
		s-8.1-2-12.1-1.7s-8.1,2.2-12.1,3s-8.1,0.4-12.1-0.1c-4-0.4-8.1-0.9-12.1-1.5c-4-0.7-8.1-1.5-12.1-1.7s-8.1,0.2-12.1,0.9
		c-4,0.6-8.1,1.5-12.1,1.6s-8.1-0.5-12.1-0.7s-8.1-0.1-12.1-0.2c-4,0-8.1-0.3-12.1,0c-4,0.2-8.1,0.9-12.1,1s-8.1-0.5-12.1-1.2
		s-8.1-1.4-12.1-2s-8.1-1-12.1-0.5s-8.1,1.7-12.1,1.9s-8.1-0.7-12.1-0.9c-4-0.1-8.1,0.6-12.1,0.6c-4,0.1-8.1-0.5-12.1-1
		c-4-0.4-8.1-0.8-12.1-0.6s-8.1,0.8-12.1-0.2c-4-1-8.1-3.6-12.1-6.5c-4-3-8.1-6.3-12.1-14.2s-8.1-20.3-12.1-19.4
		c-4,0.8-8.1,15-12.1,21s-8.1,4-12.1,5s-8.1,5-12.1,5.9s-8.1-1.5-12.1-2.4c-4-1-8.1-0.7-14.1,1.3s-14.1,5.5-20.2,6.9
		s-10.1,0.8-14.1,1.1s-8.1,1.5-12.1,2.2s-8.1,0.9-12.1,1s-8.1,0.1-12.1,0.1s-8.1,0.1-12.1,0c-4,0-8.1-0.2-12.1-0.2s-8.1,0-12.1,0
		s-8.1,0.1-12.1,0.2s-8.1,0.3-12.1,0.2s-8.1-0.4-12.1-0.7s-8.1-0.5-12.1-0.8s-8.1-0.7-12.1-0.5c-4,0.1-8.1,0.8-12.1,1.1
		s-8.1,0.4-12.1,0.7s-8.1,0.7-12.1,0.3s-8.1-1.8-12.1-2.4c-4-0.6-8.1-0.4-12.1-0.1c-4,0.4-8.1,0.9-12.1,0.9s-8.1-0.4-12.1-0.7
		s-8.1-0.4-12.1-0.4s-8.1,0.2-12.1,1.1c-4,0.9-8.1,2.5-12.1,3.4c-4,1-8.1,1.3-12.1,0.9s-8.1-1.7-12.1-2.6s-8.1-1.3-12.1-1.8
		s-8.1-1-12.1-1.9s-8.1-2.5-12.1-2s-8.1,3-12.1,4.4s-8.1,1.6-12.1,1.6s-8.1-0.2-12.1-0.2c-4-0.1-8.1,0-12.1,0S4,238.8,2,238.8
		L0,238.4L0,238.4z"/>
	<path id="negative" class="st2" d="M0,238.4h2c2,0,6.1,0,10.1-0.1c4,0,8.1-0.1,12.1,0s8.1,0.2,12.1,0.2s8.1-0.2,12.1-1.6
		c4-1.4,8.1-3.9,12.1-4.4s8.1,1,12.1,2s8.1,1.5,12.1,1.9c4,0.5,8.1,0.9,12.1,1.8s8.1,2.1,12.1,2.6s8.1,0.1,12.1-0.9
		s8.1-2.6,12.1-3.4c4-0.9,8.1-1.1,12.1-1.1s8.1,0.1,12.1,0.4c4,0.3,8.1,0.8,12.1,0.7c4,0,8.1-0.6,12.1-0.9c4-0.4,8.1-0.5,12.1,0.1
		s8.1,2,12.1,2.4s8.1,0,12.1-0.3s8.1-0.3,12.1-0.7c4-0.3,8.1-1,12.1-1.1s8.1,0.2,12.1,0.5c4,0.3,8.1,0.5,12.1,0.8s8.1,0.6,12.1,0.7
		c4,0.1,8.1-0.1,12.1-0.2s8.1-0.2,12.1-0.2s8.1-0.1,12.1,0s8.1,0.2,12.1,0.2s8.1,0,12.1,0s8.1,0,12.1-0.1s8.1-0.3,12.1-1
		s8.1-1.9,12.1-2.2s8.1,0.4,14.1-1.1c6-1.4,14.1-5,20.2-6.9s10.1-2.3,14.1-1.3s8.1,3.3,12.1,2.4s8.1-4.9,12.1-5.9s8.1,1.1,12.1-5
		c4-6,8.1-20.1,12.1-21c4-0.8,8.1,11.6,12.1,19.4s8.1,11.2,12.1,14.2s8.1,5.5,12.1,6.5c4,1,8.1,0.3,12.1,0.2s8.1,0.1,12.1,0.6
		c4,0.4,8.1,1,12.1,1c4-0.1,8.1-0.7,12.1-0.6c4,0.1,8.1,1,12.1,0.9s8.1-1.4,12.1-1.9s8.1,0,12.1,0.5c4,0.6,8.1,1.3,12.1,2
		s8.1,1.2,12.1,1.2c4-0.1,8.1-0.8,12.1-1s8.1,0,12.1,0s8.1-0.1,12.1,0.2c4,0.2,8.1,0.9,12.1,0.7c4-0.1,8.1-1,12.1-1.6
		s8.1-1.1,12.1-0.9c4,0.2,8.1,1.1,12.1,1.7c4,0.7,8.1,1.1,12.1,1.5s8.1,0.8,12.1,0.1c4-0.8,8.1-2.6,12.1-3c4-0.3,8.1,0.9,12.1,1.7
		s8.1,1,12.1,1s8.1-0.2,12.1-0.1c4,0.1,8.1,0.6,12.1,0.5s8.1-0.9,12.1-1.1c4-0.1,8.1,0.5,12.1,0.6s8.1-0.2,12.1-2.6
		c4-2.3,8.1-6.7,12.1-7.4c4-0.8,8.1,2,10.1,3.4l2,1.4v13.8l-2,3.8c-2,3.8-6,11.4-10.1,11.6c-4,0.3-8.1-6.8-12.1-10.5
		s-8.1-4.1-12.1-3.1s-8.1,3.1-12.1,3.4c-4,0.3-8.1-1.3-12.1-1.9s-8.1-0.2-12.1-0.6c-4-0.4-8.1-1.7-12.1-2.1s-8.1,0.1-12.1,2.1
		c-4,2.1-8.1,5.8-12.1,6.6c-4,0.8-8.1-1.2-12.1-3.1s-8.1-3.8-12.1-4.8s-8.1-1.3-12.1-0.4s-8.1,2.8-12.1,4.1s-8.1,1.9-12.1,1.1
		c-4-0.8-8.1-3.2-12.1-5s-8.1-3.1-12.1-3.2c-4-0.1-8.1,0.9-12.1,3.1c-4,2.2-8.1,5.6-12.1,6.3s-8.1-1.1-12.1-2.7
		c-4-1.6-8.1-3-12.1-0.9c-4,2-8.1,7.5-12.1,10.3c-4,2.9-8.1,3.2-12.1,3.3c-4,0.1-8.1,0-12.1-1.3c-4-1.2-8.1-3.5-12.1-4.1
		c-4-0.5-8.1,0.8-12.1,0.4c-4-0.3-8.1-2.3-12.1,3.6s-8.1,19.7-12.1,32.4s-8.1,24.4-12.1,15c-4-9.5-8.1-40.1-12.1-39.3
		c-4,0.8-8.1,32.9-12.1,72.6s-8.1,87.1-12.1,87.2s-8.1-46.8-12.1-79c-4-32.1-8.1-49.3-12.1-62.4s-8.1-22.1-12.1-25.9
		s-8.1-2.3-12.1-2.3s-8.1-1.5-14.1-4.8s-14.1-8.5-20.2-9.7s-10.1,1.4-14.1,1s-8.1-3.9-12.1-6.1s-8.1-3-12.1-3.2s-8.1,0.3-12.1,0.5
		c-4,0.1-8.1,0-12.1-0.1s-8.1,0-12.1-0.2s-8.1-0.6-12.1-0.8c-4-0.1-8.1,0-12.1,0.1s-8.1,0.2-12.1,0.1c-4-0.1-8.1-0.3-12.1,0.6
		c-4,0.9-8.1,2.8-12.1,4.6s-8.1,3.6-12.1,2.7c-4-0.8-8.1-4.2-12.1-5.8s-8.1-1.5-12.1-1.3s-8.1,0.4-12.1,0.6c-4,0.2-8.1,0.2-12.1,0.2
		c-4-0.1-8.1-0.2-12.1-0.5s-8.1-0.7-12.1-1.2s-8.1-1-12.1-1.5s-8.1-1-12.1-0.8s-8.1,1-12.1,4s-8.1,8.2-12.1,10.4s-8.1,1.5-12.1-0.1
		s-8.1-3.9-12.1-5.9s-8.1-3.5-12.1-3.8s-8.1,0.8-12.1,2.5s-8.1,4.2-12.1,4s-8.1-3.2-12.1-5s-8.1-2.3-12.1-2.9s-8.1-1.4-12.1-1.9
		s-8.1-0.5-12.1-0.6S4,238.4,2,238.4H0z"/>
	<g transform="translate(0,480)">
		<path class="st3" d="M0.5,6V0.5h847V6"/>
		<g transform="translate(63.520833333333336,0)">
			<line class="st3" x1="0" y1="0" x2="0" y2="6"/>
			<text transform="matrix(1 0 0 1 -15.0122 16.1)" class="st4 st5">Jan 26</text>
		</g>
		<g transform="translate(148.22083333333333,0)">
			<line class="st3" x1="0" y1="0" x2="0" y2="6"/>
			<text transform="matrix(1 0 0 1 -15.5664 16.1)" class="st4 st5">Feb 02</text>
		</g>
		<g transform="translate(232.92083333333335,0)">
			<line class="st3" x1="0" y1="0" x2="0" y2="6"/>
			<text transform="matrix(1 0 0 1 -15.5664 16.1)" class="st4 st5">Feb 09</text>
		</g>
		<g transform="translate(317.62083333333334,0)">
			<line class="st3" x1="0" y1="0" x2="0" y2="6"/>
			<text transform="matrix(1 0 0 1 -15.5664 16.1)" class="st4 st5">Feb 16</text>
		</g>
		<g transform="translate(402.3208333333333,0)">
			<line class="st3" x1="0" y1="0" x2="0" y2="6"/>
			<text transform="matrix(1 0 0 1 -15.5664 16.1)" class="st4 st5">Feb 23</text>
		</g>
		<g transform="translate(487.0208333333333,0)">
			<line class="st3" x1="0" y1="0" x2="0" y2="6"/>
			<text transform="matrix(1 0 0 1 -13.8916 16.1)" class="st4 st5">March</text>
		</g>
		<g transform="translate(571.7208333333334,0)">
			<line class="st3" x1="0" y1="0" x2="0" y2="6"/>
			<text transform="matrix(1 0 0 1 -15.5615 16.1)" class="st4 st5">Mar 08</text>
		</g>
		<g transform="translate(655.9166666666667,0)">
			<line class="st3" x1="0" y1="0" x2="0" y2="6"/>
			<text transform="matrix(1 0 0 1 -15.5615 16.1)" class="st4 st5">Mar 15</text>
		</g>
		<g transform="translate(740.6166666666667,0)">
			<line class="st3" x1="0" y1="0" x2="0" y2="6"/>
			<text transform="matrix(1 0 0 1 -15.5615 16.1)" class="st4 st5">Mar 22</text>
		</g>
		<g transform="translate(825.3166666666666,0)">
			<line class="st3" x1="0" y1="0" x2="0" y2="6"/>
			<text transform="matrix(1 0 0 1 -15.5615 16.1)" class="st4 st5">Mar 29</text>
		</g>
	</g>
</g>
<g id="fauci">
	<path id="positive_1_" class="st6" d="M0.5,238.4l2,0c2,0,6.1,0,10.1-0.1s8.1-0.2,12.1-0.2s8.1,0,12.1,0s8.1-0.2,12.1-0.2
		s8.1,0.1,12.1-0.1s8.1-0.5,12.1-1.1s8.1-1.6,12.1-1.6c4-0.1,8.1,0.6,12.1,1.1c4,0.4,8.1,0.6,12.1,0.8s8.1,0.3,12.1,0.3
		c4,0,8.1-0.1,12.1-0.3c4-0.2,8.1-0.4,12.1-0.3c4,0.1,8.1,0.6,12.1,0.8c4,0.2,8.1,0.1,12.1,0.2c4,0,8.1,0.1,12.1,0.2
		s8.1,0.3,12.1,0.3c4,0.1,8.1,0.1,12.1-0.1c4-0.2,8.1-0.7,12.1-0.7c4,0,8.1,0.4,12.1,0.6c4,0.2,8.1,0.3,12.1,0.3s8.1-0.2,12.1-0.3
		c4-0.1,8.1-0.1,12.1-0.1c4,0.1,8.1,0.3,12.1,0.4c4,0.1,8.1,0,12.1,0c4,0,8.1,0,12.1-0.1c4-0.1,8.1-0.4,12.1-1.2s8.1-2.3,12.1-2.4
		c4-0.1,8.1,1.3,12.1,2.1c4,0.8,8.1,1.1,12.1,1.1c4,0,8.1-0.3,12.1-0.3s8.1,0.2,12.1,0.2c4,0,8.1-0.1,14.1,0
		c6,0.1,14.1,0.4,20.2,0.6c6,0.1,10.1,0,14.1-0.2s8.1-0.5,12.1-6.3c4-5.8,8.1-17,12.1-19.9c4-2.9,8.1,2.6,12.1-31.6
		c4-34.2,8.1-108,12.1-114.3s8.1,54.9,12.1,91.3s8.1,48,12.1,37.6c4-10.4,8.1-42.8,12.1-48.2c4-5.4,8.1,16.3,12.1,35.3
		s8.1,35.3,12.1,43.4c4,8.2,8.1,8.3,12.1,8.9s8.1,1.8,12.1,0.5c4-1.3,8.1-5,12.1-5.4s8.1,2.6,12.1,4.3s8.1,2.3,12.1,1.2
		c4-1.1,8.1-3.9,12.1-5.7s8.1-2.7,12.1-8.7c4-6.1,8.1-17.3,12.1-15.5s8.1,16.8,12.1,21.6c4,4.9,8.1-0.3,12.1-0.3
		c4,0,8.1,5.1,12.1,7.5s8.1,2.2,12.1,2.3c4,0.1,8.1,0.7,12.1,0.6c4-0.1,8.1-0.7,12.1-2.5c4-1.8,8.1-4.6,12.1-5.3
		c4-0.7,8.1,0.8,12.1,2.1c4,1.2,8.1,2.2,12.1-4.4c4-6.6,8.1-20.7,12.1-23c4-2.2,8.1,7.5,12.1,12.7c4,5.3,8.1,6.1,12.1,7
		c4,0.9,8.1,1.9,12.1,2.7s8.1,1.5,12.1,2.8c4,1.3,8.1,3.2,12.1,1.8c4-1.4,8.1-6.1,12.1-6.3s8.1,4,12.1-0.1c4-4.1,8.1-16.6,10.1-22.8
		l2-6.2v66.7l-2-4.3c-2-4.3-6-12.8-10.1-18.8c-4-6-8.1-9.3-12.1-9.3s-8.1,3.6-12.1,4.6s-8.1-0.4-12.1-0.1c-4,0.3-8.1,2.2-12.1,4.4
		s-8.1,4.6-12.1,3.5c-4-1.2-8.1-5.9-12.1-8c-4-2.1-8.1-1.5-12.1-0.3c-4,1.1-8.1,2.7-12.1,3.5c-4,0.8-8.1,0.9-12.1-0.2
		c-4-1.1-8.1-3.3-12.1-3.1c-4,0.3-8.1,3-12.1,4.1s-8.1,0.5-12.1,0.2c-4-0.4-8.1-0.5-12.1-0.6c-4-0.1-8.1-0.1-12.1-2.2
		s-8.1-6.2-12.1-6.3c-4-0.1-8.1,4-12.1,12.9c-4,8.9-8.1,22.7-12.1,21.2s-8.1-18.4-12.1-26c-4-7.6-8.1-6-12.1-4.4
		c-4,1.6-8.1,3.2-12.1,3.8c-4,0.6-8.1,0.2-12.1,0c-4-0.3-8.1-0.4-12.1-0.3s-8.1,0.7-12.1,0.6c-4,0-8.1-0.6-12.1-0.8
		c-4-0.1-8.1,0.1-12.1,3.4c-4,3.2-8.1,9.4-12.1-2.4s-8.1-41.6-12.1-42.2c-4-0.6-8.1,28-12.1,32.3s-8.1-15.7-12.1-29.4
		c-4-13.7-8.1-21.2-12.1-14.8c-4,6.4-8.1,26.6-12.1,40.2c-4,13.6-8.1,20.6-12.1,21.9c-4,1.3-8.1-3.2-12.1-5.3s-8.1-1.8-12.1-1.7
		s-8.1,0.2-14.1,0.1c-6-0.1-14.1-0.3-20.2-0.3c-6.1,0-10.1,0.3-14.1,0.3s-8.1-0.5-12.1-0.5s-8.1,0.2-12.1,0.3s-8.1,0-12.1,0.6
		c-4,0.6-8.1,2-12.1,2.1c-4,0.1-8.1-1-12.1-1.6c-4-0.6-8.1-0.7-12.1-0.7c-4,0-8.1,0-12.1,0s-8.1,0-12.1-0.1c-4-0.1-8.1-0.2-12.1-0.2
		c-4,0-8.1,0-12.1,0.1c-4,0-8.1,0.1-12.1,0.1c-4,0-8.1,0-12.1-0.3c-4-0.2-8.1-0.6-12.1-0.6c-4,0-8.1,0.5-12.1,0.7
		c-4,0.2-8.1,0.3-12.1,0.2c-4-0.1-8.1-0.2-12.1-0.2s-8.1,0.1-12.1,0.3c-4,0.1-8.1,0.3-12.1,0c-4-0.3-8.1-1-12.1-0.9
		c-4,0.1-8.1,1-12.1,1.2c-4,0.2-8.1-0.3-12.1-0.6c-4-0.3-8.1-0.5-12.1-0.5s-8.1,0.1-12.1,0s-8.1-0.4-12.1-0.4c-4,0-8.1,0.2-12.1,0.4
		s-8.1,0.3-12.1,0.4c-4,0.1-8.1,0.2-12.1,0.3s-8.1,0-12.1,0s-8.1,0-12.1,0c-4,0-8.1,0.1-12.1,0.1c-4,0-8.1,0-10.1,0L0.5,238.4z"/>
	<path id="neutral_1_" class="st7" d="M0.5,238.4l2,0c2,0,6.1,0,10.1,0c4,0,8.1-0.1,12.1-0.1c4,0,8.1,0,12.1,0s8.1,0.1,12.1,0
		s8.1-0.2,12.1-0.3c4-0.1,8.1-0.2,12.1-0.4s8.1-0.4,12.1-0.4c4,0,8.1,0.3,12.1,0.4s8.1,0,12.1,0s8.1,0.2,12.1,0.5
		c4,0.3,8.1,0.8,12.1,0.6c4-0.2,8.1-1.1,12.1-1.2c4-0.1,8.1,0.6,12.1,0.9c4,0.3,8.1,0.1,12.1,0c4-0.1,8.1-0.3,12.1-0.3
		s8.1,0.2,12.1,0.2c4,0.1,8.1,0,12.1-0.2c4-0.2,8.1-0.7,12.1-0.7c4,0,8.1,0.4,12.1,0.6c4,0.2,8.1,0.3,12.1,0.3c4,0,8.1,0,12.1-0.1
		c4,0,8.1-0.1,12.1-0.1c4,0,8.1,0.1,12.1,0.2c4,0.1,8.1,0.1,12.1,0.1s8.1,0,12.1,0c4,0,8.1,0.1,12.1,0.7c4,0.6,8.1,1.7,12.1,1.6
		c4-0.1,8.1-1.5,12.1-2.1c4-0.6,8.1-0.5,12.1-0.6s8.1-0.4,12.1-0.3s8.1,0.5,12.1,0.5s8.1-0.3,14.1-0.3c6,0,14.1,0.2,20.2,0.3
		c6,0.1,10.1,0.1,14.1-0.1s8.1-0.4,12.1,1.7s8.1,6.6,12.1,5.3c4-1.3,8.1-8.3,12.1-21.9c4-13.6,8.1-33.8,12.1-40.2
		c4-6.4,8.1,1.1,12.1,14.8c4,13.7,8.1,33.7,12.1,29.4s8.1-32.9,12.1-32.3c4,0.6,8.1,30.4,12.1,42.2s8.1,5.6,12.1,2.4
		c4-3.2,8.1-3.5,12.1-3.4c4,0.1,8.1,0.7,12.1,0.8c4,0,8.1-0.5,12.1-0.6s8.1,0,12.1,0.3c4,0.3,8.1,0.6,12.1,0c4-0.6,8.1-2.2,12.1-3.8
		c4-1.6,8.1-3.2,12.1,4.4c4,7.6,8.1,24.5,12.1,26s8.1-12.3,12.1-21.2c4-8.9,8.1-13,12.1-12.9c4,0.1,8.1,4.2,12.1,6.3
		s8.1,2.1,12.1,2.2c4,0.1,8.1,0.2,12.1,0.6c4,0.4,8.1,0.9,12.1-0.2s8.1-3.9,12.1-4.1c4-0.3,8.1,2,12.1,3.1c4,1.1,8.1,1,12.1,0.2
		c4-0.8,8.1-2.4,12.1-3.5c4-1.1,8.1-1.7,12.1,0.3c4,2.1,8.1,6.8,12.1,8c4,1.2,8.1-1.3,12.1-3.5s8.1-4.2,12.1-4.4
		c4-0.3,8.1,1.2,12.1,0.1s8.1-4.6,12.1-4.6s8.1,3.3,12.1,9.3c4,6,8.1,14.5,10.1,18.8l2,4.3v3l-2-4.2c-2-4.2-6-12.5-10.1-18.2
		c-4-5.7-8.1-8.7-12.1-8.6s-8.1,3.2-12.1,5.2s-8.1,2.7-12.1,3.4c-4,0.7-8.1,1.4-12.1,2.3c-4,0.9-8.1,2.1-12.1,2.7
		c-4,0.6-8.1,0.6-12.1,0.3c-4-0.3-8.1-1-12.1-2.4c-4-1.5-8.1-3.7-12.1-4.5c-4-0.8-8.1-0.1-12.1-0.6c-4-0.4-8.1-2-12.1-2.1
		c-4-0.2-8.1,1-12.1,1.3c-4,0.3-8.1-0.3-12.1-0.7s-8.1-0.6-12.1-0.6c-4,0-8.1,0.3-12.1,2.9s-8.1,7.7-12.1,7.5
		c-4-0.2-8.1-5.5-12.1-1.2c-4,4.3-8.1,18.3-12.1,17s-8.1-17.8-12.1-24.9c-4-7.1-8.1-4.7-12.1-3.3s-8.1,1.6-12.1,1.6
		c-4,0-8.1-0.3-12.1,0.4s-8.1,2.7-12.1,2.8s-8.1-1.5-12.1-2.3c-4-0.7-8.1-0.6-12.1-0.4s-8.1,0.4-12.1,7.2c-4,6.7-8.1,19.9-12.1,29.6
		c-4,9.7-8.1,16-12.1,12.1c-4-3.9-8.1-17.9-12.1-30.2s-8.1-22.8-12.1-17.3s-8.1,27-12.1,31.5c-4,4.4-8.1-8.2-12.1-11.1
		c-4-2.9-8.1,4.1-12.1,2.2c-4-1.8-8.1-12.4-12.1-17.8s-8.1-5.7-12.1-5.9c-4-0.2-8.1-0.2-14.1-0.4s-14.1-0.3-20.2-0.3
		c-6.1,0.1-10.1,0.4-14.1,0.3c-4,0-8.1-0.5-12.1-0.5s-8.1,0.3-12.1,0.6c-4,0.2-8.1,0.4-12.1,1.2c-4,0.8-8.1,2.3-12.1,2.2
		c-4,0-8.1-1.5-12.1-2.3s-8.1-1-12.1-1s-8.1-0.1-12.1-0.1s-8.1,0-12.1-0.1c-4,0-8.1-0.1-12.1,0c-4,0.1-8.1,0.3-12.1,0.3
		c-4,0-8.1-0.1-12.1-0.1s-8.1,0.1-12.1-0.2c-4-0.2-8.1-0.8-12.1-0.8c-4-0.1-8.1,0.4-12.1,0.6c-4,0.2-8.1,0.3-12.1,0.4
		c-4,0.1-8.1,0.2-12.1,0.2s-8.1,0-12.1,0c-4,0-8.1,0.1-12.1-0.2c-4-0.3-8.1-1.1-12.1-0.9c-4,0.1-8.1,1.1-12.1,1.5
		c-4,0.4-8.1,0.1-12.1-0.1c-4-0.2-8.1-0.5-12.1-0.6c-4-0.1-8.1,0-12.1,0.1c-4,0.1-8.1,0.2-12.1,0.4c-4,0.2-8.1,0.4-12.1,0.2
		c-4-0.1-8.1-0.6-12.1-0.7s-8.1,0.2-12.1,0.2s-8.1-0.2-12.1-0.3c-4-0.1-8.1-0.1-12.1-0.1c-4,0-8.1,0-12.1,0s-8.1,0-10.1,0L0.5,238.4
		z"/>
	<path id="negative_1_" class="st8" d="M0.5,238.4l2,0c2,0,6.1,0,10.1,0s8.1,0,12.1,0c4,0,8.1,0,12.1,0.1c4,0.1,8.1,0.3,12.1,0.3
		s8.1-0.3,12.1-0.2s8.1,0.5,12.1,0.7c4,0.1,8.1-0.1,12.1-0.2c4-0.2,8.1-0.3,12.1-0.4c4-0.1,8.1-0.2,12.1-0.1c4,0.1,8.1,0.3,12.1,0.6
		c4,0.2,8.1,0.5,12.1,0.1c4-0.4,8.1-1.4,12.1-1.5c4-0.1,8.1,0.6,12.1,0.9c4,0.3,8.1,0.2,12.1,0.2c4,0,8.1,0,12.1,0s8.1-0.1,12.1-0.2
		c4-0.1,8.1-0.1,12.1-0.4c4-0.2,8.1-0.7,12.1-0.6c4,0.1,8.1,0.6,12.1,0.8c4,0.2,8.1,0.2,12.1,0.2s8.1,0.1,12.1,0.1
		c4,0,8.1-0.2,12.1-0.3c4-0.1,8.1,0,12.1,0c4,0,8.1,0.1,12.1,0.1s8.1,0,12.1,0.1s8.1,0.2,12.1,1s8.1,2.3,12.1,2.3
		c4,0,8.1-1.4,12.1-2.2c4-0.8,8.1-0.9,12.1-1.2c4-0.2,8.1-0.6,12.1-0.6s8.1,0.5,12.1,0.5c4,0,8.1-0.3,14.1-0.3
		c6-0.1,14.1,0.1,20.2,0.3s10.1,0.2,14.1,0.4c4,0.2,8.1,0.5,12.1,5.9s8.1,16,12.1,17.8c4,1.8,8.1-5.1,12.1-2.2
		c4,2.9,8.1,15.5,12.1,11.1c4-4.4,8.1-26,12.1-31.5s8.1,5,12.1,17.3s8.1,26.3,12.1,30.2c4,3.9,8.1-2.4,12.1-12.1
		c4-9.7,8.1-22.9,12.1-29.6c4-6.7,8.1-7,12.1-7.2s8.1-0.3,12.1,0.4c4,0.7,8.1,2.4,12.1,2.3s8.1-2,12.1-2.8s8.1-0.5,12.1-0.4
		c4,0,8.1-0.2,12.1-1.6s8.1-3.7,12.1,3.3c4,7.1,8.1,23.6,12.1,24.9s8.1-12.7,12.1-17c4-4.3,8.1,1,12.1,1.2c4,0.2,8.1-4.9,12.1-7.5
		s8.1-2.9,12.1-2.9c4,0,8.1,0.2,12.1,0.6s8.1,1,12.1,0.7c4-0.3,8.1-1.5,12.1-1.3c4,0.2,8.1,1.7,12.1,2.1c4,0.4,8.1-0.2,12.1,0.6
		c4,0.8,8.1,3.1,12.1,4.5c4,1.5,8.1,2.1,12.1,2.4c4,0.3,8.1,0.3,12.1-0.3c4-0.6,8.1-1.8,12.1-2.7c4-0.9,8.1-1.6,12.1-2.3
		c4-0.7,8.1-1.5,12.1-3.4s8.1-5.1,12.1-5.2s8.1,2.9,12.1,8.6c4,5.7,8.1,14,10.1,18.2l2,4.2v16.4l-2-6.2c-2-6.2-6-18.7-10.1-22.8
		c-4-4.1-8.1,0.1-12.1-0.1s-8.1-4.9-12.1-6.3c-4-1.4-8.1,0.5-12.1,1.8c-4,1.3-8.1,2-12.1,2.8s-8.1,1.8-12.1,2.7
		c-4,0.9-8.1,1.7-12.1,7c-4,5.3-8.1,15-12.1,12.7c-4-2.2-8.1-16.4-12.1-23c-4-6.6-8.1-5.6-12.1-4.4c-4,1.2-8.1,2.7-12.1,2.1
		c-4-0.7-8.1-3.5-12.1-5.3c-4-1.8-8.1-2.4-12.1-2.5c-4-0.1-8.1,0.5-12.1,0.6c-4,0.1-8.1-0.1-12.1,2.3s-8.1,7.6-12.1,7.5
		c-4,0-8.1-5.2-12.1-0.3c-4,4.9-8.1,19.8-12.1,21.6s-8.1-9.4-12.1-15.5c-4-6.1-8.1-6.9-12.1-8.7s-8.1-4.6-12.1-5.7
		c-4-1.1-8.1-0.5-12.1,1.2s-8.1,4.7-12.1,4.3s-8.1-4.1-12.1-5.4c-4-1.3-8.1-0.1-12.1,0.5s-8.1,0.7-12.1,8.9
		c-4,8.2-8.1,24.5-12.1,43.4c-4,19-8.1,40.7-12.1,35.3c-4-5.4-8.1-37.8-12.1-48.2s-8.1,1.2-12.1,37.6s-8.1,97.6-12.1,91.3
		c-4-6.3-8.1-80.1-12.1-114.3c-4-34.2-8.1-28.7-12.1-31.6c-4-2.9-8.1-14.1-12.1-19.9c-4-5.8-8.1-6.1-12.1-6.3s-8.1-0.3-14.1-0.2
		c-6,0.1-14.1,0.5-20.2,0.6c-6.1,0.1-10.1-0.1-14.1,0c-4,0-8.1,0.3-12.1,0.2s-8.1-0.3-12.1-0.3c-4,0-8.1,0.3-12.1,1.1
		c-4,0.8-8.1,2.1-12.1,2.1c-4-0.1-8.1-1.5-12.1-2.4s-8.1-1.1-12.1-1.2c-4-0.1-8.1-0.1-12.1-0.1c-4,0-8.1-0.1-12.1,0
		c-4,0.1-8.1,0.3-12.1,0.4c-4,0.1-8.1,0-12.1-0.1c-4-0.1-8.1-0.2-12.1-0.3s-8.1,0-12.1,0.3c-4,0.2-8.1,0.6-12.1,0.6
		c-4,0-8.1-0.5-12.1-0.7c-4-0.2-8.1-0.2-12.1-0.1c-4,0.1-8.1,0.2-12.1,0.3s-8.1,0.2-12.1,0.2c-4,0-8.1,0-12.1,0.2
		c-4,0.2-8.1,0.7-12.1,0.8c-4,0.1-8.1-0.1-12.1-0.3c-4-0.2-8.1-0.3-12.1-0.3c-4,0-8.1,0.1-12.1,0.3s-8.1,0.3-12.1,0.8
		c-4,0.4-8.1,1.2-12.1,1.1c-4-0.1-8.1-1-12.1-1.6s-8.1-1-12.1-1.1s-8.1,0-12.1-0.1s-8.1-0.2-12.1-0.2s-8.1,0-12.1,0
		s-8.1-0.2-12.1-0.2s-8.1-0.1-10.1-0.1L0.5,238.4z"/>
</g>
</svg>
