<?xml version="1.0" encoding="utf-8"?>
<!-- Generator: Adobe Illustrator 24.0.3, SVG Export Plug-In . SVG Version: 6.00 Build 0)  -->
<svg version="1.1" id="Layer_1" xmlns="http://www.w3.org/2000/svg" xmlns:xlink="http://www.w3.org/1999/xlink" x="0px" y="0px"
	 viewBox="0 0 847 500" style="enable-background:new 0 0 847 500;" xml:space="preserve">
<style type="text/css">
	.st0{fill:none;stroke:#000000;stroke-width:0.5;stroke-miterlimit:10;}
	.st1{fill:#85BF69;}
	.st2{fill:#B3B3B3;}
	.st3{fill:#F5441D;}
	.st4{fill:none;stroke:#CCCCCC;}
	.st5{font-family:'ArialMT';}
	.st6{font-size:10px;}
	.st7{fill:none;}
	.st8{fill:#5E5E5E;}
	.st9{font-family:'HelveticaNeue-Medium';}
	.st10{font-size:12px;}
	.st11{font-family:'HelveticaNeue-Thin';}
	.st12{fill:#05AA21;}
	.st13{fill:#C30005;}
</style>
<line id="mar23Line_2_" class="st0" x1="744.9" y1="235.3" x2="744.9" y2="379.4"/>
<line id="mar23Line_3_" class="st0" x1="805.9" y1="19.9" x2="805.9" y2="152.2"/>
<line id="mar23Line_1_" class="st0" x1="568.6" y1="74.1" x2="568.6" y2="230.2"/>
<line id="mar23Line" class="st0" x1="473.1" y1="91.2" x2="473.1" y2="235.3"/>
<g>
	<path class="st1" d="M0,240h2c2,0,6.1,0,10.1,0s8.1,0,12.1-0.1s8.1-0.2,12.1-0.2s8.1,0.1,12.1,0.2s8.1,0.1,12.1-0.2
		c4-0.2,8.1-0.7,12.1-0.7c4-0.1,8.1,0.2,12.1,0.4s8.1,0.1,12.1,0.1c4,0.1,8.1,0.3,12.1,0.3s8.1-0.1,12.1-0.1s8.1,0.2,12.1,0.3
		s8.1,0.1,12.1,0s8.1-0.3,12.1-0.3s8.1,0.2,12.1-0.1s8.1-1.1,12.1-1.1s8.1,0.7,12.1,1s8.1,0.2,12.1,0.2s8.1,0.2,12.1,0.2
		s8.1-0.2,12.1-0.3s8.1,0,12.1,0.1s8.1,0.2,12.1-0.4c4-0.5,8.1-1.7,12.1-1.7s8.1,1.2,12.1,1.7s8.1,0.3,12.1,0.2s8.1,0,12.1,0.1
		s8.1,0.2,12.1,0.2c4,0.1,8.1,0.1,12.1,0.1s8.1,0.1,12.1,0.1s8.1,0,12.1,0s8.1,0,12.1,0s8.1,0,12.1,0s8.1,0,14.1,0
		s14.1-0.1,20.2-0.1s10.1,0,14.1,0.1s8.1,0,12.1,0s8.1-0.1,12.1-0.9c4-0.8,8.1-2.3,12.1-3.9c4-1.6,8.1-3.4,12.1-3.4
		s8.1,1.7,12.1,3.4s8.1,3.2,12.1,2.9c4-0.4,8.1-2.7,12.1-3.2c4-0.5,8.1,0.8,12.1,0.8s8.1-1.2,12.1-0.6c4,0.5,8.1,2.8,12.1,3
		s8.1-1.7,12.1-21.8c4-20.2,8.1-58.6,12.1-58.4s8.1,39.1,12.1,57.4s8.1,16,12.1,14s8.1-3.8,12.1-2.2s8.1,6.5,12.1,5.7
		c4-0.9,8.1-7.5,12.1-7.4c4,0.2,8.1,7.2,12.1,9.4s8.1-0.3,12.1-1.5s8.1-1,12.1-1.8s8.1-2.7,12.1-2.5s8.1,2.4,12.1,3.8
		c4,1.4,8.1,1.8,12.1,1.2c4-0.7,8.1-2.5,12.1-3s8.1,0.4,12.1-2.1s8.1-8.3,12.1-12.1s8.1-5.7,12.1-2.4s8.1,11.9,12.1,16.2
		s8.1,4.4,12.1,3.7s8.1-2.3,12.1-34.4s8.1-94.7,12.1-133.1s8.1-52.5,12.1-31.2s8.1,78,12.1,108.1s8.1,33.6,12.1,39.7
		c4,6.1,8.1,14.9,10.1,19.2l2,4.4v18.1l-2-0.3c-2-0.3-6-0.8-10.1-3.5c-4-2.7-8.1-7.5-12.1-11.4c-4-3.8-8.1-6.7-12.1,4.6
		s-8.1,36.5-12.1,43c-4,6.5-8.1-5.7-12.1-12c-4-6.2-8.1-6.4-12.1-6.3c-4,0.1-8.1,0.5-12.1-0.6s-8.1-3.5-12.1-6.4s-8.1-6.2-12.1-4.9
		s-8.1,7-12.1,9.4s-8.1,1.4-12.1,1.5s-8.1,1.3-12.1,1.3s-8.1-1.3-12.1-1.9c-4-0.6-8.1-0.6-12.1-0.7c-4-0.2-8.1-0.5-12.1-0.2
		s-8.1,1.3-12.1,1.9c-4,0.6-8.1,1-12.1-1.8s-8.1-8.7-12.1-8.7s-8.1,5.8-12.1,8.3s-8.1,1.6-12.1-0.2s-8.1-4.5-12.1-4.5
		s-8.1,2.8-12.1,24s-8.1,60.9-12.1,61.1c-4,0.3-8.1-38.9-12.1-58.3s-8.1-19.1-12.1-18.2c-4,0.9-8.1,2.4-12.1,2.2
		c-4-0.1-8.1-1.9-12.1-2.5c-4-0.5-8.1,0.1-12.1,0.3c-4,0.1-8.1-0.3-12.1-0.9s-8.1-1.4-12.1-2.7s-8.1-3-12.1-2.5s-8.1,3.4-12.1,4.7
		c-4,1.2-8.1,0.9-12.1,0.8c-4-0.1-8.1,0-12.1,0s-8.1,0-12.1,0s-8.1,0-14.1,0s-14.1,0-20.2,0s-10.1,0-14.1,0s-8.1,0-12.1,0
		s-8.1,0-12.1,0s-8.1,0-12.1,0s-8.1,0-12.1-0.1c-4,0-8.1-0.1-12.1-0.1c-4-0.1-8.1-0.1-12.1-0.1c-4,0.1-8.1,0.3-12.1,0.4
		c-4,0.1-8.1,0-12.1-0.7c-4-0.6-8.1-1.8-12.1-1.8s-8.1,1.1-12.1,1.7c-4,0.5-8.1,0.5-12.1,0.4s-8.1-0.2-12.1-0.1
		c-4,0-8.1,0.2-12.1,0.4s-8.1,0.3-12.1,0.2c-4,0-8.1-0.2-12.1-0.4s-8.1-0.4-12.1-0.4s-8.1,0.3-12.1,0.4c-4,0.1-8.1,0-12.1,0
		s-8.1,0.1-12.1,0.1s-8.1,0-12.1,0s-8.1-0.1-12.1-0.1s-8.1,0-12.1,0.1s-8.1,0.1-12.1,0.1s-8.1-0.2-12.1-0.4s-8.1-0.6-12.1-0.5
		s-8.1,0.5-12.1,0.8s-8.1,0.2-12.1,0.1c-4-0.1-8.1-0.2-12.1-0.2s-8.1,0.2-12.1,0.2c-4,0.1-8.1,0.1-12.1,0c-4,0-8.1,0-10.1,0H0V240z"
		/>
	<path class="st2" d="M0,240h2c2,0,6.1,0,10.1,0s8.1,0,12.1,0c4-0.1,8.1-0.2,12.1-0.2s8.1,0.1,12.1,0.2c4,0.1,8.1,0.1,12.1-0.1
		s8.1-0.7,12.1-0.8s8.1,0.3,12.1,0.5s8.1,0.4,12.1,0.4s8.1,0,12.1-0.1s8.1-0.1,12.1-0.1s8.1,0.1,12.1,0.1s8.1,0,12.1,0
		s8.1-0.1,12.1-0.1s8.1,0.1,12.1,0s8.1-0.4,12.1-0.4s8.1,0.2,12.1,0.4s8.1,0.4,12.1,0.4s8.1-0.1,12.1-0.2c4-0.2,8.1-0.3,12.1-0.4
		c4,0,8.1,0.1,12.1,0.1s8.1,0.1,12.1-0.4c4-0.5,8.1-1.7,12.1-1.7s8.1,1.2,12.1,1.8s8.1,0.7,12.1,0.7c4-0.1,8.1-0.3,12.1-0.4
		c4-0.1,8.1,0,12.1,0.1s8.1,0.1,12.1,0.1s8.1,0.1,12.1,0.1s8.1,0,12.1,0s8.1,0,12.1,0s8.1,0,12.1,0s8.1,0,14.1,0s14.1,0,20.2,0
		s10.1,0,14.1,0s8.1,0,12.1,0s8.1-0.1,12.1,0s8.1,0.5,12.1-0.8c4-1.2,8.1-4.1,12.1-4.7s8.1,1.2,12.1,2.5s8.1,2.1,12.1,2.7
		s8.1,1,12.1,0.9c4-0.1,8.1-0.8,12.1-0.3s8.1,2.3,12.1,2.5c4,0.1,8.1-1.3,12.1-2.2s8.1-1.2,12.1,18.2s8.1,58.5,12.1,58.3
		c4-0.3,8.1-39.9,12.1-61.1s8.1-24,12.1-24s8.1,2.7,12.1,4.5s8.1,2.6,12.1,0.2c4-2.5,8.1-8.4,12.1-8.3c4,0,8.1,5.9,12.1,8.7
		s8.1,2.5,12.1,1.8c4-0.6,8.1-1.6,12.1-1.9c4-0.3,8.1,0,12.1,0.2s8.1,0.1,12.1,0.7c4,0.6,8.1,1.8,12.1,1.9c4,0,8.1-1.2,12.1-1.3
		s8.1,0.9,12.1-1.5s8.1-8.2,12.1-9.4c4-1.3,8.1,2,12.1,4.9s8.1,5.4,12.1,6.4c4,1.1,8.1,0.7,12.1,0.6c4-0.1,8.1,0.1,12.1,6.3
		s8.1,18.5,12.1,12s8.1-31.8,12.1-43s8.1-8.4,12.1-4.6c4,3.8,8.1,8.7,12.1,11.4s8.1,3.3,10.1,3.5l2,0.3V241l-2,1.1
		c-2,1.1-6,3.4-10.1,5.6c-4,2.2-8.1,4.4-12.1,8.5s-8.1,10.1-12.1,18.8c-4,8.6-8.1,19.9-12.1,14.9s-8.1-26.2-12.1-37.2
		c-4-11-8.1-11.6-12.1-11.6s-8.1,0.7-12.1,3.3s-8.1,7.1-12.1,4.6c-4-2.6-8.1-12.2-12.1-14.4s-8.1,2.9-12.1,5.7s-8.1,3.1-12.1,3.2
		c-4,0.1-8.1,0-12.1-0.4s-8.1-1.2-12.1-1s-8.1,1.4-12.1,1.1c-4-0.2-8.1-1.8-12.1-1.3s-8.1,3.2-12.1,3.4c-4,0.1-8.1-2.3-12.1-0.6
		s-8.1,7.7-12.1,7.7s-8.1-5.9-12.1-7.4s-8.1,1.5-12.1,3.2s-8.1,2.3-12.1,0.9c-4-1.3-8.1-4.6-12.1,13.1c-4,17.6-8.1,56.1-12.1,56.1
		c-4-0.1-8.1-38.7-12.1-58.1c-4-19.5-8.1-19.7-12.1-19.2c-4,0.6-8.1,2-12.1,2.1c-4,0-8.1-1.4-12.1-1.8s-8.1,0-12.1-0.1
		c-4,0-8.1-0.6-12.1-0.6c-4-0.1-8.1,0.3-12.1,0.6s-8.1,0.4-12.1,0.6s-8.1,0.4-12.1,0.2s-8.1-0.9-12.1-1.3c-4-0.4-8.1-0.4-12.1-0.5
		c-4,0-8.1,0-12.1,0s-8.1,0-14.1,0s-14.1,0-20.2,0s-10.1,0-14.1,0s-8.1,0-12.1,0s-8.1,0-12.1,0s-8.1,0-12.1,0s-8.1,0-12.1-0.1
		c-4,0-8.1-0.1-12.1-0.1c-4-0.1-8.1-0.1-12.1,0s-8.1,0.4-12.1,0.5s-8.1-0.1-12.1-0.7c-4-0.7-8.1-1.8-12.1-1.8s-8.1,1.1-12.1,1.7
		c-4,0.6-8.1,0.6-12.1,0.7c-4,0.1-8.1,0.2-12.1,0.2s-8.1-0.1-12.1-0.2c-4,0-8.1,0.1-12.1,0.1s-8.1-0.1-12.1-0.3s-8.1-0.4-12.1-0.4
		s-8.1,0.2-12.1,0.4s-8.1,0.3-12.1,0.3s-8.1-0.1-12.1-0.2c-4-0.1-8.1-0.1-12.1-0.1s-8.1-0.1-12.1-0.1s-8.1,0-12.1,0.2
		s-8.1,0.4-12.1,0.4s-8.1-0.1-12.1,0s-8.1,0.5-12.1,0.5s-8.1-0.5-12.1-0.7s-8.1-0.3-12.1-0.3s-8.1-0.2-12.1-0.1
		c-4,0-8.1,0.1-12.1,0.2s-8.1,0-12.1,0s-8.1,0-10.1,0H0V240z"/>
	<path class="st3" d="M0,240h2c2,0,6.1,0,10.1,0s8.1,0,12.1,0s8.1-0.2,12.1-0.2s8.1,0.1,12.1,0.1s8.1,0.1,12.1,0.3s8.1,0.7,12.1,0.7
		s8.1-0.4,12.1-0.5s8.1,0,12.1,0s8.1-0.3,12.1-0.4c4-0.2,8.1-0.2,12.1-0.2s8.1,0.1,12.1,0.1s8.1,0,12.1,0.1s8.1,0.2,12.1,0.2
		s8.1-0.1,12.1-0.3s8.1-0.4,12.1-0.4s8.1,0.2,12.1,0.4s8.1,0.3,12.1,0.3s8.1-0.1,12.1-0.1s8.1,0.2,12.1,0.2s8.1-0.1,12.1-0.2
		c4-0.1,8.1-0.1,12.1-0.7c4-0.6,8.1-1.7,12.1-1.7s8.1,1.2,12.1,1.8c4,0.7,8.1,0.8,12.1,0.7s8.1-0.4,12.1-0.5s8.1,0,12.1,0
		c4,0.1,8.1,0.1,12.1,0.1s8.1,0.1,12.1,0.1s8.1,0,12.1,0s8.1,0,12.1,0s8.1,0,12.1,0s8.1,0,14.1,0s14.1,0,20.2,0s10.1,0,14.1,0
		s8.1,0,12.1,0s8.1,0.1,12.1,0.5s8.1,1.1,12.1,1.3s8.1,0,12.1-0.2s8.1-0.3,12.1-0.6s8.1-0.6,12.1-0.6c4,0.1,8.1,0.6,12.1,0.6
		c4,0,8.1-0.4,12.1,0.1s8.1,1.9,12.1,1.8c4,0,8.1-1.5,12.1-2.1s8.1-0.3,12.1,19.2s8.1,58.1,12.1,58.1c4,0.1,8.1-38.4,12.1-56.1
		c4-17.6,8.1-14.4,12.1-13.1c4,1.3,8.1,0.8,12.1-0.9s8.1-4.7,12.1-3.2s8.1,7.4,12.1,7.4s8.1-5.9,12.1-7.7c4-1.7,8.1,0.7,12.1,0.6
		c4-0.1,8.1-2.8,12.1-3.4c4-0.5,8.1,1.1,12.1,1.3s8.1-0.9,12.1-1.1c4-0.2,8.1,0.6,12.1,1s8.1,0.5,12.1,0.4s8.1-0.5,12.1-3.2
		c4-2.8,8.1-7.9,12.1-5.7s8.1,11.9,12.1,14.4c4,2.6,8.1-2,12.1-4.6s8.1-3.3,12.1-3.3s8.1,0.7,12.1,11.6c4,11,8.1,32.2,12.1,37.2
		s8.1-6.3,12.1-14.9s8.1-14.7,12.1-18.8c4-4.1,8.1-6.3,12.1-8.5s8.1-4.5,10.1-5.6l2-1.1v32.2l-2,4.4c-2,4.4-6,13.1-10.1,19.2
		c-4,6.1-8.1,9.6-12.1,39.7s-8.1,86.8-12.1,108.1s-8.1,7.2-12.1-31.2s-8.1-101-12.1-133.1s-8.1-33.6-12.1-34.4
		c-4-0.7-8.1-0.7-12.1,3.7c-4,4.3-8.1,12.9-12.1,16.2s-8.1,1.4-12.1-2.4S730,253.4,726,251s-8.1-1.6-12.1-2.1s-8.1-2.3-12.1-3
		s-8.1-0.2-12.1,1.2s-8.1,3.6-12.1,3.8s-8.1-1.7-12.1-2.5s-8.1-0.6-12.1-1.8s-8.1-3.7-12.1-1.5s-8.1,9.2-12.1,9.4s-8.1-6.5-12.1-7.4
		s-8.1,4.1-12.1,5.7c-4,1.6-8.1-0.2-12.1-2.2s-8.1-4.3-12.1,14s-8.1,57.2-12.1,57.4c-4,0.2-8.1-38.2-12.1-58.4s-8.1-22-12.1-21.8
		s-8.1,2.4-12.1,3c-4,0.5-8.1-0.7-12.1-0.6s-8.1,1.3-12.1,0.8c-4-0.5-8.1-2.8-12.1-3.2s-8.1,1.2-12.1,2.9s-8.1,3.4-12.1,3.4
		s-8.1-1.8-12.1-3.4c-4-1.6-8.1-3.1-12.1-3.9c-4-0.8-8.1-0.9-12.1-0.9s-8.1,0-12.1,0s-8.1,0.1-14.1,0.1s-14.1,0-20.2-0.1
		c-6.1,0-10.1,0-14.1,0s-8.1,0-12.1,0s-8.1,0-12.1,0s-8.1,0-12.1,0s-8.1,0-12.1,0.1c-4,0-8.1,0.1-12.1,0.1c-4,0.1-8.1,0.1-12.1,0.2
		s-8.1,0.1-12.1,0.1c-4-0.1-8.1-0.3-12.1,0.2s-8.1,1.7-12.1,1.7s-8.1-1.2-12.1-1.7s-8.1-0.5-12.1-0.4s-8.1,0.2-12.1,0.1
		c-4-0.1-8.1-0.3-12.1-0.3s-8.1,0.1-12.1,0.2c-4,0-8.1-0.1-12.1,0.2s-8.1,1-12.1,1s-8.1-0.8-12.1-1.1s-8.1-0.1-12.1-0.1
		s-8.1-0.2-12.1-0.3s-8.1-0.1-12.1,0s-8.1,0.2-12.1,0.3c-4,0-8.1-0.1-12.1-0.1s-8.1,0.2-12.1,0.3s-8.1,0-12.1,0.1s-8.1,0.4-12.1,0.4
		c-4-0.1-8.1-0.5-12.1-0.7s-8.1-0.2-12.1-0.2s-8.1,0.2-12.1,0.2s-8.1-0.1-12.1-0.2c-4-0.1-8.1-0.1-12.1-0.1s-8.1,0-10.1,0L0,240
		L0,240z"/>
	<g transform="translate(0,480)">
		<path class="st4" d="M0.5,6V0.5h847V6"/>
		<g transform="translate(63.520833333333336,0)">
			<line class="st4" x1="0" y1="0" x2="0" y2="6"/>
			<text transform="matrix(1 0 0 1 -15.0122 16.1)" class="st5 st6">Jan 26</text>
		</g>
		<g transform="translate(148.22083333333333,0)">
			<line class="st4" x1="0" y1="0" x2="0" y2="6"/>
			<text transform="matrix(1 0 0 1 -15.5664 16.1)" class="st5 st6">Feb 02</text>
		</g>
		<g transform="translate(232.92083333333335,0)">
			<line class="st4" x1="0" y1="0" x2="0" y2="6"/>
			<text transform="matrix(1 0 0 1 -15.5664 16.1)" class="st5 st6">Feb 09</text>
		</g>
		<g transform="translate(317.62083333333334,0)">
			<line class="st4" x1="0" y1="0" x2="0" y2="6"/>
			<text transform="matrix(1 0 0 1 -15.5664 16.1)" class="st5 st6">Feb 16</text>
		</g>
		<g transform="translate(402.3208333333333,0)">
			<line class="st4" x1="0" y1="0" x2="0" y2="6"/>
			<text transform="matrix(1 0 0 1 -15.5664 16.1)" class="st5 st6">Feb 23</text>
		</g>
		<g transform="translate(487.0208333333333,0)">
			<line class="st4" x1="0" y1="0" x2="0" y2="6"/>
			<text transform="matrix(1 0 0 1 -13.8916 16.1)" class="st5 st6">March</text>
		</g>
		<g transform="translate(571.7208333333334,0)">
			<line class="st4" x1="0" y1="0" x2="0" y2="6"/>
			<text transform="matrix(1 0 0 1 -15.5615 16.1)" class="st5 st6">Mar 08</text>
		</g>
		<g transform="translate(655.9166666666667,0)">
			<line class="st4" x1="0" y1="0" x2="0" y2="6"/>
			<text transform="matrix(1 0 0 1 -15.5615 16.1)" class="st5 st6">Mar 15</text>
		</g>
		<g transform="translate(740.6166666666667,0)">
			<line class="st4" x1="0" y1="0" x2="0" y2="6"/>
			<text transform="matrix(1 0 0 1 -15.5615 16.1)" class="st5 st6">Mar 22</text>
		</g>
		<g transform="translate(825.3166666666666,0)">
			<line class="st4" x1="0" y1="0" x2="0" y2="6"/>
			<text transform="matrix(1 0 0 1 -15.5615 16.1)" class="st5 st6">Mar 29</text>
		</g>
	</g>
</g>
<rect x="329.7" y="91.2" class="st7" width="137.5" height="108.5"/>
<text transform="matrix(1 0 0 1 401.1975 99.8183)"><tspan x="0" y="0" class="st8 st9 st10">February 28</tspan><tspan x="-54.5" y="12" class="st11 st6">Whitmer activates Michigan’s </tspan><tspan x="-70.7" y="24" class="st11 st6">Emergency Operations Center to </tspan><tspan x="-52.5" y="36" class="st11 st6">coordinate the government’s </tspan><tspan x="-65.3" y="48" class="st11 st6">response to coronavirus. At this </tspan><tspan x="-67.5" y="60" class="st11 st6">point, Michigan has 0 confirmed </tspan><tspan x="38.3" y="72" class="st11 st6">cases. </tspan></text>
<rect x="571.6" y="80.1" class="st7" width="137.5" height="108.5"/>
<text transform="matrix(1 0 0 1 571.6063 88.6911)"><tspan x="0" y="0" class="st12 st9 st10">March 08</tspan><tspan x="0" y="12" class="st11 st6">Whitmer announces no-cost </tspan><tspan x="0" y="24" class="st11 st6">COVID-19 testinga nd treatment </tspan><tspan x="0" y="36" class="st11 st6">for Medicaid enrollees and most </tspan><tspan x="0" y="48" class="st11 st6">privately insured residents. </tspan><tspan x="0" y="60" class="st11 st6">Michigan still has zero confirmed </tspan><tspan x="0" y="72" class="st11 st6">cases.</tspan></text>
<rect x="603.1" y="270.9" class="st7" width="137.5" height="108.5"/>
<text transform="matrix(1 0 0 1 688.8127 279.4467)"><tspan x="0" y="0" class="st13 st9 st10">March 22</tspan><tspan x="-56.9" y="12" class="st11 st6">Whitmer advises Michigan </tspan><tspan x="-75.8" y="24" class="st11 st6">residents to continue to stay at </tspan><tspan x="-83.3" y="36" class="st11 st6">home, and defends her decision </tspan><tspan x="-66.2" y="48" class="st11 st6">not to issue a Stay-At-Home </tspan><tspan x="27.3" y="60" class="st11 st6">order.</tspan></text>
<rect x="656.3" y="19.9" class="st7" width="137.5" height="108.5"/>
<text transform="matrix(1 0 0 1 742.0005 28.4531)"><tspan x="0" y="0" class="st12 st9 st10">March 28</tspan><tspan x="-46.6" y="12" class="st11 st6">Whitmer’s responses to </tspan><tspan x="-64.5" y="24" class="st11 st6">POTUS’s March 26th twitter </tspan><tspan x="-73.5" y="36" class="st11 st6">attacks gain national attention.</tspan></text>
</svg>
